G04 #@! TF.GenerationSoftware,KiCad,Pcbnew,(5.1.4-0)*
G04 #@! TF.CreationDate,2021-09-04T15:45:49+08:00*
G04 #@! TF.ProjectId,SIM7080,53494d37-3038-4302-9e6b-696361645f70,V1.2*
G04 #@! TF.SameCoordinates,Original*
G04 #@! TF.FileFunction,Legend,Bot*
G04 #@! TF.FilePolarity,Positive*
%FSLAX46Y46*%
G04 Gerber Fmt 4.6, Leading zero omitted, Abs format (unit mm)*
G04 Created by KiCad (PCBNEW (5.1.4-0)) date 2021-09-04 15:45:49*
%MOMM*%
%LPD*%
G04 APERTURE LIST*
%ADD10C,0.120000*%
%ADD11C,0.150000*%
G04 APERTURE END LIST*
D10*
X166638095Y-110714285D02*
X165838095Y-110447619D01*
X166638095Y-110180952D01*
X166257142Y-109647619D02*
X166219047Y-109533333D01*
X166180952Y-109495238D01*
X166104761Y-109457142D01*
X165990476Y-109457142D01*
X165914285Y-109495238D01*
X165876190Y-109533333D01*
X165838095Y-109609523D01*
X165838095Y-109914285D01*
X166638095Y-109914285D01*
X166638095Y-109647619D01*
X166600000Y-109571428D01*
X166561904Y-109533333D01*
X166485714Y-109495238D01*
X166409523Y-109495238D01*
X166333333Y-109533333D01*
X166295238Y-109571428D01*
X166257142Y-109647619D01*
X166257142Y-109914285D01*
X166066666Y-109152380D02*
X166066666Y-108771428D01*
X165838095Y-109228571D02*
X166638095Y-108961904D01*
X165838095Y-108695238D01*
X166638095Y-108542857D02*
X166638095Y-108085714D01*
X165838095Y-108314285D02*
X166638095Y-108314285D01*
X148838095Y-110780952D02*
X148838095Y-110285714D01*
X148533333Y-110552380D01*
X148533333Y-110438095D01*
X148495238Y-110361904D01*
X148457142Y-110323809D01*
X148380952Y-110285714D01*
X148190476Y-110285714D01*
X148114285Y-110323809D01*
X148076190Y-110361904D01*
X148038095Y-110438095D01*
X148038095Y-110666666D01*
X148076190Y-110742857D01*
X148114285Y-110780952D01*
X148114285Y-109942857D02*
X148076190Y-109904761D01*
X148038095Y-109942857D01*
X148076190Y-109980952D01*
X148114285Y-109942857D01*
X148038095Y-109942857D01*
X148838095Y-109638095D02*
X148838095Y-109142857D01*
X148533333Y-109409523D01*
X148533333Y-109295238D01*
X148495238Y-109219047D01*
X148457142Y-109180952D01*
X148380952Y-109142857D01*
X148190476Y-109142857D01*
X148114285Y-109180952D01*
X148076190Y-109219047D01*
X148038095Y-109295238D01*
X148038095Y-109523809D01*
X148076190Y-109600000D01*
X148114285Y-109638095D01*
X148838095Y-108914285D02*
X148038095Y-108647619D01*
X148838095Y-108380952D01*
X167873809Y-85542857D02*
X167759523Y-85580952D01*
X167721428Y-85619047D01*
X167683333Y-85695238D01*
X167683333Y-85809523D01*
X167721428Y-85885714D01*
X167759523Y-85923809D01*
X167835714Y-85961904D01*
X168140476Y-85961904D01*
X168140476Y-85161904D01*
X167873809Y-85161904D01*
X167797619Y-85200000D01*
X167759523Y-85238095D01*
X167721428Y-85314285D01*
X167721428Y-85390476D01*
X167759523Y-85466666D01*
X167797619Y-85504761D01*
X167873809Y-85542857D01*
X168140476Y-85542857D01*
X167188095Y-85161904D02*
X167035714Y-85161904D01*
X166959523Y-85200000D01*
X166883333Y-85276190D01*
X166845238Y-85428571D01*
X166845238Y-85695238D01*
X166883333Y-85847619D01*
X166959523Y-85923809D01*
X167035714Y-85961904D01*
X167188095Y-85961904D01*
X167264285Y-85923809D01*
X167340476Y-85847619D01*
X167378571Y-85695238D01*
X167378571Y-85428571D01*
X167340476Y-85276190D01*
X167264285Y-85200000D01*
X167188095Y-85161904D01*
X166350000Y-85161904D02*
X166197619Y-85161904D01*
X166121428Y-85200000D01*
X166045238Y-85276190D01*
X166007142Y-85428571D01*
X166007142Y-85695238D01*
X166045238Y-85847619D01*
X166121428Y-85923809D01*
X166197619Y-85961904D01*
X166350000Y-85961904D01*
X166426190Y-85923809D01*
X166502380Y-85847619D01*
X166540476Y-85695238D01*
X166540476Y-85428571D01*
X166502380Y-85276190D01*
X166426190Y-85200000D01*
X166350000Y-85161904D01*
X165778571Y-85161904D02*
X165321428Y-85161904D01*
X165550000Y-85961904D02*
X165550000Y-85161904D01*
X165054761Y-85657142D02*
X164445238Y-85657142D01*
X163607142Y-85885714D02*
X163645238Y-85923809D01*
X163759523Y-85961904D01*
X163835714Y-85961904D01*
X163950000Y-85923809D01*
X164026190Y-85847619D01*
X164064285Y-85771428D01*
X164102380Y-85619047D01*
X164102380Y-85504761D01*
X164064285Y-85352380D01*
X164026190Y-85276190D01*
X163950000Y-85200000D01*
X163835714Y-85161904D01*
X163759523Y-85161904D01*
X163645238Y-85200000D01*
X163607142Y-85238095D01*
X162997619Y-85542857D02*
X163264285Y-85542857D01*
X163264285Y-85961904D02*
X163264285Y-85161904D01*
X162883333Y-85161904D01*
X162159523Y-85200000D02*
X162235714Y-85161904D01*
X162350000Y-85161904D01*
X162464285Y-85200000D01*
X162540476Y-85276190D01*
X162578571Y-85352380D01*
X162616666Y-85504761D01*
X162616666Y-85619047D01*
X162578571Y-85771428D01*
X162540476Y-85847619D01*
X162464285Y-85923809D01*
X162350000Y-85961904D01*
X162273809Y-85961904D01*
X162159523Y-85923809D01*
X162121428Y-85885714D01*
X162121428Y-85619047D01*
X162273809Y-85619047D01*
D11*
X154912023Y-76854761D02*
X154769166Y-76902380D01*
X154531071Y-76902380D01*
X154435833Y-76854761D01*
X154388214Y-76807142D01*
X154340595Y-76711904D01*
X154340595Y-76616666D01*
X154388214Y-76521428D01*
X154435833Y-76473809D01*
X154531071Y-76426190D01*
X154721547Y-76378571D01*
X154816785Y-76330952D01*
X154864404Y-76283333D01*
X154912023Y-76188095D01*
X154912023Y-76092857D01*
X154864404Y-75997619D01*
X154816785Y-75950000D01*
X154721547Y-75902380D01*
X154483452Y-75902380D01*
X154340595Y-75950000D01*
X153912023Y-76902380D02*
X153912023Y-75902380D01*
X153435833Y-76902380D02*
X153435833Y-75902380D01*
X153102500Y-76616666D01*
X152769166Y-75902380D01*
X152769166Y-76902380D01*
X152388214Y-75902380D02*
X151721547Y-75902380D01*
X152150119Y-76902380D01*
X151150119Y-75902380D02*
X151054880Y-75902380D01*
X150959642Y-75950000D01*
X150912023Y-75997619D01*
X150864404Y-76092857D01*
X150816785Y-76283333D01*
X150816785Y-76521428D01*
X150864404Y-76711904D01*
X150912023Y-76807142D01*
X150959642Y-76854761D01*
X151054880Y-76902380D01*
X151150119Y-76902380D01*
X151245357Y-76854761D01*
X151292976Y-76807142D01*
X151340595Y-76711904D01*
X151388214Y-76521428D01*
X151388214Y-76283333D01*
X151340595Y-76092857D01*
X151292976Y-75997619D01*
X151245357Y-75950000D01*
X151150119Y-75902380D01*
X150245357Y-76330952D02*
X150340595Y-76283333D01*
X150388214Y-76235714D01*
X150435833Y-76140476D01*
X150435833Y-76092857D01*
X150388214Y-75997619D01*
X150340595Y-75950000D01*
X150245357Y-75902380D01*
X150054880Y-75902380D01*
X149959642Y-75950000D01*
X149912023Y-75997619D01*
X149864404Y-76092857D01*
X149864404Y-76140476D01*
X149912023Y-76235714D01*
X149959642Y-76283333D01*
X150054880Y-76330952D01*
X150245357Y-76330952D01*
X150340595Y-76378571D01*
X150388214Y-76426190D01*
X150435833Y-76521428D01*
X150435833Y-76711904D01*
X150388214Y-76807142D01*
X150340595Y-76854761D01*
X150245357Y-76902380D01*
X150054880Y-76902380D01*
X149959642Y-76854761D01*
X149912023Y-76807142D01*
X149864404Y-76711904D01*
X149864404Y-76521428D01*
X149912023Y-76426190D01*
X149959642Y-76378571D01*
X150054880Y-76330952D01*
X149245357Y-75902380D02*
X149150119Y-75902380D01*
X149054880Y-75950000D01*
X149007261Y-75997619D01*
X148959642Y-76092857D01*
X148912023Y-76283333D01*
X148912023Y-76521428D01*
X148959642Y-76711904D01*
X149007261Y-76807142D01*
X149054880Y-76854761D01*
X149150119Y-76902380D01*
X149245357Y-76902380D01*
X149340595Y-76854761D01*
X149388214Y-76807142D01*
X149435833Y-76711904D01*
X149483452Y-76521428D01*
X149483452Y-76283333D01*
X149435833Y-76092857D01*
X149388214Y-75997619D01*
X149340595Y-75950000D01*
X149245357Y-75902380D01*
X147959642Y-75950000D02*
X148054880Y-75902380D01*
X148197738Y-75902380D01*
X148340595Y-75950000D01*
X148435833Y-76045238D01*
X148483452Y-76140476D01*
X148531071Y-76330952D01*
X148531071Y-76473809D01*
X148483452Y-76664285D01*
X148435833Y-76759523D01*
X148340595Y-76854761D01*
X148197738Y-76902380D01*
X148102500Y-76902380D01*
X147959642Y-76854761D01*
X147912023Y-76807142D01*
X147912023Y-76473809D01*
X148102500Y-76473809D01*
X146721547Y-76902380D02*
X146721547Y-75902380D01*
X146150119Y-76902380D01*
X146150119Y-75902380D01*
X145340595Y-76378571D02*
X145197738Y-76426190D01*
X145150119Y-76473809D01*
X145102500Y-76569047D01*
X145102500Y-76711904D01*
X145150119Y-76807142D01*
X145197738Y-76854761D01*
X145292976Y-76902380D01*
X145673928Y-76902380D01*
X145673928Y-75902380D01*
X145340595Y-75902380D01*
X145245357Y-75950000D01*
X145197738Y-75997619D01*
X145150119Y-76092857D01*
X145150119Y-76188095D01*
X145197738Y-76283333D01*
X145245357Y-76330952D01*
X145340595Y-76378571D01*
X145673928Y-76378571D01*
X144673928Y-76521428D02*
X143912023Y-76521428D01*
X143435833Y-76902380D02*
X143435833Y-75902380D01*
X142816785Y-76902380D02*
X142912023Y-76854761D01*
X142959642Y-76807142D01*
X143007261Y-76711904D01*
X143007261Y-76426190D01*
X142959642Y-76330952D01*
X142912023Y-76283333D01*
X142816785Y-76235714D01*
X142673928Y-76235714D01*
X142578690Y-76283333D01*
X142531071Y-76330952D01*
X142483452Y-76426190D01*
X142483452Y-76711904D01*
X142531071Y-76807142D01*
X142578690Y-76854761D01*
X142673928Y-76902380D01*
X142816785Y-76902380D01*
X142197738Y-75902380D02*
X141626309Y-75902380D01*
X141912023Y-76902380D02*
X141912023Y-75902380D01*
X155007261Y-77552380D02*
X154435833Y-77552380D01*
X154721547Y-78552380D02*
X154721547Y-77552380D01*
X153721547Y-78504761D02*
X153816785Y-78552380D01*
X154007261Y-78552380D01*
X154102500Y-78504761D01*
X154150119Y-78409523D01*
X154150119Y-78028571D01*
X154102500Y-77933333D01*
X154007261Y-77885714D01*
X153816785Y-77885714D01*
X153721547Y-77933333D01*
X153673928Y-78028571D01*
X153673928Y-78123809D01*
X154150119Y-78219047D01*
X152816785Y-78504761D02*
X152912023Y-78552380D01*
X153102500Y-78552380D01*
X153197738Y-78504761D01*
X153245357Y-78457142D01*
X153292976Y-78361904D01*
X153292976Y-78076190D01*
X153245357Y-77980952D01*
X153197738Y-77933333D01*
X153102500Y-77885714D01*
X152912023Y-77885714D01*
X152816785Y-77933333D01*
X152388214Y-78552380D02*
X152388214Y-77552380D01*
X151959642Y-78552380D02*
X151959642Y-78028571D01*
X152007261Y-77933333D01*
X152102500Y-77885714D01*
X152245357Y-77885714D01*
X152340595Y-77933333D01*
X152388214Y-77980952D01*
X151531071Y-78504761D02*
X151388214Y-78552380D01*
X151150119Y-78552380D01*
X151054880Y-78504761D01*
X151007261Y-78457142D01*
X150959642Y-78361904D01*
X150959642Y-78266666D01*
X151007261Y-78171428D01*
X151054880Y-78123809D01*
X151150119Y-78076190D01*
X151340595Y-78028571D01*
X151435833Y-77980952D01*
X151483452Y-77933333D01*
X151531071Y-77838095D01*
X151531071Y-77742857D01*
X151483452Y-77647619D01*
X151435833Y-77600000D01*
X151340595Y-77552380D01*
X151102500Y-77552380D01*
X150959642Y-77600000D01*
X150673928Y-77885714D02*
X150292976Y-77885714D01*
X150531071Y-77552380D02*
X150531071Y-78409523D01*
X150483452Y-78504761D01*
X150388214Y-78552380D01*
X150292976Y-78552380D01*
X149531071Y-77885714D02*
X149531071Y-78552380D01*
X149959642Y-77885714D02*
X149959642Y-78409523D01*
X149912023Y-78504761D01*
X149816785Y-78552380D01*
X149673928Y-78552380D01*
X149578690Y-78504761D01*
X149531071Y-78457142D01*
X148626309Y-78552380D02*
X148626309Y-77552380D01*
X148626309Y-78504761D02*
X148721547Y-78552380D01*
X148912023Y-78552380D01*
X149007261Y-78504761D01*
X149054880Y-78457142D01*
X149102500Y-78361904D01*
X149102500Y-78076190D01*
X149054880Y-77980952D01*
X149007261Y-77933333D01*
X148912023Y-77885714D01*
X148721547Y-77885714D01*
X148626309Y-77933333D01*
X148150119Y-78552380D02*
X148150119Y-77885714D01*
X148150119Y-77552380D02*
X148197738Y-77600000D01*
X148150119Y-77647619D01*
X148102500Y-77600000D01*
X148150119Y-77552380D01*
X148150119Y-77647619D01*
X147531071Y-78552380D02*
X147626309Y-78504761D01*
X147673928Y-78457142D01*
X147721547Y-78361904D01*
X147721547Y-78076190D01*
X147673928Y-77980952D01*
X147626309Y-77933333D01*
X147531071Y-77885714D01*
X147388214Y-77885714D01*
X147292976Y-77933333D01*
X147245357Y-77980952D01*
X147197738Y-78076190D01*
X147197738Y-78361904D01*
X147245357Y-78457142D01*
X147292976Y-78504761D01*
X147388214Y-78552380D01*
X147531071Y-78552380D01*
X146769166Y-78457142D02*
X146721547Y-78504761D01*
X146769166Y-78552380D01*
X146816785Y-78504761D01*
X146769166Y-78457142D01*
X146769166Y-78552380D01*
X146292976Y-78552380D02*
X146292976Y-77552380D01*
X146054880Y-77552380D01*
X145912023Y-77600000D01*
X145816785Y-77695238D01*
X145769166Y-77790476D01*
X145721547Y-77980952D01*
X145721547Y-78123809D01*
X145769166Y-78314285D01*
X145816785Y-78409523D01*
X145912023Y-78504761D01*
X146054880Y-78552380D01*
X146292976Y-78552380D01*
X144912023Y-78504761D02*
X145007261Y-78552380D01*
X145197738Y-78552380D01*
X145292976Y-78504761D01*
X145340595Y-78409523D01*
X145340595Y-78028571D01*
X145292976Y-77933333D01*
X145197738Y-77885714D01*
X145007261Y-77885714D01*
X144912023Y-77933333D01*
X144864404Y-78028571D01*
X144864404Y-78123809D01*
X145340595Y-78219047D01*
X144483452Y-78504761D02*
X144388214Y-78552380D01*
X144197738Y-78552380D01*
X144102500Y-78504761D01*
X144054880Y-78409523D01*
X144054880Y-78361904D01*
X144102500Y-78266666D01*
X144197738Y-78219047D01*
X144340595Y-78219047D01*
X144435833Y-78171428D01*
X144483452Y-78076190D01*
X144483452Y-78028571D01*
X144435833Y-77933333D01*
X144340595Y-77885714D01*
X144197738Y-77885714D01*
X144102500Y-77933333D01*
X143626309Y-78552380D02*
X143626309Y-77885714D01*
X143626309Y-77552380D02*
X143673928Y-77600000D01*
X143626309Y-77647619D01*
X143578690Y-77600000D01*
X143626309Y-77552380D01*
X143626309Y-77647619D01*
X142721547Y-77885714D02*
X142721547Y-78695238D01*
X142769166Y-78790476D01*
X142816785Y-78838095D01*
X142912023Y-78885714D01*
X143054880Y-78885714D01*
X143150119Y-78838095D01*
X142721547Y-78504761D02*
X142816785Y-78552380D01*
X143007261Y-78552380D01*
X143102500Y-78504761D01*
X143150119Y-78457142D01*
X143197738Y-78361904D01*
X143197738Y-78076190D01*
X143150119Y-77980952D01*
X143102500Y-77933333D01*
X143007261Y-77885714D01*
X142816785Y-77885714D01*
X142721547Y-77933333D01*
X142245357Y-77885714D02*
X142245357Y-78552380D01*
X142245357Y-77980952D02*
X142197738Y-77933333D01*
X142102500Y-77885714D01*
X141959642Y-77885714D01*
X141864404Y-77933333D01*
X141816785Y-78028571D01*
X141816785Y-78552380D01*
X155007261Y-79202380D02*
X154673928Y-80202380D01*
X154340595Y-79202380D01*
X153626309Y-80154761D02*
X153721547Y-80202380D01*
X153912023Y-80202380D01*
X154007261Y-80154761D01*
X154054880Y-80059523D01*
X154054880Y-79678571D01*
X154007261Y-79583333D01*
X153912023Y-79535714D01*
X153721547Y-79535714D01*
X153626309Y-79583333D01*
X153578690Y-79678571D01*
X153578690Y-79773809D01*
X154054880Y-79869047D01*
X153150119Y-80202380D02*
X153150119Y-79535714D01*
X153150119Y-79726190D02*
X153102500Y-79630952D01*
X153054880Y-79583333D01*
X152959642Y-79535714D01*
X152864404Y-79535714D01*
X152578690Y-80154761D02*
X152483452Y-80202380D01*
X152292976Y-80202380D01*
X152197738Y-80154761D01*
X152150119Y-80059523D01*
X152150119Y-80011904D01*
X152197738Y-79916666D01*
X152292976Y-79869047D01*
X152435833Y-79869047D01*
X152531071Y-79821428D01*
X152578690Y-79726190D01*
X152578690Y-79678571D01*
X152531071Y-79583333D01*
X152435833Y-79535714D01*
X152292976Y-79535714D01*
X152197738Y-79583333D01*
X151721547Y-80202380D02*
X151721547Y-79535714D01*
X151721547Y-79202380D02*
X151769166Y-79250000D01*
X151721547Y-79297619D01*
X151673928Y-79250000D01*
X151721547Y-79202380D01*
X151721547Y-79297619D01*
X151102500Y-80202380D02*
X151197738Y-80154761D01*
X151245357Y-80107142D01*
X151292976Y-80011904D01*
X151292976Y-79726190D01*
X151245357Y-79630952D01*
X151197738Y-79583333D01*
X151102500Y-79535714D01*
X150959642Y-79535714D01*
X150864404Y-79583333D01*
X150816785Y-79630952D01*
X150769166Y-79726190D01*
X150769166Y-80011904D01*
X150816785Y-80107142D01*
X150864404Y-80154761D01*
X150959642Y-80202380D01*
X151102500Y-80202380D01*
X150340595Y-79535714D02*
X150340595Y-80202380D01*
X150340595Y-79630952D02*
X150292976Y-79583333D01*
X150197738Y-79535714D01*
X150054880Y-79535714D01*
X149959642Y-79583333D01*
X149912023Y-79678571D01*
X149912023Y-80202380D01*
X148150119Y-80202380D02*
X148721547Y-80202380D01*
X148435833Y-80202380D02*
X148435833Y-79202380D01*
X148531071Y-79345238D01*
X148626309Y-79440476D01*
X148721547Y-79488095D01*
X147721547Y-80107142D02*
X147673928Y-80154761D01*
X147721547Y-80202380D01*
X147769166Y-80154761D01*
X147721547Y-80107142D01*
X147721547Y-80202380D01*
X147292976Y-79297619D02*
X147245357Y-79250000D01*
X147150119Y-79202380D01*
X146912023Y-79202380D01*
X146816785Y-79250000D01*
X146769166Y-79297619D01*
X146721547Y-79392857D01*
X146721547Y-79488095D01*
X146769166Y-79630952D01*
X147340595Y-80202380D01*
X146721547Y-80202380D01*
D10*
X143800000Y-110209523D02*
X143838095Y-110285714D01*
X143838095Y-110400000D01*
X143800000Y-110514285D01*
X143723809Y-110590476D01*
X143647619Y-110628571D01*
X143495238Y-110666666D01*
X143380952Y-110666666D01*
X143228571Y-110628571D01*
X143152380Y-110590476D01*
X143076190Y-110514285D01*
X143038095Y-110400000D01*
X143038095Y-110323809D01*
X143076190Y-110209523D01*
X143114285Y-110171428D01*
X143380952Y-110171428D01*
X143380952Y-110323809D01*
X143038095Y-109828571D02*
X143838095Y-109828571D01*
X143038095Y-109371428D01*
X143838095Y-109371428D01*
X143038095Y-108990476D02*
X143838095Y-108990476D01*
X143838095Y-108800000D01*
X143800000Y-108685714D01*
X143723809Y-108609523D01*
X143647619Y-108571428D01*
X143495238Y-108533333D01*
X143380952Y-108533333D01*
X143228571Y-108571428D01*
X143152380Y-108609523D01*
X143076190Y-108685714D01*
X143038095Y-108800000D01*
X143038095Y-108990476D01*
X145966666Y-110647619D02*
X145966666Y-110266666D01*
X145738095Y-110723809D02*
X146538095Y-110457142D01*
X145738095Y-110190476D01*
X145738095Y-109923809D02*
X146538095Y-109923809D01*
X145738095Y-109466666D01*
X146538095Y-109466666D01*
X146538095Y-109200000D02*
X146538095Y-108742857D01*
X145738095Y-108971428D02*
X146538095Y-108971428D01*
X145661904Y-108666666D02*
X145661904Y-108057142D01*
X145814285Y-107409523D02*
X145776190Y-107447619D01*
X145738095Y-107561904D01*
X145738095Y-107638095D01*
X145776190Y-107752380D01*
X145852380Y-107828571D01*
X145928571Y-107866666D01*
X146080952Y-107904761D01*
X146195238Y-107904761D01*
X146347619Y-107866666D01*
X146423809Y-107828571D01*
X146500000Y-107752380D01*
X146538095Y-107638095D01*
X146538095Y-107561904D01*
X146500000Y-107447619D01*
X146461904Y-107409523D01*
X146538095Y-107180952D02*
X146538095Y-106723809D01*
X145738095Y-106952380D02*
X146538095Y-106952380D01*
X145738095Y-106000000D02*
X146119047Y-106266666D01*
X145738095Y-106457142D02*
X146538095Y-106457142D01*
X146538095Y-106152380D01*
X146500000Y-106076190D01*
X146461904Y-106038095D01*
X146385714Y-106000000D01*
X146271428Y-106000000D01*
X146195238Y-106038095D01*
X146157142Y-106076190D01*
X146119047Y-106152380D01*
X146119047Y-106457142D01*
X145738095Y-105276190D02*
X145738095Y-105657142D01*
X146538095Y-105657142D01*
X150738095Y-110671428D02*
X151538095Y-110671428D01*
X151538095Y-110366666D01*
X151500000Y-110290476D01*
X151461904Y-110252380D01*
X151385714Y-110214285D01*
X151271428Y-110214285D01*
X151195238Y-110252380D01*
X151157142Y-110290476D01*
X151119047Y-110366666D01*
X151119047Y-110671428D01*
X151538095Y-109947619D02*
X150738095Y-109757142D01*
X151309523Y-109604761D01*
X150738095Y-109452380D01*
X151538095Y-109261904D01*
X150738095Y-108500000D02*
X151119047Y-108766666D01*
X150738095Y-108957142D02*
X151538095Y-108957142D01*
X151538095Y-108652380D01*
X151500000Y-108576190D01*
X151461904Y-108538095D01*
X151385714Y-108500000D01*
X151271428Y-108500000D01*
X151195238Y-108538095D01*
X151157142Y-108576190D01*
X151119047Y-108652380D01*
X151119047Y-108957142D01*
X150738095Y-108157142D02*
X151538095Y-108157142D01*
X150738095Y-107700000D02*
X151195238Y-108042857D01*
X151538095Y-107700000D02*
X151080952Y-108157142D01*
X151157142Y-107357142D02*
X151157142Y-107090476D01*
X150738095Y-106976190D02*
X150738095Y-107357142D01*
X151538095Y-107357142D01*
X151538095Y-106976190D01*
X151119047Y-106480952D02*
X150738095Y-106480952D01*
X151538095Y-106747619D02*
X151119047Y-106480952D01*
X151538095Y-106214285D01*
X154038095Y-110709523D02*
X154038095Y-110252380D01*
X153238095Y-110480952D02*
X154038095Y-110480952D01*
X154038095Y-110061904D02*
X153238095Y-109528571D01*
X154038095Y-109528571D02*
X153238095Y-110061904D01*
X153238095Y-109223809D02*
X154038095Y-109223809D01*
X154038095Y-109033333D01*
X154000000Y-108919047D01*
X153923809Y-108842857D01*
X153847619Y-108804761D01*
X153695238Y-108766666D01*
X153580952Y-108766666D01*
X153428571Y-108804761D01*
X153352380Y-108842857D01*
X153276190Y-108919047D01*
X153238095Y-109033333D01*
X153238095Y-109223809D01*
X155738095Y-110233333D02*
X156119047Y-110500000D01*
X155738095Y-110690476D02*
X156538095Y-110690476D01*
X156538095Y-110385714D01*
X156500000Y-110309523D01*
X156461904Y-110271428D01*
X156385714Y-110233333D01*
X156271428Y-110233333D01*
X156195238Y-110271428D01*
X156157142Y-110309523D01*
X156119047Y-110385714D01*
X156119047Y-110690476D01*
X156538095Y-109966666D02*
X155738095Y-109433333D01*
X156538095Y-109433333D02*
X155738095Y-109966666D01*
X155738095Y-109128571D02*
X156538095Y-109128571D01*
X156538095Y-108938095D01*
X156500000Y-108823809D01*
X156423809Y-108747619D01*
X156347619Y-108709523D01*
X156195238Y-108671428D01*
X156080952Y-108671428D01*
X155928571Y-108709523D01*
X155852380Y-108747619D01*
X155776190Y-108823809D01*
X155738095Y-108938095D01*
X155738095Y-109128571D01*
X158238095Y-110614285D02*
X159038095Y-110614285D01*
X159038095Y-110423809D01*
X159000000Y-110309523D01*
X158923809Y-110233333D01*
X158847619Y-110195238D01*
X158695238Y-110157142D01*
X158580952Y-110157142D01*
X158428571Y-110195238D01*
X158352380Y-110233333D01*
X158276190Y-110309523D01*
X158238095Y-110423809D01*
X158238095Y-110614285D01*
X159038095Y-109928571D02*
X159038095Y-109471428D01*
X158238095Y-109700000D02*
X159038095Y-109700000D01*
X158238095Y-108747619D02*
X158619047Y-109014285D01*
X158238095Y-109204761D02*
X159038095Y-109204761D01*
X159038095Y-108900000D01*
X159000000Y-108823809D01*
X158961904Y-108785714D01*
X158885714Y-108747619D01*
X158771428Y-108747619D01*
X158695238Y-108785714D01*
X158657142Y-108823809D01*
X158619047Y-108900000D01*
X158619047Y-109204761D01*
X160838095Y-110142857D02*
X161219047Y-110409523D01*
X160838095Y-110600000D02*
X161638095Y-110600000D01*
X161638095Y-110295238D01*
X161600000Y-110219047D01*
X161561904Y-110180952D01*
X161485714Y-110142857D01*
X161371428Y-110142857D01*
X161295238Y-110180952D01*
X161257142Y-110219047D01*
X161219047Y-110295238D01*
X161219047Y-110600000D01*
X160838095Y-109800000D02*
X161638095Y-109800000D01*
X164138095Y-110676190D02*
X163338095Y-110409523D01*
X164138095Y-110142857D01*
X163338095Y-109876190D02*
X164138095Y-109876190D01*
X164138095Y-109342857D02*
X164138095Y-109190476D01*
X164100000Y-109114285D01*
X164023809Y-109038095D01*
X163871428Y-109000000D01*
X163604761Y-109000000D01*
X163452380Y-109038095D01*
X163376190Y-109114285D01*
X163338095Y-109190476D01*
X163338095Y-109342857D01*
X163376190Y-109419047D01*
X163452380Y-109495238D01*
X163604761Y-109533333D01*
X163871428Y-109533333D01*
X164023809Y-109495238D01*
X164100000Y-109419047D01*
X164138095Y-109342857D01*
D11*
X158900000Y-97800000D02*
X160700000Y-97800000D01*
X160700000Y-97800000D02*
X160700000Y-94700000D01*
X159900000Y-83800000D02*
X150300000Y-83800000D01*
X149500000Y-92300000D02*
X149500000Y-85800000D01*
X160700000Y-92300000D02*
X160700000Y-85800000D01*
X149500000Y-97800000D02*
X149500000Y-94700000D01*
X149500000Y-97800000D02*
X151300000Y-97800000D01*
X151450000Y-94450000D02*
X158700000Y-94450000D01*
X158700000Y-94450000D02*
X158950000Y-93850000D01*
X158950000Y-93850000D02*
X159600000Y-93850000D01*
X151450000Y-94400000D02*
X151200000Y-93850000D01*
X151200000Y-93850000D02*
X150450000Y-93800000D01*
X155500000Y-87150000D02*
G75*
G03X155500000Y-87150000I-400000J0D01*
G01*
X157900000Y-87150000D02*
G75*
G03X157900000Y-87150000I-400000J0D01*
G01*
X153100000Y-87150000D02*
G75*
G03X153100000Y-87150000I-400000J0D01*
G01*
X152300000Y-92250000D02*
X157900000Y-92250000D01*
X157900000Y-92250000D02*
X157900000Y-91800000D01*
X157900000Y-91800000D02*
X152300000Y-91800000D01*
X152300000Y-91800000D02*
X152300000Y-92250000D01*
X152850000Y-89250000D02*
G75*
G03X152850000Y-90350000I0J-550000D01*
G01*
X152850000Y-90350000D02*
X157350000Y-90350000D01*
X157350000Y-90350000D02*
G75*
G03X157350000Y-89250000I0J550000D01*
G01*
X152850000Y-89250000D02*
X157350000Y-89250000D01*
D10*
X163500000Y-84900000D02*
X165500000Y-84900000D01*
X163500000Y-82100000D02*
X163500000Y-84900000D01*
X165500000Y-82100000D02*
X163500000Y-82100000D01*
X165500000Y-84900000D02*
X165500000Y-82100000D01*
M02*
