G04 #@! TF.GenerationSoftware,KiCad,Pcbnew,(5.1.4-0)*
G04 #@! TF.CreationDate,2021-09-04T15:45:48+08:00*
G04 #@! TF.ProjectId,SIM7080,53494d37-3038-4302-9e6b-696361645f70,V1.2*
G04 #@! TF.SameCoordinates,Original*
G04 #@! TF.FileFunction,Copper,L2,Inr*
G04 #@! TF.FilePolarity,Positive*
%FSLAX46Y46*%
G04 Gerber Fmt 4.6, Leading zero omitted, Abs format (unit mm)*
G04 Created by KiCad (PCBNEW (5.1.4-0)) date 2021-09-04 15:45:48*
%MOMM*%
%LPD*%
G04 APERTURE LIST*
%ADD10O,1.700000X1.000000*%
%ADD11C,0.400000*%
%ADD12C,0.100000*%
%ADD13C,1.200000*%
%ADD14O,1.750000X1.200000*%
%ADD15R,1.700000X1.700000*%
%ADD16O,1.700000X1.700000*%
%ADD17C,0.800000*%
%ADD18C,0.254000*%
G04 APERTURE END LIST*
D10*
X172000000Y-76175000D03*
X172000000Y-81825000D03*
D11*
X169650000Y-81000000D03*
X169650000Y-77000000D03*
D12*
G36*
X167949505Y-106201204D02*
G01*
X167973773Y-106204804D01*
X167997572Y-106210765D01*
X168020671Y-106219030D01*
X168042850Y-106229520D01*
X168063893Y-106242132D01*
X168083599Y-106256747D01*
X168101777Y-106273223D01*
X168118253Y-106291401D01*
X168132868Y-106311107D01*
X168145480Y-106332150D01*
X168155970Y-106354329D01*
X168164235Y-106377428D01*
X168170196Y-106401227D01*
X168173796Y-106425495D01*
X168175000Y-106449999D01*
X168175000Y-107150001D01*
X168173796Y-107174505D01*
X168170196Y-107198773D01*
X168164235Y-107222572D01*
X168155970Y-107245671D01*
X168145480Y-107267850D01*
X168132868Y-107288893D01*
X168118253Y-107308599D01*
X168101777Y-107326777D01*
X168083599Y-107343253D01*
X168063893Y-107357868D01*
X168042850Y-107370480D01*
X168020671Y-107380970D01*
X167997572Y-107389235D01*
X167973773Y-107395196D01*
X167949505Y-107398796D01*
X167925001Y-107400000D01*
X166674999Y-107400000D01*
X166650495Y-107398796D01*
X166626227Y-107395196D01*
X166602428Y-107389235D01*
X166579329Y-107380970D01*
X166557150Y-107370480D01*
X166536107Y-107357868D01*
X166516401Y-107343253D01*
X166498223Y-107326777D01*
X166481747Y-107308599D01*
X166467132Y-107288893D01*
X166454520Y-107267850D01*
X166444030Y-107245671D01*
X166435765Y-107222572D01*
X166429804Y-107198773D01*
X166426204Y-107174505D01*
X166425000Y-107150001D01*
X166425000Y-106449999D01*
X166426204Y-106425495D01*
X166429804Y-106401227D01*
X166435765Y-106377428D01*
X166444030Y-106354329D01*
X166454520Y-106332150D01*
X166467132Y-106311107D01*
X166481747Y-106291401D01*
X166498223Y-106273223D01*
X166516401Y-106256747D01*
X166536107Y-106242132D01*
X166557150Y-106229520D01*
X166579329Y-106219030D01*
X166602428Y-106210765D01*
X166626227Y-106204804D01*
X166650495Y-106201204D01*
X166674999Y-106200000D01*
X167925001Y-106200000D01*
X167949505Y-106201204D01*
X167949505Y-106201204D01*
G37*
D13*
X167300000Y-106800000D03*
D14*
X167300000Y-104800000D03*
D15*
X166250000Y-112500000D03*
D16*
X163710000Y-112500000D03*
X161170000Y-112500000D03*
X158630000Y-112500000D03*
X156090000Y-112500000D03*
X153550000Y-112500000D03*
X151010000Y-112500000D03*
X148470000Y-112500000D03*
X145930000Y-112500000D03*
X143390000Y-112500000D03*
D17*
X160200000Y-87050000D03*
X156950000Y-87100000D03*
X153850000Y-89900000D03*
X140500000Y-92200000D03*
X138300000Y-107200000D03*
X144100000Y-108800000D03*
X171700000Y-90000000D03*
X162300000Y-78700000D03*
X167850000Y-76700000D03*
X171000000Y-78900000D03*
X151500000Y-104350000D03*
X168150000Y-88500000D03*
X169700000Y-84300000D03*
X140550000Y-95950000D03*
X146700000Y-97650000D03*
X148800000Y-95450000D03*
X149900000Y-96800000D03*
X148000000Y-98850000D03*
X146700000Y-99150000D03*
X141400000Y-99300000D03*
X141400000Y-97550000D03*
X139750000Y-96950000D03*
X139800000Y-99900000D03*
X147400000Y-105900000D03*
X153500000Y-87000000D03*
X153500000Y-92800000D03*
X155700000Y-92800000D03*
X145550000Y-97200000D03*
X145550000Y-99600000D03*
X143450000Y-97200000D03*
X153250000Y-76550000D03*
X153250000Y-78300000D03*
X150700000Y-78400000D03*
X150700000Y-76550000D03*
X150650000Y-74800000D03*
X149700000Y-73850000D03*
X154300000Y-73850000D03*
X154850000Y-71850000D03*
X149100000Y-71950000D03*
X150700000Y-80300000D03*
X155000000Y-80350000D03*
X171000000Y-71000000D03*
X173000000Y-73000000D03*
X166000000Y-71000000D03*
X161000000Y-71000000D03*
X156000000Y-71000000D03*
X148000000Y-71000000D03*
X143000000Y-71000000D03*
X139000000Y-71000000D03*
X137000000Y-79000000D03*
X139000000Y-79000000D03*
X143000000Y-79000000D03*
X143000000Y-76000000D03*
X145500000Y-73500000D03*
X145500000Y-77500000D03*
X148000000Y-79000000D03*
X148000000Y-76000000D03*
X156000000Y-76000000D03*
X161000000Y-76000000D03*
X141000000Y-77500000D03*
X158500000Y-73500000D03*
X158500000Y-78000000D03*
X156000000Y-79500000D03*
X141000000Y-82000000D03*
X148000000Y-83500000D03*
X144000000Y-88500000D03*
X173000000Y-107000000D03*
X171000000Y-116000000D03*
X166000000Y-116000000D03*
X161000000Y-116000000D03*
X156000000Y-116000000D03*
X151000000Y-116000000D03*
X146000000Y-116000000D03*
X141000000Y-116000000D03*
X141000000Y-112500000D03*
X168500000Y-112500000D03*
X168500000Y-109000000D03*
X171000000Y-109000000D03*
X170000000Y-103500000D03*
X154000000Y-107000000D03*
X140500000Y-104500000D03*
X166000000Y-97000000D03*
X150250000Y-99350000D03*
X146350000Y-92000000D03*
X158350000Y-100650000D03*
X167400000Y-84500000D03*
X144800000Y-94850000D03*
X148050000Y-110650000D03*
X146200000Y-81800000D03*
X146150000Y-89250000D03*
X164600000Y-92150000D03*
X148150000Y-109550000D03*
X166150000Y-81600000D03*
X164500000Y-86550000D03*
X136500000Y-89400000D03*
X137200000Y-83000000D03*
X138700000Y-83000000D03*
X164900000Y-106600000D03*
X167650000Y-99150000D03*
X145650000Y-101450000D03*
X164650000Y-88750000D03*
X158337500Y-108637500D03*
X164650000Y-91000000D03*
X149100000Y-101450000D03*
X164600000Y-89900000D03*
X147350000Y-101400000D03*
X159500000Y-79750000D03*
X162300000Y-79750000D03*
D18*
G36*
X170643248Y-70751356D02*
G01*
X171261998Y-70938168D01*
X171832675Y-71241602D01*
X172333548Y-71650104D01*
X172745536Y-72148112D01*
X173052948Y-72716658D01*
X173244075Y-73334090D01*
X173315000Y-74008894D01*
X173315000Y-75572651D01*
X173298284Y-75541377D01*
X173156449Y-75368551D01*
X172983623Y-75226716D01*
X172786447Y-75121324D01*
X172572499Y-75056423D01*
X172405752Y-75040000D01*
X171594248Y-75040000D01*
X171427501Y-75056423D01*
X171213553Y-75121324D01*
X171016377Y-75226716D01*
X170843551Y-75368551D01*
X170701716Y-75541377D01*
X170596324Y-75738553D01*
X170531423Y-75952501D01*
X170509509Y-76175000D01*
X170531423Y-76397499D01*
X170596324Y-76611447D01*
X170701716Y-76808623D01*
X170843551Y-76981449D01*
X171016377Y-77123284D01*
X171213553Y-77228676D01*
X171427501Y-77293577D01*
X171594248Y-77310000D01*
X172405752Y-77310000D01*
X172572499Y-77293577D01*
X172786447Y-77228676D01*
X172983623Y-77123284D01*
X173156449Y-76981449D01*
X173298284Y-76808623D01*
X173315000Y-76777349D01*
X173315000Y-81222651D01*
X173298284Y-81191377D01*
X173156449Y-81018551D01*
X172983623Y-80876716D01*
X172786447Y-80771324D01*
X172572499Y-80706423D01*
X172405752Y-80690000D01*
X171594248Y-80690000D01*
X171427501Y-80706423D01*
X171213553Y-80771324D01*
X171016377Y-80876716D01*
X170843551Y-81018551D01*
X170701716Y-81191377D01*
X170596324Y-81388553D01*
X170531423Y-81602501D01*
X170509509Y-81825000D01*
X170531423Y-82047499D01*
X170596324Y-82261447D01*
X170701716Y-82458623D01*
X170843551Y-82631449D01*
X171016377Y-82773284D01*
X171213553Y-82878676D01*
X171427501Y-82943577D01*
X171594248Y-82960000D01*
X172405752Y-82960000D01*
X172572499Y-82943577D01*
X172786447Y-82878676D01*
X172983623Y-82773284D01*
X173156449Y-82631449D01*
X173298284Y-82458623D01*
X173315000Y-82427349D01*
X173315001Y-112966486D01*
X173248644Y-113643248D01*
X173061833Y-114261996D01*
X172758398Y-114832675D01*
X172349896Y-115333548D01*
X171851888Y-115745536D01*
X171283342Y-116052948D01*
X170665909Y-116244075D01*
X169991107Y-116315000D01*
X139533504Y-116315000D01*
X138856752Y-116248644D01*
X138238004Y-116061833D01*
X137667325Y-115758398D01*
X137166452Y-115349896D01*
X136754464Y-114851888D01*
X136447052Y-114283342D01*
X136323695Y-113884838D01*
X137294767Y-113884838D01*
X137432724Y-114185044D01*
X137781967Y-114360882D01*
X138158804Y-114465207D01*
X138548753Y-114494009D01*
X138936828Y-114446184D01*
X139308116Y-114323568D01*
X139567276Y-114185044D01*
X139705233Y-113884838D01*
X138500000Y-112679605D01*
X137294767Y-113884838D01*
X136323695Y-113884838D01*
X136255925Y-113665909D01*
X136185000Y-112991107D01*
X136185000Y-112548753D01*
X136505991Y-112548753D01*
X136553816Y-112936828D01*
X136676432Y-113308116D01*
X136814956Y-113567276D01*
X137115162Y-113705233D01*
X138320395Y-112500000D01*
X138679605Y-112500000D01*
X139884838Y-113705233D01*
X140185044Y-113567276D01*
X140360882Y-113218033D01*
X140460861Y-112856891D01*
X141948519Y-112856891D01*
X142045843Y-113131252D01*
X142194822Y-113381355D01*
X142389731Y-113597588D01*
X142623080Y-113771641D01*
X142885901Y-113896825D01*
X143033110Y-113941476D01*
X143263000Y-113820155D01*
X143263000Y-112627000D01*
X142069186Y-112627000D01*
X141948519Y-112856891D01*
X140460861Y-112856891D01*
X140465207Y-112841196D01*
X140494009Y-112451247D01*
X140456036Y-112143109D01*
X141948519Y-112143109D01*
X142069186Y-112373000D01*
X143263000Y-112373000D01*
X143263000Y-111179845D01*
X143517000Y-111179845D01*
X143517000Y-112373000D01*
X143537000Y-112373000D01*
X143537000Y-112627000D01*
X143517000Y-112627000D01*
X143517000Y-113820155D01*
X143746890Y-113941476D01*
X143894099Y-113896825D01*
X144156920Y-113771641D01*
X144390269Y-113597588D01*
X144585178Y-113381355D01*
X144654799Y-113264477D01*
X144689294Y-113329014D01*
X144874866Y-113555134D01*
X145100986Y-113740706D01*
X145358966Y-113878599D01*
X145638889Y-113963513D01*
X145857050Y-113985000D01*
X146002950Y-113985000D01*
X146221111Y-113963513D01*
X146501034Y-113878599D01*
X146759014Y-113740706D01*
X146985134Y-113555134D01*
X147170706Y-113329014D01*
X147200000Y-113274209D01*
X147229294Y-113329014D01*
X147414866Y-113555134D01*
X147640986Y-113740706D01*
X147898966Y-113878599D01*
X148178889Y-113963513D01*
X148397050Y-113985000D01*
X148542950Y-113985000D01*
X148761111Y-113963513D01*
X149041034Y-113878599D01*
X149299014Y-113740706D01*
X149525134Y-113555134D01*
X149710706Y-113329014D01*
X149740000Y-113274209D01*
X149769294Y-113329014D01*
X149954866Y-113555134D01*
X150180986Y-113740706D01*
X150438966Y-113878599D01*
X150718889Y-113963513D01*
X150937050Y-113985000D01*
X151082950Y-113985000D01*
X151301111Y-113963513D01*
X151581034Y-113878599D01*
X151839014Y-113740706D01*
X152065134Y-113555134D01*
X152250706Y-113329014D01*
X152280000Y-113274209D01*
X152309294Y-113329014D01*
X152494866Y-113555134D01*
X152720986Y-113740706D01*
X152978966Y-113878599D01*
X153258889Y-113963513D01*
X153477050Y-113985000D01*
X153622950Y-113985000D01*
X153841111Y-113963513D01*
X154121034Y-113878599D01*
X154379014Y-113740706D01*
X154605134Y-113555134D01*
X154790706Y-113329014D01*
X154820000Y-113274209D01*
X154849294Y-113329014D01*
X155034866Y-113555134D01*
X155260986Y-113740706D01*
X155518966Y-113878599D01*
X155798889Y-113963513D01*
X156017050Y-113985000D01*
X156162950Y-113985000D01*
X156381111Y-113963513D01*
X156661034Y-113878599D01*
X156919014Y-113740706D01*
X157145134Y-113555134D01*
X157330706Y-113329014D01*
X157360000Y-113274209D01*
X157389294Y-113329014D01*
X157574866Y-113555134D01*
X157800986Y-113740706D01*
X158058966Y-113878599D01*
X158338889Y-113963513D01*
X158557050Y-113985000D01*
X158702950Y-113985000D01*
X158921111Y-113963513D01*
X159201034Y-113878599D01*
X159459014Y-113740706D01*
X159685134Y-113555134D01*
X159870706Y-113329014D01*
X159900000Y-113274209D01*
X159929294Y-113329014D01*
X160114866Y-113555134D01*
X160340986Y-113740706D01*
X160598966Y-113878599D01*
X160878889Y-113963513D01*
X161097050Y-113985000D01*
X161242950Y-113985000D01*
X161461111Y-113963513D01*
X161741034Y-113878599D01*
X161999014Y-113740706D01*
X162225134Y-113555134D01*
X162410706Y-113329014D01*
X162440000Y-113274209D01*
X162469294Y-113329014D01*
X162654866Y-113555134D01*
X162880986Y-113740706D01*
X163138966Y-113878599D01*
X163418889Y-113963513D01*
X163637050Y-113985000D01*
X163782950Y-113985000D01*
X164001111Y-113963513D01*
X164281034Y-113878599D01*
X164539014Y-113740706D01*
X164765134Y-113555134D01*
X164789607Y-113525313D01*
X164810498Y-113594180D01*
X164869463Y-113704494D01*
X164948815Y-113801185D01*
X165045506Y-113880537D01*
X165155820Y-113939502D01*
X165275518Y-113975812D01*
X165400000Y-113988072D01*
X167100000Y-113988072D01*
X167224482Y-113975812D01*
X167344180Y-113939502D01*
X167446447Y-113884838D01*
X169794767Y-113884838D01*
X169932724Y-114185044D01*
X170281967Y-114360882D01*
X170658804Y-114465207D01*
X171048753Y-114494009D01*
X171436828Y-114446184D01*
X171808116Y-114323568D01*
X172067276Y-114185044D01*
X172205233Y-113884838D01*
X171000000Y-112679605D01*
X169794767Y-113884838D01*
X167446447Y-113884838D01*
X167454494Y-113880537D01*
X167551185Y-113801185D01*
X167630537Y-113704494D01*
X167689502Y-113594180D01*
X167725812Y-113474482D01*
X167738072Y-113350000D01*
X167738072Y-112548753D01*
X169005991Y-112548753D01*
X169053816Y-112936828D01*
X169176432Y-113308116D01*
X169314956Y-113567276D01*
X169615162Y-113705233D01*
X170820395Y-112500000D01*
X171179605Y-112500000D01*
X172384838Y-113705233D01*
X172685044Y-113567276D01*
X172860882Y-113218033D01*
X172965207Y-112841196D01*
X172994009Y-112451247D01*
X172946184Y-112063172D01*
X172823568Y-111691884D01*
X172685044Y-111432724D01*
X172384838Y-111294767D01*
X171179605Y-112500000D01*
X170820395Y-112500000D01*
X169615162Y-111294767D01*
X169314956Y-111432724D01*
X169139118Y-111781967D01*
X169034793Y-112158804D01*
X169005991Y-112548753D01*
X167738072Y-112548753D01*
X167738072Y-111650000D01*
X167725812Y-111525518D01*
X167689502Y-111405820D01*
X167630537Y-111295506D01*
X167551185Y-111198815D01*
X167454494Y-111119463D01*
X167446448Y-111115162D01*
X169794767Y-111115162D01*
X171000000Y-112320395D01*
X172205233Y-111115162D01*
X172067276Y-110814956D01*
X171718033Y-110639118D01*
X171341196Y-110534793D01*
X170951247Y-110505991D01*
X170563172Y-110553816D01*
X170191884Y-110676432D01*
X169932724Y-110814956D01*
X169794767Y-111115162D01*
X167446448Y-111115162D01*
X167344180Y-111060498D01*
X167224482Y-111024188D01*
X167100000Y-111011928D01*
X165400000Y-111011928D01*
X165275518Y-111024188D01*
X165155820Y-111060498D01*
X165045506Y-111119463D01*
X164948815Y-111198815D01*
X164869463Y-111295506D01*
X164810498Y-111405820D01*
X164789607Y-111474687D01*
X164765134Y-111444866D01*
X164539014Y-111259294D01*
X164281034Y-111121401D01*
X164001111Y-111036487D01*
X163782950Y-111015000D01*
X163637050Y-111015000D01*
X163418889Y-111036487D01*
X163138966Y-111121401D01*
X162880986Y-111259294D01*
X162654866Y-111444866D01*
X162469294Y-111670986D01*
X162440000Y-111725791D01*
X162410706Y-111670986D01*
X162225134Y-111444866D01*
X161999014Y-111259294D01*
X161741034Y-111121401D01*
X161461111Y-111036487D01*
X161242950Y-111015000D01*
X161097050Y-111015000D01*
X160878889Y-111036487D01*
X160598966Y-111121401D01*
X160340986Y-111259294D01*
X160114866Y-111444866D01*
X159929294Y-111670986D01*
X159900000Y-111725791D01*
X159870706Y-111670986D01*
X159685134Y-111444866D01*
X159459014Y-111259294D01*
X159201034Y-111121401D01*
X158921111Y-111036487D01*
X158702950Y-111015000D01*
X158557050Y-111015000D01*
X158338889Y-111036487D01*
X158058966Y-111121401D01*
X157800986Y-111259294D01*
X157574866Y-111444866D01*
X157389294Y-111670986D01*
X157360000Y-111725791D01*
X157330706Y-111670986D01*
X157145134Y-111444866D01*
X156919014Y-111259294D01*
X156661034Y-111121401D01*
X156381111Y-111036487D01*
X156162950Y-111015000D01*
X156017050Y-111015000D01*
X155798889Y-111036487D01*
X155518966Y-111121401D01*
X155260986Y-111259294D01*
X155034866Y-111444866D01*
X154849294Y-111670986D01*
X154820000Y-111725791D01*
X154790706Y-111670986D01*
X154605134Y-111444866D01*
X154379014Y-111259294D01*
X154121034Y-111121401D01*
X153841111Y-111036487D01*
X153622950Y-111015000D01*
X153477050Y-111015000D01*
X153258889Y-111036487D01*
X152978966Y-111121401D01*
X152720986Y-111259294D01*
X152494866Y-111444866D01*
X152309294Y-111670986D01*
X152280000Y-111725791D01*
X152250706Y-111670986D01*
X152065134Y-111444866D01*
X151839014Y-111259294D01*
X151581034Y-111121401D01*
X151301111Y-111036487D01*
X151082950Y-111015000D01*
X150937050Y-111015000D01*
X150718889Y-111036487D01*
X150438966Y-111121401D01*
X150180986Y-111259294D01*
X149954866Y-111444866D01*
X149769294Y-111670986D01*
X149740000Y-111725791D01*
X149710706Y-111670986D01*
X149525134Y-111444866D01*
X149299014Y-111259294D01*
X149041034Y-111121401D01*
X148982384Y-111103610D01*
X149045226Y-110951898D01*
X149085000Y-110751939D01*
X149085000Y-110548061D01*
X149045226Y-110348102D01*
X148974920Y-110178370D01*
X149067205Y-110040256D01*
X149145226Y-109851898D01*
X149185000Y-109651939D01*
X149185000Y-109448061D01*
X149145226Y-109248102D01*
X149067205Y-109059744D01*
X148953937Y-108890226D01*
X148809774Y-108746063D01*
X148640256Y-108632795D01*
X148451898Y-108554774D01*
X148355307Y-108535561D01*
X157302500Y-108535561D01*
X157302500Y-108739439D01*
X157342274Y-108939398D01*
X157420295Y-109127756D01*
X157533563Y-109297274D01*
X157677726Y-109441437D01*
X157847244Y-109554705D01*
X158035602Y-109632726D01*
X158235561Y-109672500D01*
X158439439Y-109672500D01*
X158639398Y-109632726D01*
X158827756Y-109554705D01*
X158997274Y-109441437D01*
X159141437Y-109297274D01*
X159254705Y-109127756D01*
X159332726Y-108939398D01*
X159372500Y-108739439D01*
X159372500Y-108535561D01*
X159332726Y-108335602D01*
X159254705Y-108147244D01*
X159141437Y-107977726D01*
X158997274Y-107833563D01*
X158827756Y-107720295D01*
X158639398Y-107642274D01*
X158439439Y-107602500D01*
X158235561Y-107602500D01*
X158035602Y-107642274D01*
X157847244Y-107720295D01*
X157677726Y-107833563D01*
X157533563Y-107977726D01*
X157420295Y-108147244D01*
X157342274Y-108335602D01*
X157302500Y-108535561D01*
X148355307Y-108535561D01*
X148251939Y-108515000D01*
X148048061Y-108515000D01*
X147848102Y-108554774D01*
X147659744Y-108632795D01*
X147490226Y-108746063D01*
X147346063Y-108890226D01*
X147232795Y-109059744D01*
X147154774Y-109248102D01*
X147115000Y-109448061D01*
X147115000Y-109651939D01*
X147154774Y-109851898D01*
X147225080Y-110021630D01*
X147132795Y-110159744D01*
X147054774Y-110348102D01*
X147015000Y-110548061D01*
X147015000Y-110751939D01*
X147054774Y-110951898D01*
X147132795Y-111140256D01*
X147246063Y-111309774D01*
X147390226Y-111453937D01*
X147401332Y-111461358D01*
X147229294Y-111670986D01*
X147200000Y-111725791D01*
X147170706Y-111670986D01*
X146985134Y-111444866D01*
X146759014Y-111259294D01*
X146501034Y-111121401D01*
X146221111Y-111036487D01*
X146002950Y-111015000D01*
X145857050Y-111015000D01*
X145638889Y-111036487D01*
X145358966Y-111121401D01*
X145100986Y-111259294D01*
X144874866Y-111444866D01*
X144689294Y-111670986D01*
X144654799Y-111735523D01*
X144585178Y-111618645D01*
X144390269Y-111402412D01*
X144156920Y-111228359D01*
X143894099Y-111103175D01*
X143746890Y-111058524D01*
X143517000Y-111179845D01*
X143263000Y-111179845D01*
X143033110Y-111058524D01*
X142885901Y-111103175D01*
X142623080Y-111228359D01*
X142389731Y-111402412D01*
X142194822Y-111618645D01*
X142045843Y-111868748D01*
X141948519Y-112143109D01*
X140456036Y-112143109D01*
X140446184Y-112063172D01*
X140323568Y-111691884D01*
X140185044Y-111432724D01*
X139884838Y-111294767D01*
X138679605Y-112500000D01*
X138320395Y-112500000D01*
X137115162Y-111294767D01*
X136814956Y-111432724D01*
X136639118Y-111781967D01*
X136534793Y-112158804D01*
X136505991Y-112548753D01*
X136185000Y-112548753D01*
X136185000Y-111115162D01*
X137294767Y-111115162D01*
X138500000Y-112320395D01*
X139705233Y-111115162D01*
X139567276Y-110814956D01*
X139218033Y-110639118D01*
X138841196Y-110534793D01*
X138451247Y-110505991D01*
X138063172Y-110553816D01*
X137691884Y-110676432D01*
X137432724Y-110814956D01*
X137294767Y-111115162D01*
X136185000Y-111115162D01*
X136185000Y-106498061D01*
X163865000Y-106498061D01*
X163865000Y-106701939D01*
X163904774Y-106901898D01*
X163982795Y-107090256D01*
X164096063Y-107259774D01*
X164240226Y-107403937D01*
X164409744Y-107517205D01*
X164598102Y-107595226D01*
X164798061Y-107635000D01*
X165001939Y-107635000D01*
X165201898Y-107595226D01*
X165390256Y-107517205D01*
X165559774Y-107403937D01*
X165703937Y-107259774D01*
X165786928Y-107135569D01*
X165786928Y-107150001D01*
X165803992Y-107323255D01*
X165854528Y-107489851D01*
X165936595Y-107643387D01*
X166047038Y-107777962D01*
X166181613Y-107888405D01*
X166335149Y-107970472D01*
X166501745Y-108021008D01*
X166674999Y-108038072D01*
X167925001Y-108038072D01*
X168098255Y-108021008D01*
X168264851Y-107970472D01*
X168418387Y-107888405D01*
X168552962Y-107777962D01*
X168663405Y-107643387D01*
X168745472Y-107489851D01*
X168796008Y-107323255D01*
X168813072Y-107150001D01*
X168813072Y-106449999D01*
X168796008Y-106276745D01*
X168745472Y-106110149D01*
X168663405Y-105956613D01*
X168552962Y-105822038D01*
X168418387Y-105711595D01*
X168413594Y-105709033D01*
X168538078Y-105583474D01*
X168672421Y-105380533D01*
X168764591Y-105155282D01*
X168768462Y-105117609D01*
X168643731Y-104927000D01*
X167427000Y-104927000D01*
X167427000Y-104947000D01*
X167173000Y-104947000D01*
X167173000Y-104927000D01*
X165956269Y-104927000D01*
X165831538Y-105117609D01*
X165835409Y-105155282D01*
X165927579Y-105380533D01*
X166061922Y-105583474D01*
X166186406Y-105709033D01*
X166181613Y-105711595D01*
X166047038Y-105822038D01*
X165936595Y-105956613D01*
X165854528Y-106110149D01*
X165838821Y-106161929D01*
X165817205Y-106109744D01*
X165703937Y-105940226D01*
X165559774Y-105796063D01*
X165390256Y-105682795D01*
X165201898Y-105604774D01*
X165001939Y-105565000D01*
X164798061Y-105565000D01*
X164598102Y-105604774D01*
X164409744Y-105682795D01*
X164240226Y-105796063D01*
X164096063Y-105940226D01*
X163982795Y-106109744D01*
X163904774Y-106298102D01*
X163865000Y-106498061D01*
X136185000Y-106498061D01*
X136185000Y-104482391D01*
X165831538Y-104482391D01*
X165956269Y-104673000D01*
X167173000Y-104673000D01*
X167173000Y-103565000D01*
X167427000Y-103565000D01*
X167427000Y-104673000D01*
X168643731Y-104673000D01*
X168768462Y-104482391D01*
X168764591Y-104444718D01*
X168672421Y-104219467D01*
X168538078Y-104016526D01*
X168366725Y-103843693D01*
X168164946Y-103707610D01*
X167940496Y-103613507D01*
X167702000Y-103565000D01*
X167427000Y-103565000D01*
X167173000Y-103565000D01*
X166898000Y-103565000D01*
X166659504Y-103613507D01*
X166435054Y-103707610D01*
X166233275Y-103843693D01*
X166061922Y-104016526D01*
X165927579Y-104219467D01*
X165835409Y-104444718D01*
X165831538Y-104482391D01*
X136185000Y-104482391D01*
X136185000Y-101348061D01*
X144615000Y-101348061D01*
X144615000Y-101551939D01*
X144654774Y-101751898D01*
X144732795Y-101940256D01*
X144846063Y-102109774D01*
X144990226Y-102253937D01*
X145159744Y-102367205D01*
X145348102Y-102445226D01*
X145548061Y-102485000D01*
X145751939Y-102485000D01*
X145951898Y-102445226D01*
X146140256Y-102367205D01*
X146309774Y-102253937D01*
X146453937Y-102109774D01*
X146516704Y-102015836D01*
X146546063Y-102059774D01*
X146690226Y-102203937D01*
X146859744Y-102317205D01*
X147048102Y-102395226D01*
X147248061Y-102435000D01*
X147451939Y-102435000D01*
X147651898Y-102395226D01*
X147840256Y-102317205D01*
X148009774Y-102203937D01*
X148153937Y-102059774D01*
X148208296Y-101978420D01*
X148296063Y-102109774D01*
X148440226Y-102253937D01*
X148609744Y-102367205D01*
X148798102Y-102445226D01*
X148998061Y-102485000D01*
X149201939Y-102485000D01*
X149401898Y-102445226D01*
X149590256Y-102367205D01*
X149759774Y-102253937D01*
X149903937Y-102109774D01*
X150017205Y-101940256D01*
X150095226Y-101751898D01*
X150135000Y-101551939D01*
X150135000Y-101348061D01*
X150095226Y-101148102D01*
X150017205Y-100959744D01*
X149903937Y-100790226D01*
X149759774Y-100646063D01*
X149613104Y-100548061D01*
X157315000Y-100548061D01*
X157315000Y-100751939D01*
X157354774Y-100951898D01*
X157432795Y-101140256D01*
X157546063Y-101309774D01*
X157690226Y-101453937D01*
X157859744Y-101567205D01*
X158048102Y-101645226D01*
X158248061Y-101685000D01*
X158451939Y-101685000D01*
X158651898Y-101645226D01*
X158840256Y-101567205D01*
X159009774Y-101453937D01*
X159153937Y-101309774D01*
X159267205Y-101140256D01*
X159345226Y-100951898D01*
X159385000Y-100751939D01*
X159385000Y-100548061D01*
X159345226Y-100348102D01*
X159267205Y-100159744D01*
X159153937Y-99990226D01*
X159009774Y-99846063D01*
X158840256Y-99732795D01*
X158651898Y-99654774D01*
X158451939Y-99615000D01*
X158248061Y-99615000D01*
X158048102Y-99654774D01*
X157859744Y-99732795D01*
X157690226Y-99846063D01*
X157546063Y-99990226D01*
X157432795Y-100159744D01*
X157354774Y-100348102D01*
X157315000Y-100548061D01*
X149613104Y-100548061D01*
X149590256Y-100532795D01*
X149401898Y-100454774D01*
X149201939Y-100415000D01*
X148998061Y-100415000D01*
X148798102Y-100454774D01*
X148609744Y-100532795D01*
X148440226Y-100646063D01*
X148296063Y-100790226D01*
X148241704Y-100871580D01*
X148153937Y-100740226D01*
X148009774Y-100596063D01*
X147840256Y-100482795D01*
X147651898Y-100404774D01*
X147451939Y-100365000D01*
X147248061Y-100365000D01*
X147048102Y-100404774D01*
X146859744Y-100482795D01*
X146690226Y-100596063D01*
X146546063Y-100740226D01*
X146483296Y-100834164D01*
X146453937Y-100790226D01*
X146309774Y-100646063D01*
X146140256Y-100532795D01*
X145951898Y-100454774D01*
X145751939Y-100415000D01*
X145548061Y-100415000D01*
X145348102Y-100454774D01*
X145159744Y-100532795D01*
X144990226Y-100646063D01*
X144846063Y-100790226D01*
X144732795Y-100959744D01*
X144654774Y-101148102D01*
X144615000Y-101348061D01*
X136185000Y-101348061D01*
X136185000Y-99248061D01*
X149215000Y-99248061D01*
X149215000Y-99451939D01*
X149254774Y-99651898D01*
X149332795Y-99840256D01*
X149446063Y-100009774D01*
X149590226Y-100153937D01*
X149759744Y-100267205D01*
X149948102Y-100345226D01*
X150148061Y-100385000D01*
X150351939Y-100385000D01*
X150551898Y-100345226D01*
X150740256Y-100267205D01*
X150909774Y-100153937D01*
X151053937Y-100009774D01*
X151167205Y-99840256D01*
X151245226Y-99651898D01*
X151285000Y-99451939D01*
X151285000Y-99248061D01*
X151245226Y-99048102D01*
X151245210Y-99048061D01*
X166615000Y-99048061D01*
X166615000Y-99251939D01*
X166654774Y-99451898D01*
X166732795Y-99640256D01*
X166846063Y-99809774D01*
X166990226Y-99953937D01*
X167159744Y-100067205D01*
X167348102Y-100145226D01*
X167548061Y-100185000D01*
X167751939Y-100185000D01*
X167951898Y-100145226D01*
X168140256Y-100067205D01*
X168309774Y-99953937D01*
X168453937Y-99809774D01*
X168567205Y-99640256D01*
X168645226Y-99451898D01*
X168685000Y-99251939D01*
X168685000Y-99048061D01*
X168645226Y-98848102D01*
X168567205Y-98659744D01*
X168453937Y-98490226D01*
X168309774Y-98346063D01*
X168140256Y-98232795D01*
X167951898Y-98154774D01*
X167751939Y-98115000D01*
X167548061Y-98115000D01*
X167348102Y-98154774D01*
X167159744Y-98232795D01*
X166990226Y-98346063D01*
X166846063Y-98490226D01*
X166732795Y-98659744D01*
X166654774Y-98848102D01*
X166615000Y-99048061D01*
X151245210Y-99048061D01*
X151167205Y-98859744D01*
X151053937Y-98690226D01*
X150909774Y-98546063D01*
X150740256Y-98432795D01*
X150551898Y-98354774D01*
X150351939Y-98315000D01*
X150148061Y-98315000D01*
X149948102Y-98354774D01*
X149759744Y-98432795D01*
X149590226Y-98546063D01*
X149446063Y-98690226D01*
X149332795Y-98859744D01*
X149254774Y-99048102D01*
X149215000Y-99248061D01*
X136185000Y-99248061D01*
X136185000Y-94748061D01*
X143765000Y-94748061D01*
X143765000Y-94951939D01*
X143804774Y-95151898D01*
X143882795Y-95340256D01*
X143996063Y-95509774D01*
X144140226Y-95653937D01*
X144309744Y-95767205D01*
X144498102Y-95845226D01*
X144698061Y-95885000D01*
X144901939Y-95885000D01*
X145101898Y-95845226D01*
X145290256Y-95767205D01*
X145459774Y-95653937D01*
X145603937Y-95509774D01*
X145717205Y-95340256D01*
X145795226Y-95151898D01*
X145835000Y-94951939D01*
X145835000Y-94748061D01*
X145795226Y-94548102D01*
X145717205Y-94359744D01*
X145603937Y-94190226D01*
X145459774Y-94046063D01*
X145290256Y-93932795D01*
X145101898Y-93854774D01*
X144901939Y-93815000D01*
X144698061Y-93815000D01*
X144498102Y-93854774D01*
X144309744Y-93932795D01*
X144140226Y-94046063D01*
X143996063Y-94190226D01*
X143882795Y-94359744D01*
X143804774Y-94548102D01*
X143765000Y-94748061D01*
X136185000Y-94748061D01*
X136185000Y-91898061D01*
X145315000Y-91898061D01*
X145315000Y-92101939D01*
X145354774Y-92301898D01*
X145432795Y-92490256D01*
X145546063Y-92659774D01*
X145690226Y-92803937D01*
X145859744Y-92917205D01*
X146048102Y-92995226D01*
X146248061Y-93035000D01*
X146451939Y-93035000D01*
X146651898Y-92995226D01*
X146840256Y-92917205D01*
X147009774Y-92803937D01*
X147153937Y-92659774D01*
X147267205Y-92490256D01*
X147345226Y-92301898D01*
X147385000Y-92101939D01*
X147385000Y-91898061D01*
X147345226Y-91698102D01*
X147267205Y-91509744D01*
X147153937Y-91340226D01*
X147009774Y-91196063D01*
X146840256Y-91082795D01*
X146651898Y-91004774D01*
X146451939Y-90965000D01*
X146248061Y-90965000D01*
X146048102Y-91004774D01*
X145859744Y-91082795D01*
X145690226Y-91196063D01*
X145546063Y-91340226D01*
X145432795Y-91509744D01*
X145354774Y-91698102D01*
X145315000Y-91898061D01*
X136185000Y-91898061D01*
X136185000Y-90389799D01*
X136198102Y-90395226D01*
X136398061Y-90435000D01*
X136601939Y-90435000D01*
X136801898Y-90395226D01*
X136990256Y-90317205D01*
X137159774Y-90203937D01*
X137303937Y-90059774D01*
X137417205Y-89890256D01*
X137495226Y-89701898D01*
X137535000Y-89501939D01*
X137535000Y-89298061D01*
X137505164Y-89148061D01*
X145115000Y-89148061D01*
X145115000Y-89351939D01*
X145154774Y-89551898D01*
X145232795Y-89740256D01*
X145346063Y-89909774D01*
X145490226Y-90053937D01*
X145659744Y-90167205D01*
X145848102Y-90245226D01*
X146048061Y-90285000D01*
X146251939Y-90285000D01*
X146451898Y-90245226D01*
X146640256Y-90167205D01*
X146809774Y-90053937D01*
X146953937Y-89909774D01*
X147028581Y-89798061D01*
X163565000Y-89798061D01*
X163565000Y-90001939D01*
X163604774Y-90201898D01*
X163682795Y-90390256D01*
X163747715Y-90487415D01*
X163732795Y-90509744D01*
X163654774Y-90698102D01*
X163615000Y-90898061D01*
X163615000Y-91101939D01*
X163654774Y-91301898D01*
X163732795Y-91490256D01*
X163764419Y-91537585D01*
X163682795Y-91659744D01*
X163604774Y-91848102D01*
X163565000Y-92048061D01*
X163565000Y-92251939D01*
X163604774Y-92451898D01*
X163682795Y-92640256D01*
X163796063Y-92809774D01*
X163940226Y-92953937D01*
X164109744Y-93067205D01*
X164298102Y-93145226D01*
X164498061Y-93185000D01*
X164701939Y-93185000D01*
X164901898Y-93145226D01*
X165090256Y-93067205D01*
X165259774Y-92953937D01*
X165403937Y-92809774D01*
X165517205Y-92640256D01*
X165595226Y-92451898D01*
X165635000Y-92251939D01*
X165635000Y-92048061D01*
X165595226Y-91848102D01*
X165517205Y-91659744D01*
X165485581Y-91612415D01*
X165567205Y-91490256D01*
X165645226Y-91301898D01*
X165685000Y-91101939D01*
X165685000Y-90898061D01*
X165645226Y-90698102D01*
X165567205Y-90509744D01*
X165502285Y-90412585D01*
X165517205Y-90390256D01*
X165595226Y-90201898D01*
X165635000Y-90001939D01*
X165635000Y-89798061D01*
X165595226Y-89598102D01*
X165517205Y-89409744D01*
X165485581Y-89362415D01*
X165567205Y-89240256D01*
X165645226Y-89051898D01*
X165685000Y-88851939D01*
X165685000Y-88648061D01*
X165645226Y-88448102D01*
X165567205Y-88259744D01*
X165453937Y-88090226D01*
X165309774Y-87946063D01*
X165140256Y-87832795D01*
X164951898Y-87754774D01*
X164751939Y-87715000D01*
X164548061Y-87715000D01*
X164348102Y-87754774D01*
X164159744Y-87832795D01*
X163990226Y-87946063D01*
X163846063Y-88090226D01*
X163732795Y-88259744D01*
X163654774Y-88448102D01*
X163615000Y-88648061D01*
X163615000Y-88851939D01*
X163654774Y-89051898D01*
X163732795Y-89240256D01*
X163764419Y-89287585D01*
X163682795Y-89409744D01*
X163604774Y-89598102D01*
X163565000Y-89798061D01*
X147028581Y-89798061D01*
X147067205Y-89740256D01*
X147145226Y-89551898D01*
X147185000Y-89351939D01*
X147185000Y-89148061D01*
X147145226Y-88948102D01*
X147067205Y-88759744D01*
X146953937Y-88590226D01*
X146809774Y-88446063D01*
X146640256Y-88332795D01*
X146451898Y-88254774D01*
X146251939Y-88215000D01*
X146048061Y-88215000D01*
X145848102Y-88254774D01*
X145659744Y-88332795D01*
X145490226Y-88446063D01*
X145346063Y-88590226D01*
X145232795Y-88759744D01*
X145154774Y-88948102D01*
X145115000Y-89148061D01*
X137505164Y-89148061D01*
X137495226Y-89098102D01*
X137417205Y-88909744D01*
X137303937Y-88740226D01*
X137159774Y-88596063D01*
X136990256Y-88482795D01*
X136801898Y-88404774D01*
X136601939Y-88365000D01*
X136398061Y-88365000D01*
X136198102Y-88404774D01*
X136185000Y-88410201D01*
X136185000Y-86448061D01*
X163465000Y-86448061D01*
X163465000Y-86651939D01*
X163504774Y-86851898D01*
X163582795Y-87040256D01*
X163696063Y-87209774D01*
X163840226Y-87353937D01*
X164009744Y-87467205D01*
X164198102Y-87545226D01*
X164398061Y-87585000D01*
X164601939Y-87585000D01*
X164801898Y-87545226D01*
X164990256Y-87467205D01*
X165159774Y-87353937D01*
X165303937Y-87209774D01*
X165417205Y-87040256D01*
X165495226Y-86851898D01*
X165535000Y-86651939D01*
X165535000Y-86448061D01*
X165495226Y-86248102D01*
X165417205Y-86059744D01*
X165303937Y-85890226D01*
X165159774Y-85746063D01*
X164990256Y-85632795D01*
X164801898Y-85554774D01*
X164601939Y-85515000D01*
X164398061Y-85515000D01*
X164198102Y-85554774D01*
X164009744Y-85632795D01*
X163840226Y-85746063D01*
X163696063Y-85890226D01*
X163582795Y-86059744D01*
X163504774Y-86248102D01*
X163465000Y-86448061D01*
X136185000Y-86448061D01*
X136185000Y-84398061D01*
X166365000Y-84398061D01*
X166365000Y-84601939D01*
X166404774Y-84801898D01*
X166482795Y-84990256D01*
X166596063Y-85159774D01*
X166740226Y-85303937D01*
X166909744Y-85417205D01*
X167098102Y-85495226D01*
X167298061Y-85535000D01*
X167501939Y-85535000D01*
X167701898Y-85495226D01*
X167890256Y-85417205D01*
X168059774Y-85303937D01*
X168203937Y-85159774D01*
X168317205Y-84990256D01*
X168395226Y-84801898D01*
X168435000Y-84601939D01*
X168435000Y-84398061D01*
X168395226Y-84198102D01*
X168317205Y-84009744D01*
X168203937Y-83840226D01*
X168059774Y-83696063D01*
X167890256Y-83582795D01*
X167701898Y-83504774D01*
X167501939Y-83465000D01*
X167298061Y-83465000D01*
X167098102Y-83504774D01*
X166909744Y-83582795D01*
X166740226Y-83696063D01*
X166596063Y-83840226D01*
X166482795Y-84009744D01*
X166404774Y-84198102D01*
X166365000Y-84398061D01*
X136185000Y-84398061D01*
X136185000Y-83202487D01*
X136204774Y-83301898D01*
X136282795Y-83490256D01*
X136396063Y-83659774D01*
X136540226Y-83803937D01*
X136709744Y-83917205D01*
X136898102Y-83995226D01*
X137098061Y-84035000D01*
X137301939Y-84035000D01*
X137501898Y-83995226D01*
X137690256Y-83917205D01*
X137859774Y-83803937D01*
X137950000Y-83713711D01*
X138040226Y-83803937D01*
X138209744Y-83917205D01*
X138398102Y-83995226D01*
X138598061Y-84035000D01*
X138801939Y-84035000D01*
X139001898Y-83995226D01*
X139190256Y-83917205D01*
X139359774Y-83803937D01*
X139503937Y-83659774D01*
X139617205Y-83490256D01*
X139695226Y-83301898D01*
X139735000Y-83101939D01*
X139735000Y-82898061D01*
X139695226Y-82698102D01*
X139617205Y-82509744D01*
X139503937Y-82340226D01*
X139359774Y-82196063D01*
X139190256Y-82082795D01*
X139001898Y-82004774D01*
X138801939Y-81965000D01*
X138598061Y-81965000D01*
X138398102Y-82004774D01*
X138209744Y-82082795D01*
X138040226Y-82196063D01*
X137950000Y-82286289D01*
X137859774Y-82196063D01*
X137690256Y-82082795D01*
X137501898Y-82004774D01*
X137301939Y-81965000D01*
X137098061Y-81965000D01*
X136898102Y-82004774D01*
X136709744Y-82082795D01*
X136540226Y-82196063D01*
X136396063Y-82340226D01*
X136282795Y-82509744D01*
X136204774Y-82698102D01*
X136185000Y-82797513D01*
X136185000Y-81698061D01*
X145165000Y-81698061D01*
X145165000Y-81901939D01*
X145204774Y-82101898D01*
X145282795Y-82290256D01*
X145396063Y-82459774D01*
X145540226Y-82603937D01*
X145709744Y-82717205D01*
X145898102Y-82795226D01*
X146098061Y-82835000D01*
X146301939Y-82835000D01*
X146501898Y-82795226D01*
X146690256Y-82717205D01*
X146859774Y-82603937D01*
X147003937Y-82459774D01*
X147117205Y-82290256D01*
X147195226Y-82101898D01*
X147235000Y-81901939D01*
X147235000Y-81698061D01*
X147195226Y-81498102D01*
X147195210Y-81498061D01*
X165115000Y-81498061D01*
X165115000Y-81701939D01*
X165154774Y-81901898D01*
X165232795Y-82090256D01*
X165346063Y-82259774D01*
X165490226Y-82403937D01*
X165659744Y-82517205D01*
X165848102Y-82595226D01*
X166048061Y-82635000D01*
X166251939Y-82635000D01*
X166451898Y-82595226D01*
X166640256Y-82517205D01*
X166809774Y-82403937D01*
X166953937Y-82259774D01*
X167067205Y-82090256D01*
X167145226Y-81901898D01*
X167185000Y-81701939D01*
X167185000Y-81498061D01*
X167145226Y-81298102D01*
X167067205Y-81109744D01*
X166953937Y-80940226D01*
X166931471Y-80917760D01*
X168815000Y-80917760D01*
X168815000Y-81082240D01*
X168847089Y-81243560D01*
X168910033Y-81395521D01*
X169001413Y-81532281D01*
X169117719Y-81648587D01*
X169254479Y-81739967D01*
X169406440Y-81802911D01*
X169567760Y-81835000D01*
X169732240Y-81835000D01*
X169893560Y-81802911D01*
X170045521Y-81739967D01*
X170182281Y-81648587D01*
X170298587Y-81532281D01*
X170389967Y-81395521D01*
X170452911Y-81243560D01*
X170485000Y-81082240D01*
X170485000Y-80917760D01*
X170452911Y-80756440D01*
X170389967Y-80604479D01*
X170298587Y-80467719D01*
X170182281Y-80351413D01*
X170045521Y-80260033D01*
X169893560Y-80197089D01*
X169732240Y-80165000D01*
X169567760Y-80165000D01*
X169406440Y-80197089D01*
X169254479Y-80260033D01*
X169117719Y-80351413D01*
X169001413Y-80467719D01*
X168910033Y-80604479D01*
X168847089Y-80756440D01*
X168815000Y-80917760D01*
X166931471Y-80917760D01*
X166809774Y-80796063D01*
X166640256Y-80682795D01*
X166451898Y-80604774D01*
X166251939Y-80565000D01*
X166048061Y-80565000D01*
X165848102Y-80604774D01*
X165659744Y-80682795D01*
X165490226Y-80796063D01*
X165346063Y-80940226D01*
X165232795Y-81109744D01*
X165154774Y-81298102D01*
X165115000Y-81498061D01*
X147195210Y-81498061D01*
X147117205Y-81309744D01*
X147003937Y-81140226D01*
X146859774Y-80996063D01*
X146690256Y-80882795D01*
X146501898Y-80804774D01*
X146301939Y-80765000D01*
X146098061Y-80765000D01*
X145898102Y-80804774D01*
X145709744Y-80882795D01*
X145540226Y-80996063D01*
X145396063Y-81140226D01*
X145282795Y-81309744D01*
X145204774Y-81498102D01*
X145165000Y-81698061D01*
X136185000Y-81698061D01*
X136185000Y-79648061D01*
X158465000Y-79648061D01*
X158465000Y-79851939D01*
X158504774Y-80051898D01*
X158582795Y-80240256D01*
X158696063Y-80409774D01*
X158840226Y-80553937D01*
X159009744Y-80667205D01*
X159198102Y-80745226D01*
X159398061Y-80785000D01*
X159601939Y-80785000D01*
X159801898Y-80745226D01*
X159990256Y-80667205D01*
X160159774Y-80553937D01*
X160303937Y-80409774D01*
X160417205Y-80240256D01*
X160495226Y-80051898D01*
X160535000Y-79851939D01*
X160535000Y-79648061D01*
X161265000Y-79648061D01*
X161265000Y-79851939D01*
X161304774Y-80051898D01*
X161382795Y-80240256D01*
X161496063Y-80409774D01*
X161640226Y-80553937D01*
X161809744Y-80667205D01*
X161998102Y-80745226D01*
X162198061Y-80785000D01*
X162401939Y-80785000D01*
X162601898Y-80745226D01*
X162790256Y-80667205D01*
X162959774Y-80553937D01*
X163103937Y-80409774D01*
X163217205Y-80240256D01*
X163295226Y-80051898D01*
X163335000Y-79851939D01*
X163335000Y-79648061D01*
X163295226Y-79448102D01*
X163217205Y-79259744D01*
X163103937Y-79090226D01*
X162959774Y-78946063D01*
X162790256Y-78832795D01*
X162601898Y-78754774D01*
X162401939Y-78715000D01*
X162198061Y-78715000D01*
X161998102Y-78754774D01*
X161809744Y-78832795D01*
X161640226Y-78946063D01*
X161496063Y-79090226D01*
X161382795Y-79259744D01*
X161304774Y-79448102D01*
X161265000Y-79648061D01*
X160535000Y-79648061D01*
X160495226Y-79448102D01*
X160417205Y-79259744D01*
X160303937Y-79090226D01*
X160159774Y-78946063D01*
X159990256Y-78832795D01*
X159801898Y-78754774D01*
X159601939Y-78715000D01*
X159398061Y-78715000D01*
X159198102Y-78754774D01*
X159009744Y-78832795D01*
X158840226Y-78946063D01*
X158696063Y-79090226D01*
X158582795Y-79259744D01*
X158504774Y-79448102D01*
X158465000Y-79648061D01*
X136185000Y-79648061D01*
X136185000Y-76917760D01*
X168815000Y-76917760D01*
X168815000Y-77082240D01*
X168847089Y-77243560D01*
X168910033Y-77395521D01*
X169001413Y-77532281D01*
X169117719Y-77648587D01*
X169254479Y-77739967D01*
X169406440Y-77802911D01*
X169567760Y-77835000D01*
X169732240Y-77835000D01*
X169893560Y-77802911D01*
X170045521Y-77739967D01*
X170182281Y-77648587D01*
X170298587Y-77532281D01*
X170389967Y-77395521D01*
X170452911Y-77243560D01*
X170485000Y-77082240D01*
X170485000Y-76917760D01*
X170452911Y-76756440D01*
X170389967Y-76604479D01*
X170298587Y-76467719D01*
X170182281Y-76351413D01*
X170045521Y-76260033D01*
X169893560Y-76197089D01*
X169732240Y-76165000D01*
X169567760Y-76165000D01*
X169406440Y-76197089D01*
X169254479Y-76260033D01*
X169117719Y-76351413D01*
X169001413Y-76467719D01*
X168910033Y-76604479D01*
X168847089Y-76756440D01*
X168815000Y-76917760D01*
X136185000Y-76917760D01*
X136185000Y-75484838D01*
X137294767Y-75484838D01*
X137432724Y-75785044D01*
X137781967Y-75960882D01*
X138158804Y-76065207D01*
X138548753Y-76094009D01*
X138936828Y-76046184D01*
X139308116Y-75923568D01*
X139567276Y-75785044D01*
X139705233Y-75484838D01*
X138500000Y-74279605D01*
X137294767Y-75484838D01*
X136185000Y-75484838D01*
X136185000Y-74148753D01*
X136505991Y-74148753D01*
X136553816Y-74536828D01*
X136676432Y-74908116D01*
X136814956Y-75167276D01*
X137115162Y-75305233D01*
X138320395Y-74100000D01*
X138679605Y-74100000D01*
X139884838Y-75305233D01*
X140185044Y-75167276D01*
X140360882Y-74818033D01*
X140465207Y-74441196D01*
X140494009Y-74051247D01*
X140446184Y-73663172D01*
X140323568Y-73291884D01*
X140185044Y-73032724D01*
X139884838Y-72894767D01*
X138679605Y-74100000D01*
X138320395Y-74100000D01*
X137115162Y-72894767D01*
X136814956Y-73032724D01*
X136639118Y-73381967D01*
X136534793Y-73758804D01*
X136505991Y-74148753D01*
X136185000Y-74148753D01*
X136185000Y-74033504D01*
X136251356Y-73356752D01*
X136438168Y-72738002D01*
X136450312Y-72715162D01*
X137294767Y-72715162D01*
X138500000Y-73920395D01*
X139705233Y-72715162D01*
X139567276Y-72414956D01*
X139218033Y-72239118D01*
X138841196Y-72134793D01*
X138451247Y-72105991D01*
X138063172Y-72153816D01*
X137691884Y-72276432D01*
X137432724Y-72414956D01*
X137294767Y-72715162D01*
X136450312Y-72715162D01*
X136741602Y-72167325D01*
X137150104Y-71666452D01*
X137648112Y-71254464D01*
X138216658Y-70947052D01*
X138834090Y-70755925D01*
X139508894Y-70685000D01*
X169966496Y-70685000D01*
X170643248Y-70751356D01*
X170643248Y-70751356D01*
G37*
X170643248Y-70751356D02*
X171261998Y-70938168D01*
X171832675Y-71241602D01*
X172333548Y-71650104D01*
X172745536Y-72148112D01*
X173052948Y-72716658D01*
X173244075Y-73334090D01*
X173315000Y-74008894D01*
X173315000Y-75572651D01*
X173298284Y-75541377D01*
X173156449Y-75368551D01*
X172983623Y-75226716D01*
X172786447Y-75121324D01*
X172572499Y-75056423D01*
X172405752Y-75040000D01*
X171594248Y-75040000D01*
X171427501Y-75056423D01*
X171213553Y-75121324D01*
X171016377Y-75226716D01*
X170843551Y-75368551D01*
X170701716Y-75541377D01*
X170596324Y-75738553D01*
X170531423Y-75952501D01*
X170509509Y-76175000D01*
X170531423Y-76397499D01*
X170596324Y-76611447D01*
X170701716Y-76808623D01*
X170843551Y-76981449D01*
X171016377Y-77123284D01*
X171213553Y-77228676D01*
X171427501Y-77293577D01*
X171594248Y-77310000D01*
X172405752Y-77310000D01*
X172572499Y-77293577D01*
X172786447Y-77228676D01*
X172983623Y-77123284D01*
X173156449Y-76981449D01*
X173298284Y-76808623D01*
X173315000Y-76777349D01*
X173315000Y-81222651D01*
X173298284Y-81191377D01*
X173156449Y-81018551D01*
X172983623Y-80876716D01*
X172786447Y-80771324D01*
X172572499Y-80706423D01*
X172405752Y-80690000D01*
X171594248Y-80690000D01*
X171427501Y-80706423D01*
X171213553Y-80771324D01*
X171016377Y-80876716D01*
X170843551Y-81018551D01*
X170701716Y-81191377D01*
X170596324Y-81388553D01*
X170531423Y-81602501D01*
X170509509Y-81825000D01*
X170531423Y-82047499D01*
X170596324Y-82261447D01*
X170701716Y-82458623D01*
X170843551Y-82631449D01*
X171016377Y-82773284D01*
X171213553Y-82878676D01*
X171427501Y-82943577D01*
X171594248Y-82960000D01*
X172405752Y-82960000D01*
X172572499Y-82943577D01*
X172786447Y-82878676D01*
X172983623Y-82773284D01*
X173156449Y-82631449D01*
X173298284Y-82458623D01*
X173315000Y-82427349D01*
X173315001Y-112966486D01*
X173248644Y-113643248D01*
X173061833Y-114261996D01*
X172758398Y-114832675D01*
X172349896Y-115333548D01*
X171851888Y-115745536D01*
X171283342Y-116052948D01*
X170665909Y-116244075D01*
X169991107Y-116315000D01*
X139533504Y-116315000D01*
X138856752Y-116248644D01*
X138238004Y-116061833D01*
X137667325Y-115758398D01*
X137166452Y-115349896D01*
X136754464Y-114851888D01*
X136447052Y-114283342D01*
X136323695Y-113884838D01*
X137294767Y-113884838D01*
X137432724Y-114185044D01*
X137781967Y-114360882D01*
X138158804Y-114465207D01*
X138548753Y-114494009D01*
X138936828Y-114446184D01*
X139308116Y-114323568D01*
X139567276Y-114185044D01*
X139705233Y-113884838D01*
X138500000Y-112679605D01*
X137294767Y-113884838D01*
X136323695Y-113884838D01*
X136255925Y-113665909D01*
X136185000Y-112991107D01*
X136185000Y-112548753D01*
X136505991Y-112548753D01*
X136553816Y-112936828D01*
X136676432Y-113308116D01*
X136814956Y-113567276D01*
X137115162Y-113705233D01*
X138320395Y-112500000D01*
X138679605Y-112500000D01*
X139884838Y-113705233D01*
X140185044Y-113567276D01*
X140360882Y-113218033D01*
X140460861Y-112856891D01*
X141948519Y-112856891D01*
X142045843Y-113131252D01*
X142194822Y-113381355D01*
X142389731Y-113597588D01*
X142623080Y-113771641D01*
X142885901Y-113896825D01*
X143033110Y-113941476D01*
X143263000Y-113820155D01*
X143263000Y-112627000D01*
X142069186Y-112627000D01*
X141948519Y-112856891D01*
X140460861Y-112856891D01*
X140465207Y-112841196D01*
X140494009Y-112451247D01*
X140456036Y-112143109D01*
X141948519Y-112143109D01*
X142069186Y-112373000D01*
X143263000Y-112373000D01*
X143263000Y-111179845D01*
X143517000Y-111179845D01*
X143517000Y-112373000D01*
X143537000Y-112373000D01*
X143537000Y-112627000D01*
X143517000Y-112627000D01*
X143517000Y-113820155D01*
X143746890Y-113941476D01*
X143894099Y-113896825D01*
X144156920Y-113771641D01*
X144390269Y-113597588D01*
X144585178Y-113381355D01*
X144654799Y-113264477D01*
X144689294Y-113329014D01*
X144874866Y-113555134D01*
X145100986Y-113740706D01*
X145358966Y-113878599D01*
X145638889Y-113963513D01*
X145857050Y-113985000D01*
X146002950Y-113985000D01*
X146221111Y-113963513D01*
X146501034Y-113878599D01*
X146759014Y-113740706D01*
X146985134Y-113555134D01*
X147170706Y-113329014D01*
X147200000Y-113274209D01*
X147229294Y-113329014D01*
X147414866Y-113555134D01*
X147640986Y-113740706D01*
X147898966Y-113878599D01*
X148178889Y-113963513D01*
X148397050Y-113985000D01*
X148542950Y-113985000D01*
X148761111Y-113963513D01*
X149041034Y-113878599D01*
X149299014Y-113740706D01*
X149525134Y-113555134D01*
X149710706Y-113329014D01*
X149740000Y-113274209D01*
X149769294Y-113329014D01*
X149954866Y-113555134D01*
X150180986Y-113740706D01*
X150438966Y-113878599D01*
X150718889Y-113963513D01*
X150937050Y-113985000D01*
X151082950Y-113985000D01*
X151301111Y-113963513D01*
X151581034Y-113878599D01*
X151839014Y-113740706D01*
X152065134Y-113555134D01*
X152250706Y-113329014D01*
X152280000Y-113274209D01*
X152309294Y-113329014D01*
X152494866Y-113555134D01*
X152720986Y-113740706D01*
X152978966Y-113878599D01*
X153258889Y-113963513D01*
X153477050Y-113985000D01*
X153622950Y-113985000D01*
X153841111Y-113963513D01*
X154121034Y-113878599D01*
X154379014Y-113740706D01*
X154605134Y-113555134D01*
X154790706Y-113329014D01*
X154820000Y-113274209D01*
X154849294Y-113329014D01*
X155034866Y-113555134D01*
X155260986Y-113740706D01*
X155518966Y-113878599D01*
X155798889Y-113963513D01*
X156017050Y-113985000D01*
X156162950Y-113985000D01*
X156381111Y-113963513D01*
X156661034Y-113878599D01*
X156919014Y-113740706D01*
X157145134Y-113555134D01*
X157330706Y-113329014D01*
X157360000Y-113274209D01*
X157389294Y-113329014D01*
X157574866Y-113555134D01*
X157800986Y-113740706D01*
X158058966Y-113878599D01*
X158338889Y-113963513D01*
X158557050Y-113985000D01*
X158702950Y-113985000D01*
X158921111Y-113963513D01*
X159201034Y-113878599D01*
X159459014Y-113740706D01*
X159685134Y-113555134D01*
X159870706Y-113329014D01*
X159900000Y-113274209D01*
X159929294Y-113329014D01*
X160114866Y-113555134D01*
X160340986Y-113740706D01*
X160598966Y-113878599D01*
X160878889Y-113963513D01*
X161097050Y-113985000D01*
X161242950Y-113985000D01*
X161461111Y-113963513D01*
X161741034Y-113878599D01*
X161999014Y-113740706D01*
X162225134Y-113555134D01*
X162410706Y-113329014D01*
X162440000Y-113274209D01*
X162469294Y-113329014D01*
X162654866Y-113555134D01*
X162880986Y-113740706D01*
X163138966Y-113878599D01*
X163418889Y-113963513D01*
X163637050Y-113985000D01*
X163782950Y-113985000D01*
X164001111Y-113963513D01*
X164281034Y-113878599D01*
X164539014Y-113740706D01*
X164765134Y-113555134D01*
X164789607Y-113525313D01*
X164810498Y-113594180D01*
X164869463Y-113704494D01*
X164948815Y-113801185D01*
X165045506Y-113880537D01*
X165155820Y-113939502D01*
X165275518Y-113975812D01*
X165400000Y-113988072D01*
X167100000Y-113988072D01*
X167224482Y-113975812D01*
X167344180Y-113939502D01*
X167446447Y-113884838D01*
X169794767Y-113884838D01*
X169932724Y-114185044D01*
X170281967Y-114360882D01*
X170658804Y-114465207D01*
X171048753Y-114494009D01*
X171436828Y-114446184D01*
X171808116Y-114323568D01*
X172067276Y-114185044D01*
X172205233Y-113884838D01*
X171000000Y-112679605D01*
X169794767Y-113884838D01*
X167446447Y-113884838D01*
X167454494Y-113880537D01*
X167551185Y-113801185D01*
X167630537Y-113704494D01*
X167689502Y-113594180D01*
X167725812Y-113474482D01*
X167738072Y-113350000D01*
X167738072Y-112548753D01*
X169005991Y-112548753D01*
X169053816Y-112936828D01*
X169176432Y-113308116D01*
X169314956Y-113567276D01*
X169615162Y-113705233D01*
X170820395Y-112500000D01*
X171179605Y-112500000D01*
X172384838Y-113705233D01*
X172685044Y-113567276D01*
X172860882Y-113218033D01*
X172965207Y-112841196D01*
X172994009Y-112451247D01*
X172946184Y-112063172D01*
X172823568Y-111691884D01*
X172685044Y-111432724D01*
X172384838Y-111294767D01*
X171179605Y-112500000D01*
X170820395Y-112500000D01*
X169615162Y-111294767D01*
X169314956Y-111432724D01*
X169139118Y-111781967D01*
X169034793Y-112158804D01*
X169005991Y-112548753D01*
X167738072Y-112548753D01*
X167738072Y-111650000D01*
X167725812Y-111525518D01*
X167689502Y-111405820D01*
X167630537Y-111295506D01*
X167551185Y-111198815D01*
X167454494Y-111119463D01*
X167446448Y-111115162D01*
X169794767Y-111115162D01*
X171000000Y-112320395D01*
X172205233Y-111115162D01*
X172067276Y-110814956D01*
X171718033Y-110639118D01*
X171341196Y-110534793D01*
X170951247Y-110505991D01*
X170563172Y-110553816D01*
X170191884Y-110676432D01*
X169932724Y-110814956D01*
X169794767Y-111115162D01*
X167446448Y-111115162D01*
X167344180Y-111060498D01*
X167224482Y-111024188D01*
X167100000Y-111011928D01*
X165400000Y-111011928D01*
X165275518Y-111024188D01*
X165155820Y-111060498D01*
X165045506Y-111119463D01*
X164948815Y-111198815D01*
X164869463Y-111295506D01*
X164810498Y-111405820D01*
X164789607Y-111474687D01*
X164765134Y-111444866D01*
X164539014Y-111259294D01*
X164281034Y-111121401D01*
X164001111Y-111036487D01*
X163782950Y-111015000D01*
X163637050Y-111015000D01*
X163418889Y-111036487D01*
X163138966Y-111121401D01*
X162880986Y-111259294D01*
X162654866Y-111444866D01*
X162469294Y-111670986D01*
X162440000Y-111725791D01*
X162410706Y-111670986D01*
X162225134Y-111444866D01*
X161999014Y-111259294D01*
X161741034Y-111121401D01*
X161461111Y-111036487D01*
X161242950Y-111015000D01*
X161097050Y-111015000D01*
X160878889Y-111036487D01*
X160598966Y-111121401D01*
X160340986Y-111259294D01*
X160114866Y-111444866D01*
X159929294Y-111670986D01*
X159900000Y-111725791D01*
X159870706Y-111670986D01*
X159685134Y-111444866D01*
X159459014Y-111259294D01*
X159201034Y-111121401D01*
X158921111Y-111036487D01*
X158702950Y-111015000D01*
X158557050Y-111015000D01*
X158338889Y-111036487D01*
X158058966Y-111121401D01*
X157800986Y-111259294D01*
X157574866Y-111444866D01*
X157389294Y-111670986D01*
X157360000Y-111725791D01*
X157330706Y-111670986D01*
X157145134Y-111444866D01*
X156919014Y-111259294D01*
X156661034Y-111121401D01*
X156381111Y-111036487D01*
X156162950Y-111015000D01*
X156017050Y-111015000D01*
X155798889Y-111036487D01*
X155518966Y-111121401D01*
X155260986Y-111259294D01*
X155034866Y-111444866D01*
X154849294Y-111670986D01*
X154820000Y-111725791D01*
X154790706Y-111670986D01*
X154605134Y-111444866D01*
X154379014Y-111259294D01*
X154121034Y-111121401D01*
X153841111Y-111036487D01*
X153622950Y-111015000D01*
X153477050Y-111015000D01*
X153258889Y-111036487D01*
X152978966Y-111121401D01*
X152720986Y-111259294D01*
X152494866Y-111444866D01*
X152309294Y-111670986D01*
X152280000Y-111725791D01*
X152250706Y-111670986D01*
X152065134Y-111444866D01*
X151839014Y-111259294D01*
X151581034Y-111121401D01*
X151301111Y-111036487D01*
X151082950Y-111015000D01*
X150937050Y-111015000D01*
X150718889Y-111036487D01*
X150438966Y-111121401D01*
X150180986Y-111259294D01*
X149954866Y-111444866D01*
X149769294Y-111670986D01*
X149740000Y-111725791D01*
X149710706Y-111670986D01*
X149525134Y-111444866D01*
X149299014Y-111259294D01*
X149041034Y-111121401D01*
X148982384Y-111103610D01*
X149045226Y-110951898D01*
X149085000Y-110751939D01*
X149085000Y-110548061D01*
X149045226Y-110348102D01*
X148974920Y-110178370D01*
X149067205Y-110040256D01*
X149145226Y-109851898D01*
X149185000Y-109651939D01*
X149185000Y-109448061D01*
X149145226Y-109248102D01*
X149067205Y-109059744D01*
X148953937Y-108890226D01*
X148809774Y-108746063D01*
X148640256Y-108632795D01*
X148451898Y-108554774D01*
X148355307Y-108535561D01*
X157302500Y-108535561D01*
X157302500Y-108739439D01*
X157342274Y-108939398D01*
X157420295Y-109127756D01*
X157533563Y-109297274D01*
X157677726Y-109441437D01*
X157847244Y-109554705D01*
X158035602Y-109632726D01*
X158235561Y-109672500D01*
X158439439Y-109672500D01*
X158639398Y-109632726D01*
X158827756Y-109554705D01*
X158997274Y-109441437D01*
X159141437Y-109297274D01*
X159254705Y-109127756D01*
X159332726Y-108939398D01*
X159372500Y-108739439D01*
X159372500Y-108535561D01*
X159332726Y-108335602D01*
X159254705Y-108147244D01*
X159141437Y-107977726D01*
X158997274Y-107833563D01*
X158827756Y-107720295D01*
X158639398Y-107642274D01*
X158439439Y-107602500D01*
X158235561Y-107602500D01*
X158035602Y-107642274D01*
X157847244Y-107720295D01*
X157677726Y-107833563D01*
X157533563Y-107977726D01*
X157420295Y-108147244D01*
X157342274Y-108335602D01*
X157302500Y-108535561D01*
X148355307Y-108535561D01*
X148251939Y-108515000D01*
X148048061Y-108515000D01*
X147848102Y-108554774D01*
X147659744Y-108632795D01*
X147490226Y-108746063D01*
X147346063Y-108890226D01*
X147232795Y-109059744D01*
X147154774Y-109248102D01*
X147115000Y-109448061D01*
X147115000Y-109651939D01*
X147154774Y-109851898D01*
X147225080Y-110021630D01*
X147132795Y-110159744D01*
X147054774Y-110348102D01*
X147015000Y-110548061D01*
X147015000Y-110751939D01*
X147054774Y-110951898D01*
X147132795Y-111140256D01*
X147246063Y-111309774D01*
X147390226Y-111453937D01*
X147401332Y-111461358D01*
X147229294Y-111670986D01*
X147200000Y-111725791D01*
X147170706Y-111670986D01*
X146985134Y-111444866D01*
X146759014Y-111259294D01*
X146501034Y-111121401D01*
X146221111Y-111036487D01*
X146002950Y-111015000D01*
X145857050Y-111015000D01*
X145638889Y-111036487D01*
X145358966Y-111121401D01*
X145100986Y-111259294D01*
X144874866Y-111444866D01*
X144689294Y-111670986D01*
X144654799Y-111735523D01*
X144585178Y-111618645D01*
X144390269Y-111402412D01*
X144156920Y-111228359D01*
X143894099Y-111103175D01*
X143746890Y-111058524D01*
X143517000Y-111179845D01*
X143263000Y-111179845D01*
X143033110Y-111058524D01*
X142885901Y-111103175D01*
X142623080Y-111228359D01*
X142389731Y-111402412D01*
X142194822Y-111618645D01*
X142045843Y-111868748D01*
X141948519Y-112143109D01*
X140456036Y-112143109D01*
X140446184Y-112063172D01*
X140323568Y-111691884D01*
X140185044Y-111432724D01*
X139884838Y-111294767D01*
X138679605Y-112500000D01*
X138320395Y-112500000D01*
X137115162Y-111294767D01*
X136814956Y-111432724D01*
X136639118Y-111781967D01*
X136534793Y-112158804D01*
X136505991Y-112548753D01*
X136185000Y-112548753D01*
X136185000Y-111115162D01*
X137294767Y-111115162D01*
X138500000Y-112320395D01*
X139705233Y-111115162D01*
X139567276Y-110814956D01*
X139218033Y-110639118D01*
X138841196Y-110534793D01*
X138451247Y-110505991D01*
X138063172Y-110553816D01*
X137691884Y-110676432D01*
X137432724Y-110814956D01*
X137294767Y-111115162D01*
X136185000Y-111115162D01*
X136185000Y-106498061D01*
X163865000Y-106498061D01*
X163865000Y-106701939D01*
X163904774Y-106901898D01*
X163982795Y-107090256D01*
X164096063Y-107259774D01*
X164240226Y-107403937D01*
X164409744Y-107517205D01*
X164598102Y-107595226D01*
X164798061Y-107635000D01*
X165001939Y-107635000D01*
X165201898Y-107595226D01*
X165390256Y-107517205D01*
X165559774Y-107403937D01*
X165703937Y-107259774D01*
X165786928Y-107135569D01*
X165786928Y-107150001D01*
X165803992Y-107323255D01*
X165854528Y-107489851D01*
X165936595Y-107643387D01*
X166047038Y-107777962D01*
X166181613Y-107888405D01*
X166335149Y-107970472D01*
X166501745Y-108021008D01*
X166674999Y-108038072D01*
X167925001Y-108038072D01*
X168098255Y-108021008D01*
X168264851Y-107970472D01*
X168418387Y-107888405D01*
X168552962Y-107777962D01*
X168663405Y-107643387D01*
X168745472Y-107489851D01*
X168796008Y-107323255D01*
X168813072Y-107150001D01*
X168813072Y-106449999D01*
X168796008Y-106276745D01*
X168745472Y-106110149D01*
X168663405Y-105956613D01*
X168552962Y-105822038D01*
X168418387Y-105711595D01*
X168413594Y-105709033D01*
X168538078Y-105583474D01*
X168672421Y-105380533D01*
X168764591Y-105155282D01*
X168768462Y-105117609D01*
X168643731Y-104927000D01*
X167427000Y-104927000D01*
X167427000Y-104947000D01*
X167173000Y-104947000D01*
X167173000Y-104927000D01*
X165956269Y-104927000D01*
X165831538Y-105117609D01*
X165835409Y-105155282D01*
X165927579Y-105380533D01*
X166061922Y-105583474D01*
X166186406Y-105709033D01*
X166181613Y-105711595D01*
X166047038Y-105822038D01*
X165936595Y-105956613D01*
X165854528Y-106110149D01*
X165838821Y-106161929D01*
X165817205Y-106109744D01*
X165703937Y-105940226D01*
X165559774Y-105796063D01*
X165390256Y-105682795D01*
X165201898Y-105604774D01*
X165001939Y-105565000D01*
X164798061Y-105565000D01*
X164598102Y-105604774D01*
X164409744Y-105682795D01*
X164240226Y-105796063D01*
X164096063Y-105940226D01*
X163982795Y-106109744D01*
X163904774Y-106298102D01*
X163865000Y-106498061D01*
X136185000Y-106498061D01*
X136185000Y-104482391D01*
X165831538Y-104482391D01*
X165956269Y-104673000D01*
X167173000Y-104673000D01*
X167173000Y-103565000D01*
X167427000Y-103565000D01*
X167427000Y-104673000D01*
X168643731Y-104673000D01*
X168768462Y-104482391D01*
X168764591Y-104444718D01*
X168672421Y-104219467D01*
X168538078Y-104016526D01*
X168366725Y-103843693D01*
X168164946Y-103707610D01*
X167940496Y-103613507D01*
X167702000Y-103565000D01*
X167427000Y-103565000D01*
X167173000Y-103565000D01*
X166898000Y-103565000D01*
X166659504Y-103613507D01*
X166435054Y-103707610D01*
X166233275Y-103843693D01*
X166061922Y-104016526D01*
X165927579Y-104219467D01*
X165835409Y-104444718D01*
X165831538Y-104482391D01*
X136185000Y-104482391D01*
X136185000Y-101348061D01*
X144615000Y-101348061D01*
X144615000Y-101551939D01*
X144654774Y-101751898D01*
X144732795Y-101940256D01*
X144846063Y-102109774D01*
X144990226Y-102253937D01*
X145159744Y-102367205D01*
X145348102Y-102445226D01*
X145548061Y-102485000D01*
X145751939Y-102485000D01*
X145951898Y-102445226D01*
X146140256Y-102367205D01*
X146309774Y-102253937D01*
X146453937Y-102109774D01*
X146516704Y-102015836D01*
X146546063Y-102059774D01*
X146690226Y-102203937D01*
X146859744Y-102317205D01*
X147048102Y-102395226D01*
X147248061Y-102435000D01*
X147451939Y-102435000D01*
X147651898Y-102395226D01*
X147840256Y-102317205D01*
X148009774Y-102203937D01*
X148153937Y-102059774D01*
X148208296Y-101978420D01*
X148296063Y-102109774D01*
X148440226Y-102253937D01*
X148609744Y-102367205D01*
X148798102Y-102445226D01*
X148998061Y-102485000D01*
X149201939Y-102485000D01*
X149401898Y-102445226D01*
X149590256Y-102367205D01*
X149759774Y-102253937D01*
X149903937Y-102109774D01*
X150017205Y-101940256D01*
X150095226Y-101751898D01*
X150135000Y-101551939D01*
X150135000Y-101348061D01*
X150095226Y-101148102D01*
X150017205Y-100959744D01*
X149903937Y-100790226D01*
X149759774Y-100646063D01*
X149613104Y-100548061D01*
X157315000Y-100548061D01*
X157315000Y-100751939D01*
X157354774Y-100951898D01*
X157432795Y-101140256D01*
X157546063Y-101309774D01*
X157690226Y-101453937D01*
X157859744Y-101567205D01*
X158048102Y-101645226D01*
X158248061Y-101685000D01*
X158451939Y-101685000D01*
X158651898Y-101645226D01*
X158840256Y-101567205D01*
X159009774Y-101453937D01*
X159153937Y-101309774D01*
X159267205Y-101140256D01*
X159345226Y-100951898D01*
X159385000Y-100751939D01*
X159385000Y-100548061D01*
X159345226Y-100348102D01*
X159267205Y-100159744D01*
X159153937Y-99990226D01*
X159009774Y-99846063D01*
X158840256Y-99732795D01*
X158651898Y-99654774D01*
X158451939Y-99615000D01*
X158248061Y-99615000D01*
X158048102Y-99654774D01*
X157859744Y-99732795D01*
X157690226Y-99846063D01*
X157546063Y-99990226D01*
X157432795Y-100159744D01*
X157354774Y-100348102D01*
X157315000Y-100548061D01*
X149613104Y-100548061D01*
X149590256Y-100532795D01*
X149401898Y-100454774D01*
X149201939Y-100415000D01*
X148998061Y-100415000D01*
X148798102Y-100454774D01*
X148609744Y-100532795D01*
X148440226Y-100646063D01*
X148296063Y-100790226D01*
X148241704Y-100871580D01*
X148153937Y-100740226D01*
X148009774Y-100596063D01*
X147840256Y-100482795D01*
X147651898Y-100404774D01*
X147451939Y-100365000D01*
X147248061Y-100365000D01*
X147048102Y-100404774D01*
X146859744Y-100482795D01*
X146690226Y-100596063D01*
X146546063Y-100740226D01*
X146483296Y-100834164D01*
X146453937Y-100790226D01*
X146309774Y-100646063D01*
X146140256Y-100532795D01*
X145951898Y-100454774D01*
X145751939Y-100415000D01*
X145548061Y-100415000D01*
X145348102Y-100454774D01*
X145159744Y-100532795D01*
X144990226Y-100646063D01*
X144846063Y-100790226D01*
X144732795Y-100959744D01*
X144654774Y-101148102D01*
X144615000Y-101348061D01*
X136185000Y-101348061D01*
X136185000Y-99248061D01*
X149215000Y-99248061D01*
X149215000Y-99451939D01*
X149254774Y-99651898D01*
X149332795Y-99840256D01*
X149446063Y-100009774D01*
X149590226Y-100153937D01*
X149759744Y-100267205D01*
X149948102Y-100345226D01*
X150148061Y-100385000D01*
X150351939Y-100385000D01*
X150551898Y-100345226D01*
X150740256Y-100267205D01*
X150909774Y-100153937D01*
X151053937Y-100009774D01*
X151167205Y-99840256D01*
X151245226Y-99651898D01*
X151285000Y-99451939D01*
X151285000Y-99248061D01*
X151245226Y-99048102D01*
X151245210Y-99048061D01*
X166615000Y-99048061D01*
X166615000Y-99251939D01*
X166654774Y-99451898D01*
X166732795Y-99640256D01*
X166846063Y-99809774D01*
X166990226Y-99953937D01*
X167159744Y-100067205D01*
X167348102Y-100145226D01*
X167548061Y-100185000D01*
X167751939Y-100185000D01*
X167951898Y-100145226D01*
X168140256Y-100067205D01*
X168309774Y-99953937D01*
X168453937Y-99809774D01*
X168567205Y-99640256D01*
X168645226Y-99451898D01*
X168685000Y-99251939D01*
X168685000Y-99048061D01*
X168645226Y-98848102D01*
X168567205Y-98659744D01*
X168453937Y-98490226D01*
X168309774Y-98346063D01*
X168140256Y-98232795D01*
X167951898Y-98154774D01*
X167751939Y-98115000D01*
X167548061Y-98115000D01*
X167348102Y-98154774D01*
X167159744Y-98232795D01*
X166990226Y-98346063D01*
X166846063Y-98490226D01*
X166732795Y-98659744D01*
X166654774Y-98848102D01*
X166615000Y-99048061D01*
X151245210Y-99048061D01*
X151167205Y-98859744D01*
X151053937Y-98690226D01*
X150909774Y-98546063D01*
X150740256Y-98432795D01*
X150551898Y-98354774D01*
X150351939Y-98315000D01*
X150148061Y-98315000D01*
X149948102Y-98354774D01*
X149759744Y-98432795D01*
X149590226Y-98546063D01*
X149446063Y-98690226D01*
X149332795Y-98859744D01*
X149254774Y-99048102D01*
X149215000Y-99248061D01*
X136185000Y-99248061D01*
X136185000Y-94748061D01*
X143765000Y-94748061D01*
X143765000Y-94951939D01*
X143804774Y-95151898D01*
X143882795Y-95340256D01*
X143996063Y-95509774D01*
X144140226Y-95653937D01*
X144309744Y-95767205D01*
X144498102Y-95845226D01*
X144698061Y-95885000D01*
X144901939Y-95885000D01*
X145101898Y-95845226D01*
X145290256Y-95767205D01*
X145459774Y-95653937D01*
X145603937Y-95509774D01*
X145717205Y-95340256D01*
X145795226Y-95151898D01*
X145835000Y-94951939D01*
X145835000Y-94748061D01*
X145795226Y-94548102D01*
X145717205Y-94359744D01*
X145603937Y-94190226D01*
X145459774Y-94046063D01*
X145290256Y-93932795D01*
X145101898Y-93854774D01*
X144901939Y-93815000D01*
X144698061Y-93815000D01*
X144498102Y-93854774D01*
X144309744Y-93932795D01*
X144140226Y-94046063D01*
X143996063Y-94190226D01*
X143882795Y-94359744D01*
X143804774Y-94548102D01*
X143765000Y-94748061D01*
X136185000Y-94748061D01*
X136185000Y-91898061D01*
X145315000Y-91898061D01*
X145315000Y-92101939D01*
X145354774Y-92301898D01*
X145432795Y-92490256D01*
X145546063Y-92659774D01*
X145690226Y-92803937D01*
X145859744Y-92917205D01*
X146048102Y-92995226D01*
X146248061Y-93035000D01*
X146451939Y-93035000D01*
X146651898Y-92995226D01*
X146840256Y-92917205D01*
X147009774Y-92803937D01*
X147153937Y-92659774D01*
X147267205Y-92490256D01*
X147345226Y-92301898D01*
X147385000Y-92101939D01*
X147385000Y-91898061D01*
X147345226Y-91698102D01*
X147267205Y-91509744D01*
X147153937Y-91340226D01*
X147009774Y-91196063D01*
X146840256Y-91082795D01*
X146651898Y-91004774D01*
X146451939Y-90965000D01*
X146248061Y-90965000D01*
X146048102Y-91004774D01*
X145859744Y-91082795D01*
X145690226Y-91196063D01*
X145546063Y-91340226D01*
X145432795Y-91509744D01*
X145354774Y-91698102D01*
X145315000Y-91898061D01*
X136185000Y-91898061D01*
X136185000Y-90389799D01*
X136198102Y-90395226D01*
X136398061Y-90435000D01*
X136601939Y-90435000D01*
X136801898Y-90395226D01*
X136990256Y-90317205D01*
X137159774Y-90203937D01*
X137303937Y-90059774D01*
X137417205Y-89890256D01*
X137495226Y-89701898D01*
X137535000Y-89501939D01*
X137535000Y-89298061D01*
X137505164Y-89148061D01*
X145115000Y-89148061D01*
X145115000Y-89351939D01*
X145154774Y-89551898D01*
X145232795Y-89740256D01*
X145346063Y-89909774D01*
X145490226Y-90053937D01*
X145659744Y-90167205D01*
X145848102Y-90245226D01*
X146048061Y-90285000D01*
X146251939Y-90285000D01*
X146451898Y-90245226D01*
X146640256Y-90167205D01*
X146809774Y-90053937D01*
X146953937Y-89909774D01*
X147028581Y-89798061D01*
X163565000Y-89798061D01*
X163565000Y-90001939D01*
X163604774Y-90201898D01*
X163682795Y-90390256D01*
X163747715Y-90487415D01*
X163732795Y-90509744D01*
X163654774Y-90698102D01*
X163615000Y-90898061D01*
X163615000Y-91101939D01*
X163654774Y-91301898D01*
X163732795Y-91490256D01*
X163764419Y-91537585D01*
X163682795Y-91659744D01*
X163604774Y-91848102D01*
X163565000Y-92048061D01*
X163565000Y-92251939D01*
X163604774Y-92451898D01*
X163682795Y-92640256D01*
X163796063Y-92809774D01*
X163940226Y-92953937D01*
X164109744Y-93067205D01*
X164298102Y-93145226D01*
X164498061Y-93185000D01*
X164701939Y-93185000D01*
X164901898Y-93145226D01*
X165090256Y-93067205D01*
X165259774Y-92953937D01*
X165403937Y-92809774D01*
X165517205Y-92640256D01*
X165595226Y-92451898D01*
X165635000Y-92251939D01*
X165635000Y-92048061D01*
X165595226Y-91848102D01*
X165517205Y-91659744D01*
X165485581Y-91612415D01*
X165567205Y-91490256D01*
X165645226Y-91301898D01*
X165685000Y-91101939D01*
X165685000Y-90898061D01*
X165645226Y-90698102D01*
X165567205Y-90509744D01*
X165502285Y-90412585D01*
X165517205Y-90390256D01*
X165595226Y-90201898D01*
X165635000Y-90001939D01*
X165635000Y-89798061D01*
X165595226Y-89598102D01*
X165517205Y-89409744D01*
X165485581Y-89362415D01*
X165567205Y-89240256D01*
X165645226Y-89051898D01*
X165685000Y-88851939D01*
X165685000Y-88648061D01*
X165645226Y-88448102D01*
X165567205Y-88259744D01*
X165453937Y-88090226D01*
X165309774Y-87946063D01*
X165140256Y-87832795D01*
X164951898Y-87754774D01*
X164751939Y-87715000D01*
X164548061Y-87715000D01*
X164348102Y-87754774D01*
X164159744Y-87832795D01*
X163990226Y-87946063D01*
X163846063Y-88090226D01*
X163732795Y-88259744D01*
X163654774Y-88448102D01*
X163615000Y-88648061D01*
X163615000Y-88851939D01*
X163654774Y-89051898D01*
X163732795Y-89240256D01*
X163764419Y-89287585D01*
X163682795Y-89409744D01*
X163604774Y-89598102D01*
X163565000Y-89798061D01*
X147028581Y-89798061D01*
X147067205Y-89740256D01*
X147145226Y-89551898D01*
X147185000Y-89351939D01*
X147185000Y-89148061D01*
X147145226Y-88948102D01*
X147067205Y-88759744D01*
X146953937Y-88590226D01*
X146809774Y-88446063D01*
X146640256Y-88332795D01*
X146451898Y-88254774D01*
X146251939Y-88215000D01*
X146048061Y-88215000D01*
X145848102Y-88254774D01*
X145659744Y-88332795D01*
X145490226Y-88446063D01*
X145346063Y-88590226D01*
X145232795Y-88759744D01*
X145154774Y-88948102D01*
X145115000Y-89148061D01*
X137505164Y-89148061D01*
X137495226Y-89098102D01*
X137417205Y-88909744D01*
X137303937Y-88740226D01*
X137159774Y-88596063D01*
X136990256Y-88482795D01*
X136801898Y-88404774D01*
X136601939Y-88365000D01*
X136398061Y-88365000D01*
X136198102Y-88404774D01*
X136185000Y-88410201D01*
X136185000Y-86448061D01*
X163465000Y-86448061D01*
X163465000Y-86651939D01*
X163504774Y-86851898D01*
X163582795Y-87040256D01*
X163696063Y-87209774D01*
X163840226Y-87353937D01*
X164009744Y-87467205D01*
X164198102Y-87545226D01*
X164398061Y-87585000D01*
X164601939Y-87585000D01*
X164801898Y-87545226D01*
X164990256Y-87467205D01*
X165159774Y-87353937D01*
X165303937Y-87209774D01*
X165417205Y-87040256D01*
X165495226Y-86851898D01*
X165535000Y-86651939D01*
X165535000Y-86448061D01*
X165495226Y-86248102D01*
X165417205Y-86059744D01*
X165303937Y-85890226D01*
X165159774Y-85746063D01*
X164990256Y-85632795D01*
X164801898Y-85554774D01*
X164601939Y-85515000D01*
X164398061Y-85515000D01*
X164198102Y-85554774D01*
X164009744Y-85632795D01*
X163840226Y-85746063D01*
X163696063Y-85890226D01*
X163582795Y-86059744D01*
X163504774Y-86248102D01*
X163465000Y-86448061D01*
X136185000Y-86448061D01*
X136185000Y-84398061D01*
X166365000Y-84398061D01*
X166365000Y-84601939D01*
X166404774Y-84801898D01*
X166482795Y-84990256D01*
X166596063Y-85159774D01*
X166740226Y-85303937D01*
X166909744Y-85417205D01*
X167098102Y-85495226D01*
X167298061Y-85535000D01*
X167501939Y-85535000D01*
X167701898Y-85495226D01*
X167890256Y-85417205D01*
X168059774Y-85303937D01*
X168203937Y-85159774D01*
X168317205Y-84990256D01*
X168395226Y-84801898D01*
X168435000Y-84601939D01*
X168435000Y-84398061D01*
X168395226Y-84198102D01*
X168317205Y-84009744D01*
X168203937Y-83840226D01*
X168059774Y-83696063D01*
X167890256Y-83582795D01*
X167701898Y-83504774D01*
X167501939Y-83465000D01*
X167298061Y-83465000D01*
X167098102Y-83504774D01*
X166909744Y-83582795D01*
X166740226Y-83696063D01*
X166596063Y-83840226D01*
X166482795Y-84009744D01*
X166404774Y-84198102D01*
X166365000Y-84398061D01*
X136185000Y-84398061D01*
X136185000Y-83202487D01*
X136204774Y-83301898D01*
X136282795Y-83490256D01*
X136396063Y-83659774D01*
X136540226Y-83803937D01*
X136709744Y-83917205D01*
X136898102Y-83995226D01*
X137098061Y-84035000D01*
X137301939Y-84035000D01*
X137501898Y-83995226D01*
X137690256Y-83917205D01*
X137859774Y-83803937D01*
X137950000Y-83713711D01*
X138040226Y-83803937D01*
X138209744Y-83917205D01*
X138398102Y-83995226D01*
X138598061Y-84035000D01*
X138801939Y-84035000D01*
X139001898Y-83995226D01*
X139190256Y-83917205D01*
X139359774Y-83803937D01*
X139503937Y-83659774D01*
X139617205Y-83490256D01*
X139695226Y-83301898D01*
X139735000Y-83101939D01*
X139735000Y-82898061D01*
X139695226Y-82698102D01*
X139617205Y-82509744D01*
X139503937Y-82340226D01*
X139359774Y-82196063D01*
X139190256Y-82082795D01*
X139001898Y-82004774D01*
X138801939Y-81965000D01*
X138598061Y-81965000D01*
X138398102Y-82004774D01*
X138209744Y-82082795D01*
X138040226Y-82196063D01*
X137950000Y-82286289D01*
X137859774Y-82196063D01*
X137690256Y-82082795D01*
X137501898Y-82004774D01*
X137301939Y-81965000D01*
X137098061Y-81965000D01*
X136898102Y-82004774D01*
X136709744Y-82082795D01*
X136540226Y-82196063D01*
X136396063Y-82340226D01*
X136282795Y-82509744D01*
X136204774Y-82698102D01*
X136185000Y-82797513D01*
X136185000Y-81698061D01*
X145165000Y-81698061D01*
X145165000Y-81901939D01*
X145204774Y-82101898D01*
X145282795Y-82290256D01*
X145396063Y-82459774D01*
X145540226Y-82603937D01*
X145709744Y-82717205D01*
X145898102Y-82795226D01*
X146098061Y-82835000D01*
X146301939Y-82835000D01*
X146501898Y-82795226D01*
X146690256Y-82717205D01*
X146859774Y-82603937D01*
X147003937Y-82459774D01*
X147117205Y-82290256D01*
X147195226Y-82101898D01*
X147235000Y-81901939D01*
X147235000Y-81698061D01*
X147195226Y-81498102D01*
X147195210Y-81498061D01*
X165115000Y-81498061D01*
X165115000Y-81701939D01*
X165154774Y-81901898D01*
X165232795Y-82090256D01*
X165346063Y-82259774D01*
X165490226Y-82403937D01*
X165659744Y-82517205D01*
X165848102Y-82595226D01*
X166048061Y-82635000D01*
X166251939Y-82635000D01*
X166451898Y-82595226D01*
X166640256Y-82517205D01*
X166809774Y-82403937D01*
X166953937Y-82259774D01*
X167067205Y-82090256D01*
X167145226Y-81901898D01*
X167185000Y-81701939D01*
X167185000Y-81498061D01*
X167145226Y-81298102D01*
X167067205Y-81109744D01*
X166953937Y-80940226D01*
X166931471Y-80917760D01*
X168815000Y-80917760D01*
X168815000Y-81082240D01*
X168847089Y-81243560D01*
X168910033Y-81395521D01*
X169001413Y-81532281D01*
X169117719Y-81648587D01*
X169254479Y-81739967D01*
X169406440Y-81802911D01*
X169567760Y-81835000D01*
X169732240Y-81835000D01*
X169893560Y-81802911D01*
X170045521Y-81739967D01*
X170182281Y-81648587D01*
X170298587Y-81532281D01*
X170389967Y-81395521D01*
X170452911Y-81243560D01*
X170485000Y-81082240D01*
X170485000Y-80917760D01*
X170452911Y-80756440D01*
X170389967Y-80604479D01*
X170298587Y-80467719D01*
X170182281Y-80351413D01*
X170045521Y-80260033D01*
X169893560Y-80197089D01*
X169732240Y-80165000D01*
X169567760Y-80165000D01*
X169406440Y-80197089D01*
X169254479Y-80260033D01*
X169117719Y-80351413D01*
X169001413Y-80467719D01*
X168910033Y-80604479D01*
X168847089Y-80756440D01*
X168815000Y-80917760D01*
X166931471Y-80917760D01*
X166809774Y-80796063D01*
X166640256Y-80682795D01*
X166451898Y-80604774D01*
X166251939Y-80565000D01*
X166048061Y-80565000D01*
X165848102Y-80604774D01*
X165659744Y-80682795D01*
X165490226Y-80796063D01*
X165346063Y-80940226D01*
X165232795Y-81109744D01*
X165154774Y-81298102D01*
X165115000Y-81498061D01*
X147195210Y-81498061D01*
X147117205Y-81309744D01*
X147003937Y-81140226D01*
X146859774Y-80996063D01*
X146690256Y-80882795D01*
X146501898Y-80804774D01*
X146301939Y-80765000D01*
X146098061Y-80765000D01*
X145898102Y-80804774D01*
X145709744Y-80882795D01*
X145540226Y-80996063D01*
X145396063Y-81140226D01*
X145282795Y-81309744D01*
X145204774Y-81498102D01*
X145165000Y-81698061D01*
X136185000Y-81698061D01*
X136185000Y-79648061D01*
X158465000Y-79648061D01*
X158465000Y-79851939D01*
X158504774Y-80051898D01*
X158582795Y-80240256D01*
X158696063Y-80409774D01*
X158840226Y-80553937D01*
X159009744Y-80667205D01*
X159198102Y-80745226D01*
X159398061Y-80785000D01*
X159601939Y-80785000D01*
X159801898Y-80745226D01*
X159990256Y-80667205D01*
X160159774Y-80553937D01*
X160303937Y-80409774D01*
X160417205Y-80240256D01*
X160495226Y-80051898D01*
X160535000Y-79851939D01*
X160535000Y-79648061D01*
X161265000Y-79648061D01*
X161265000Y-79851939D01*
X161304774Y-80051898D01*
X161382795Y-80240256D01*
X161496063Y-80409774D01*
X161640226Y-80553937D01*
X161809744Y-80667205D01*
X161998102Y-80745226D01*
X162198061Y-80785000D01*
X162401939Y-80785000D01*
X162601898Y-80745226D01*
X162790256Y-80667205D01*
X162959774Y-80553937D01*
X163103937Y-80409774D01*
X163217205Y-80240256D01*
X163295226Y-80051898D01*
X163335000Y-79851939D01*
X163335000Y-79648061D01*
X163295226Y-79448102D01*
X163217205Y-79259744D01*
X163103937Y-79090226D01*
X162959774Y-78946063D01*
X162790256Y-78832795D01*
X162601898Y-78754774D01*
X162401939Y-78715000D01*
X162198061Y-78715000D01*
X161998102Y-78754774D01*
X161809744Y-78832795D01*
X161640226Y-78946063D01*
X161496063Y-79090226D01*
X161382795Y-79259744D01*
X161304774Y-79448102D01*
X161265000Y-79648061D01*
X160535000Y-79648061D01*
X160495226Y-79448102D01*
X160417205Y-79259744D01*
X160303937Y-79090226D01*
X160159774Y-78946063D01*
X159990256Y-78832795D01*
X159801898Y-78754774D01*
X159601939Y-78715000D01*
X159398061Y-78715000D01*
X159198102Y-78754774D01*
X159009744Y-78832795D01*
X158840226Y-78946063D01*
X158696063Y-79090226D01*
X158582795Y-79259744D01*
X158504774Y-79448102D01*
X158465000Y-79648061D01*
X136185000Y-79648061D01*
X136185000Y-76917760D01*
X168815000Y-76917760D01*
X168815000Y-77082240D01*
X168847089Y-77243560D01*
X168910033Y-77395521D01*
X169001413Y-77532281D01*
X169117719Y-77648587D01*
X169254479Y-77739967D01*
X169406440Y-77802911D01*
X169567760Y-77835000D01*
X169732240Y-77835000D01*
X169893560Y-77802911D01*
X170045521Y-77739967D01*
X170182281Y-77648587D01*
X170298587Y-77532281D01*
X170389967Y-77395521D01*
X170452911Y-77243560D01*
X170485000Y-77082240D01*
X170485000Y-76917760D01*
X170452911Y-76756440D01*
X170389967Y-76604479D01*
X170298587Y-76467719D01*
X170182281Y-76351413D01*
X170045521Y-76260033D01*
X169893560Y-76197089D01*
X169732240Y-76165000D01*
X169567760Y-76165000D01*
X169406440Y-76197089D01*
X169254479Y-76260033D01*
X169117719Y-76351413D01*
X169001413Y-76467719D01*
X168910033Y-76604479D01*
X168847089Y-76756440D01*
X168815000Y-76917760D01*
X136185000Y-76917760D01*
X136185000Y-75484838D01*
X137294767Y-75484838D01*
X137432724Y-75785044D01*
X137781967Y-75960882D01*
X138158804Y-76065207D01*
X138548753Y-76094009D01*
X138936828Y-76046184D01*
X139308116Y-75923568D01*
X139567276Y-75785044D01*
X139705233Y-75484838D01*
X138500000Y-74279605D01*
X137294767Y-75484838D01*
X136185000Y-75484838D01*
X136185000Y-74148753D01*
X136505991Y-74148753D01*
X136553816Y-74536828D01*
X136676432Y-74908116D01*
X136814956Y-75167276D01*
X137115162Y-75305233D01*
X138320395Y-74100000D01*
X138679605Y-74100000D01*
X139884838Y-75305233D01*
X140185044Y-75167276D01*
X140360882Y-74818033D01*
X140465207Y-74441196D01*
X140494009Y-74051247D01*
X140446184Y-73663172D01*
X140323568Y-73291884D01*
X140185044Y-73032724D01*
X139884838Y-72894767D01*
X138679605Y-74100000D01*
X138320395Y-74100000D01*
X137115162Y-72894767D01*
X136814956Y-73032724D01*
X136639118Y-73381967D01*
X136534793Y-73758804D01*
X136505991Y-74148753D01*
X136185000Y-74148753D01*
X136185000Y-74033504D01*
X136251356Y-73356752D01*
X136438168Y-72738002D01*
X136450312Y-72715162D01*
X137294767Y-72715162D01*
X138500000Y-73920395D01*
X139705233Y-72715162D01*
X139567276Y-72414956D01*
X139218033Y-72239118D01*
X138841196Y-72134793D01*
X138451247Y-72105991D01*
X138063172Y-72153816D01*
X137691884Y-72276432D01*
X137432724Y-72414956D01*
X137294767Y-72715162D01*
X136450312Y-72715162D01*
X136741602Y-72167325D01*
X137150104Y-71666452D01*
X137648112Y-71254464D01*
X138216658Y-70947052D01*
X138834090Y-70755925D01*
X139508894Y-70685000D01*
X169966496Y-70685000D01*
X170643248Y-70751356D01*
M02*
