G04 #@! TF.GenerationSoftware,KiCad,Pcbnew,(5.1.4-0)*
G04 #@! TF.CreationDate,2021-09-04T15:45:49+08:00*
G04 #@! TF.ProjectId,SIM7080,53494d37-3038-4302-9e6b-696361645f70,V1.2*
G04 #@! TF.SameCoordinates,Original*
G04 #@! TF.FileFunction,Legend,Top*
G04 #@! TF.FilePolarity,Positive*
%FSLAX46Y46*%
G04 Gerber Fmt 4.6, Leading zero omitted, Abs format (unit mm)*
G04 Created by KiCad (PCBNEW (5.1.4-0)) date 2021-09-04 15:45:49*
%MOMM*%
%LPD*%
G04 APERTURE LIST*
%ADD10C,0.120000*%
%ADD11C,0.200000*%
%ADD12C,0.127000*%
%ADD13C,0.150000*%
%ADD14C,0.152400*%
G04 APERTURE END LIST*
D10*
X139695238Y-91157142D02*
X140304761Y-91157142D01*
X140000000Y-91461904D02*
X140000000Y-90852380D01*
X169973809Y-90935714D02*
X169935714Y-90973809D01*
X169821428Y-91011904D01*
X169745238Y-91011904D01*
X169630952Y-90973809D01*
X169554761Y-90897619D01*
X169516666Y-90821428D01*
X169478571Y-90669047D01*
X169478571Y-90554761D01*
X169516666Y-90402380D01*
X169554761Y-90326190D01*
X169630952Y-90250000D01*
X169745238Y-90211904D01*
X169821428Y-90211904D01*
X169935714Y-90250000D01*
X169973809Y-90288095D01*
X170316666Y-91011904D02*
X170316666Y-90211904D01*
X170316666Y-90592857D02*
X170773809Y-90592857D01*
X170773809Y-91011904D02*
X170773809Y-90211904D01*
X171116666Y-90783333D02*
X171497619Y-90783333D01*
X171040476Y-91011904D02*
X171307142Y-90211904D01*
X171573809Y-91011904D01*
X172297619Y-91011904D02*
X172030952Y-90630952D01*
X171840476Y-91011904D02*
X171840476Y-90211904D01*
X172145238Y-90211904D01*
X172221428Y-90250000D01*
X172259523Y-90288095D01*
X172297619Y-90364285D01*
X172297619Y-90478571D01*
X172259523Y-90554761D01*
X172221428Y-90592857D01*
X172145238Y-90630952D01*
X171840476Y-90630952D01*
X173059523Y-90250000D02*
X172983333Y-90211904D01*
X172869047Y-90211904D01*
X172754761Y-90250000D01*
X172678571Y-90326190D01*
X172640476Y-90402380D01*
X172602380Y-90554761D01*
X172602380Y-90669047D01*
X172640476Y-90821428D01*
X172678571Y-90897619D01*
X172754761Y-90973809D01*
X172869047Y-91011904D01*
X172945238Y-91011904D01*
X173059523Y-90973809D01*
X173097619Y-90935714D01*
X173097619Y-90669047D01*
X172945238Y-90669047D01*
X173440476Y-90592857D02*
X173707142Y-90592857D01*
X173821428Y-91011904D02*
X173440476Y-91011904D01*
X173440476Y-90211904D01*
X173821428Y-90211904D01*
X138228571Y-78561904D02*
X138228571Y-77761904D01*
X138533333Y-77761904D01*
X138609523Y-77800000D01*
X138647619Y-77838095D01*
X138685714Y-77914285D01*
X138685714Y-78028571D01*
X138647619Y-78104761D01*
X138609523Y-78142857D01*
X138533333Y-78180952D01*
X138228571Y-78180952D01*
X138952380Y-77761904D02*
X139142857Y-78561904D01*
X139295238Y-77990476D01*
X139447619Y-78561904D01*
X139638095Y-77761904D01*
X140400000Y-78561904D02*
X140133333Y-78180952D01*
X139942857Y-78561904D02*
X139942857Y-77761904D01*
X140247619Y-77761904D01*
X140323809Y-77800000D01*
X140361904Y-77838095D01*
X140400000Y-77914285D01*
X140400000Y-78028571D01*
X140361904Y-78104761D01*
X140323809Y-78142857D01*
X140247619Y-78180952D01*
X139942857Y-78180952D01*
X140742857Y-78561904D02*
X140742857Y-77761904D01*
X141200000Y-78561904D02*
X140857142Y-78104761D01*
X141200000Y-77761904D02*
X140742857Y-78219047D01*
X141542857Y-78142857D02*
X141809523Y-78142857D01*
X141923809Y-78561904D02*
X141542857Y-78561904D01*
X141542857Y-77761904D01*
X141923809Y-77761904D01*
X142419047Y-78180952D02*
X142419047Y-78561904D01*
X142152380Y-77761904D02*
X142419047Y-78180952D01*
X142685714Y-77761904D01*
X140628571Y-96400000D02*
X140552380Y-96361904D01*
X140438095Y-96361904D01*
X140323809Y-96400000D01*
X140247619Y-96476190D01*
X140209523Y-96552380D01*
X140171428Y-96704761D01*
X140171428Y-96819047D01*
X140209523Y-96971428D01*
X140247619Y-97047619D01*
X140323809Y-97123809D01*
X140438095Y-97161904D01*
X140514285Y-97161904D01*
X140628571Y-97123809D01*
X140666666Y-97085714D01*
X140666666Y-96819047D01*
X140514285Y-96819047D01*
X141009523Y-97161904D02*
X141009523Y-96361904D01*
X141466666Y-97161904D01*
X141466666Y-96361904D01*
X141809523Y-97123809D02*
X141923809Y-97161904D01*
X142114285Y-97161904D01*
X142190476Y-97123809D01*
X142228571Y-97085714D01*
X142266666Y-97009523D01*
X142266666Y-96933333D01*
X142228571Y-96857142D01*
X142190476Y-96819047D01*
X142114285Y-96780952D01*
X141961904Y-96742857D01*
X141885714Y-96704761D01*
X141847619Y-96666666D01*
X141809523Y-96590476D01*
X141809523Y-96514285D01*
X141847619Y-96438095D01*
X141885714Y-96400000D01*
X141961904Y-96361904D01*
X142152380Y-96361904D01*
X142266666Y-96400000D01*
X142571428Y-97123809D02*
X142685714Y-97161904D01*
X142876190Y-97161904D01*
X142952380Y-97123809D01*
X142990476Y-97085714D01*
X143028571Y-97009523D01*
X143028571Y-96933333D01*
X142990476Y-96857142D01*
X142952380Y-96819047D01*
X142876190Y-96780952D01*
X142723809Y-96742857D01*
X142647619Y-96704761D01*
X142609523Y-96666666D01*
X142571428Y-96590476D01*
X142571428Y-96514285D01*
X142609523Y-96438095D01*
X142647619Y-96400000D01*
X142723809Y-96361904D01*
X142914285Y-96361904D01*
X143028571Y-96400000D01*
X148761904Y-72219047D02*
X148761904Y-72600000D01*
X147961904Y-72600000D01*
X147961904Y-72066666D02*
X147961904Y-71609523D01*
X148761904Y-71838095D02*
X147961904Y-71838095D01*
X148342857Y-71342857D02*
X148342857Y-71076190D01*
X148761904Y-70961904D02*
X148761904Y-71342857D01*
X147961904Y-71342857D01*
X147961904Y-70961904D01*
X165345238Y-104857142D02*
X165954761Y-104857142D01*
X140266666Y-89661904D02*
X140266666Y-88861904D01*
X140723809Y-89661904D01*
X140723809Y-88861904D01*
X141104761Y-89242857D02*
X141371428Y-89242857D01*
X141485714Y-89661904D02*
X141104761Y-89661904D01*
X141104761Y-88861904D01*
X141485714Y-88861904D01*
X141714285Y-88861904D02*
X142171428Y-88861904D01*
X141942857Y-89661904D02*
X141942857Y-88861904D01*
X142819047Y-89661904D02*
X142438095Y-89661904D01*
X142438095Y-88861904D01*
X143085714Y-89661904D02*
X143085714Y-88861904D01*
X143885714Y-88900000D02*
X143809523Y-88861904D01*
X143695238Y-88861904D01*
X143580952Y-88900000D01*
X143504761Y-88976190D01*
X143466666Y-89052380D01*
X143428571Y-89204761D01*
X143428571Y-89319047D01*
X143466666Y-89471428D01*
X143504761Y-89547619D01*
X143580952Y-89623809D01*
X143695238Y-89661904D01*
X143771428Y-89661904D01*
X143885714Y-89623809D01*
X143923809Y-89585714D01*
X143923809Y-89319047D01*
X143771428Y-89319047D01*
X144266666Y-89661904D02*
X144266666Y-88861904D01*
X144266666Y-89242857D02*
X144723809Y-89242857D01*
X144723809Y-89661904D02*
X144723809Y-88861904D01*
X144990476Y-88861904D02*
X145447619Y-88861904D01*
X145219047Y-89661904D02*
X145219047Y-88861904D01*
X140219047Y-95423809D02*
X140333333Y-95461904D01*
X140523809Y-95461904D01*
X140600000Y-95423809D01*
X140638095Y-95385714D01*
X140676190Y-95309523D01*
X140676190Y-95233333D01*
X140638095Y-95157142D01*
X140600000Y-95119047D01*
X140523809Y-95080952D01*
X140371428Y-95042857D01*
X140295238Y-95004761D01*
X140257142Y-94966666D01*
X140219047Y-94890476D01*
X140219047Y-94814285D01*
X140257142Y-94738095D01*
X140295238Y-94700000D01*
X140371428Y-94661904D01*
X140561904Y-94661904D01*
X140676190Y-94700000D01*
X140904761Y-94661904D02*
X141361904Y-94661904D01*
X141133333Y-95461904D02*
X141133333Y-94661904D01*
X141590476Y-95233333D02*
X141971428Y-95233333D01*
X141514285Y-95461904D02*
X141780952Y-94661904D01*
X142047619Y-95461904D01*
X142200000Y-94661904D02*
X142657142Y-94661904D01*
X142428571Y-95461904D02*
X142428571Y-94661904D01*
X142923809Y-94661904D02*
X142923809Y-95309523D01*
X142961904Y-95385714D01*
X143000000Y-95423809D01*
X143076190Y-95461904D01*
X143228571Y-95461904D01*
X143304761Y-95423809D01*
X143342857Y-95385714D01*
X143380952Y-95309523D01*
X143380952Y-94661904D01*
X143723809Y-95423809D02*
X143838095Y-95461904D01*
X144028571Y-95461904D01*
X144104761Y-95423809D01*
X144142857Y-95385714D01*
X144180952Y-95309523D01*
X144180952Y-95233333D01*
X144142857Y-95157142D01*
X144104761Y-95119047D01*
X144028571Y-95080952D01*
X143876190Y-95042857D01*
X143800000Y-95004761D01*
X143761904Y-94966666D01*
X143723809Y-94890476D01*
X143723809Y-94814285D01*
X143761904Y-94738095D01*
X143800000Y-94700000D01*
X143876190Y-94661904D01*
X144066666Y-94661904D01*
X144180952Y-94700000D01*
X165345238Y-106857142D02*
X165954761Y-106857142D01*
X165650000Y-107161904D02*
X165650000Y-106552380D01*
X173295238Y-93707142D02*
X173904761Y-93707142D01*
X173600000Y-94011904D02*
X173600000Y-93402380D01*
X139595238Y-94657142D02*
X140204761Y-94657142D01*
X139900000Y-94961904D02*
X139900000Y-94352380D01*
D11*
X143465000Y-93800000D02*
G75*
G03X143465000Y-93800000I-100000J0D01*
G01*
D12*
X141250000Y-94264000D02*
X142150000Y-94264000D01*
X141250000Y-92336000D02*
X141250000Y-92815000D01*
X142150000Y-92336000D02*
X141250000Y-92336000D01*
X141250000Y-93785000D02*
X141250000Y-94264000D01*
D11*
X143465000Y-91500000D02*
G75*
G03X143465000Y-91500000I-100000J0D01*
G01*
D12*
X141250000Y-91964000D02*
X142150000Y-91964000D01*
X141250000Y-90036000D02*
X141250000Y-90515000D01*
X142150000Y-90036000D02*
X141250000Y-90036000D01*
X141250000Y-91485000D02*
X141250000Y-91964000D01*
D11*
X139465000Y-108800000D02*
G75*
G03X139465000Y-108800000I-100000J0D01*
G01*
D12*
X137250000Y-109264000D02*
X138150000Y-109264000D01*
X137250000Y-107336000D02*
X137250000Y-107815000D01*
X138150000Y-107336000D02*
X137250000Y-107336000D01*
X137250000Y-108785000D02*
X137250000Y-109264000D01*
X143700000Y-82700000D02*
X143700000Y-81830000D01*
X137500000Y-82700000D02*
X143700000Y-82700000D01*
X137500000Y-81830000D02*
X137500000Y-82700000D01*
X143700000Y-78930000D02*
X143700000Y-79800000D01*
X137500000Y-78900000D02*
X143700000Y-78900000D01*
X137500000Y-79770000D02*
X137500000Y-78900000D01*
D10*
X144321267Y-97890000D02*
X143978733Y-97890000D01*
X144321267Y-98910000D02*
X143978733Y-98910000D01*
X152728733Y-75610000D02*
X153071267Y-75610000D01*
X152728733Y-74590000D02*
X153071267Y-74590000D01*
X152728733Y-79390000D02*
X153071267Y-79390000D01*
X152728733Y-80410000D02*
X153071267Y-80410000D01*
X139510000Y-87550000D02*
X139510000Y-83165000D01*
X139510000Y-83165000D02*
X136490000Y-83165000D01*
X136490000Y-83165000D02*
X136490000Y-87550000D01*
X141910000Y-85197936D02*
X141910000Y-86402064D01*
X140090000Y-85197936D02*
X140090000Y-86402064D01*
X143928733Y-84810000D02*
X144271267Y-84810000D01*
X143928733Y-83790000D02*
X144271267Y-83790000D01*
X143928733Y-86360000D02*
X144271267Y-86360000D01*
X143928733Y-85340000D02*
X144271267Y-85340000D01*
X164671267Y-76510000D02*
X164328733Y-76510000D01*
X164671267Y-75490000D02*
X164328733Y-75490000D01*
X142328733Y-108290000D02*
X142671267Y-108290000D01*
X142328733Y-109310000D02*
X142671267Y-109310000D01*
X158328733Y-103090000D02*
X158671267Y-103090000D01*
X158328733Y-104110000D02*
X158671267Y-104110000D01*
X158671267Y-101490000D02*
X158328733Y-101490000D01*
X158671267Y-102510000D02*
X158328733Y-102510000D01*
X162190000Y-99365000D02*
X162190000Y-103750000D01*
X165210000Y-99365000D02*
X162190000Y-99365000D01*
X165210000Y-103750000D02*
X165210000Y-99365000D01*
X161610000Y-100928733D02*
X161610000Y-101271267D01*
X160590000Y-100928733D02*
X160590000Y-101271267D01*
X158765000Y-105600000D02*
X158765000Y-109685000D01*
X158765000Y-109685000D02*
X160635000Y-109685000D01*
X160635000Y-109685000D02*
X160635000Y-105600000D01*
X157090000Y-106571267D02*
X157090000Y-106228733D01*
X158110000Y-106571267D02*
X158110000Y-106228733D01*
X171871267Y-84810000D02*
X171528733Y-84810000D01*
X171871267Y-83790000D02*
X171528733Y-83790000D01*
X162871267Y-108790000D02*
X162528733Y-108790000D01*
X162871267Y-109810000D02*
X162528733Y-109810000D01*
X144000000Y-94300000D02*
X145700000Y-94300000D01*
X145700000Y-94300000D02*
X145700000Y-91150000D01*
X144000000Y-94300000D02*
X144000000Y-91150000D01*
X141300000Y-107660000D02*
X143200000Y-107660000D01*
X142700000Y-105340000D02*
X141300000Y-105340000D01*
X138800000Y-90465000D02*
X136340000Y-90465000D01*
X136340000Y-90465000D02*
X136340000Y-91935000D01*
X136340000Y-91935000D02*
X138800000Y-91935000D01*
X136340000Y-95335000D02*
X138800000Y-95335000D01*
X136340000Y-93865000D02*
X136340000Y-95335000D01*
X138800000Y-93865000D02*
X136340000Y-93865000D01*
X169700000Y-74450000D02*
X164300000Y-74450000D01*
X169700000Y-71150000D02*
X164300000Y-71150000D01*
X169700000Y-74450000D02*
X169700000Y-71150000D01*
X166250000Y-98700000D02*
X166250000Y-102000000D01*
X166250000Y-102000000D02*
X171650000Y-102000000D01*
X166250000Y-98700000D02*
X171650000Y-98700000D01*
X172400000Y-92965000D02*
X169940000Y-92965000D01*
X169940000Y-92965000D02*
X169940000Y-94435000D01*
X169940000Y-94435000D02*
X172400000Y-94435000D01*
X150600000Y-73185000D02*
X151240000Y-73185000D01*
X153400000Y-73185000D02*
X152760000Y-73185000D01*
X151240000Y-73185000D02*
X151240000Y-73815000D01*
X150650000Y-70465000D02*
X153350000Y-70465000D01*
X136565000Y-99750000D02*
X136565000Y-97050000D01*
X139285000Y-99160000D02*
X139915000Y-99160000D01*
X139285000Y-97000000D02*
X139285000Y-97640000D01*
X139285000Y-99800000D02*
X139285000Y-99160000D01*
D13*
X170400000Y-82600000D02*
X173700000Y-82600000D01*
X173700000Y-82600000D02*
X173700000Y-75500000D01*
X170400000Y-75400000D02*
X173700000Y-75400000D01*
X170400000Y-75400000D02*
X170400000Y-74700000D01*
X170400000Y-74700000D02*
X169400000Y-74700000D01*
X170400000Y-82600000D02*
X170400000Y-83250000D01*
X170400000Y-83250000D02*
X169400000Y-83250000D01*
D10*
X167440000Y-107660000D02*
X167440000Y-107940000D01*
X167440000Y-107940000D02*
X165840000Y-107940000D01*
X165840000Y-107940000D02*
X165840000Y-108860000D01*
X165840000Y-108860000D02*
X173660000Y-108860000D01*
X173660000Y-108860000D02*
X173660000Y-102740000D01*
X173660000Y-102740000D02*
X165840000Y-102740000D01*
X165840000Y-102740000D02*
X165840000Y-103660000D01*
X165840000Y-103660000D02*
X167440000Y-103660000D01*
X167440000Y-103660000D02*
X167440000Y-103940000D01*
X173660000Y-106300000D02*
X169300000Y-106300000D01*
X169300000Y-106300000D02*
X169300000Y-105300000D01*
X169300000Y-105300000D02*
X173660000Y-105300000D01*
X167440000Y-108860000D02*
X167440000Y-107940000D01*
X167440000Y-102740000D02*
X167440000Y-103660000D01*
X169800000Y-108100000D02*
X171400000Y-108100000D01*
X171400000Y-108100000D02*
X171400000Y-107100000D01*
X171400000Y-107100000D02*
X169800000Y-107100000D01*
X169800000Y-107100000D02*
X169800000Y-108100000D01*
X169800000Y-103500000D02*
X171400000Y-103500000D01*
X171400000Y-103500000D02*
X171400000Y-104500000D01*
X171400000Y-104500000D02*
X169800000Y-104500000D01*
X169800000Y-104500000D02*
X169800000Y-103500000D01*
X171400000Y-107100000D02*
X173660000Y-107100000D01*
X171400000Y-107600000D02*
X173660000Y-107600000D01*
X167440000Y-107660000D02*
X166225000Y-107660000D01*
X167580000Y-113940000D02*
X142060000Y-113940000D01*
X142060000Y-113940000D02*
X142060000Y-116600000D01*
X142060000Y-116600000D02*
X167580000Y-116600000D01*
X167580000Y-116600000D02*
X167580000Y-113940000D01*
X166630000Y-116600000D02*
X166630000Y-122600000D01*
X166630000Y-122600000D02*
X165870000Y-122600000D01*
X165870000Y-122600000D02*
X165870000Y-116600000D01*
X166570000Y-116600000D02*
X166570000Y-122600000D01*
X166450000Y-116600000D02*
X166450000Y-122600000D01*
X166330000Y-116600000D02*
X166330000Y-122600000D01*
X166210000Y-116600000D02*
X166210000Y-122600000D01*
X166090000Y-116600000D02*
X166090000Y-122600000D01*
X165970000Y-116600000D02*
X165970000Y-122600000D01*
X166630000Y-113610000D02*
X166630000Y-113940000D01*
X165870000Y-113610000D02*
X165870000Y-113940000D01*
X164980000Y-113940000D02*
X164980000Y-116600000D01*
X164090000Y-116600000D02*
X164090000Y-122600000D01*
X164090000Y-122600000D02*
X163330000Y-122600000D01*
X163330000Y-122600000D02*
X163330000Y-116600000D01*
X164090000Y-113542929D02*
X164090000Y-113940000D01*
X163330000Y-113542929D02*
X163330000Y-113940000D01*
X162440000Y-113940000D02*
X162440000Y-116600000D01*
X161550000Y-116600000D02*
X161550000Y-122600000D01*
X161550000Y-122600000D02*
X160790000Y-122600000D01*
X160790000Y-122600000D02*
X160790000Y-116600000D01*
X161550000Y-113542929D02*
X161550000Y-113940000D01*
X160790000Y-113542929D02*
X160790000Y-113940000D01*
X159900000Y-113940000D02*
X159900000Y-116600000D01*
X159010000Y-116600000D02*
X159010000Y-122600000D01*
X159010000Y-122600000D02*
X158250000Y-122600000D01*
X158250000Y-122600000D02*
X158250000Y-116600000D01*
X159010000Y-113542929D02*
X159010000Y-113940000D01*
X158250000Y-113542929D02*
X158250000Y-113940000D01*
X157360000Y-113940000D02*
X157360000Y-116600000D01*
X156470000Y-116600000D02*
X156470000Y-122600000D01*
X156470000Y-122600000D02*
X155710000Y-122600000D01*
X155710000Y-122600000D02*
X155710000Y-116600000D01*
X156470000Y-113542929D02*
X156470000Y-113940000D01*
X155710000Y-113542929D02*
X155710000Y-113940000D01*
X154820000Y-113940000D02*
X154820000Y-116600000D01*
X153930000Y-116600000D02*
X153930000Y-122600000D01*
X153930000Y-122600000D02*
X153170000Y-122600000D01*
X153170000Y-122600000D02*
X153170000Y-116600000D01*
X153930000Y-113542929D02*
X153930000Y-113940000D01*
X153170000Y-113542929D02*
X153170000Y-113940000D01*
X152280000Y-113940000D02*
X152280000Y-116600000D01*
X151390000Y-116600000D02*
X151390000Y-122600000D01*
X151390000Y-122600000D02*
X150630000Y-122600000D01*
X150630000Y-122600000D02*
X150630000Y-116600000D01*
X151390000Y-113542929D02*
X151390000Y-113940000D01*
X150630000Y-113542929D02*
X150630000Y-113940000D01*
X149740000Y-113940000D02*
X149740000Y-116600000D01*
X148850000Y-116600000D02*
X148850000Y-122600000D01*
X148850000Y-122600000D02*
X148090000Y-122600000D01*
X148090000Y-122600000D02*
X148090000Y-116600000D01*
X148850000Y-113542929D02*
X148850000Y-113940000D01*
X148090000Y-113542929D02*
X148090000Y-113940000D01*
X147200000Y-113940000D02*
X147200000Y-116600000D01*
X146310000Y-116600000D02*
X146310000Y-122600000D01*
X146310000Y-122600000D02*
X145550000Y-122600000D01*
X145550000Y-122600000D02*
X145550000Y-116600000D01*
X146310000Y-113542929D02*
X146310000Y-113940000D01*
X145550000Y-113542929D02*
X145550000Y-113940000D01*
X144660000Y-113940000D02*
X144660000Y-116600000D01*
X143770000Y-116600000D02*
X143770000Y-122600000D01*
X143770000Y-122600000D02*
X143010000Y-122600000D01*
X143010000Y-122600000D02*
X143010000Y-116600000D01*
X143770000Y-113542929D02*
X143770000Y-113940000D01*
X143010000Y-113542929D02*
X143010000Y-113940000D01*
X166250000Y-111230000D02*
X167520000Y-111230000D01*
X167520000Y-111230000D02*
X167520000Y-112500000D01*
X143760000Y-100828733D02*
X143760000Y-101171267D01*
X142740000Y-100828733D02*
X142740000Y-101171267D01*
X139660000Y-104630000D02*
X139660000Y-103700000D01*
X139660000Y-101470000D02*
X139660000Y-102400000D01*
X139660000Y-101470000D02*
X136500000Y-101470000D01*
X139660000Y-104630000D02*
X138200000Y-104630000D01*
X171460000Y-97980000D02*
X170000000Y-97980000D01*
X171460000Y-94820000D02*
X168300000Y-94820000D01*
X171460000Y-94820000D02*
X171460000Y-95750000D01*
X171460000Y-97980000D02*
X171460000Y-97050000D01*
X151490000Y-77671267D02*
X151490000Y-77328733D01*
X152510000Y-77671267D02*
X152510000Y-77328733D01*
X166890000Y-82571267D02*
X166890000Y-82228733D01*
X167910000Y-82571267D02*
X167910000Y-82228733D01*
X137828733Y-88990000D02*
X138171267Y-88990000D01*
X137828733Y-90010000D02*
X138171267Y-90010000D01*
X137828733Y-93410000D02*
X138171267Y-93410000D01*
X137828733Y-92390000D02*
X138171267Y-92390000D01*
X138021267Y-105390000D02*
X137678733Y-105390000D01*
X138021267Y-106410000D02*
X137678733Y-106410000D01*
X171771267Y-91390000D02*
X171428733Y-91390000D01*
X171771267Y-92410000D02*
X171428733Y-92410000D01*
X169260000Y-89521267D02*
X169260000Y-89178733D01*
X168240000Y-89521267D02*
X168240000Y-89178733D01*
X168240000Y-86021267D02*
X168240000Y-85678733D01*
X169260000Y-86021267D02*
X169260000Y-85678733D01*
X164300000Y-80310000D02*
X166100000Y-80310000D01*
X166100000Y-77090000D02*
X163150000Y-77090000D01*
D12*
X150200000Y-97750000D02*
X148100000Y-97750000D01*
X148100000Y-97750000D02*
X148100000Y-94950000D01*
X148100000Y-84850000D02*
X148100000Y-82050000D01*
X148100000Y-82050000D02*
X150200000Y-82050000D01*
X165700000Y-94950000D02*
X165700000Y-97750000D01*
X165700000Y-97750000D02*
X163600000Y-97750000D01*
X165700000Y-84850000D02*
X165700000Y-82050000D01*
X165700000Y-82050000D02*
X163600000Y-82050000D01*
D11*
X150450000Y-99350000D02*
G75*
G03X150450000Y-99350000I-100000J0D01*
G01*
D14*
X150128900Y-108924200D02*
X150128900Y-102675800D01*
X150128900Y-102675800D02*
X149941340Y-102675800D01*
X144871100Y-102675800D02*
X144871100Y-108924200D01*
X144871100Y-108924200D02*
X145058660Y-108924200D01*
X146131340Y-108924200D02*
X146328660Y-108924200D01*
X147401340Y-108924200D02*
X147598660Y-108924200D01*
X148671340Y-108924200D02*
X148868660Y-108924200D01*
X149941340Y-108924200D02*
X150128900Y-108924200D01*
X148868660Y-102675800D02*
X148671340Y-102675800D01*
X147598660Y-102675800D02*
X147401340Y-102675800D01*
X146328660Y-102675800D02*
X146131340Y-102675800D01*
X145058660Y-102675800D02*
X144871100Y-102675800D01*
X145696600Y-110418000D02*
G75*
G03X145696600Y-110418000I-101600J0D01*
G01*
D13*
X156125000Y-103475000D02*
X156000000Y-103475000D01*
X156125000Y-108125000D02*
X155900000Y-108125000D01*
X150875000Y-108125000D02*
X151100000Y-108125000D01*
X150875000Y-103475000D02*
X151100000Y-103475000D01*
X156125000Y-103475000D02*
X156125000Y-108125000D01*
X150875000Y-103475000D02*
X150875000Y-108125000D01*
X156000000Y-103475000D02*
X156000000Y-102125000D01*
D10*
X163560000Y-108180000D02*
X163560000Y-107250000D01*
X163560000Y-105020000D02*
X163560000Y-105950000D01*
X163560000Y-105020000D02*
X161400000Y-105020000D01*
X163560000Y-108180000D02*
X162100000Y-108180000D01*
X173310000Y-88500000D02*
X173310000Y-86700000D01*
X170090000Y-86700000D02*
X170090000Y-89150000D01*
M02*
