G04 #@! TF.GenerationSoftware,KiCad,Pcbnew,(5.1.4-0)*
G04 #@! TF.CreationDate,2021-09-04T15:45:48+08:00*
G04 #@! TF.ProjectId,SIM7080,53494d37-3038-4302-9e6b-696361645f70,V1.2*
G04 #@! TF.SameCoordinates,Original*
G04 #@! TF.FileFunction,Copper,L3,Inr*
G04 #@! TF.FilePolarity,Positive*
%FSLAX46Y46*%
G04 Gerber Fmt 4.6, Leading zero omitted, Abs format (unit mm)*
G04 Created by KiCad (PCBNEW (5.1.4-0)) date 2021-09-04 15:45:48*
%MOMM*%
%LPD*%
G04 APERTURE LIST*
%ADD10O,1.700000X1.000000*%
%ADD11C,0.400000*%
%ADD12C,0.100000*%
%ADD13C,1.200000*%
%ADD14O,1.750000X1.200000*%
%ADD15R,1.700000X1.700000*%
%ADD16O,1.700000X1.700000*%
%ADD17C,0.800000*%
%ADD18C,0.254000*%
G04 APERTURE END LIST*
D10*
X172000000Y-76175000D03*
X172000000Y-81825000D03*
D11*
X169650000Y-81000000D03*
X169650000Y-77000000D03*
D12*
G36*
X167949505Y-106201204D02*
G01*
X167973773Y-106204804D01*
X167997572Y-106210765D01*
X168020671Y-106219030D01*
X168042850Y-106229520D01*
X168063893Y-106242132D01*
X168083599Y-106256747D01*
X168101777Y-106273223D01*
X168118253Y-106291401D01*
X168132868Y-106311107D01*
X168145480Y-106332150D01*
X168155970Y-106354329D01*
X168164235Y-106377428D01*
X168170196Y-106401227D01*
X168173796Y-106425495D01*
X168175000Y-106449999D01*
X168175000Y-107150001D01*
X168173796Y-107174505D01*
X168170196Y-107198773D01*
X168164235Y-107222572D01*
X168155970Y-107245671D01*
X168145480Y-107267850D01*
X168132868Y-107288893D01*
X168118253Y-107308599D01*
X168101777Y-107326777D01*
X168083599Y-107343253D01*
X168063893Y-107357868D01*
X168042850Y-107370480D01*
X168020671Y-107380970D01*
X167997572Y-107389235D01*
X167973773Y-107395196D01*
X167949505Y-107398796D01*
X167925001Y-107400000D01*
X166674999Y-107400000D01*
X166650495Y-107398796D01*
X166626227Y-107395196D01*
X166602428Y-107389235D01*
X166579329Y-107380970D01*
X166557150Y-107370480D01*
X166536107Y-107357868D01*
X166516401Y-107343253D01*
X166498223Y-107326777D01*
X166481747Y-107308599D01*
X166467132Y-107288893D01*
X166454520Y-107267850D01*
X166444030Y-107245671D01*
X166435765Y-107222572D01*
X166429804Y-107198773D01*
X166426204Y-107174505D01*
X166425000Y-107150001D01*
X166425000Y-106449999D01*
X166426204Y-106425495D01*
X166429804Y-106401227D01*
X166435765Y-106377428D01*
X166444030Y-106354329D01*
X166454520Y-106332150D01*
X166467132Y-106311107D01*
X166481747Y-106291401D01*
X166498223Y-106273223D01*
X166516401Y-106256747D01*
X166536107Y-106242132D01*
X166557150Y-106229520D01*
X166579329Y-106219030D01*
X166602428Y-106210765D01*
X166626227Y-106204804D01*
X166650495Y-106201204D01*
X166674999Y-106200000D01*
X167925001Y-106200000D01*
X167949505Y-106201204D01*
X167949505Y-106201204D01*
G37*
D13*
X167300000Y-106800000D03*
D14*
X167300000Y-104800000D03*
D15*
X166250000Y-112500000D03*
D16*
X163710000Y-112500000D03*
X161170000Y-112500000D03*
X158630000Y-112500000D03*
X156090000Y-112500000D03*
X153550000Y-112500000D03*
X151010000Y-112500000D03*
X148470000Y-112500000D03*
X145930000Y-112500000D03*
X143390000Y-112500000D03*
D17*
X160200000Y-87050000D03*
X156950000Y-87100000D03*
X153850000Y-89900000D03*
X140500000Y-92200000D03*
X138300000Y-107200000D03*
X144100000Y-108800000D03*
X171700000Y-90000000D03*
X162300000Y-78700000D03*
X167850000Y-76700000D03*
X171000000Y-78900000D03*
X151500000Y-104350000D03*
X168150000Y-88500000D03*
X169700000Y-84300000D03*
X140550000Y-95950000D03*
X146700000Y-97650000D03*
X148800000Y-95450000D03*
X149900000Y-96800000D03*
X148000000Y-98850000D03*
X146700000Y-99150000D03*
X141400000Y-99300000D03*
X141400000Y-97550000D03*
X139750000Y-96950000D03*
X139800000Y-99900000D03*
X147400000Y-105900000D03*
X153500000Y-87000000D03*
X153500000Y-92800000D03*
X155700000Y-92800000D03*
X145550000Y-97200000D03*
X145550000Y-99600000D03*
X143450000Y-97200000D03*
X153250000Y-76550000D03*
X153250000Y-78300000D03*
X150700000Y-78400000D03*
X150700000Y-76550000D03*
X150650000Y-74800000D03*
X149700000Y-73850000D03*
X154300000Y-73850000D03*
X154850000Y-71850000D03*
X149100000Y-71950000D03*
X150700000Y-80300000D03*
X155000000Y-80350000D03*
X171000000Y-71000000D03*
X173000000Y-73000000D03*
X166000000Y-71000000D03*
X161000000Y-71000000D03*
X156000000Y-71000000D03*
X148000000Y-71000000D03*
X143000000Y-71000000D03*
X139000000Y-71000000D03*
X137000000Y-79000000D03*
X139000000Y-79000000D03*
X143000000Y-79000000D03*
X143000000Y-76000000D03*
X145500000Y-73500000D03*
X145500000Y-77500000D03*
X148000000Y-79000000D03*
X148000000Y-76000000D03*
X156000000Y-76000000D03*
X161000000Y-76000000D03*
X141000000Y-77500000D03*
X158500000Y-73500000D03*
X158500000Y-78000000D03*
X156000000Y-79500000D03*
X141000000Y-82000000D03*
X148000000Y-83500000D03*
X144000000Y-88500000D03*
X173000000Y-107000000D03*
X171000000Y-116000000D03*
X166000000Y-116000000D03*
X161000000Y-116000000D03*
X156000000Y-116000000D03*
X151000000Y-116000000D03*
X146000000Y-116000000D03*
X141000000Y-116000000D03*
X141000000Y-112500000D03*
X168500000Y-112500000D03*
X168500000Y-109000000D03*
X171000000Y-109000000D03*
X170000000Y-103500000D03*
X154000000Y-107000000D03*
X140500000Y-104500000D03*
X166000000Y-97000000D03*
X150250000Y-99350000D03*
X146350000Y-92000000D03*
X158350000Y-100650000D03*
X167400000Y-84500000D03*
X144800000Y-94850000D03*
X148050000Y-110650000D03*
X146200000Y-81800000D03*
X146150000Y-89250000D03*
X164600000Y-92150000D03*
X148150000Y-109550000D03*
X166150000Y-81600000D03*
X164500000Y-86550000D03*
X136500000Y-89400000D03*
X137200000Y-83000000D03*
X138700000Y-83000000D03*
X164900000Y-106600000D03*
X167650000Y-99150000D03*
X145650000Y-101450000D03*
X164650000Y-88750000D03*
X158337500Y-108637500D03*
X164650000Y-91000000D03*
X149100000Y-101450000D03*
X164600000Y-89900000D03*
X147350000Y-101400000D03*
X159500000Y-79750000D03*
X162300000Y-79750000D03*
D18*
G36*
X142004774Y-70698102D02*
G01*
X141965000Y-70898061D01*
X141965000Y-71101939D01*
X142004774Y-71301898D01*
X142082795Y-71490256D01*
X142196063Y-71659774D01*
X142340226Y-71803937D01*
X142509744Y-71917205D01*
X142698102Y-71995226D01*
X142898061Y-72035000D01*
X143101939Y-72035000D01*
X143301898Y-71995226D01*
X143490256Y-71917205D01*
X143659774Y-71803937D01*
X143803937Y-71659774D01*
X143917205Y-71490256D01*
X143995226Y-71301898D01*
X144035000Y-71101939D01*
X144035000Y-70898061D01*
X143995226Y-70698102D01*
X143989799Y-70685000D01*
X147010201Y-70685000D01*
X147004774Y-70698102D01*
X146965000Y-70898061D01*
X146965000Y-71101939D01*
X147004774Y-71301898D01*
X147082795Y-71490256D01*
X147196063Y-71659774D01*
X147340226Y-71803937D01*
X147509744Y-71917205D01*
X147698102Y-71995226D01*
X147898061Y-72035000D01*
X148065000Y-72035000D01*
X148065000Y-72051939D01*
X148104774Y-72251898D01*
X148182795Y-72440256D01*
X148296063Y-72609774D01*
X148440226Y-72753937D01*
X148609744Y-72867205D01*
X148798102Y-72945226D01*
X148998061Y-72985000D01*
X149131613Y-72985000D01*
X149040226Y-73046063D01*
X148896063Y-73190226D01*
X148782795Y-73359744D01*
X148704774Y-73548102D01*
X148665000Y-73748061D01*
X148665000Y-73951939D01*
X148704774Y-74151898D01*
X148782795Y-74340256D01*
X148896063Y-74509774D01*
X149040226Y-74653937D01*
X149209744Y-74767205D01*
X149398102Y-74845226D01*
X149598061Y-74885000D01*
X149615000Y-74885000D01*
X149615000Y-74901939D01*
X149654774Y-75101898D01*
X149732795Y-75290256D01*
X149846063Y-75459774D01*
X149990226Y-75603937D01*
X150121580Y-75691704D01*
X150040226Y-75746063D01*
X149896063Y-75890226D01*
X149782795Y-76059744D01*
X149704774Y-76248102D01*
X149665000Y-76448061D01*
X149665000Y-76651939D01*
X149704774Y-76851898D01*
X149782795Y-77040256D01*
X149896063Y-77209774D01*
X150040226Y-77353937D01*
X150209744Y-77467205D01*
X150228563Y-77475000D01*
X150209744Y-77482795D01*
X150040226Y-77596063D01*
X149896063Y-77740226D01*
X149782795Y-77909744D01*
X149704774Y-78098102D01*
X149665000Y-78298061D01*
X149665000Y-78501939D01*
X149704774Y-78701898D01*
X149782795Y-78890256D01*
X149896063Y-79059774D01*
X150040226Y-79203937D01*
X150209744Y-79317205D01*
X150288918Y-79350000D01*
X150209744Y-79382795D01*
X150040226Y-79496063D01*
X149896063Y-79640226D01*
X149782795Y-79809744D01*
X149704774Y-79998102D01*
X149665000Y-80198061D01*
X149665000Y-80401939D01*
X149704774Y-80601898D01*
X149782795Y-80790256D01*
X149896063Y-80959774D01*
X150040226Y-81103937D01*
X150209744Y-81217205D01*
X150398102Y-81295226D01*
X150598061Y-81335000D01*
X150801939Y-81335000D01*
X151001898Y-81295226D01*
X151190256Y-81217205D01*
X151359774Y-81103937D01*
X151503937Y-80959774D01*
X151617205Y-80790256D01*
X151695226Y-80601898D01*
X151735000Y-80401939D01*
X151735000Y-80248061D01*
X153965000Y-80248061D01*
X153965000Y-80451939D01*
X154004774Y-80651898D01*
X154082795Y-80840256D01*
X154196063Y-81009774D01*
X154340226Y-81153937D01*
X154509744Y-81267205D01*
X154698102Y-81345226D01*
X154898061Y-81385000D01*
X155101939Y-81385000D01*
X155301898Y-81345226D01*
X155490256Y-81267205D01*
X155659774Y-81153937D01*
X155803937Y-81009774D01*
X155917205Y-80840256D01*
X155995226Y-80651898D01*
X156018478Y-80535000D01*
X156101939Y-80535000D01*
X156301898Y-80495226D01*
X156490256Y-80417205D01*
X156659774Y-80303937D01*
X156803937Y-80159774D01*
X156917205Y-79990256D01*
X156995226Y-79801898D01*
X157035000Y-79601939D01*
X157035000Y-79398061D01*
X156995226Y-79198102D01*
X156917205Y-79009744D01*
X156803937Y-78840226D01*
X156659774Y-78696063D01*
X156490256Y-78582795D01*
X156301898Y-78504774D01*
X156101939Y-78465000D01*
X155898061Y-78465000D01*
X155698102Y-78504774D01*
X155509744Y-78582795D01*
X155340226Y-78696063D01*
X155196063Y-78840226D01*
X155082795Y-79009744D01*
X155004774Y-79198102D01*
X154981522Y-79315000D01*
X154898061Y-79315000D01*
X154698102Y-79354774D01*
X154509744Y-79432795D01*
X154340226Y-79546063D01*
X154196063Y-79690226D01*
X154082795Y-79859744D01*
X154004774Y-80048102D01*
X153965000Y-80248061D01*
X151735000Y-80248061D01*
X151735000Y-80198061D01*
X151695226Y-79998102D01*
X151617205Y-79809744D01*
X151503937Y-79640226D01*
X151359774Y-79496063D01*
X151190256Y-79382795D01*
X151111082Y-79350000D01*
X151190256Y-79317205D01*
X151359774Y-79203937D01*
X151503937Y-79059774D01*
X151617205Y-78890256D01*
X151695226Y-78701898D01*
X151735000Y-78501939D01*
X151735000Y-78298061D01*
X151695226Y-78098102D01*
X151617205Y-77909744D01*
X151503937Y-77740226D01*
X151359774Y-77596063D01*
X151190256Y-77482795D01*
X151171437Y-77475000D01*
X151190256Y-77467205D01*
X151359774Y-77353937D01*
X151503937Y-77209774D01*
X151617205Y-77040256D01*
X151695226Y-76851898D01*
X151735000Y-76651939D01*
X151735000Y-76448061D01*
X152215000Y-76448061D01*
X152215000Y-76651939D01*
X152254774Y-76851898D01*
X152332795Y-77040256D01*
X152446063Y-77209774D01*
X152590226Y-77353937D01*
X152696580Y-77425000D01*
X152590226Y-77496063D01*
X152446063Y-77640226D01*
X152332795Y-77809744D01*
X152254774Y-77998102D01*
X152215000Y-78198061D01*
X152215000Y-78401939D01*
X152254774Y-78601898D01*
X152332795Y-78790256D01*
X152446063Y-78959774D01*
X152590226Y-79103937D01*
X152759744Y-79217205D01*
X152948102Y-79295226D01*
X153148061Y-79335000D01*
X153351939Y-79335000D01*
X153551898Y-79295226D01*
X153740256Y-79217205D01*
X153909774Y-79103937D01*
X154053937Y-78959774D01*
X154167205Y-78790256D01*
X154245226Y-78601898D01*
X154285000Y-78401939D01*
X154285000Y-78198061D01*
X154245226Y-77998102D01*
X154203788Y-77898061D01*
X157465000Y-77898061D01*
X157465000Y-78101939D01*
X157504774Y-78301898D01*
X157582795Y-78490256D01*
X157696063Y-78659774D01*
X157840226Y-78803937D01*
X158009744Y-78917205D01*
X158198102Y-78995226D01*
X158398061Y-79035000D01*
X158601939Y-79035000D01*
X158788373Y-78997916D01*
X158696063Y-79090226D01*
X158582795Y-79259744D01*
X158504774Y-79448102D01*
X158465000Y-79648061D01*
X158465000Y-79851939D01*
X158504774Y-80051898D01*
X158582795Y-80240256D01*
X158696063Y-80409774D01*
X158840226Y-80553937D01*
X159009744Y-80667205D01*
X159198102Y-80745226D01*
X159398061Y-80785000D01*
X159601939Y-80785000D01*
X159801898Y-80745226D01*
X159990256Y-80667205D01*
X160159774Y-80553937D01*
X160303937Y-80409774D01*
X160417205Y-80240256D01*
X160495226Y-80051898D01*
X160535000Y-79851939D01*
X160535000Y-79648061D01*
X160495226Y-79448102D01*
X160417205Y-79259744D01*
X160303937Y-79090226D01*
X160159774Y-78946063D01*
X159990256Y-78832795D01*
X159801898Y-78754774D01*
X159601939Y-78715000D01*
X159398061Y-78715000D01*
X159211627Y-78752084D01*
X159303937Y-78659774D01*
X159345172Y-78598061D01*
X161265000Y-78598061D01*
X161265000Y-78801939D01*
X161304774Y-79001898D01*
X161382795Y-79190256D01*
X161406010Y-79225000D01*
X161382795Y-79259744D01*
X161304774Y-79448102D01*
X161265000Y-79648061D01*
X161265000Y-79851939D01*
X161304774Y-80051898D01*
X161382795Y-80240256D01*
X161496063Y-80409774D01*
X161640226Y-80553937D01*
X161809744Y-80667205D01*
X161998102Y-80745226D01*
X162198061Y-80785000D01*
X162401939Y-80785000D01*
X162601898Y-80745226D01*
X162790256Y-80667205D01*
X162959774Y-80553937D01*
X163103937Y-80409774D01*
X163217205Y-80240256D01*
X163295226Y-80051898D01*
X163335000Y-79851939D01*
X163335000Y-79648061D01*
X163295226Y-79448102D01*
X163217205Y-79259744D01*
X163193990Y-79225000D01*
X163217205Y-79190256D01*
X163295226Y-79001898D01*
X163335000Y-78801939D01*
X163335000Y-78798061D01*
X169965000Y-78798061D01*
X169965000Y-79001939D01*
X170004774Y-79201898D01*
X170082795Y-79390256D01*
X170196063Y-79559774D01*
X170340226Y-79703937D01*
X170509744Y-79817205D01*
X170698102Y-79895226D01*
X170898061Y-79935000D01*
X171101939Y-79935000D01*
X171301898Y-79895226D01*
X171490256Y-79817205D01*
X171659774Y-79703937D01*
X171803937Y-79559774D01*
X171917205Y-79390256D01*
X171995226Y-79201898D01*
X172035000Y-79001939D01*
X172035000Y-78798061D01*
X171995226Y-78598102D01*
X171917205Y-78409744D01*
X171803937Y-78240226D01*
X171659774Y-78096063D01*
X171490256Y-77982795D01*
X171301898Y-77904774D01*
X171101939Y-77865000D01*
X170898061Y-77865000D01*
X170698102Y-77904774D01*
X170509744Y-77982795D01*
X170340226Y-78096063D01*
X170196063Y-78240226D01*
X170082795Y-78409744D01*
X170004774Y-78598102D01*
X169965000Y-78798061D01*
X163335000Y-78798061D01*
X163335000Y-78598061D01*
X163295226Y-78398102D01*
X163217205Y-78209744D01*
X163103937Y-78040226D01*
X162959774Y-77896063D01*
X162790256Y-77782795D01*
X162601898Y-77704774D01*
X162401939Y-77665000D01*
X162198061Y-77665000D01*
X161998102Y-77704774D01*
X161809744Y-77782795D01*
X161640226Y-77896063D01*
X161496063Y-78040226D01*
X161382795Y-78209744D01*
X161304774Y-78398102D01*
X161265000Y-78598061D01*
X159345172Y-78598061D01*
X159417205Y-78490256D01*
X159495226Y-78301898D01*
X159535000Y-78101939D01*
X159535000Y-77898061D01*
X159495226Y-77698102D01*
X159417205Y-77509744D01*
X159303937Y-77340226D01*
X159159774Y-77196063D01*
X158990256Y-77082795D01*
X158801898Y-77004774D01*
X158601939Y-76965000D01*
X158398061Y-76965000D01*
X158198102Y-77004774D01*
X158009744Y-77082795D01*
X157840226Y-77196063D01*
X157696063Y-77340226D01*
X157582795Y-77509744D01*
X157504774Y-77698102D01*
X157465000Y-77898061D01*
X154203788Y-77898061D01*
X154167205Y-77809744D01*
X154053937Y-77640226D01*
X153909774Y-77496063D01*
X153803420Y-77425000D01*
X153909774Y-77353937D01*
X154053937Y-77209774D01*
X154167205Y-77040256D01*
X154245226Y-76851898D01*
X154285000Y-76651939D01*
X154285000Y-76448061D01*
X154245226Y-76248102D01*
X154167205Y-76059744D01*
X154059173Y-75898061D01*
X154965000Y-75898061D01*
X154965000Y-76101939D01*
X155004774Y-76301898D01*
X155082795Y-76490256D01*
X155196063Y-76659774D01*
X155340226Y-76803937D01*
X155509744Y-76917205D01*
X155698102Y-76995226D01*
X155898061Y-77035000D01*
X156101939Y-77035000D01*
X156301898Y-76995226D01*
X156490256Y-76917205D01*
X156659774Y-76803937D01*
X156803937Y-76659774D01*
X156917205Y-76490256D01*
X156995226Y-76301898D01*
X157035000Y-76101939D01*
X157035000Y-75898061D01*
X159965000Y-75898061D01*
X159965000Y-76101939D01*
X160004774Y-76301898D01*
X160082795Y-76490256D01*
X160196063Y-76659774D01*
X160340226Y-76803937D01*
X160509744Y-76917205D01*
X160698102Y-76995226D01*
X160898061Y-77035000D01*
X161101939Y-77035000D01*
X161301898Y-76995226D01*
X161490256Y-76917205D01*
X161659774Y-76803937D01*
X161803937Y-76659774D01*
X161845172Y-76598061D01*
X166815000Y-76598061D01*
X166815000Y-76801939D01*
X166854774Y-77001898D01*
X166932795Y-77190256D01*
X167046063Y-77359774D01*
X167190226Y-77503937D01*
X167359744Y-77617205D01*
X167548102Y-77695226D01*
X167748061Y-77735000D01*
X167951939Y-77735000D01*
X168151898Y-77695226D01*
X168340256Y-77617205D01*
X168509774Y-77503937D01*
X168653937Y-77359774D01*
X168767205Y-77190256D01*
X168815000Y-77074869D01*
X168815000Y-77082240D01*
X168847089Y-77243560D01*
X168910033Y-77395521D01*
X169001413Y-77532281D01*
X169117719Y-77648587D01*
X169254479Y-77739967D01*
X169406440Y-77802911D01*
X169567760Y-77835000D01*
X169732240Y-77835000D01*
X169893560Y-77802911D01*
X170045521Y-77739967D01*
X170182281Y-77648587D01*
X170298587Y-77532281D01*
X170389967Y-77395521D01*
X170452911Y-77243560D01*
X170485000Y-77082240D01*
X170485000Y-76917760D01*
X170452911Y-76756440D01*
X170389967Y-76604479D01*
X170298587Y-76467719D01*
X170182281Y-76351413D01*
X170045521Y-76260033D01*
X169893560Y-76197089D01*
X169732240Y-76165000D01*
X169567760Y-76165000D01*
X169406440Y-76197089D01*
X169254479Y-76260033D01*
X169117719Y-76351413D01*
X169001413Y-76467719D01*
X168910033Y-76604479D01*
X168885000Y-76664914D01*
X168885000Y-76598061D01*
X168845226Y-76398102D01*
X168767205Y-76209744D01*
X168653937Y-76040226D01*
X168509774Y-75896063D01*
X168340256Y-75782795D01*
X168151898Y-75704774D01*
X167951939Y-75665000D01*
X167748061Y-75665000D01*
X167548102Y-75704774D01*
X167359744Y-75782795D01*
X167190226Y-75896063D01*
X167046063Y-76040226D01*
X166932795Y-76209744D01*
X166854774Y-76398102D01*
X166815000Y-76598061D01*
X161845172Y-76598061D01*
X161917205Y-76490256D01*
X161995226Y-76301898D01*
X162035000Y-76101939D01*
X162035000Y-75898061D01*
X161995226Y-75698102D01*
X161917205Y-75509744D01*
X161803937Y-75340226D01*
X161659774Y-75196063D01*
X161490256Y-75082795D01*
X161301898Y-75004774D01*
X161101939Y-74965000D01*
X160898061Y-74965000D01*
X160698102Y-75004774D01*
X160509744Y-75082795D01*
X160340226Y-75196063D01*
X160196063Y-75340226D01*
X160082795Y-75509744D01*
X160004774Y-75698102D01*
X159965000Y-75898061D01*
X157035000Y-75898061D01*
X156995226Y-75698102D01*
X156917205Y-75509744D01*
X156803937Y-75340226D01*
X156659774Y-75196063D01*
X156490256Y-75082795D01*
X156301898Y-75004774D01*
X156101939Y-74965000D01*
X155898061Y-74965000D01*
X155698102Y-75004774D01*
X155509744Y-75082795D01*
X155340226Y-75196063D01*
X155196063Y-75340226D01*
X155082795Y-75509744D01*
X155004774Y-75698102D01*
X154965000Y-75898061D01*
X154059173Y-75898061D01*
X154053937Y-75890226D01*
X153909774Y-75746063D01*
X153740256Y-75632795D01*
X153551898Y-75554774D01*
X153351939Y-75515000D01*
X153148061Y-75515000D01*
X152948102Y-75554774D01*
X152759744Y-75632795D01*
X152590226Y-75746063D01*
X152446063Y-75890226D01*
X152332795Y-76059744D01*
X152254774Y-76248102D01*
X152215000Y-76448061D01*
X151735000Y-76448061D01*
X151695226Y-76248102D01*
X151617205Y-76059744D01*
X151503937Y-75890226D01*
X151359774Y-75746063D01*
X151228420Y-75658296D01*
X151309774Y-75603937D01*
X151453937Y-75459774D01*
X151567205Y-75290256D01*
X151645226Y-75101898D01*
X151685000Y-74901939D01*
X151685000Y-74698061D01*
X151645226Y-74498102D01*
X151567205Y-74309744D01*
X151453937Y-74140226D01*
X151309774Y-73996063D01*
X151140256Y-73882795D01*
X150951898Y-73804774D01*
X150751939Y-73765000D01*
X150735000Y-73765000D01*
X150735000Y-73748061D01*
X150695226Y-73548102D01*
X150617205Y-73359744D01*
X150503937Y-73190226D01*
X150359774Y-73046063D01*
X150190256Y-72932795D01*
X150001898Y-72854774D01*
X149801939Y-72815000D01*
X149668387Y-72815000D01*
X149759774Y-72753937D01*
X149903937Y-72609774D01*
X150017205Y-72440256D01*
X150095226Y-72251898D01*
X150135000Y-72051939D01*
X150135000Y-71848061D01*
X150095226Y-71648102D01*
X150017205Y-71459744D01*
X149903937Y-71290226D01*
X149759774Y-71146063D01*
X149590256Y-71032795D01*
X149401898Y-70954774D01*
X149201939Y-70915000D01*
X149035000Y-70915000D01*
X149035000Y-70898061D01*
X148995226Y-70698102D01*
X148989799Y-70685000D01*
X155010201Y-70685000D01*
X155004774Y-70698102D01*
X154980396Y-70820660D01*
X154951939Y-70815000D01*
X154748061Y-70815000D01*
X154548102Y-70854774D01*
X154359744Y-70932795D01*
X154190226Y-71046063D01*
X154046063Y-71190226D01*
X153932795Y-71359744D01*
X153854774Y-71548102D01*
X153815000Y-71748061D01*
X153815000Y-71951939D01*
X153854774Y-72151898D01*
X153932795Y-72340256D01*
X154046063Y-72509774D01*
X154190226Y-72653937D01*
X154359744Y-72767205D01*
X154542749Y-72843009D01*
X154401939Y-72815000D01*
X154198061Y-72815000D01*
X153998102Y-72854774D01*
X153809744Y-72932795D01*
X153640226Y-73046063D01*
X153496063Y-73190226D01*
X153382795Y-73359744D01*
X153304774Y-73548102D01*
X153265000Y-73748061D01*
X153265000Y-73951939D01*
X153304774Y-74151898D01*
X153382795Y-74340256D01*
X153496063Y-74509774D01*
X153640226Y-74653937D01*
X153809744Y-74767205D01*
X153998102Y-74845226D01*
X154198061Y-74885000D01*
X154401939Y-74885000D01*
X154601898Y-74845226D01*
X154790256Y-74767205D01*
X154959774Y-74653937D01*
X155103937Y-74509774D01*
X155217205Y-74340256D01*
X155295226Y-74151898D01*
X155335000Y-73951939D01*
X155335000Y-73748061D01*
X155295226Y-73548102D01*
X155233077Y-73398061D01*
X157465000Y-73398061D01*
X157465000Y-73601939D01*
X157504774Y-73801898D01*
X157582795Y-73990256D01*
X157696063Y-74159774D01*
X157840226Y-74303937D01*
X158009744Y-74417205D01*
X158198102Y-74495226D01*
X158398061Y-74535000D01*
X158601939Y-74535000D01*
X158801898Y-74495226D01*
X158990256Y-74417205D01*
X159159774Y-74303937D01*
X159303937Y-74159774D01*
X159417205Y-73990256D01*
X159495226Y-73801898D01*
X159535000Y-73601939D01*
X159535000Y-73398061D01*
X159495226Y-73198102D01*
X159417205Y-73009744D01*
X159303937Y-72840226D01*
X159159774Y-72696063D01*
X158990256Y-72582795D01*
X158801898Y-72504774D01*
X158601939Y-72465000D01*
X158398061Y-72465000D01*
X158198102Y-72504774D01*
X158009744Y-72582795D01*
X157840226Y-72696063D01*
X157696063Y-72840226D01*
X157582795Y-73009744D01*
X157504774Y-73198102D01*
X157465000Y-73398061D01*
X155233077Y-73398061D01*
X155217205Y-73359744D01*
X155103937Y-73190226D01*
X154959774Y-73046063D01*
X154790256Y-72932795D01*
X154607251Y-72856991D01*
X154748061Y-72885000D01*
X154951939Y-72885000D01*
X155151898Y-72845226D01*
X155340256Y-72767205D01*
X155509774Y-72653937D01*
X155653937Y-72509774D01*
X155767205Y-72340256D01*
X155845226Y-72151898D01*
X155869604Y-72029340D01*
X155898061Y-72035000D01*
X156101939Y-72035000D01*
X156301898Y-71995226D01*
X156490256Y-71917205D01*
X156659774Y-71803937D01*
X156803937Y-71659774D01*
X156917205Y-71490256D01*
X156995226Y-71301898D01*
X157035000Y-71101939D01*
X157035000Y-70898061D01*
X156995226Y-70698102D01*
X156989799Y-70685000D01*
X160010201Y-70685000D01*
X160004774Y-70698102D01*
X159965000Y-70898061D01*
X159965000Y-71101939D01*
X160004774Y-71301898D01*
X160082795Y-71490256D01*
X160196063Y-71659774D01*
X160340226Y-71803937D01*
X160509744Y-71917205D01*
X160698102Y-71995226D01*
X160898061Y-72035000D01*
X161101939Y-72035000D01*
X161301898Y-71995226D01*
X161490256Y-71917205D01*
X161659774Y-71803937D01*
X161803937Y-71659774D01*
X161917205Y-71490256D01*
X161995226Y-71301898D01*
X162035000Y-71101939D01*
X162035000Y-70898061D01*
X161995226Y-70698102D01*
X161989799Y-70685000D01*
X165010201Y-70685000D01*
X165004774Y-70698102D01*
X164965000Y-70898061D01*
X164965000Y-71101939D01*
X165004774Y-71301898D01*
X165082795Y-71490256D01*
X165196063Y-71659774D01*
X165340226Y-71803937D01*
X165509744Y-71917205D01*
X165698102Y-71995226D01*
X165898061Y-72035000D01*
X166101939Y-72035000D01*
X166301898Y-71995226D01*
X166490256Y-71917205D01*
X166659774Y-71803937D01*
X166803937Y-71659774D01*
X166917205Y-71490256D01*
X166995226Y-71301898D01*
X167035000Y-71101939D01*
X167035000Y-70898061D01*
X166995226Y-70698102D01*
X166989799Y-70685000D01*
X169966496Y-70685000D01*
X170008495Y-70689118D01*
X170004774Y-70698102D01*
X169965000Y-70898061D01*
X169965000Y-71101939D01*
X170004774Y-71301898D01*
X170082795Y-71490256D01*
X170196063Y-71659774D01*
X170340226Y-71803937D01*
X170509744Y-71917205D01*
X170698102Y-71995226D01*
X170898061Y-72035000D01*
X171101939Y-72035000D01*
X171301898Y-71995226D01*
X171490256Y-71917205D01*
X171659774Y-71803937D01*
X171803937Y-71659774D01*
X171917205Y-71490256D01*
X171972848Y-71355924D01*
X172333548Y-71650104D01*
X172645114Y-72026723D01*
X172509744Y-72082795D01*
X172340226Y-72196063D01*
X172196063Y-72340226D01*
X172082795Y-72509744D01*
X172004774Y-72698102D01*
X171965000Y-72898061D01*
X171965000Y-73101939D01*
X172004774Y-73301898D01*
X172082795Y-73490256D01*
X172196063Y-73659774D01*
X172340226Y-73803937D01*
X172509744Y-73917205D01*
X172698102Y-73995226D01*
X172898061Y-74035000D01*
X173101939Y-74035000D01*
X173301898Y-73995226D01*
X173313077Y-73990596D01*
X173315000Y-74008894D01*
X173315000Y-75572651D01*
X173298284Y-75541377D01*
X173156449Y-75368551D01*
X172983623Y-75226716D01*
X172786447Y-75121324D01*
X172572499Y-75056423D01*
X172405752Y-75040000D01*
X171594248Y-75040000D01*
X171427501Y-75056423D01*
X171213553Y-75121324D01*
X171016377Y-75226716D01*
X170843551Y-75368551D01*
X170701716Y-75541377D01*
X170596324Y-75738553D01*
X170531423Y-75952501D01*
X170509509Y-76175000D01*
X170531423Y-76397499D01*
X170596324Y-76611447D01*
X170701716Y-76808623D01*
X170843551Y-76981449D01*
X171016377Y-77123284D01*
X171213553Y-77228676D01*
X171427501Y-77293577D01*
X171594248Y-77310000D01*
X172405752Y-77310000D01*
X172572499Y-77293577D01*
X172786447Y-77228676D01*
X172983623Y-77123284D01*
X173156449Y-76981449D01*
X173298284Y-76808623D01*
X173315000Y-76777349D01*
X173315000Y-81222651D01*
X173298284Y-81191377D01*
X173156449Y-81018551D01*
X172983623Y-80876716D01*
X172786447Y-80771324D01*
X172572499Y-80706423D01*
X172405752Y-80690000D01*
X171594248Y-80690000D01*
X171427501Y-80706423D01*
X171213553Y-80771324D01*
X171016377Y-80876716D01*
X170843551Y-81018551D01*
X170701716Y-81191377D01*
X170596324Y-81388553D01*
X170531423Y-81602501D01*
X170509509Y-81825000D01*
X170531423Y-82047499D01*
X170596324Y-82261447D01*
X170701716Y-82458623D01*
X170843551Y-82631449D01*
X171016377Y-82773284D01*
X171213553Y-82878676D01*
X171427501Y-82943577D01*
X171594248Y-82960000D01*
X172405752Y-82960000D01*
X172572499Y-82943577D01*
X172786447Y-82878676D01*
X172983623Y-82773284D01*
X173156449Y-82631449D01*
X173298284Y-82458623D01*
X173315000Y-82427349D01*
X173315001Y-106010201D01*
X173301898Y-106004774D01*
X173101939Y-105965000D01*
X172898061Y-105965000D01*
X172698102Y-106004774D01*
X172509744Y-106082795D01*
X172340226Y-106196063D01*
X172196063Y-106340226D01*
X172082795Y-106509744D01*
X172004774Y-106698102D01*
X171965000Y-106898061D01*
X171965000Y-107101939D01*
X172004774Y-107301898D01*
X172082795Y-107490256D01*
X172196063Y-107659774D01*
X172340226Y-107803937D01*
X172509744Y-107917205D01*
X172698102Y-107995226D01*
X172898061Y-108035000D01*
X173101939Y-108035000D01*
X173301898Y-107995226D01*
X173315001Y-107989799D01*
X173315001Y-112966486D01*
X173248644Y-113643248D01*
X173061833Y-114261996D01*
X172758398Y-114832675D01*
X172349896Y-115333548D01*
X171973277Y-115645114D01*
X171917205Y-115509744D01*
X171803937Y-115340226D01*
X171659774Y-115196063D01*
X171490256Y-115082795D01*
X171301898Y-115004774D01*
X171101939Y-114965000D01*
X170898061Y-114965000D01*
X170698102Y-115004774D01*
X170509744Y-115082795D01*
X170340226Y-115196063D01*
X170196063Y-115340226D01*
X170082795Y-115509744D01*
X170004774Y-115698102D01*
X169965000Y-115898061D01*
X169965000Y-116101939D01*
X170004774Y-116301898D01*
X170009404Y-116313077D01*
X169991107Y-116315000D01*
X166989799Y-116315000D01*
X166995226Y-116301898D01*
X167035000Y-116101939D01*
X167035000Y-115898061D01*
X166995226Y-115698102D01*
X166917205Y-115509744D01*
X166803937Y-115340226D01*
X166659774Y-115196063D01*
X166490256Y-115082795D01*
X166301898Y-115004774D01*
X166101939Y-114965000D01*
X165898061Y-114965000D01*
X165698102Y-115004774D01*
X165509744Y-115082795D01*
X165340226Y-115196063D01*
X165196063Y-115340226D01*
X165082795Y-115509744D01*
X165004774Y-115698102D01*
X164965000Y-115898061D01*
X164965000Y-116101939D01*
X165004774Y-116301898D01*
X165010201Y-116315000D01*
X161989799Y-116315000D01*
X161995226Y-116301898D01*
X162035000Y-116101939D01*
X162035000Y-115898061D01*
X161995226Y-115698102D01*
X161917205Y-115509744D01*
X161803937Y-115340226D01*
X161659774Y-115196063D01*
X161490256Y-115082795D01*
X161301898Y-115004774D01*
X161101939Y-114965000D01*
X160898061Y-114965000D01*
X160698102Y-115004774D01*
X160509744Y-115082795D01*
X160340226Y-115196063D01*
X160196063Y-115340226D01*
X160082795Y-115509744D01*
X160004774Y-115698102D01*
X159965000Y-115898061D01*
X159965000Y-116101939D01*
X160004774Y-116301898D01*
X160010201Y-116315000D01*
X156989799Y-116315000D01*
X156995226Y-116301898D01*
X157035000Y-116101939D01*
X157035000Y-115898061D01*
X156995226Y-115698102D01*
X156917205Y-115509744D01*
X156803937Y-115340226D01*
X156659774Y-115196063D01*
X156490256Y-115082795D01*
X156301898Y-115004774D01*
X156101939Y-114965000D01*
X155898061Y-114965000D01*
X155698102Y-115004774D01*
X155509744Y-115082795D01*
X155340226Y-115196063D01*
X155196063Y-115340226D01*
X155082795Y-115509744D01*
X155004774Y-115698102D01*
X154965000Y-115898061D01*
X154965000Y-116101939D01*
X155004774Y-116301898D01*
X155010201Y-116315000D01*
X151989799Y-116315000D01*
X151995226Y-116301898D01*
X152035000Y-116101939D01*
X152035000Y-115898061D01*
X151995226Y-115698102D01*
X151917205Y-115509744D01*
X151803937Y-115340226D01*
X151659774Y-115196063D01*
X151490256Y-115082795D01*
X151301898Y-115004774D01*
X151101939Y-114965000D01*
X150898061Y-114965000D01*
X150698102Y-115004774D01*
X150509744Y-115082795D01*
X150340226Y-115196063D01*
X150196063Y-115340226D01*
X150082795Y-115509744D01*
X150004774Y-115698102D01*
X149965000Y-115898061D01*
X149965000Y-116101939D01*
X150004774Y-116301898D01*
X150010201Y-116315000D01*
X146989799Y-116315000D01*
X146995226Y-116301898D01*
X147035000Y-116101939D01*
X147035000Y-115898061D01*
X146995226Y-115698102D01*
X146917205Y-115509744D01*
X146803937Y-115340226D01*
X146659774Y-115196063D01*
X146490256Y-115082795D01*
X146301898Y-115004774D01*
X146101939Y-114965000D01*
X145898061Y-114965000D01*
X145698102Y-115004774D01*
X145509744Y-115082795D01*
X145340226Y-115196063D01*
X145196063Y-115340226D01*
X145082795Y-115509744D01*
X145004774Y-115698102D01*
X144965000Y-115898061D01*
X144965000Y-116101939D01*
X145004774Y-116301898D01*
X145010201Y-116315000D01*
X141989799Y-116315000D01*
X141995226Y-116301898D01*
X142035000Y-116101939D01*
X142035000Y-115898061D01*
X141995226Y-115698102D01*
X141917205Y-115509744D01*
X141803937Y-115340226D01*
X141659774Y-115196063D01*
X141490256Y-115082795D01*
X141301898Y-115004774D01*
X141101939Y-114965000D01*
X140898061Y-114965000D01*
X140698102Y-115004774D01*
X140509744Y-115082795D01*
X140340226Y-115196063D01*
X140196063Y-115340226D01*
X140082795Y-115509744D01*
X140004774Y-115698102D01*
X139965000Y-115898061D01*
X139965000Y-116101939D01*
X140004774Y-116301898D01*
X140010201Y-116315000D01*
X139533504Y-116315000D01*
X138856752Y-116248644D01*
X138238004Y-116061833D01*
X137667325Y-115758398D01*
X137166452Y-115349896D01*
X136754464Y-114851888D01*
X136447052Y-114283342D01*
X136255925Y-113665909D01*
X136185000Y-112991107D01*
X136185000Y-112304495D01*
X136515000Y-112304495D01*
X136515000Y-112695505D01*
X136591282Y-113079003D01*
X136740915Y-113440250D01*
X136958149Y-113765364D01*
X137234636Y-114041851D01*
X137559750Y-114259085D01*
X137920997Y-114408718D01*
X138304495Y-114485000D01*
X138695505Y-114485000D01*
X139079003Y-114408718D01*
X139440250Y-114259085D01*
X139765364Y-114041851D01*
X140041851Y-113765364D01*
X140259085Y-113440250D01*
X140322776Y-113286487D01*
X140340226Y-113303937D01*
X140509744Y-113417205D01*
X140698102Y-113495226D01*
X140898061Y-113535000D01*
X141101939Y-113535000D01*
X141301898Y-113495226D01*
X141490256Y-113417205D01*
X141659774Y-113303937D01*
X141803937Y-113159774D01*
X141917205Y-112990256D01*
X141957435Y-112893133D01*
X142011401Y-113071034D01*
X142149294Y-113329014D01*
X142334866Y-113555134D01*
X142560986Y-113740706D01*
X142818966Y-113878599D01*
X143098889Y-113963513D01*
X143317050Y-113985000D01*
X143462950Y-113985000D01*
X143681111Y-113963513D01*
X143961034Y-113878599D01*
X144219014Y-113740706D01*
X144445134Y-113555134D01*
X144630706Y-113329014D01*
X144660000Y-113274209D01*
X144689294Y-113329014D01*
X144874866Y-113555134D01*
X145100986Y-113740706D01*
X145358966Y-113878599D01*
X145638889Y-113963513D01*
X145857050Y-113985000D01*
X146002950Y-113985000D01*
X146221111Y-113963513D01*
X146501034Y-113878599D01*
X146759014Y-113740706D01*
X146985134Y-113555134D01*
X147170706Y-113329014D01*
X147200000Y-113274209D01*
X147229294Y-113329014D01*
X147414866Y-113555134D01*
X147640986Y-113740706D01*
X147898966Y-113878599D01*
X148178889Y-113963513D01*
X148397050Y-113985000D01*
X148542950Y-113985000D01*
X148761111Y-113963513D01*
X149041034Y-113878599D01*
X149299014Y-113740706D01*
X149525134Y-113555134D01*
X149710706Y-113329014D01*
X149740000Y-113274209D01*
X149769294Y-113329014D01*
X149954866Y-113555134D01*
X150180986Y-113740706D01*
X150438966Y-113878599D01*
X150718889Y-113963513D01*
X150937050Y-113985000D01*
X151082950Y-113985000D01*
X151301111Y-113963513D01*
X151581034Y-113878599D01*
X151839014Y-113740706D01*
X152065134Y-113555134D01*
X152250706Y-113329014D01*
X152280000Y-113274209D01*
X152309294Y-113329014D01*
X152494866Y-113555134D01*
X152720986Y-113740706D01*
X152978966Y-113878599D01*
X153258889Y-113963513D01*
X153477050Y-113985000D01*
X153622950Y-113985000D01*
X153841111Y-113963513D01*
X154121034Y-113878599D01*
X154379014Y-113740706D01*
X154605134Y-113555134D01*
X154790706Y-113329014D01*
X154820000Y-113274209D01*
X154849294Y-113329014D01*
X155034866Y-113555134D01*
X155260986Y-113740706D01*
X155518966Y-113878599D01*
X155798889Y-113963513D01*
X156017050Y-113985000D01*
X156162950Y-113985000D01*
X156381111Y-113963513D01*
X156661034Y-113878599D01*
X156919014Y-113740706D01*
X157145134Y-113555134D01*
X157330706Y-113329014D01*
X157360000Y-113274209D01*
X157389294Y-113329014D01*
X157574866Y-113555134D01*
X157800986Y-113740706D01*
X158058966Y-113878599D01*
X158338889Y-113963513D01*
X158557050Y-113985000D01*
X158702950Y-113985000D01*
X158921111Y-113963513D01*
X159201034Y-113878599D01*
X159459014Y-113740706D01*
X159685134Y-113555134D01*
X159870706Y-113329014D01*
X159900000Y-113274209D01*
X159929294Y-113329014D01*
X160114866Y-113555134D01*
X160340986Y-113740706D01*
X160598966Y-113878599D01*
X160878889Y-113963513D01*
X161097050Y-113985000D01*
X161242950Y-113985000D01*
X161461111Y-113963513D01*
X161741034Y-113878599D01*
X161999014Y-113740706D01*
X162225134Y-113555134D01*
X162410706Y-113329014D01*
X162440000Y-113274209D01*
X162469294Y-113329014D01*
X162654866Y-113555134D01*
X162880986Y-113740706D01*
X163138966Y-113878599D01*
X163418889Y-113963513D01*
X163637050Y-113985000D01*
X163782950Y-113985000D01*
X164001111Y-113963513D01*
X164281034Y-113878599D01*
X164539014Y-113740706D01*
X164765134Y-113555134D01*
X164789607Y-113525313D01*
X164810498Y-113594180D01*
X164869463Y-113704494D01*
X164948815Y-113801185D01*
X165045506Y-113880537D01*
X165155820Y-113939502D01*
X165275518Y-113975812D01*
X165400000Y-113988072D01*
X165964250Y-113985000D01*
X166123000Y-113826250D01*
X166123000Y-112627000D01*
X166103000Y-112627000D01*
X166103000Y-112373000D01*
X166123000Y-112373000D01*
X166123000Y-111173750D01*
X166377000Y-111173750D01*
X166377000Y-112373000D01*
X166397000Y-112373000D01*
X166397000Y-112627000D01*
X166377000Y-112627000D01*
X166377000Y-113826250D01*
X166535750Y-113985000D01*
X167100000Y-113988072D01*
X167224482Y-113975812D01*
X167344180Y-113939502D01*
X167454494Y-113880537D01*
X167551185Y-113801185D01*
X167630537Y-113704494D01*
X167689502Y-113594180D01*
X167725812Y-113474482D01*
X167738072Y-113350000D01*
X167737261Y-113200972D01*
X167840226Y-113303937D01*
X168009744Y-113417205D01*
X168198102Y-113495226D01*
X168398061Y-113535000D01*
X168601939Y-113535000D01*
X168801898Y-113495226D01*
X168990256Y-113417205D01*
X169159774Y-113303937D01*
X169177224Y-113286487D01*
X169240915Y-113440250D01*
X169458149Y-113765364D01*
X169734636Y-114041851D01*
X170059750Y-114259085D01*
X170420997Y-114408718D01*
X170804495Y-114485000D01*
X171195505Y-114485000D01*
X171579003Y-114408718D01*
X171940250Y-114259085D01*
X172265364Y-114041851D01*
X172541851Y-113765364D01*
X172759085Y-113440250D01*
X172908718Y-113079003D01*
X172985000Y-112695505D01*
X172985000Y-112304495D01*
X172908718Y-111920997D01*
X172759085Y-111559750D01*
X172541851Y-111234636D01*
X172265364Y-110958149D01*
X171940250Y-110740915D01*
X171579003Y-110591282D01*
X171195505Y-110515000D01*
X170804495Y-110515000D01*
X170420997Y-110591282D01*
X170059750Y-110740915D01*
X169734636Y-110958149D01*
X169458149Y-111234636D01*
X169240915Y-111559750D01*
X169177224Y-111713513D01*
X169159774Y-111696063D01*
X168990256Y-111582795D01*
X168801898Y-111504774D01*
X168601939Y-111465000D01*
X168398061Y-111465000D01*
X168198102Y-111504774D01*
X168009744Y-111582795D01*
X167840226Y-111696063D01*
X167737261Y-111799028D01*
X167738072Y-111650000D01*
X167725812Y-111525518D01*
X167689502Y-111405820D01*
X167630537Y-111295506D01*
X167551185Y-111198815D01*
X167454494Y-111119463D01*
X167344180Y-111060498D01*
X167224482Y-111024188D01*
X167100000Y-111011928D01*
X166535750Y-111015000D01*
X166377000Y-111173750D01*
X166123000Y-111173750D01*
X165964250Y-111015000D01*
X165400000Y-111011928D01*
X165275518Y-111024188D01*
X165155820Y-111060498D01*
X165045506Y-111119463D01*
X164948815Y-111198815D01*
X164869463Y-111295506D01*
X164810498Y-111405820D01*
X164789607Y-111474687D01*
X164765134Y-111444866D01*
X164539014Y-111259294D01*
X164281034Y-111121401D01*
X164001111Y-111036487D01*
X163782950Y-111015000D01*
X163637050Y-111015000D01*
X163418889Y-111036487D01*
X163138966Y-111121401D01*
X162880986Y-111259294D01*
X162654866Y-111444866D01*
X162469294Y-111670986D01*
X162440000Y-111725791D01*
X162410706Y-111670986D01*
X162225134Y-111444866D01*
X161999014Y-111259294D01*
X161741034Y-111121401D01*
X161461111Y-111036487D01*
X161242950Y-111015000D01*
X161097050Y-111015000D01*
X160878889Y-111036487D01*
X160598966Y-111121401D01*
X160340986Y-111259294D01*
X160114866Y-111444866D01*
X159929294Y-111670986D01*
X159900000Y-111725791D01*
X159870706Y-111670986D01*
X159685134Y-111444866D01*
X159459014Y-111259294D01*
X159201034Y-111121401D01*
X158921111Y-111036487D01*
X158702950Y-111015000D01*
X158557050Y-111015000D01*
X158338889Y-111036487D01*
X158058966Y-111121401D01*
X157800986Y-111259294D01*
X157574866Y-111444866D01*
X157389294Y-111670986D01*
X157360000Y-111725791D01*
X157330706Y-111670986D01*
X157145134Y-111444866D01*
X156919014Y-111259294D01*
X156661034Y-111121401D01*
X156381111Y-111036487D01*
X156162950Y-111015000D01*
X156017050Y-111015000D01*
X155798889Y-111036487D01*
X155518966Y-111121401D01*
X155260986Y-111259294D01*
X155034866Y-111444866D01*
X154849294Y-111670986D01*
X154820000Y-111725791D01*
X154790706Y-111670986D01*
X154605134Y-111444866D01*
X154379014Y-111259294D01*
X154121034Y-111121401D01*
X153841111Y-111036487D01*
X153622950Y-111015000D01*
X153477050Y-111015000D01*
X153258889Y-111036487D01*
X152978966Y-111121401D01*
X152720986Y-111259294D01*
X152494866Y-111444866D01*
X152309294Y-111670986D01*
X152280000Y-111725791D01*
X152250706Y-111670986D01*
X152065134Y-111444866D01*
X151839014Y-111259294D01*
X151581034Y-111121401D01*
X151301111Y-111036487D01*
X151082950Y-111015000D01*
X150937050Y-111015000D01*
X150718889Y-111036487D01*
X150438966Y-111121401D01*
X150180986Y-111259294D01*
X149954866Y-111444866D01*
X149769294Y-111670986D01*
X149740000Y-111725791D01*
X149710706Y-111670986D01*
X149525134Y-111444866D01*
X149299014Y-111259294D01*
X149041034Y-111121401D01*
X148982384Y-111103610D01*
X149045226Y-110951898D01*
X149085000Y-110751939D01*
X149085000Y-110548061D01*
X149045226Y-110348102D01*
X148974920Y-110178370D01*
X149067205Y-110040256D01*
X149145226Y-109851898D01*
X149185000Y-109651939D01*
X149185000Y-109448061D01*
X149145226Y-109248102D01*
X149067205Y-109059744D01*
X148953937Y-108890226D01*
X148809774Y-108746063D01*
X148640256Y-108632795D01*
X148451898Y-108554774D01*
X148355307Y-108535561D01*
X157302500Y-108535561D01*
X157302500Y-108739439D01*
X157342274Y-108939398D01*
X157420295Y-109127756D01*
X157533563Y-109297274D01*
X157677726Y-109441437D01*
X157847244Y-109554705D01*
X158035602Y-109632726D01*
X158235561Y-109672500D01*
X158439439Y-109672500D01*
X158639398Y-109632726D01*
X158827756Y-109554705D01*
X158997274Y-109441437D01*
X159141437Y-109297274D01*
X159254705Y-109127756D01*
X159332726Y-108939398D01*
X159340948Y-108898061D01*
X167465000Y-108898061D01*
X167465000Y-109101939D01*
X167504774Y-109301898D01*
X167582795Y-109490256D01*
X167696063Y-109659774D01*
X167840226Y-109803937D01*
X168009744Y-109917205D01*
X168198102Y-109995226D01*
X168398061Y-110035000D01*
X168601939Y-110035000D01*
X168801898Y-109995226D01*
X168990256Y-109917205D01*
X169159774Y-109803937D01*
X169303937Y-109659774D01*
X169417205Y-109490256D01*
X169495226Y-109301898D01*
X169535000Y-109101939D01*
X169535000Y-108898061D01*
X169965000Y-108898061D01*
X169965000Y-109101939D01*
X170004774Y-109301898D01*
X170082795Y-109490256D01*
X170196063Y-109659774D01*
X170340226Y-109803937D01*
X170509744Y-109917205D01*
X170698102Y-109995226D01*
X170898061Y-110035000D01*
X171101939Y-110035000D01*
X171301898Y-109995226D01*
X171490256Y-109917205D01*
X171659774Y-109803937D01*
X171803937Y-109659774D01*
X171917205Y-109490256D01*
X171995226Y-109301898D01*
X172035000Y-109101939D01*
X172035000Y-108898061D01*
X171995226Y-108698102D01*
X171917205Y-108509744D01*
X171803937Y-108340226D01*
X171659774Y-108196063D01*
X171490256Y-108082795D01*
X171301898Y-108004774D01*
X171101939Y-107965000D01*
X170898061Y-107965000D01*
X170698102Y-108004774D01*
X170509744Y-108082795D01*
X170340226Y-108196063D01*
X170196063Y-108340226D01*
X170082795Y-108509744D01*
X170004774Y-108698102D01*
X169965000Y-108898061D01*
X169535000Y-108898061D01*
X169495226Y-108698102D01*
X169417205Y-108509744D01*
X169303937Y-108340226D01*
X169159774Y-108196063D01*
X168990256Y-108082795D01*
X168801898Y-108004774D01*
X168601939Y-107965000D01*
X168398061Y-107965000D01*
X168198102Y-108004774D01*
X168009744Y-108082795D01*
X167840226Y-108196063D01*
X167696063Y-108340226D01*
X167582795Y-108509744D01*
X167504774Y-108698102D01*
X167465000Y-108898061D01*
X159340948Y-108898061D01*
X159372500Y-108739439D01*
X159372500Y-108535561D01*
X159332726Y-108335602D01*
X159254705Y-108147244D01*
X159141437Y-107977726D01*
X158997274Y-107833563D01*
X158827756Y-107720295D01*
X158639398Y-107642274D01*
X158439439Y-107602500D01*
X158235561Y-107602500D01*
X158035602Y-107642274D01*
X157847244Y-107720295D01*
X157677726Y-107833563D01*
X157533563Y-107977726D01*
X157420295Y-108147244D01*
X157342274Y-108335602D01*
X157302500Y-108535561D01*
X148355307Y-108535561D01*
X148251939Y-108515000D01*
X148048061Y-108515000D01*
X147848102Y-108554774D01*
X147659744Y-108632795D01*
X147490226Y-108746063D01*
X147346063Y-108890226D01*
X147232795Y-109059744D01*
X147154774Y-109248102D01*
X147115000Y-109448061D01*
X147115000Y-109651939D01*
X147154774Y-109851898D01*
X147225080Y-110021630D01*
X147132795Y-110159744D01*
X147054774Y-110348102D01*
X147015000Y-110548061D01*
X147015000Y-110751939D01*
X147054774Y-110951898D01*
X147132795Y-111140256D01*
X147246063Y-111309774D01*
X147390226Y-111453937D01*
X147401332Y-111461358D01*
X147229294Y-111670986D01*
X147200000Y-111725791D01*
X147170706Y-111670986D01*
X146985134Y-111444866D01*
X146759014Y-111259294D01*
X146501034Y-111121401D01*
X146221111Y-111036487D01*
X146002950Y-111015000D01*
X145857050Y-111015000D01*
X145638889Y-111036487D01*
X145358966Y-111121401D01*
X145100986Y-111259294D01*
X144874866Y-111444866D01*
X144689294Y-111670986D01*
X144660000Y-111725791D01*
X144630706Y-111670986D01*
X144445134Y-111444866D01*
X144219014Y-111259294D01*
X143961034Y-111121401D01*
X143681111Y-111036487D01*
X143462950Y-111015000D01*
X143317050Y-111015000D01*
X143098889Y-111036487D01*
X142818966Y-111121401D01*
X142560986Y-111259294D01*
X142334866Y-111444866D01*
X142149294Y-111670986D01*
X142011401Y-111928966D01*
X141957435Y-112106867D01*
X141917205Y-112009744D01*
X141803937Y-111840226D01*
X141659774Y-111696063D01*
X141490256Y-111582795D01*
X141301898Y-111504774D01*
X141101939Y-111465000D01*
X140898061Y-111465000D01*
X140698102Y-111504774D01*
X140509744Y-111582795D01*
X140340226Y-111696063D01*
X140322776Y-111713513D01*
X140259085Y-111559750D01*
X140041851Y-111234636D01*
X139765364Y-110958149D01*
X139440250Y-110740915D01*
X139079003Y-110591282D01*
X138695505Y-110515000D01*
X138304495Y-110515000D01*
X137920997Y-110591282D01*
X137559750Y-110740915D01*
X137234636Y-110958149D01*
X136958149Y-111234636D01*
X136740915Y-111559750D01*
X136591282Y-111920997D01*
X136515000Y-112304495D01*
X136185000Y-112304495D01*
X136185000Y-108698061D01*
X143065000Y-108698061D01*
X143065000Y-108901939D01*
X143104774Y-109101898D01*
X143182795Y-109290256D01*
X143296063Y-109459774D01*
X143440226Y-109603937D01*
X143609744Y-109717205D01*
X143798102Y-109795226D01*
X143998061Y-109835000D01*
X144201939Y-109835000D01*
X144401898Y-109795226D01*
X144590256Y-109717205D01*
X144759774Y-109603937D01*
X144903937Y-109459774D01*
X145017205Y-109290256D01*
X145095226Y-109101898D01*
X145135000Y-108901939D01*
X145135000Y-108698061D01*
X145095226Y-108498102D01*
X145017205Y-108309744D01*
X144903937Y-108140226D01*
X144759774Y-107996063D01*
X144590256Y-107882795D01*
X144401898Y-107804774D01*
X144201939Y-107765000D01*
X143998061Y-107765000D01*
X143798102Y-107804774D01*
X143609744Y-107882795D01*
X143440226Y-107996063D01*
X143296063Y-108140226D01*
X143182795Y-108309744D01*
X143104774Y-108498102D01*
X143065000Y-108698061D01*
X136185000Y-108698061D01*
X136185000Y-107098061D01*
X137265000Y-107098061D01*
X137265000Y-107301939D01*
X137304774Y-107501898D01*
X137382795Y-107690256D01*
X137496063Y-107859774D01*
X137640226Y-108003937D01*
X137809744Y-108117205D01*
X137998102Y-108195226D01*
X138198061Y-108235000D01*
X138401939Y-108235000D01*
X138601898Y-108195226D01*
X138790256Y-108117205D01*
X138959774Y-108003937D01*
X139103937Y-107859774D01*
X139217205Y-107690256D01*
X139295226Y-107501898D01*
X139335000Y-107301939D01*
X139335000Y-107098061D01*
X139295226Y-106898102D01*
X139217205Y-106709744D01*
X139103937Y-106540226D01*
X138959774Y-106396063D01*
X138790256Y-106282795D01*
X138601898Y-106204774D01*
X138401939Y-106165000D01*
X138198061Y-106165000D01*
X137998102Y-106204774D01*
X137809744Y-106282795D01*
X137640226Y-106396063D01*
X137496063Y-106540226D01*
X137382795Y-106709744D01*
X137304774Y-106898102D01*
X137265000Y-107098061D01*
X136185000Y-107098061D01*
X136185000Y-105798061D01*
X146365000Y-105798061D01*
X146365000Y-106001939D01*
X146404774Y-106201898D01*
X146482795Y-106390256D01*
X146596063Y-106559774D01*
X146740226Y-106703937D01*
X146909744Y-106817205D01*
X147098102Y-106895226D01*
X147298061Y-106935000D01*
X147501939Y-106935000D01*
X147687645Y-106898061D01*
X152965000Y-106898061D01*
X152965000Y-107101939D01*
X153004774Y-107301898D01*
X153082795Y-107490256D01*
X153196063Y-107659774D01*
X153340226Y-107803937D01*
X153509744Y-107917205D01*
X153698102Y-107995226D01*
X153898061Y-108035000D01*
X154101939Y-108035000D01*
X154301898Y-107995226D01*
X154490256Y-107917205D01*
X154659774Y-107803937D01*
X154803937Y-107659774D01*
X154917205Y-107490256D01*
X154995226Y-107301898D01*
X155035000Y-107101939D01*
X155035000Y-106898061D01*
X154995226Y-106698102D01*
X154917205Y-106509744D01*
X154803937Y-106340226D01*
X154659774Y-106196063D01*
X154490256Y-106082795D01*
X154301898Y-106004774D01*
X154101939Y-105965000D01*
X153898061Y-105965000D01*
X153698102Y-106004774D01*
X153509744Y-106082795D01*
X153340226Y-106196063D01*
X153196063Y-106340226D01*
X153082795Y-106509744D01*
X153004774Y-106698102D01*
X152965000Y-106898061D01*
X147687645Y-106898061D01*
X147701898Y-106895226D01*
X147890256Y-106817205D01*
X148059774Y-106703937D01*
X148203937Y-106559774D01*
X148317205Y-106390256D01*
X148395226Y-106201898D01*
X148435000Y-106001939D01*
X148435000Y-105798061D01*
X148395226Y-105598102D01*
X148317205Y-105409744D01*
X148203937Y-105240226D01*
X148059774Y-105096063D01*
X147890256Y-104982795D01*
X147701898Y-104904774D01*
X147501939Y-104865000D01*
X147298061Y-104865000D01*
X147098102Y-104904774D01*
X146909744Y-104982795D01*
X146740226Y-105096063D01*
X146596063Y-105240226D01*
X146482795Y-105409744D01*
X146404774Y-105598102D01*
X146365000Y-105798061D01*
X136185000Y-105798061D01*
X136185000Y-104398061D01*
X139465000Y-104398061D01*
X139465000Y-104601939D01*
X139504774Y-104801898D01*
X139582795Y-104990256D01*
X139696063Y-105159774D01*
X139840226Y-105303937D01*
X140009744Y-105417205D01*
X140198102Y-105495226D01*
X140398061Y-105535000D01*
X140601939Y-105535000D01*
X140801898Y-105495226D01*
X140990256Y-105417205D01*
X141159774Y-105303937D01*
X141303937Y-105159774D01*
X141417205Y-104990256D01*
X141495226Y-104801898D01*
X141535000Y-104601939D01*
X141535000Y-104398061D01*
X141505164Y-104248061D01*
X150465000Y-104248061D01*
X150465000Y-104451939D01*
X150504774Y-104651898D01*
X150582795Y-104840256D01*
X150696063Y-105009774D01*
X150840226Y-105153937D01*
X151009744Y-105267205D01*
X151198102Y-105345226D01*
X151398061Y-105385000D01*
X151601939Y-105385000D01*
X151801898Y-105345226D01*
X151990256Y-105267205D01*
X152159774Y-105153937D01*
X152303937Y-105009774D01*
X152417205Y-104840256D01*
X152433879Y-104800000D01*
X165784025Y-104800000D01*
X165807870Y-105042102D01*
X165878489Y-105274901D01*
X165993167Y-105489449D01*
X166147498Y-105677502D01*
X166186111Y-105709191D01*
X166181613Y-105711595D01*
X166047038Y-105822038D01*
X165936595Y-105956613D01*
X165854528Y-106110149D01*
X165803992Y-106276745D01*
X165786928Y-106449999D01*
X165786928Y-107150001D01*
X165803992Y-107323255D01*
X165854528Y-107489851D01*
X165936595Y-107643387D01*
X166047038Y-107777962D01*
X166181613Y-107888405D01*
X166335149Y-107970472D01*
X166501745Y-108021008D01*
X166674999Y-108038072D01*
X167925001Y-108038072D01*
X168098255Y-108021008D01*
X168264851Y-107970472D01*
X168418387Y-107888405D01*
X168552962Y-107777962D01*
X168663405Y-107643387D01*
X168745472Y-107489851D01*
X168796008Y-107323255D01*
X168813072Y-107150001D01*
X168813072Y-106449999D01*
X168796008Y-106276745D01*
X168745472Y-106110149D01*
X168663405Y-105956613D01*
X168552962Y-105822038D01*
X168418387Y-105711595D01*
X168413889Y-105709191D01*
X168452502Y-105677502D01*
X168606833Y-105489449D01*
X168721511Y-105274901D01*
X168792130Y-105042102D01*
X168815975Y-104800000D01*
X168792130Y-104557898D01*
X168721511Y-104325099D01*
X168606833Y-104110551D01*
X168452502Y-103922498D01*
X168264449Y-103768167D01*
X168049901Y-103653489D01*
X167817102Y-103582870D01*
X167635665Y-103565000D01*
X166964335Y-103565000D01*
X166782898Y-103582870D01*
X166550099Y-103653489D01*
X166335551Y-103768167D01*
X166147498Y-103922498D01*
X165993167Y-104110551D01*
X165878489Y-104325099D01*
X165807870Y-104557898D01*
X165784025Y-104800000D01*
X152433879Y-104800000D01*
X152495226Y-104651898D01*
X152535000Y-104451939D01*
X152535000Y-104248061D01*
X152495226Y-104048102D01*
X152417205Y-103859744D01*
X152303937Y-103690226D01*
X152159774Y-103546063D01*
X151990256Y-103432795D01*
X151906402Y-103398061D01*
X168965000Y-103398061D01*
X168965000Y-103601939D01*
X169004774Y-103801898D01*
X169082795Y-103990256D01*
X169196063Y-104159774D01*
X169340226Y-104303937D01*
X169509744Y-104417205D01*
X169698102Y-104495226D01*
X169898061Y-104535000D01*
X170101939Y-104535000D01*
X170301898Y-104495226D01*
X170490256Y-104417205D01*
X170659774Y-104303937D01*
X170803937Y-104159774D01*
X170917205Y-103990256D01*
X170995226Y-103801898D01*
X171035000Y-103601939D01*
X171035000Y-103398061D01*
X170995226Y-103198102D01*
X170917205Y-103009744D01*
X170803937Y-102840226D01*
X170659774Y-102696063D01*
X170490256Y-102582795D01*
X170301898Y-102504774D01*
X170101939Y-102465000D01*
X169898061Y-102465000D01*
X169698102Y-102504774D01*
X169509744Y-102582795D01*
X169340226Y-102696063D01*
X169196063Y-102840226D01*
X169082795Y-103009744D01*
X169004774Y-103198102D01*
X168965000Y-103398061D01*
X151906402Y-103398061D01*
X151801898Y-103354774D01*
X151601939Y-103315000D01*
X151398061Y-103315000D01*
X151198102Y-103354774D01*
X151009744Y-103432795D01*
X150840226Y-103546063D01*
X150696063Y-103690226D01*
X150582795Y-103859744D01*
X150504774Y-104048102D01*
X150465000Y-104248061D01*
X141505164Y-104248061D01*
X141495226Y-104198102D01*
X141417205Y-104009744D01*
X141303937Y-103840226D01*
X141159774Y-103696063D01*
X140990256Y-103582795D01*
X140801898Y-103504774D01*
X140601939Y-103465000D01*
X140398061Y-103465000D01*
X140198102Y-103504774D01*
X140009744Y-103582795D01*
X139840226Y-103696063D01*
X139696063Y-103840226D01*
X139582795Y-104009744D01*
X139504774Y-104198102D01*
X139465000Y-104398061D01*
X136185000Y-104398061D01*
X136185000Y-96848061D01*
X138715000Y-96848061D01*
X138715000Y-97051939D01*
X138754774Y-97251898D01*
X138832795Y-97440256D01*
X138946063Y-97609774D01*
X139090226Y-97753937D01*
X139259744Y-97867205D01*
X139448102Y-97945226D01*
X139648061Y-97985000D01*
X139851939Y-97985000D01*
X140051898Y-97945226D01*
X140240256Y-97867205D01*
X140388161Y-97768378D01*
X140404774Y-97851898D01*
X140482795Y-98040256D01*
X140596063Y-98209774D01*
X140740226Y-98353937D01*
X140846580Y-98425000D01*
X140740226Y-98496063D01*
X140596063Y-98640226D01*
X140482795Y-98809744D01*
X140404774Y-98998102D01*
X140394027Y-99052132D01*
X140290256Y-98982795D01*
X140101898Y-98904774D01*
X139901939Y-98865000D01*
X139698061Y-98865000D01*
X139498102Y-98904774D01*
X139309744Y-98982795D01*
X139140226Y-99096063D01*
X138996063Y-99240226D01*
X138882795Y-99409744D01*
X138804774Y-99598102D01*
X138765000Y-99798061D01*
X138765000Y-100001939D01*
X138804774Y-100201898D01*
X138882795Y-100390256D01*
X138996063Y-100559774D01*
X139140226Y-100703937D01*
X139309744Y-100817205D01*
X139498102Y-100895226D01*
X139698061Y-100935000D01*
X139901939Y-100935000D01*
X140101898Y-100895226D01*
X140290256Y-100817205D01*
X140459774Y-100703937D01*
X140603937Y-100559774D01*
X140717205Y-100390256D01*
X140795226Y-100201898D01*
X140805973Y-100147868D01*
X140909744Y-100217205D01*
X141098102Y-100295226D01*
X141298061Y-100335000D01*
X141501939Y-100335000D01*
X141701898Y-100295226D01*
X141890256Y-100217205D01*
X142059774Y-100103937D01*
X142203937Y-99959774D01*
X142317205Y-99790256D01*
X142395226Y-99601898D01*
X142435000Y-99401939D01*
X142435000Y-99198061D01*
X142395226Y-98998102D01*
X142317205Y-98809744D01*
X142203937Y-98640226D01*
X142059774Y-98496063D01*
X141953420Y-98425000D01*
X142059774Y-98353937D01*
X142203937Y-98209774D01*
X142317205Y-98040256D01*
X142395226Y-97851898D01*
X142435000Y-97651939D01*
X142435000Y-97448061D01*
X142395226Y-97248102D01*
X142333077Y-97098061D01*
X142415000Y-97098061D01*
X142415000Y-97301939D01*
X142454774Y-97501898D01*
X142532795Y-97690256D01*
X142646063Y-97859774D01*
X142790226Y-98003937D01*
X142959744Y-98117205D01*
X143148102Y-98195226D01*
X143348061Y-98235000D01*
X143551939Y-98235000D01*
X143751898Y-98195226D01*
X143940256Y-98117205D01*
X144109774Y-98003937D01*
X144253937Y-97859774D01*
X144367205Y-97690256D01*
X144445226Y-97501898D01*
X144485000Y-97301939D01*
X144485000Y-97098061D01*
X144515000Y-97098061D01*
X144515000Y-97301939D01*
X144554774Y-97501898D01*
X144632795Y-97690256D01*
X144746063Y-97859774D01*
X144890226Y-98003937D01*
X145059744Y-98117205D01*
X145248102Y-98195226D01*
X145448061Y-98235000D01*
X145651939Y-98235000D01*
X145823323Y-98200910D01*
X145896063Y-98309774D01*
X145986289Y-98400000D01*
X145896063Y-98490226D01*
X145823323Y-98599090D01*
X145651939Y-98565000D01*
X145448061Y-98565000D01*
X145248102Y-98604774D01*
X145059744Y-98682795D01*
X144890226Y-98796063D01*
X144746063Y-98940226D01*
X144632795Y-99109744D01*
X144554774Y-99298102D01*
X144515000Y-99498061D01*
X144515000Y-99701939D01*
X144554774Y-99901898D01*
X144632795Y-100090256D01*
X144746063Y-100259774D01*
X144890226Y-100403937D01*
X145059744Y-100517205D01*
X145135879Y-100548741D01*
X144990226Y-100646063D01*
X144846063Y-100790226D01*
X144732795Y-100959744D01*
X144654774Y-101148102D01*
X144615000Y-101348061D01*
X144615000Y-101551939D01*
X144654774Y-101751898D01*
X144732795Y-101940256D01*
X144846063Y-102109774D01*
X144990226Y-102253937D01*
X145159744Y-102367205D01*
X145348102Y-102445226D01*
X145548061Y-102485000D01*
X145751939Y-102485000D01*
X145951898Y-102445226D01*
X146140256Y-102367205D01*
X146309774Y-102253937D01*
X146453937Y-102109774D01*
X146516704Y-102015836D01*
X146546063Y-102059774D01*
X146690226Y-102203937D01*
X146859744Y-102317205D01*
X147048102Y-102395226D01*
X147248061Y-102435000D01*
X147451939Y-102435000D01*
X147651898Y-102395226D01*
X147840256Y-102317205D01*
X148009774Y-102203937D01*
X148153937Y-102059774D01*
X148208296Y-101978420D01*
X148296063Y-102109774D01*
X148440226Y-102253937D01*
X148609744Y-102367205D01*
X148798102Y-102445226D01*
X148998061Y-102485000D01*
X149201939Y-102485000D01*
X149401898Y-102445226D01*
X149590256Y-102367205D01*
X149759774Y-102253937D01*
X149903937Y-102109774D01*
X150017205Y-101940256D01*
X150095226Y-101751898D01*
X150135000Y-101551939D01*
X150135000Y-101348061D01*
X150095226Y-101148102D01*
X150017205Y-100959744D01*
X149903937Y-100790226D01*
X149759774Y-100646063D01*
X149613104Y-100548061D01*
X157315000Y-100548061D01*
X157315000Y-100751939D01*
X157354774Y-100951898D01*
X157432795Y-101140256D01*
X157546063Y-101309774D01*
X157690226Y-101453937D01*
X157859744Y-101567205D01*
X158048102Y-101645226D01*
X158248061Y-101685000D01*
X158451939Y-101685000D01*
X158651898Y-101645226D01*
X158840256Y-101567205D01*
X159009774Y-101453937D01*
X159153937Y-101309774D01*
X159267205Y-101140256D01*
X159345226Y-100951898D01*
X159385000Y-100751939D01*
X159385000Y-100548061D01*
X159345226Y-100348102D01*
X159267205Y-100159744D01*
X159153937Y-99990226D01*
X159009774Y-99846063D01*
X158840256Y-99732795D01*
X158651898Y-99654774D01*
X158451939Y-99615000D01*
X158248061Y-99615000D01*
X158048102Y-99654774D01*
X157859744Y-99732795D01*
X157690226Y-99846063D01*
X157546063Y-99990226D01*
X157432795Y-100159744D01*
X157354774Y-100348102D01*
X157315000Y-100548061D01*
X149613104Y-100548061D01*
X149590256Y-100532795D01*
X149401898Y-100454774D01*
X149201939Y-100415000D01*
X148998061Y-100415000D01*
X148798102Y-100454774D01*
X148609744Y-100532795D01*
X148440226Y-100646063D01*
X148296063Y-100790226D01*
X148241704Y-100871580D01*
X148153937Y-100740226D01*
X148009774Y-100596063D01*
X147840256Y-100482795D01*
X147651898Y-100404774D01*
X147451939Y-100365000D01*
X147248061Y-100365000D01*
X147048102Y-100404774D01*
X146859744Y-100482795D01*
X146690226Y-100596063D01*
X146546063Y-100740226D01*
X146483296Y-100834164D01*
X146453937Y-100790226D01*
X146309774Y-100646063D01*
X146140256Y-100532795D01*
X146064121Y-100501259D01*
X146209774Y-100403937D01*
X146353937Y-100259774D01*
X146426677Y-100150910D01*
X146598061Y-100185000D01*
X146801939Y-100185000D01*
X147001898Y-100145226D01*
X147190256Y-100067205D01*
X147359774Y-99953937D01*
X147503937Y-99809774D01*
X147527474Y-99774549D01*
X147698102Y-99845226D01*
X147898061Y-99885000D01*
X148101939Y-99885000D01*
X148301898Y-99845226D01*
X148490256Y-99767205D01*
X148659774Y-99653937D01*
X148803937Y-99509774D01*
X148917205Y-99340256D01*
X148955393Y-99248061D01*
X149215000Y-99248061D01*
X149215000Y-99451939D01*
X149254774Y-99651898D01*
X149332795Y-99840256D01*
X149446063Y-100009774D01*
X149590226Y-100153937D01*
X149759744Y-100267205D01*
X149948102Y-100345226D01*
X150148061Y-100385000D01*
X150351939Y-100385000D01*
X150551898Y-100345226D01*
X150740256Y-100267205D01*
X150909774Y-100153937D01*
X151053937Y-100009774D01*
X151167205Y-99840256D01*
X151245226Y-99651898D01*
X151285000Y-99451939D01*
X151285000Y-99248061D01*
X151245226Y-99048102D01*
X151167205Y-98859744D01*
X151053937Y-98690226D01*
X150909774Y-98546063D01*
X150740256Y-98432795D01*
X150551898Y-98354774D01*
X150351939Y-98315000D01*
X150148061Y-98315000D01*
X149948102Y-98354774D01*
X149759744Y-98432795D01*
X149590226Y-98546063D01*
X149446063Y-98690226D01*
X149332795Y-98859744D01*
X149254774Y-99048102D01*
X149215000Y-99248061D01*
X148955393Y-99248061D01*
X148995226Y-99151898D01*
X149035000Y-98951939D01*
X149035000Y-98748061D01*
X148995226Y-98548102D01*
X148917205Y-98359744D01*
X148803937Y-98190226D01*
X148659774Y-98046063D01*
X148490256Y-97932795D01*
X148301898Y-97854774D01*
X148101939Y-97815000D01*
X147898061Y-97815000D01*
X147715222Y-97851369D01*
X147735000Y-97751939D01*
X147735000Y-97548061D01*
X147695226Y-97348102D01*
X147617205Y-97159744D01*
X147503937Y-96990226D01*
X147359774Y-96846063D01*
X147190256Y-96732795D01*
X147001898Y-96654774D01*
X146801939Y-96615000D01*
X146598061Y-96615000D01*
X146426677Y-96649090D01*
X146353937Y-96540226D01*
X146209774Y-96396063D01*
X146040256Y-96282795D01*
X145851898Y-96204774D01*
X145651939Y-96165000D01*
X145448061Y-96165000D01*
X145248102Y-96204774D01*
X145059744Y-96282795D01*
X144890226Y-96396063D01*
X144746063Y-96540226D01*
X144632795Y-96709744D01*
X144554774Y-96898102D01*
X144515000Y-97098061D01*
X144485000Y-97098061D01*
X144445226Y-96898102D01*
X144367205Y-96709744D01*
X144253937Y-96540226D01*
X144109774Y-96396063D01*
X143940256Y-96282795D01*
X143751898Y-96204774D01*
X143551939Y-96165000D01*
X143348061Y-96165000D01*
X143148102Y-96204774D01*
X142959744Y-96282795D01*
X142790226Y-96396063D01*
X142646063Y-96540226D01*
X142532795Y-96709744D01*
X142454774Y-96898102D01*
X142415000Y-97098061D01*
X142333077Y-97098061D01*
X142317205Y-97059744D01*
X142203937Y-96890226D01*
X142059774Y-96746063D01*
X141890256Y-96632795D01*
X141701898Y-96554774D01*
X141501939Y-96515000D01*
X141417263Y-96515000D01*
X141467205Y-96440256D01*
X141545226Y-96251898D01*
X141585000Y-96051939D01*
X141585000Y-95848061D01*
X141545226Y-95648102D01*
X141467205Y-95459744D01*
X141353937Y-95290226D01*
X141209774Y-95146063D01*
X141040256Y-95032795D01*
X140851898Y-94954774D01*
X140651939Y-94915000D01*
X140448061Y-94915000D01*
X140248102Y-94954774D01*
X140059744Y-95032795D01*
X139890226Y-95146063D01*
X139746063Y-95290226D01*
X139632795Y-95459744D01*
X139554774Y-95648102D01*
X139515000Y-95848061D01*
X139515000Y-95941467D01*
X139448102Y-95954774D01*
X139259744Y-96032795D01*
X139090226Y-96146063D01*
X138946063Y-96290226D01*
X138832795Y-96459744D01*
X138754774Y-96648102D01*
X138715000Y-96848061D01*
X136185000Y-96848061D01*
X136185000Y-94748061D01*
X143765000Y-94748061D01*
X143765000Y-94951939D01*
X143804774Y-95151898D01*
X143882795Y-95340256D01*
X143996063Y-95509774D01*
X144140226Y-95653937D01*
X144309744Y-95767205D01*
X144498102Y-95845226D01*
X144698061Y-95885000D01*
X144901939Y-95885000D01*
X145101898Y-95845226D01*
X145290256Y-95767205D01*
X145459774Y-95653937D01*
X145603937Y-95509774D01*
X145711989Y-95348061D01*
X147765000Y-95348061D01*
X147765000Y-95551939D01*
X147804774Y-95751898D01*
X147882795Y-95940256D01*
X147996063Y-96109774D01*
X148140226Y-96253937D01*
X148309744Y-96367205D01*
X148498102Y-96445226D01*
X148698061Y-96485000D01*
X148901939Y-96485000D01*
X148910943Y-96483209D01*
X148904774Y-96498102D01*
X148865000Y-96698061D01*
X148865000Y-96901939D01*
X148904774Y-97101898D01*
X148982795Y-97290256D01*
X149096063Y-97459774D01*
X149240226Y-97603937D01*
X149409744Y-97717205D01*
X149598102Y-97795226D01*
X149798061Y-97835000D01*
X150001939Y-97835000D01*
X150201898Y-97795226D01*
X150390256Y-97717205D01*
X150559774Y-97603937D01*
X150703937Y-97459774D01*
X150817205Y-97290256D01*
X150895226Y-97101898D01*
X150935000Y-96901939D01*
X150935000Y-96898061D01*
X164965000Y-96898061D01*
X164965000Y-97101939D01*
X165004774Y-97301898D01*
X165082795Y-97490256D01*
X165196063Y-97659774D01*
X165340226Y-97803937D01*
X165509744Y-97917205D01*
X165698102Y-97995226D01*
X165898061Y-98035000D01*
X166101939Y-98035000D01*
X166301898Y-97995226D01*
X166490256Y-97917205D01*
X166659774Y-97803937D01*
X166803937Y-97659774D01*
X166917205Y-97490256D01*
X166995226Y-97301898D01*
X167035000Y-97101939D01*
X167035000Y-96898061D01*
X166995226Y-96698102D01*
X166917205Y-96509744D01*
X166803937Y-96340226D01*
X166659774Y-96196063D01*
X166490256Y-96082795D01*
X166301898Y-96004774D01*
X166101939Y-95965000D01*
X165898061Y-95965000D01*
X165698102Y-96004774D01*
X165509744Y-96082795D01*
X165340226Y-96196063D01*
X165196063Y-96340226D01*
X165082795Y-96509744D01*
X165004774Y-96698102D01*
X164965000Y-96898061D01*
X150935000Y-96898061D01*
X150935000Y-96698061D01*
X150895226Y-96498102D01*
X150817205Y-96309744D01*
X150703937Y-96140226D01*
X150559774Y-95996063D01*
X150390256Y-95882795D01*
X150201898Y-95804774D01*
X150001939Y-95765000D01*
X149798061Y-95765000D01*
X149789057Y-95766791D01*
X149795226Y-95751898D01*
X149835000Y-95551939D01*
X149835000Y-95348061D01*
X149795226Y-95148102D01*
X149717205Y-94959744D01*
X149603937Y-94790226D01*
X149459774Y-94646063D01*
X149290256Y-94532795D01*
X149101898Y-94454774D01*
X148901939Y-94415000D01*
X148698061Y-94415000D01*
X148498102Y-94454774D01*
X148309744Y-94532795D01*
X148140226Y-94646063D01*
X147996063Y-94790226D01*
X147882795Y-94959744D01*
X147804774Y-95148102D01*
X147765000Y-95348061D01*
X145711989Y-95348061D01*
X145717205Y-95340256D01*
X145795226Y-95151898D01*
X145835000Y-94951939D01*
X145835000Y-94748061D01*
X145795226Y-94548102D01*
X145717205Y-94359744D01*
X145603937Y-94190226D01*
X145459774Y-94046063D01*
X145290256Y-93932795D01*
X145101898Y-93854774D01*
X144901939Y-93815000D01*
X144698061Y-93815000D01*
X144498102Y-93854774D01*
X144309744Y-93932795D01*
X144140226Y-94046063D01*
X143996063Y-94190226D01*
X143882795Y-94359744D01*
X143804774Y-94548102D01*
X143765000Y-94748061D01*
X136185000Y-94748061D01*
X136185000Y-92098061D01*
X139465000Y-92098061D01*
X139465000Y-92301939D01*
X139504774Y-92501898D01*
X139582795Y-92690256D01*
X139696063Y-92859774D01*
X139840226Y-93003937D01*
X140009744Y-93117205D01*
X140198102Y-93195226D01*
X140398061Y-93235000D01*
X140601939Y-93235000D01*
X140801898Y-93195226D01*
X140990256Y-93117205D01*
X141159774Y-93003937D01*
X141303937Y-92859774D01*
X141417205Y-92690256D01*
X141495226Y-92501898D01*
X141535000Y-92301939D01*
X141535000Y-92098061D01*
X141495226Y-91898102D01*
X141495210Y-91898061D01*
X145315000Y-91898061D01*
X145315000Y-92101939D01*
X145354774Y-92301898D01*
X145432795Y-92490256D01*
X145546063Y-92659774D01*
X145690226Y-92803937D01*
X145859744Y-92917205D01*
X146048102Y-92995226D01*
X146248061Y-93035000D01*
X146451939Y-93035000D01*
X146651898Y-92995226D01*
X146840256Y-92917205D01*
X147009774Y-92803937D01*
X147115650Y-92698061D01*
X152465000Y-92698061D01*
X152465000Y-92901939D01*
X152504774Y-93101898D01*
X152582795Y-93290256D01*
X152696063Y-93459774D01*
X152840226Y-93603937D01*
X153009744Y-93717205D01*
X153198102Y-93795226D01*
X153398061Y-93835000D01*
X153601939Y-93835000D01*
X153801898Y-93795226D01*
X153990256Y-93717205D01*
X154159774Y-93603937D01*
X154303937Y-93459774D01*
X154417205Y-93290256D01*
X154495226Y-93101898D01*
X154535000Y-92901939D01*
X154535000Y-92698061D01*
X154665000Y-92698061D01*
X154665000Y-92901939D01*
X154704774Y-93101898D01*
X154782795Y-93290256D01*
X154896063Y-93459774D01*
X155040226Y-93603937D01*
X155209744Y-93717205D01*
X155398102Y-93795226D01*
X155598061Y-93835000D01*
X155801939Y-93835000D01*
X156001898Y-93795226D01*
X156190256Y-93717205D01*
X156359774Y-93603937D01*
X156503937Y-93459774D01*
X156617205Y-93290256D01*
X156695226Y-93101898D01*
X156735000Y-92901939D01*
X156735000Y-92698061D01*
X156695226Y-92498102D01*
X156617205Y-92309744D01*
X156503937Y-92140226D01*
X156359774Y-91996063D01*
X156190256Y-91882795D01*
X156001898Y-91804774D01*
X155801939Y-91765000D01*
X155598061Y-91765000D01*
X155398102Y-91804774D01*
X155209744Y-91882795D01*
X155040226Y-91996063D01*
X154896063Y-92140226D01*
X154782795Y-92309744D01*
X154704774Y-92498102D01*
X154665000Y-92698061D01*
X154535000Y-92698061D01*
X154495226Y-92498102D01*
X154417205Y-92309744D01*
X154303937Y-92140226D01*
X154159774Y-91996063D01*
X153990256Y-91882795D01*
X153801898Y-91804774D01*
X153601939Y-91765000D01*
X153398061Y-91765000D01*
X153198102Y-91804774D01*
X153009744Y-91882795D01*
X152840226Y-91996063D01*
X152696063Y-92140226D01*
X152582795Y-92309744D01*
X152504774Y-92498102D01*
X152465000Y-92698061D01*
X147115650Y-92698061D01*
X147153937Y-92659774D01*
X147267205Y-92490256D01*
X147345226Y-92301898D01*
X147385000Y-92101939D01*
X147385000Y-91898061D01*
X147345226Y-91698102D01*
X147267205Y-91509744D01*
X147153937Y-91340226D01*
X147009774Y-91196063D01*
X146840256Y-91082795D01*
X146651898Y-91004774D01*
X146451939Y-90965000D01*
X146248061Y-90965000D01*
X146048102Y-91004774D01*
X145859744Y-91082795D01*
X145690226Y-91196063D01*
X145546063Y-91340226D01*
X145432795Y-91509744D01*
X145354774Y-91698102D01*
X145315000Y-91898061D01*
X141495210Y-91898061D01*
X141417205Y-91709744D01*
X141303937Y-91540226D01*
X141159774Y-91396063D01*
X140990256Y-91282795D01*
X140801898Y-91204774D01*
X140601939Y-91165000D01*
X140398061Y-91165000D01*
X140198102Y-91204774D01*
X140009744Y-91282795D01*
X139840226Y-91396063D01*
X139696063Y-91540226D01*
X139582795Y-91709744D01*
X139504774Y-91898102D01*
X139465000Y-92098061D01*
X136185000Y-92098061D01*
X136185000Y-88398061D01*
X142965000Y-88398061D01*
X142965000Y-88601939D01*
X143004774Y-88801898D01*
X143082795Y-88990256D01*
X143196063Y-89159774D01*
X143340226Y-89303937D01*
X143509744Y-89417205D01*
X143698102Y-89495226D01*
X143898061Y-89535000D01*
X144101939Y-89535000D01*
X144301898Y-89495226D01*
X144490256Y-89417205D01*
X144659774Y-89303937D01*
X144803937Y-89159774D01*
X144811763Y-89148061D01*
X145115000Y-89148061D01*
X145115000Y-89351939D01*
X145154774Y-89551898D01*
X145232795Y-89740256D01*
X145346063Y-89909774D01*
X145490226Y-90053937D01*
X145659744Y-90167205D01*
X145848102Y-90245226D01*
X146048061Y-90285000D01*
X146251939Y-90285000D01*
X146451898Y-90245226D01*
X146640256Y-90167205D01*
X146809774Y-90053937D01*
X146953937Y-89909774D01*
X147028581Y-89798061D01*
X152815000Y-89798061D01*
X152815000Y-90001939D01*
X152854774Y-90201898D01*
X152932795Y-90390256D01*
X153046063Y-90559774D01*
X153190226Y-90703937D01*
X153359744Y-90817205D01*
X153548102Y-90895226D01*
X153748061Y-90935000D01*
X153951939Y-90935000D01*
X154151898Y-90895226D01*
X154340256Y-90817205D01*
X154509774Y-90703937D01*
X154653937Y-90559774D01*
X154767205Y-90390256D01*
X154845226Y-90201898D01*
X154885000Y-90001939D01*
X154885000Y-89798061D01*
X163565000Y-89798061D01*
X163565000Y-90001939D01*
X163604774Y-90201898D01*
X163682795Y-90390256D01*
X163747715Y-90487415D01*
X163732795Y-90509744D01*
X163654774Y-90698102D01*
X163615000Y-90898061D01*
X163615000Y-91101939D01*
X163654774Y-91301898D01*
X163732795Y-91490256D01*
X163764419Y-91537585D01*
X163682795Y-91659744D01*
X163604774Y-91848102D01*
X163565000Y-92048061D01*
X163565000Y-92251939D01*
X163604774Y-92451898D01*
X163682795Y-92640256D01*
X163796063Y-92809774D01*
X163940226Y-92953937D01*
X164109744Y-93067205D01*
X164298102Y-93145226D01*
X164498061Y-93185000D01*
X164701939Y-93185000D01*
X164901898Y-93145226D01*
X165090256Y-93067205D01*
X165259774Y-92953937D01*
X165403937Y-92809774D01*
X165517205Y-92640256D01*
X165595226Y-92451898D01*
X165635000Y-92251939D01*
X165635000Y-92048061D01*
X165595226Y-91848102D01*
X165517205Y-91659744D01*
X165485581Y-91612415D01*
X165567205Y-91490256D01*
X165645226Y-91301898D01*
X165685000Y-91101939D01*
X165685000Y-90898061D01*
X165645226Y-90698102D01*
X165567205Y-90509744D01*
X165502285Y-90412585D01*
X165517205Y-90390256D01*
X165595226Y-90201898D01*
X165635000Y-90001939D01*
X165635000Y-89898061D01*
X170665000Y-89898061D01*
X170665000Y-90101939D01*
X170704774Y-90301898D01*
X170782795Y-90490256D01*
X170896063Y-90659774D01*
X171040226Y-90803937D01*
X171209744Y-90917205D01*
X171398102Y-90995226D01*
X171598061Y-91035000D01*
X171801939Y-91035000D01*
X172001898Y-90995226D01*
X172190256Y-90917205D01*
X172359774Y-90803937D01*
X172503937Y-90659774D01*
X172617205Y-90490256D01*
X172695226Y-90301898D01*
X172735000Y-90101939D01*
X172735000Y-89898061D01*
X172695226Y-89698102D01*
X172617205Y-89509744D01*
X172503937Y-89340226D01*
X172359774Y-89196063D01*
X172190256Y-89082795D01*
X172001898Y-89004774D01*
X171801939Y-88965000D01*
X171598061Y-88965000D01*
X171398102Y-89004774D01*
X171209744Y-89082795D01*
X171040226Y-89196063D01*
X170896063Y-89340226D01*
X170782795Y-89509744D01*
X170704774Y-89698102D01*
X170665000Y-89898061D01*
X165635000Y-89898061D01*
X165635000Y-89798061D01*
X165595226Y-89598102D01*
X165517205Y-89409744D01*
X165485581Y-89362415D01*
X165567205Y-89240256D01*
X165645226Y-89051898D01*
X165685000Y-88851939D01*
X165685000Y-88648061D01*
X165645226Y-88448102D01*
X165624499Y-88398061D01*
X167115000Y-88398061D01*
X167115000Y-88601939D01*
X167154774Y-88801898D01*
X167232795Y-88990256D01*
X167346063Y-89159774D01*
X167490226Y-89303937D01*
X167659744Y-89417205D01*
X167848102Y-89495226D01*
X168048061Y-89535000D01*
X168251939Y-89535000D01*
X168451898Y-89495226D01*
X168640256Y-89417205D01*
X168809774Y-89303937D01*
X168953937Y-89159774D01*
X169067205Y-88990256D01*
X169145226Y-88801898D01*
X169185000Y-88601939D01*
X169185000Y-88398061D01*
X169145226Y-88198102D01*
X169067205Y-88009744D01*
X168953937Y-87840226D01*
X168809774Y-87696063D01*
X168640256Y-87582795D01*
X168451898Y-87504774D01*
X168251939Y-87465000D01*
X168048061Y-87465000D01*
X167848102Y-87504774D01*
X167659744Y-87582795D01*
X167490226Y-87696063D01*
X167346063Y-87840226D01*
X167232795Y-88009744D01*
X167154774Y-88198102D01*
X167115000Y-88398061D01*
X165624499Y-88398061D01*
X165567205Y-88259744D01*
X165453937Y-88090226D01*
X165309774Y-87946063D01*
X165140256Y-87832795D01*
X164951898Y-87754774D01*
X164751939Y-87715000D01*
X164548061Y-87715000D01*
X164348102Y-87754774D01*
X164159744Y-87832795D01*
X163990226Y-87946063D01*
X163846063Y-88090226D01*
X163732795Y-88259744D01*
X163654774Y-88448102D01*
X163615000Y-88648061D01*
X163615000Y-88851939D01*
X163654774Y-89051898D01*
X163732795Y-89240256D01*
X163764419Y-89287585D01*
X163682795Y-89409744D01*
X163604774Y-89598102D01*
X163565000Y-89798061D01*
X154885000Y-89798061D01*
X154845226Y-89598102D01*
X154767205Y-89409744D01*
X154653937Y-89240226D01*
X154509774Y-89096063D01*
X154340256Y-88982795D01*
X154151898Y-88904774D01*
X153951939Y-88865000D01*
X153748061Y-88865000D01*
X153548102Y-88904774D01*
X153359744Y-88982795D01*
X153190226Y-89096063D01*
X153046063Y-89240226D01*
X152932795Y-89409744D01*
X152854774Y-89598102D01*
X152815000Y-89798061D01*
X147028581Y-89798061D01*
X147067205Y-89740256D01*
X147145226Y-89551898D01*
X147185000Y-89351939D01*
X147185000Y-89148061D01*
X147145226Y-88948102D01*
X147067205Y-88759744D01*
X146953937Y-88590226D01*
X146809774Y-88446063D01*
X146640256Y-88332795D01*
X146451898Y-88254774D01*
X146251939Y-88215000D01*
X146048061Y-88215000D01*
X145848102Y-88254774D01*
X145659744Y-88332795D01*
X145490226Y-88446063D01*
X145346063Y-88590226D01*
X145232795Y-88759744D01*
X145154774Y-88948102D01*
X145115000Y-89148061D01*
X144811763Y-89148061D01*
X144917205Y-88990256D01*
X144995226Y-88801898D01*
X145035000Y-88601939D01*
X145035000Y-88398061D01*
X144995226Y-88198102D01*
X144917205Y-88009744D01*
X144803937Y-87840226D01*
X144659774Y-87696063D01*
X144490256Y-87582795D01*
X144301898Y-87504774D01*
X144101939Y-87465000D01*
X143898061Y-87465000D01*
X143698102Y-87504774D01*
X143509744Y-87582795D01*
X143340226Y-87696063D01*
X143196063Y-87840226D01*
X143082795Y-88009744D01*
X143004774Y-88198102D01*
X142965000Y-88398061D01*
X136185000Y-88398061D01*
X136185000Y-86898061D01*
X152465000Y-86898061D01*
X152465000Y-87101939D01*
X152504774Y-87301898D01*
X152582795Y-87490256D01*
X152696063Y-87659774D01*
X152840226Y-87803937D01*
X153009744Y-87917205D01*
X153198102Y-87995226D01*
X153398061Y-88035000D01*
X153601939Y-88035000D01*
X153801898Y-87995226D01*
X153990256Y-87917205D01*
X154159774Y-87803937D01*
X154303937Y-87659774D01*
X154417205Y-87490256D01*
X154495226Y-87301898D01*
X154535000Y-87101939D01*
X154535000Y-86998061D01*
X155915000Y-86998061D01*
X155915000Y-87201939D01*
X155954774Y-87401898D01*
X156032795Y-87590256D01*
X156146063Y-87759774D01*
X156290226Y-87903937D01*
X156459744Y-88017205D01*
X156648102Y-88095226D01*
X156848061Y-88135000D01*
X157051939Y-88135000D01*
X157251898Y-88095226D01*
X157440256Y-88017205D01*
X157609774Y-87903937D01*
X157753937Y-87759774D01*
X157867205Y-87590256D01*
X157945226Y-87401898D01*
X157985000Y-87201939D01*
X157985000Y-86998061D01*
X157975055Y-86948061D01*
X159165000Y-86948061D01*
X159165000Y-87151939D01*
X159204774Y-87351898D01*
X159282795Y-87540256D01*
X159396063Y-87709774D01*
X159540226Y-87853937D01*
X159709744Y-87967205D01*
X159898102Y-88045226D01*
X160098061Y-88085000D01*
X160301939Y-88085000D01*
X160501898Y-88045226D01*
X160690256Y-87967205D01*
X160859774Y-87853937D01*
X161003937Y-87709774D01*
X161117205Y-87540256D01*
X161195226Y-87351898D01*
X161235000Y-87151939D01*
X161235000Y-86948061D01*
X161195226Y-86748102D01*
X161117205Y-86559744D01*
X161042582Y-86448061D01*
X163465000Y-86448061D01*
X163465000Y-86651939D01*
X163504774Y-86851898D01*
X163582795Y-87040256D01*
X163696063Y-87209774D01*
X163840226Y-87353937D01*
X164009744Y-87467205D01*
X164198102Y-87545226D01*
X164398061Y-87585000D01*
X164601939Y-87585000D01*
X164801898Y-87545226D01*
X164990256Y-87467205D01*
X165159774Y-87353937D01*
X165303937Y-87209774D01*
X165417205Y-87040256D01*
X165495226Y-86851898D01*
X165535000Y-86651939D01*
X165535000Y-86448061D01*
X165495226Y-86248102D01*
X165417205Y-86059744D01*
X165303937Y-85890226D01*
X165159774Y-85746063D01*
X164990256Y-85632795D01*
X164801898Y-85554774D01*
X164601939Y-85515000D01*
X164398061Y-85515000D01*
X164198102Y-85554774D01*
X164009744Y-85632795D01*
X163840226Y-85746063D01*
X163696063Y-85890226D01*
X163582795Y-86059744D01*
X163504774Y-86248102D01*
X163465000Y-86448061D01*
X161042582Y-86448061D01*
X161003937Y-86390226D01*
X160859774Y-86246063D01*
X160690256Y-86132795D01*
X160501898Y-86054774D01*
X160301939Y-86015000D01*
X160098061Y-86015000D01*
X159898102Y-86054774D01*
X159709744Y-86132795D01*
X159540226Y-86246063D01*
X159396063Y-86390226D01*
X159282795Y-86559744D01*
X159204774Y-86748102D01*
X159165000Y-86948061D01*
X157975055Y-86948061D01*
X157945226Y-86798102D01*
X157867205Y-86609744D01*
X157753937Y-86440226D01*
X157609774Y-86296063D01*
X157440256Y-86182795D01*
X157251898Y-86104774D01*
X157051939Y-86065000D01*
X156848061Y-86065000D01*
X156648102Y-86104774D01*
X156459744Y-86182795D01*
X156290226Y-86296063D01*
X156146063Y-86440226D01*
X156032795Y-86609744D01*
X155954774Y-86798102D01*
X155915000Y-86998061D01*
X154535000Y-86998061D01*
X154535000Y-86898061D01*
X154495226Y-86698102D01*
X154417205Y-86509744D01*
X154303937Y-86340226D01*
X154159774Y-86196063D01*
X153990256Y-86082795D01*
X153801898Y-86004774D01*
X153601939Y-85965000D01*
X153398061Y-85965000D01*
X153198102Y-86004774D01*
X153009744Y-86082795D01*
X152840226Y-86196063D01*
X152696063Y-86340226D01*
X152582795Y-86509744D01*
X152504774Y-86698102D01*
X152465000Y-86898061D01*
X136185000Y-86898061D01*
X136185000Y-83398061D01*
X146965000Y-83398061D01*
X146965000Y-83601939D01*
X147004774Y-83801898D01*
X147082795Y-83990256D01*
X147196063Y-84159774D01*
X147340226Y-84303937D01*
X147509744Y-84417205D01*
X147698102Y-84495226D01*
X147898061Y-84535000D01*
X148101939Y-84535000D01*
X148301898Y-84495226D01*
X148490256Y-84417205D01*
X148518907Y-84398061D01*
X166365000Y-84398061D01*
X166365000Y-84601939D01*
X166404774Y-84801898D01*
X166482795Y-84990256D01*
X166596063Y-85159774D01*
X166740226Y-85303937D01*
X166909744Y-85417205D01*
X167098102Y-85495226D01*
X167298061Y-85535000D01*
X167501939Y-85535000D01*
X167701898Y-85495226D01*
X167890256Y-85417205D01*
X168059774Y-85303937D01*
X168203937Y-85159774D01*
X168317205Y-84990256D01*
X168395226Y-84801898D01*
X168435000Y-84601939D01*
X168435000Y-84398061D01*
X168395226Y-84198102D01*
X168395210Y-84198061D01*
X168665000Y-84198061D01*
X168665000Y-84401939D01*
X168704774Y-84601898D01*
X168782795Y-84790256D01*
X168896063Y-84959774D01*
X169040226Y-85103937D01*
X169209744Y-85217205D01*
X169398102Y-85295226D01*
X169598061Y-85335000D01*
X169801939Y-85335000D01*
X170001898Y-85295226D01*
X170190256Y-85217205D01*
X170359774Y-85103937D01*
X170503937Y-84959774D01*
X170617205Y-84790256D01*
X170695226Y-84601898D01*
X170735000Y-84401939D01*
X170735000Y-84198061D01*
X170695226Y-83998102D01*
X170617205Y-83809744D01*
X170503937Y-83640226D01*
X170359774Y-83496063D01*
X170190256Y-83382795D01*
X170001898Y-83304774D01*
X169801939Y-83265000D01*
X169598061Y-83265000D01*
X169398102Y-83304774D01*
X169209744Y-83382795D01*
X169040226Y-83496063D01*
X168896063Y-83640226D01*
X168782795Y-83809744D01*
X168704774Y-83998102D01*
X168665000Y-84198061D01*
X168395210Y-84198061D01*
X168317205Y-84009744D01*
X168203937Y-83840226D01*
X168059774Y-83696063D01*
X167890256Y-83582795D01*
X167701898Y-83504774D01*
X167501939Y-83465000D01*
X167298061Y-83465000D01*
X167098102Y-83504774D01*
X166909744Y-83582795D01*
X166740226Y-83696063D01*
X166596063Y-83840226D01*
X166482795Y-84009744D01*
X166404774Y-84198102D01*
X166365000Y-84398061D01*
X148518907Y-84398061D01*
X148659774Y-84303937D01*
X148803937Y-84159774D01*
X148917205Y-83990256D01*
X148995226Y-83801898D01*
X149035000Y-83601939D01*
X149035000Y-83398061D01*
X148995226Y-83198102D01*
X148917205Y-83009744D01*
X148803937Y-82840226D01*
X148659774Y-82696063D01*
X148490256Y-82582795D01*
X148301898Y-82504774D01*
X148101939Y-82465000D01*
X147898061Y-82465000D01*
X147698102Y-82504774D01*
X147509744Y-82582795D01*
X147340226Y-82696063D01*
X147196063Y-82840226D01*
X147082795Y-83009744D01*
X147004774Y-83198102D01*
X146965000Y-83398061D01*
X136185000Y-83398061D01*
X136185000Y-81898061D01*
X139965000Y-81898061D01*
X139965000Y-82101939D01*
X140004774Y-82301898D01*
X140082795Y-82490256D01*
X140196063Y-82659774D01*
X140340226Y-82803937D01*
X140509744Y-82917205D01*
X140698102Y-82995226D01*
X140898061Y-83035000D01*
X141101939Y-83035000D01*
X141301898Y-82995226D01*
X141490256Y-82917205D01*
X141659774Y-82803937D01*
X141803937Y-82659774D01*
X141917205Y-82490256D01*
X141995226Y-82301898D01*
X142035000Y-82101939D01*
X142035000Y-81898061D01*
X141995226Y-81698102D01*
X141995210Y-81698061D01*
X145165000Y-81698061D01*
X145165000Y-81901939D01*
X145204774Y-82101898D01*
X145282795Y-82290256D01*
X145396063Y-82459774D01*
X145540226Y-82603937D01*
X145709744Y-82717205D01*
X145898102Y-82795226D01*
X146098061Y-82835000D01*
X146301939Y-82835000D01*
X146501898Y-82795226D01*
X146690256Y-82717205D01*
X146859774Y-82603937D01*
X147003937Y-82459774D01*
X147117205Y-82290256D01*
X147195226Y-82101898D01*
X147235000Y-81901939D01*
X147235000Y-81698061D01*
X147195226Y-81498102D01*
X147195210Y-81498061D01*
X165115000Y-81498061D01*
X165115000Y-81701939D01*
X165154774Y-81901898D01*
X165232795Y-82090256D01*
X165346063Y-82259774D01*
X165490226Y-82403937D01*
X165659744Y-82517205D01*
X165848102Y-82595226D01*
X166048061Y-82635000D01*
X166251939Y-82635000D01*
X166451898Y-82595226D01*
X166640256Y-82517205D01*
X166809774Y-82403937D01*
X166953937Y-82259774D01*
X167067205Y-82090256D01*
X167145226Y-81901898D01*
X167185000Y-81701939D01*
X167185000Y-81498061D01*
X167145226Y-81298102D01*
X167067205Y-81109744D01*
X166953937Y-80940226D01*
X166931471Y-80917760D01*
X168815000Y-80917760D01*
X168815000Y-81082240D01*
X168847089Y-81243560D01*
X168910033Y-81395521D01*
X169001413Y-81532281D01*
X169117719Y-81648587D01*
X169254479Y-81739967D01*
X169406440Y-81802911D01*
X169567760Y-81835000D01*
X169732240Y-81835000D01*
X169893560Y-81802911D01*
X170045521Y-81739967D01*
X170182281Y-81648587D01*
X170298587Y-81532281D01*
X170389967Y-81395521D01*
X170452911Y-81243560D01*
X170485000Y-81082240D01*
X170485000Y-80917760D01*
X170452911Y-80756440D01*
X170389967Y-80604479D01*
X170298587Y-80467719D01*
X170182281Y-80351413D01*
X170045521Y-80260033D01*
X169893560Y-80197089D01*
X169732240Y-80165000D01*
X169567760Y-80165000D01*
X169406440Y-80197089D01*
X169254479Y-80260033D01*
X169117719Y-80351413D01*
X169001413Y-80467719D01*
X168910033Y-80604479D01*
X168847089Y-80756440D01*
X168815000Y-80917760D01*
X166931471Y-80917760D01*
X166809774Y-80796063D01*
X166640256Y-80682795D01*
X166451898Y-80604774D01*
X166251939Y-80565000D01*
X166048061Y-80565000D01*
X165848102Y-80604774D01*
X165659744Y-80682795D01*
X165490226Y-80796063D01*
X165346063Y-80940226D01*
X165232795Y-81109744D01*
X165154774Y-81298102D01*
X165115000Y-81498061D01*
X147195210Y-81498061D01*
X147117205Y-81309744D01*
X147003937Y-81140226D01*
X146859774Y-80996063D01*
X146690256Y-80882795D01*
X146501898Y-80804774D01*
X146301939Y-80765000D01*
X146098061Y-80765000D01*
X145898102Y-80804774D01*
X145709744Y-80882795D01*
X145540226Y-80996063D01*
X145396063Y-81140226D01*
X145282795Y-81309744D01*
X145204774Y-81498102D01*
X145165000Y-81698061D01*
X141995210Y-81698061D01*
X141917205Y-81509744D01*
X141803937Y-81340226D01*
X141659774Y-81196063D01*
X141490256Y-81082795D01*
X141301898Y-81004774D01*
X141101939Y-80965000D01*
X140898061Y-80965000D01*
X140698102Y-81004774D01*
X140509744Y-81082795D01*
X140340226Y-81196063D01*
X140196063Y-81340226D01*
X140082795Y-81509744D01*
X140004774Y-81698102D01*
X139965000Y-81898061D01*
X136185000Y-81898061D01*
X136185000Y-79643217D01*
X136196063Y-79659774D01*
X136340226Y-79803937D01*
X136509744Y-79917205D01*
X136698102Y-79995226D01*
X136898061Y-80035000D01*
X137101939Y-80035000D01*
X137301898Y-79995226D01*
X137490256Y-79917205D01*
X137659774Y-79803937D01*
X137803937Y-79659774D01*
X137917205Y-79490256D01*
X137995226Y-79301898D01*
X138000000Y-79277897D01*
X138004774Y-79301898D01*
X138082795Y-79490256D01*
X138196063Y-79659774D01*
X138340226Y-79803937D01*
X138509744Y-79917205D01*
X138698102Y-79995226D01*
X138898061Y-80035000D01*
X139101939Y-80035000D01*
X139301898Y-79995226D01*
X139490256Y-79917205D01*
X139659774Y-79803937D01*
X139803937Y-79659774D01*
X139917205Y-79490256D01*
X139995226Y-79301898D01*
X140035000Y-79101939D01*
X140035000Y-78898061D01*
X141965000Y-78898061D01*
X141965000Y-79101939D01*
X142004774Y-79301898D01*
X142082795Y-79490256D01*
X142196063Y-79659774D01*
X142340226Y-79803937D01*
X142509744Y-79917205D01*
X142698102Y-79995226D01*
X142898061Y-80035000D01*
X143101939Y-80035000D01*
X143301898Y-79995226D01*
X143490256Y-79917205D01*
X143659774Y-79803937D01*
X143803937Y-79659774D01*
X143917205Y-79490256D01*
X143995226Y-79301898D01*
X144035000Y-79101939D01*
X144035000Y-78898061D01*
X146965000Y-78898061D01*
X146965000Y-79101939D01*
X147004774Y-79301898D01*
X147082795Y-79490256D01*
X147196063Y-79659774D01*
X147340226Y-79803937D01*
X147509744Y-79917205D01*
X147698102Y-79995226D01*
X147898061Y-80035000D01*
X148101939Y-80035000D01*
X148301898Y-79995226D01*
X148490256Y-79917205D01*
X148659774Y-79803937D01*
X148803937Y-79659774D01*
X148917205Y-79490256D01*
X148995226Y-79301898D01*
X149035000Y-79101939D01*
X149035000Y-78898061D01*
X148995226Y-78698102D01*
X148917205Y-78509744D01*
X148803937Y-78340226D01*
X148659774Y-78196063D01*
X148490256Y-78082795D01*
X148301898Y-78004774D01*
X148101939Y-77965000D01*
X147898061Y-77965000D01*
X147698102Y-78004774D01*
X147509744Y-78082795D01*
X147340226Y-78196063D01*
X147196063Y-78340226D01*
X147082795Y-78509744D01*
X147004774Y-78698102D01*
X146965000Y-78898061D01*
X144035000Y-78898061D01*
X143995226Y-78698102D01*
X143917205Y-78509744D01*
X143803937Y-78340226D01*
X143659774Y-78196063D01*
X143490256Y-78082795D01*
X143301898Y-78004774D01*
X143101939Y-77965000D01*
X142898061Y-77965000D01*
X142698102Y-78004774D01*
X142509744Y-78082795D01*
X142340226Y-78196063D01*
X142196063Y-78340226D01*
X142082795Y-78509744D01*
X142004774Y-78698102D01*
X141965000Y-78898061D01*
X140035000Y-78898061D01*
X139995226Y-78698102D01*
X139917205Y-78509744D01*
X139803937Y-78340226D01*
X139659774Y-78196063D01*
X139490256Y-78082795D01*
X139301898Y-78004774D01*
X139101939Y-77965000D01*
X138898061Y-77965000D01*
X138698102Y-78004774D01*
X138509744Y-78082795D01*
X138340226Y-78196063D01*
X138196063Y-78340226D01*
X138082795Y-78509744D01*
X138004774Y-78698102D01*
X138000000Y-78722103D01*
X137995226Y-78698102D01*
X137917205Y-78509744D01*
X137803937Y-78340226D01*
X137659774Y-78196063D01*
X137490256Y-78082795D01*
X137301898Y-78004774D01*
X137101939Y-77965000D01*
X136898061Y-77965000D01*
X136698102Y-78004774D01*
X136509744Y-78082795D01*
X136340226Y-78196063D01*
X136196063Y-78340226D01*
X136185000Y-78356783D01*
X136185000Y-77398061D01*
X139965000Y-77398061D01*
X139965000Y-77601939D01*
X140004774Y-77801898D01*
X140082795Y-77990256D01*
X140196063Y-78159774D01*
X140340226Y-78303937D01*
X140509744Y-78417205D01*
X140698102Y-78495226D01*
X140898061Y-78535000D01*
X141101939Y-78535000D01*
X141301898Y-78495226D01*
X141490256Y-78417205D01*
X141659774Y-78303937D01*
X141803937Y-78159774D01*
X141917205Y-77990256D01*
X141995226Y-77801898D01*
X142035000Y-77601939D01*
X142035000Y-77398061D01*
X144465000Y-77398061D01*
X144465000Y-77601939D01*
X144504774Y-77801898D01*
X144582795Y-77990256D01*
X144696063Y-78159774D01*
X144840226Y-78303937D01*
X145009744Y-78417205D01*
X145198102Y-78495226D01*
X145398061Y-78535000D01*
X145601939Y-78535000D01*
X145801898Y-78495226D01*
X145990256Y-78417205D01*
X146159774Y-78303937D01*
X146303937Y-78159774D01*
X146417205Y-77990256D01*
X146495226Y-77801898D01*
X146535000Y-77601939D01*
X146535000Y-77398061D01*
X146495226Y-77198102D01*
X146417205Y-77009744D01*
X146303937Y-76840226D01*
X146159774Y-76696063D01*
X145990256Y-76582795D01*
X145801898Y-76504774D01*
X145601939Y-76465000D01*
X145398061Y-76465000D01*
X145198102Y-76504774D01*
X145009744Y-76582795D01*
X144840226Y-76696063D01*
X144696063Y-76840226D01*
X144582795Y-77009744D01*
X144504774Y-77198102D01*
X144465000Y-77398061D01*
X142035000Y-77398061D01*
X141995226Y-77198102D01*
X141917205Y-77009744D01*
X141803937Y-76840226D01*
X141659774Y-76696063D01*
X141490256Y-76582795D01*
X141301898Y-76504774D01*
X141101939Y-76465000D01*
X140898061Y-76465000D01*
X140698102Y-76504774D01*
X140509744Y-76582795D01*
X140340226Y-76696063D01*
X140196063Y-76840226D01*
X140082795Y-77009744D01*
X140004774Y-77198102D01*
X139965000Y-77398061D01*
X136185000Y-77398061D01*
X136185000Y-74033504D01*
X136197649Y-73904495D01*
X136515000Y-73904495D01*
X136515000Y-74295505D01*
X136591282Y-74679003D01*
X136740915Y-75040250D01*
X136958149Y-75365364D01*
X137234636Y-75641851D01*
X137559750Y-75859085D01*
X137920997Y-76008718D01*
X138304495Y-76085000D01*
X138695505Y-76085000D01*
X139079003Y-76008718D01*
X139346153Y-75898061D01*
X141965000Y-75898061D01*
X141965000Y-76101939D01*
X142004774Y-76301898D01*
X142082795Y-76490256D01*
X142196063Y-76659774D01*
X142340226Y-76803937D01*
X142509744Y-76917205D01*
X142698102Y-76995226D01*
X142898061Y-77035000D01*
X143101939Y-77035000D01*
X143301898Y-76995226D01*
X143490256Y-76917205D01*
X143659774Y-76803937D01*
X143803937Y-76659774D01*
X143917205Y-76490256D01*
X143995226Y-76301898D01*
X144035000Y-76101939D01*
X144035000Y-75898061D01*
X146965000Y-75898061D01*
X146965000Y-76101939D01*
X147004774Y-76301898D01*
X147082795Y-76490256D01*
X147196063Y-76659774D01*
X147340226Y-76803937D01*
X147509744Y-76917205D01*
X147698102Y-76995226D01*
X147898061Y-77035000D01*
X148101939Y-77035000D01*
X148301898Y-76995226D01*
X148490256Y-76917205D01*
X148659774Y-76803937D01*
X148803937Y-76659774D01*
X148917205Y-76490256D01*
X148995226Y-76301898D01*
X149035000Y-76101939D01*
X149035000Y-75898061D01*
X148995226Y-75698102D01*
X148917205Y-75509744D01*
X148803937Y-75340226D01*
X148659774Y-75196063D01*
X148490256Y-75082795D01*
X148301898Y-75004774D01*
X148101939Y-74965000D01*
X147898061Y-74965000D01*
X147698102Y-75004774D01*
X147509744Y-75082795D01*
X147340226Y-75196063D01*
X147196063Y-75340226D01*
X147082795Y-75509744D01*
X147004774Y-75698102D01*
X146965000Y-75898061D01*
X144035000Y-75898061D01*
X143995226Y-75698102D01*
X143917205Y-75509744D01*
X143803937Y-75340226D01*
X143659774Y-75196063D01*
X143490256Y-75082795D01*
X143301898Y-75004774D01*
X143101939Y-74965000D01*
X142898061Y-74965000D01*
X142698102Y-75004774D01*
X142509744Y-75082795D01*
X142340226Y-75196063D01*
X142196063Y-75340226D01*
X142082795Y-75509744D01*
X142004774Y-75698102D01*
X141965000Y-75898061D01*
X139346153Y-75898061D01*
X139440250Y-75859085D01*
X139765364Y-75641851D01*
X140041851Y-75365364D01*
X140259085Y-75040250D01*
X140408718Y-74679003D01*
X140485000Y-74295505D01*
X140485000Y-73904495D01*
X140408718Y-73520997D01*
X140357797Y-73398061D01*
X144465000Y-73398061D01*
X144465000Y-73601939D01*
X144504774Y-73801898D01*
X144582795Y-73990256D01*
X144696063Y-74159774D01*
X144840226Y-74303937D01*
X145009744Y-74417205D01*
X145198102Y-74495226D01*
X145398061Y-74535000D01*
X145601939Y-74535000D01*
X145801898Y-74495226D01*
X145990256Y-74417205D01*
X146159774Y-74303937D01*
X146303937Y-74159774D01*
X146417205Y-73990256D01*
X146495226Y-73801898D01*
X146535000Y-73601939D01*
X146535000Y-73398061D01*
X146495226Y-73198102D01*
X146417205Y-73009744D01*
X146303937Y-72840226D01*
X146159774Y-72696063D01*
X145990256Y-72582795D01*
X145801898Y-72504774D01*
X145601939Y-72465000D01*
X145398061Y-72465000D01*
X145198102Y-72504774D01*
X145009744Y-72582795D01*
X144840226Y-72696063D01*
X144696063Y-72840226D01*
X144582795Y-73009744D01*
X144504774Y-73198102D01*
X144465000Y-73398061D01*
X140357797Y-73398061D01*
X140259085Y-73159750D01*
X140041851Y-72834636D01*
X139765364Y-72558149D01*
X139440250Y-72340915D01*
X139079003Y-72191282D01*
X138695505Y-72115000D01*
X138304495Y-72115000D01*
X137920997Y-72191282D01*
X137559750Y-72340915D01*
X137234636Y-72558149D01*
X136958149Y-72834636D01*
X136740915Y-73159750D01*
X136591282Y-73520997D01*
X136515000Y-73904495D01*
X136197649Y-73904495D01*
X136251356Y-73356752D01*
X136438168Y-72738002D01*
X136741602Y-72167325D01*
X137150104Y-71666452D01*
X137648112Y-71254464D01*
X137965000Y-71083123D01*
X137965000Y-71101939D01*
X138004774Y-71301898D01*
X138082795Y-71490256D01*
X138196063Y-71659774D01*
X138340226Y-71803937D01*
X138509744Y-71917205D01*
X138698102Y-71995226D01*
X138898061Y-72035000D01*
X139101939Y-72035000D01*
X139301898Y-71995226D01*
X139490256Y-71917205D01*
X139659774Y-71803937D01*
X139803937Y-71659774D01*
X139917205Y-71490256D01*
X139995226Y-71301898D01*
X140035000Y-71101939D01*
X140035000Y-70898061D01*
X139995226Y-70698102D01*
X139989799Y-70685000D01*
X142010201Y-70685000D01*
X142004774Y-70698102D01*
X142004774Y-70698102D01*
G37*
X142004774Y-70698102D02*
X141965000Y-70898061D01*
X141965000Y-71101939D01*
X142004774Y-71301898D01*
X142082795Y-71490256D01*
X142196063Y-71659774D01*
X142340226Y-71803937D01*
X142509744Y-71917205D01*
X142698102Y-71995226D01*
X142898061Y-72035000D01*
X143101939Y-72035000D01*
X143301898Y-71995226D01*
X143490256Y-71917205D01*
X143659774Y-71803937D01*
X143803937Y-71659774D01*
X143917205Y-71490256D01*
X143995226Y-71301898D01*
X144035000Y-71101939D01*
X144035000Y-70898061D01*
X143995226Y-70698102D01*
X143989799Y-70685000D01*
X147010201Y-70685000D01*
X147004774Y-70698102D01*
X146965000Y-70898061D01*
X146965000Y-71101939D01*
X147004774Y-71301898D01*
X147082795Y-71490256D01*
X147196063Y-71659774D01*
X147340226Y-71803937D01*
X147509744Y-71917205D01*
X147698102Y-71995226D01*
X147898061Y-72035000D01*
X148065000Y-72035000D01*
X148065000Y-72051939D01*
X148104774Y-72251898D01*
X148182795Y-72440256D01*
X148296063Y-72609774D01*
X148440226Y-72753937D01*
X148609744Y-72867205D01*
X148798102Y-72945226D01*
X148998061Y-72985000D01*
X149131613Y-72985000D01*
X149040226Y-73046063D01*
X148896063Y-73190226D01*
X148782795Y-73359744D01*
X148704774Y-73548102D01*
X148665000Y-73748061D01*
X148665000Y-73951939D01*
X148704774Y-74151898D01*
X148782795Y-74340256D01*
X148896063Y-74509774D01*
X149040226Y-74653937D01*
X149209744Y-74767205D01*
X149398102Y-74845226D01*
X149598061Y-74885000D01*
X149615000Y-74885000D01*
X149615000Y-74901939D01*
X149654774Y-75101898D01*
X149732795Y-75290256D01*
X149846063Y-75459774D01*
X149990226Y-75603937D01*
X150121580Y-75691704D01*
X150040226Y-75746063D01*
X149896063Y-75890226D01*
X149782795Y-76059744D01*
X149704774Y-76248102D01*
X149665000Y-76448061D01*
X149665000Y-76651939D01*
X149704774Y-76851898D01*
X149782795Y-77040256D01*
X149896063Y-77209774D01*
X150040226Y-77353937D01*
X150209744Y-77467205D01*
X150228563Y-77475000D01*
X150209744Y-77482795D01*
X150040226Y-77596063D01*
X149896063Y-77740226D01*
X149782795Y-77909744D01*
X149704774Y-78098102D01*
X149665000Y-78298061D01*
X149665000Y-78501939D01*
X149704774Y-78701898D01*
X149782795Y-78890256D01*
X149896063Y-79059774D01*
X150040226Y-79203937D01*
X150209744Y-79317205D01*
X150288918Y-79350000D01*
X150209744Y-79382795D01*
X150040226Y-79496063D01*
X149896063Y-79640226D01*
X149782795Y-79809744D01*
X149704774Y-79998102D01*
X149665000Y-80198061D01*
X149665000Y-80401939D01*
X149704774Y-80601898D01*
X149782795Y-80790256D01*
X149896063Y-80959774D01*
X150040226Y-81103937D01*
X150209744Y-81217205D01*
X150398102Y-81295226D01*
X150598061Y-81335000D01*
X150801939Y-81335000D01*
X151001898Y-81295226D01*
X151190256Y-81217205D01*
X151359774Y-81103937D01*
X151503937Y-80959774D01*
X151617205Y-80790256D01*
X151695226Y-80601898D01*
X151735000Y-80401939D01*
X151735000Y-80248061D01*
X153965000Y-80248061D01*
X153965000Y-80451939D01*
X154004774Y-80651898D01*
X154082795Y-80840256D01*
X154196063Y-81009774D01*
X154340226Y-81153937D01*
X154509744Y-81267205D01*
X154698102Y-81345226D01*
X154898061Y-81385000D01*
X155101939Y-81385000D01*
X155301898Y-81345226D01*
X155490256Y-81267205D01*
X155659774Y-81153937D01*
X155803937Y-81009774D01*
X155917205Y-80840256D01*
X155995226Y-80651898D01*
X156018478Y-80535000D01*
X156101939Y-80535000D01*
X156301898Y-80495226D01*
X156490256Y-80417205D01*
X156659774Y-80303937D01*
X156803937Y-80159774D01*
X156917205Y-79990256D01*
X156995226Y-79801898D01*
X157035000Y-79601939D01*
X157035000Y-79398061D01*
X156995226Y-79198102D01*
X156917205Y-79009744D01*
X156803937Y-78840226D01*
X156659774Y-78696063D01*
X156490256Y-78582795D01*
X156301898Y-78504774D01*
X156101939Y-78465000D01*
X155898061Y-78465000D01*
X155698102Y-78504774D01*
X155509744Y-78582795D01*
X155340226Y-78696063D01*
X155196063Y-78840226D01*
X155082795Y-79009744D01*
X155004774Y-79198102D01*
X154981522Y-79315000D01*
X154898061Y-79315000D01*
X154698102Y-79354774D01*
X154509744Y-79432795D01*
X154340226Y-79546063D01*
X154196063Y-79690226D01*
X154082795Y-79859744D01*
X154004774Y-80048102D01*
X153965000Y-80248061D01*
X151735000Y-80248061D01*
X151735000Y-80198061D01*
X151695226Y-79998102D01*
X151617205Y-79809744D01*
X151503937Y-79640226D01*
X151359774Y-79496063D01*
X151190256Y-79382795D01*
X151111082Y-79350000D01*
X151190256Y-79317205D01*
X151359774Y-79203937D01*
X151503937Y-79059774D01*
X151617205Y-78890256D01*
X151695226Y-78701898D01*
X151735000Y-78501939D01*
X151735000Y-78298061D01*
X151695226Y-78098102D01*
X151617205Y-77909744D01*
X151503937Y-77740226D01*
X151359774Y-77596063D01*
X151190256Y-77482795D01*
X151171437Y-77475000D01*
X151190256Y-77467205D01*
X151359774Y-77353937D01*
X151503937Y-77209774D01*
X151617205Y-77040256D01*
X151695226Y-76851898D01*
X151735000Y-76651939D01*
X151735000Y-76448061D01*
X152215000Y-76448061D01*
X152215000Y-76651939D01*
X152254774Y-76851898D01*
X152332795Y-77040256D01*
X152446063Y-77209774D01*
X152590226Y-77353937D01*
X152696580Y-77425000D01*
X152590226Y-77496063D01*
X152446063Y-77640226D01*
X152332795Y-77809744D01*
X152254774Y-77998102D01*
X152215000Y-78198061D01*
X152215000Y-78401939D01*
X152254774Y-78601898D01*
X152332795Y-78790256D01*
X152446063Y-78959774D01*
X152590226Y-79103937D01*
X152759744Y-79217205D01*
X152948102Y-79295226D01*
X153148061Y-79335000D01*
X153351939Y-79335000D01*
X153551898Y-79295226D01*
X153740256Y-79217205D01*
X153909774Y-79103937D01*
X154053937Y-78959774D01*
X154167205Y-78790256D01*
X154245226Y-78601898D01*
X154285000Y-78401939D01*
X154285000Y-78198061D01*
X154245226Y-77998102D01*
X154203788Y-77898061D01*
X157465000Y-77898061D01*
X157465000Y-78101939D01*
X157504774Y-78301898D01*
X157582795Y-78490256D01*
X157696063Y-78659774D01*
X157840226Y-78803937D01*
X158009744Y-78917205D01*
X158198102Y-78995226D01*
X158398061Y-79035000D01*
X158601939Y-79035000D01*
X158788373Y-78997916D01*
X158696063Y-79090226D01*
X158582795Y-79259744D01*
X158504774Y-79448102D01*
X158465000Y-79648061D01*
X158465000Y-79851939D01*
X158504774Y-80051898D01*
X158582795Y-80240256D01*
X158696063Y-80409774D01*
X158840226Y-80553937D01*
X159009744Y-80667205D01*
X159198102Y-80745226D01*
X159398061Y-80785000D01*
X159601939Y-80785000D01*
X159801898Y-80745226D01*
X159990256Y-80667205D01*
X160159774Y-80553937D01*
X160303937Y-80409774D01*
X160417205Y-80240256D01*
X160495226Y-80051898D01*
X160535000Y-79851939D01*
X160535000Y-79648061D01*
X160495226Y-79448102D01*
X160417205Y-79259744D01*
X160303937Y-79090226D01*
X160159774Y-78946063D01*
X159990256Y-78832795D01*
X159801898Y-78754774D01*
X159601939Y-78715000D01*
X159398061Y-78715000D01*
X159211627Y-78752084D01*
X159303937Y-78659774D01*
X159345172Y-78598061D01*
X161265000Y-78598061D01*
X161265000Y-78801939D01*
X161304774Y-79001898D01*
X161382795Y-79190256D01*
X161406010Y-79225000D01*
X161382795Y-79259744D01*
X161304774Y-79448102D01*
X161265000Y-79648061D01*
X161265000Y-79851939D01*
X161304774Y-80051898D01*
X161382795Y-80240256D01*
X161496063Y-80409774D01*
X161640226Y-80553937D01*
X161809744Y-80667205D01*
X161998102Y-80745226D01*
X162198061Y-80785000D01*
X162401939Y-80785000D01*
X162601898Y-80745226D01*
X162790256Y-80667205D01*
X162959774Y-80553937D01*
X163103937Y-80409774D01*
X163217205Y-80240256D01*
X163295226Y-80051898D01*
X163335000Y-79851939D01*
X163335000Y-79648061D01*
X163295226Y-79448102D01*
X163217205Y-79259744D01*
X163193990Y-79225000D01*
X163217205Y-79190256D01*
X163295226Y-79001898D01*
X163335000Y-78801939D01*
X163335000Y-78798061D01*
X169965000Y-78798061D01*
X169965000Y-79001939D01*
X170004774Y-79201898D01*
X170082795Y-79390256D01*
X170196063Y-79559774D01*
X170340226Y-79703937D01*
X170509744Y-79817205D01*
X170698102Y-79895226D01*
X170898061Y-79935000D01*
X171101939Y-79935000D01*
X171301898Y-79895226D01*
X171490256Y-79817205D01*
X171659774Y-79703937D01*
X171803937Y-79559774D01*
X171917205Y-79390256D01*
X171995226Y-79201898D01*
X172035000Y-79001939D01*
X172035000Y-78798061D01*
X171995226Y-78598102D01*
X171917205Y-78409744D01*
X171803937Y-78240226D01*
X171659774Y-78096063D01*
X171490256Y-77982795D01*
X171301898Y-77904774D01*
X171101939Y-77865000D01*
X170898061Y-77865000D01*
X170698102Y-77904774D01*
X170509744Y-77982795D01*
X170340226Y-78096063D01*
X170196063Y-78240226D01*
X170082795Y-78409744D01*
X170004774Y-78598102D01*
X169965000Y-78798061D01*
X163335000Y-78798061D01*
X163335000Y-78598061D01*
X163295226Y-78398102D01*
X163217205Y-78209744D01*
X163103937Y-78040226D01*
X162959774Y-77896063D01*
X162790256Y-77782795D01*
X162601898Y-77704774D01*
X162401939Y-77665000D01*
X162198061Y-77665000D01*
X161998102Y-77704774D01*
X161809744Y-77782795D01*
X161640226Y-77896063D01*
X161496063Y-78040226D01*
X161382795Y-78209744D01*
X161304774Y-78398102D01*
X161265000Y-78598061D01*
X159345172Y-78598061D01*
X159417205Y-78490256D01*
X159495226Y-78301898D01*
X159535000Y-78101939D01*
X159535000Y-77898061D01*
X159495226Y-77698102D01*
X159417205Y-77509744D01*
X159303937Y-77340226D01*
X159159774Y-77196063D01*
X158990256Y-77082795D01*
X158801898Y-77004774D01*
X158601939Y-76965000D01*
X158398061Y-76965000D01*
X158198102Y-77004774D01*
X158009744Y-77082795D01*
X157840226Y-77196063D01*
X157696063Y-77340226D01*
X157582795Y-77509744D01*
X157504774Y-77698102D01*
X157465000Y-77898061D01*
X154203788Y-77898061D01*
X154167205Y-77809744D01*
X154053937Y-77640226D01*
X153909774Y-77496063D01*
X153803420Y-77425000D01*
X153909774Y-77353937D01*
X154053937Y-77209774D01*
X154167205Y-77040256D01*
X154245226Y-76851898D01*
X154285000Y-76651939D01*
X154285000Y-76448061D01*
X154245226Y-76248102D01*
X154167205Y-76059744D01*
X154059173Y-75898061D01*
X154965000Y-75898061D01*
X154965000Y-76101939D01*
X155004774Y-76301898D01*
X155082795Y-76490256D01*
X155196063Y-76659774D01*
X155340226Y-76803937D01*
X155509744Y-76917205D01*
X155698102Y-76995226D01*
X155898061Y-77035000D01*
X156101939Y-77035000D01*
X156301898Y-76995226D01*
X156490256Y-76917205D01*
X156659774Y-76803937D01*
X156803937Y-76659774D01*
X156917205Y-76490256D01*
X156995226Y-76301898D01*
X157035000Y-76101939D01*
X157035000Y-75898061D01*
X159965000Y-75898061D01*
X159965000Y-76101939D01*
X160004774Y-76301898D01*
X160082795Y-76490256D01*
X160196063Y-76659774D01*
X160340226Y-76803937D01*
X160509744Y-76917205D01*
X160698102Y-76995226D01*
X160898061Y-77035000D01*
X161101939Y-77035000D01*
X161301898Y-76995226D01*
X161490256Y-76917205D01*
X161659774Y-76803937D01*
X161803937Y-76659774D01*
X161845172Y-76598061D01*
X166815000Y-76598061D01*
X166815000Y-76801939D01*
X166854774Y-77001898D01*
X166932795Y-77190256D01*
X167046063Y-77359774D01*
X167190226Y-77503937D01*
X167359744Y-77617205D01*
X167548102Y-77695226D01*
X167748061Y-77735000D01*
X167951939Y-77735000D01*
X168151898Y-77695226D01*
X168340256Y-77617205D01*
X168509774Y-77503937D01*
X168653937Y-77359774D01*
X168767205Y-77190256D01*
X168815000Y-77074869D01*
X168815000Y-77082240D01*
X168847089Y-77243560D01*
X168910033Y-77395521D01*
X169001413Y-77532281D01*
X169117719Y-77648587D01*
X169254479Y-77739967D01*
X169406440Y-77802911D01*
X169567760Y-77835000D01*
X169732240Y-77835000D01*
X169893560Y-77802911D01*
X170045521Y-77739967D01*
X170182281Y-77648587D01*
X170298587Y-77532281D01*
X170389967Y-77395521D01*
X170452911Y-77243560D01*
X170485000Y-77082240D01*
X170485000Y-76917760D01*
X170452911Y-76756440D01*
X170389967Y-76604479D01*
X170298587Y-76467719D01*
X170182281Y-76351413D01*
X170045521Y-76260033D01*
X169893560Y-76197089D01*
X169732240Y-76165000D01*
X169567760Y-76165000D01*
X169406440Y-76197089D01*
X169254479Y-76260033D01*
X169117719Y-76351413D01*
X169001413Y-76467719D01*
X168910033Y-76604479D01*
X168885000Y-76664914D01*
X168885000Y-76598061D01*
X168845226Y-76398102D01*
X168767205Y-76209744D01*
X168653937Y-76040226D01*
X168509774Y-75896063D01*
X168340256Y-75782795D01*
X168151898Y-75704774D01*
X167951939Y-75665000D01*
X167748061Y-75665000D01*
X167548102Y-75704774D01*
X167359744Y-75782795D01*
X167190226Y-75896063D01*
X167046063Y-76040226D01*
X166932795Y-76209744D01*
X166854774Y-76398102D01*
X166815000Y-76598061D01*
X161845172Y-76598061D01*
X161917205Y-76490256D01*
X161995226Y-76301898D01*
X162035000Y-76101939D01*
X162035000Y-75898061D01*
X161995226Y-75698102D01*
X161917205Y-75509744D01*
X161803937Y-75340226D01*
X161659774Y-75196063D01*
X161490256Y-75082795D01*
X161301898Y-75004774D01*
X161101939Y-74965000D01*
X160898061Y-74965000D01*
X160698102Y-75004774D01*
X160509744Y-75082795D01*
X160340226Y-75196063D01*
X160196063Y-75340226D01*
X160082795Y-75509744D01*
X160004774Y-75698102D01*
X159965000Y-75898061D01*
X157035000Y-75898061D01*
X156995226Y-75698102D01*
X156917205Y-75509744D01*
X156803937Y-75340226D01*
X156659774Y-75196063D01*
X156490256Y-75082795D01*
X156301898Y-75004774D01*
X156101939Y-74965000D01*
X155898061Y-74965000D01*
X155698102Y-75004774D01*
X155509744Y-75082795D01*
X155340226Y-75196063D01*
X155196063Y-75340226D01*
X155082795Y-75509744D01*
X155004774Y-75698102D01*
X154965000Y-75898061D01*
X154059173Y-75898061D01*
X154053937Y-75890226D01*
X153909774Y-75746063D01*
X153740256Y-75632795D01*
X153551898Y-75554774D01*
X153351939Y-75515000D01*
X153148061Y-75515000D01*
X152948102Y-75554774D01*
X152759744Y-75632795D01*
X152590226Y-75746063D01*
X152446063Y-75890226D01*
X152332795Y-76059744D01*
X152254774Y-76248102D01*
X152215000Y-76448061D01*
X151735000Y-76448061D01*
X151695226Y-76248102D01*
X151617205Y-76059744D01*
X151503937Y-75890226D01*
X151359774Y-75746063D01*
X151228420Y-75658296D01*
X151309774Y-75603937D01*
X151453937Y-75459774D01*
X151567205Y-75290256D01*
X151645226Y-75101898D01*
X151685000Y-74901939D01*
X151685000Y-74698061D01*
X151645226Y-74498102D01*
X151567205Y-74309744D01*
X151453937Y-74140226D01*
X151309774Y-73996063D01*
X151140256Y-73882795D01*
X150951898Y-73804774D01*
X150751939Y-73765000D01*
X150735000Y-73765000D01*
X150735000Y-73748061D01*
X150695226Y-73548102D01*
X150617205Y-73359744D01*
X150503937Y-73190226D01*
X150359774Y-73046063D01*
X150190256Y-72932795D01*
X150001898Y-72854774D01*
X149801939Y-72815000D01*
X149668387Y-72815000D01*
X149759774Y-72753937D01*
X149903937Y-72609774D01*
X150017205Y-72440256D01*
X150095226Y-72251898D01*
X150135000Y-72051939D01*
X150135000Y-71848061D01*
X150095226Y-71648102D01*
X150017205Y-71459744D01*
X149903937Y-71290226D01*
X149759774Y-71146063D01*
X149590256Y-71032795D01*
X149401898Y-70954774D01*
X149201939Y-70915000D01*
X149035000Y-70915000D01*
X149035000Y-70898061D01*
X148995226Y-70698102D01*
X148989799Y-70685000D01*
X155010201Y-70685000D01*
X155004774Y-70698102D01*
X154980396Y-70820660D01*
X154951939Y-70815000D01*
X154748061Y-70815000D01*
X154548102Y-70854774D01*
X154359744Y-70932795D01*
X154190226Y-71046063D01*
X154046063Y-71190226D01*
X153932795Y-71359744D01*
X153854774Y-71548102D01*
X153815000Y-71748061D01*
X153815000Y-71951939D01*
X153854774Y-72151898D01*
X153932795Y-72340256D01*
X154046063Y-72509774D01*
X154190226Y-72653937D01*
X154359744Y-72767205D01*
X154542749Y-72843009D01*
X154401939Y-72815000D01*
X154198061Y-72815000D01*
X153998102Y-72854774D01*
X153809744Y-72932795D01*
X153640226Y-73046063D01*
X153496063Y-73190226D01*
X153382795Y-73359744D01*
X153304774Y-73548102D01*
X153265000Y-73748061D01*
X153265000Y-73951939D01*
X153304774Y-74151898D01*
X153382795Y-74340256D01*
X153496063Y-74509774D01*
X153640226Y-74653937D01*
X153809744Y-74767205D01*
X153998102Y-74845226D01*
X154198061Y-74885000D01*
X154401939Y-74885000D01*
X154601898Y-74845226D01*
X154790256Y-74767205D01*
X154959774Y-74653937D01*
X155103937Y-74509774D01*
X155217205Y-74340256D01*
X155295226Y-74151898D01*
X155335000Y-73951939D01*
X155335000Y-73748061D01*
X155295226Y-73548102D01*
X155233077Y-73398061D01*
X157465000Y-73398061D01*
X157465000Y-73601939D01*
X157504774Y-73801898D01*
X157582795Y-73990256D01*
X157696063Y-74159774D01*
X157840226Y-74303937D01*
X158009744Y-74417205D01*
X158198102Y-74495226D01*
X158398061Y-74535000D01*
X158601939Y-74535000D01*
X158801898Y-74495226D01*
X158990256Y-74417205D01*
X159159774Y-74303937D01*
X159303937Y-74159774D01*
X159417205Y-73990256D01*
X159495226Y-73801898D01*
X159535000Y-73601939D01*
X159535000Y-73398061D01*
X159495226Y-73198102D01*
X159417205Y-73009744D01*
X159303937Y-72840226D01*
X159159774Y-72696063D01*
X158990256Y-72582795D01*
X158801898Y-72504774D01*
X158601939Y-72465000D01*
X158398061Y-72465000D01*
X158198102Y-72504774D01*
X158009744Y-72582795D01*
X157840226Y-72696063D01*
X157696063Y-72840226D01*
X157582795Y-73009744D01*
X157504774Y-73198102D01*
X157465000Y-73398061D01*
X155233077Y-73398061D01*
X155217205Y-73359744D01*
X155103937Y-73190226D01*
X154959774Y-73046063D01*
X154790256Y-72932795D01*
X154607251Y-72856991D01*
X154748061Y-72885000D01*
X154951939Y-72885000D01*
X155151898Y-72845226D01*
X155340256Y-72767205D01*
X155509774Y-72653937D01*
X155653937Y-72509774D01*
X155767205Y-72340256D01*
X155845226Y-72151898D01*
X155869604Y-72029340D01*
X155898061Y-72035000D01*
X156101939Y-72035000D01*
X156301898Y-71995226D01*
X156490256Y-71917205D01*
X156659774Y-71803937D01*
X156803937Y-71659774D01*
X156917205Y-71490256D01*
X156995226Y-71301898D01*
X157035000Y-71101939D01*
X157035000Y-70898061D01*
X156995226Y-70698102D01*
X156989799Y-70685000D01*
X160010201Y-70685000D01*
X160004774Y-70698102D01*
X159965000Y-70898061D01*
X159965000Y-71101939D01*
X160004774Y-71301898D01*
X160082795Y-71490256D01*
X160196063Y-71659774D01*
X160340226Y-71803937D01*
X160509744Y-71917205D01*
X160698102Y-71995226D01*
X160898061Y-72035000D01*
X161101939Y-72035000D01*
X161301898Y-71995226D01*
X161490256Y-71917205D01*
X161659774Y-71803937D01*
X161803937Y-71659774D01*
X161917205Y-71490256D01*
X161995226Y-71301898D01*
X162035000Y-71101939D01*
X162035000Y-70898061D01*
X161995226Y-70698102D01*
X161989799Y-70685000D01*
X165010201Y-70685000D01*
X165004774Y-70698102D01*
X164965000Y-70898061D01*
X164965000Y-71101939D01*
X165004774Y-71301898D01*
X165082795Y-71490256D01*
X165196063Y-71659774D01*
X165340226Y-71803937D01*
X165509744Y-71917205D01*
X165698102Y-71995226D01*
X165898061Y-72035000D01*
X166101939Y-72035000D01*
X166301898Y-71995226D01*
X166490256Y-71917205D01*
X166659774Y-71803937D01*
X166803937Y-71659774D01*
X166917205Y-71490256D01*
X166995226Y-71301898D01*
X167035000Y-71101939D01*
X167035000Y-70898061D01*
X166995226Y-70698102D01*
X166989799Y-70685000D01*
X169966496Y-70685000D01*
X170008495Y-70689118D01*
X170004774Y-70698102D01*
X169965000Y-70898061D01*
X169965000Y-71101939D01*
X170004774Y-71301898D01*
X170082795Y-71490256D01*
X170196063Y-71659774D01*
X170340226Y-71803937D01*
X170509744Y-71917205D01*
X170698102Y-71995226D01*
X170898061Y-72035000D01*
X171101939Y-72035000D01*
X171301898Y-71995226D01*
X171490256Y-71917205D01*
X171659774Y-71803937D01*
X171803937Y-71659774D01*
X171917205Y-71490256D01*
X171972848Y-71355924D01*
X172333548Y-71650104D01*
X172645114Y-72026723D01*
X172509744Y-72082795D01*
X172340226Y-72196063D01*
X172196063Y-72340226D01*
X172082795Y-72509744D01*
X172004774Y-72698102D01*
X171965000Y-72898061D01*
X171965000Y-73101939D01*
X172004774Y-73301898D01*
X172082795Y-73490256D01*
X172196063Y-73659774D01*
X172340226Y-73803937D01*
X172509744Y-73917205D01*
X172698102Y-73995226D01*
X172898061Y-74035000D01*
X173101939Y-74035000D01*
X173301898Y-73995226D01*
X173313077Y-73990596D01*
X173315000Y-74008894D01*
X173315000Y-75572651D01*
X173298284Y-75541377D01*
X173156449Y-75368551D01*
X172983623Y-75226716D01*
X172786447Y-75121324D01*
X172572499Y-75056423D01*
X172405752Y-75040000D01*
X171594248Y-75040000D01*
X171427501Y-75056423D01*
X171213553Y-75121324D01*
X171016377Y-75226716D01*
X170843551Y-75368551D01*
X170701716Y-75541377D01*
X170596324Y-75738553D01*
X170531423Y-75952501D01*
X170509509Y-76175000D01*
X170531423Y-76397499D01*
X170596324Y-76611447D01*
X170701716Y-76808623D01*
X170843551Y-76981449D01*
X171016377Y-77123284D01*
X171213553Y-77228676D01*
X171427501Y-77293577D01*
X171594248Y-77310000D01*
X172405752Y-77310000D01*
X172572499Y-77293577D01*
X172786447Y-77228676D01*
X172983623Y-77123284D01*
X173156449Y-76981449D01*
X173298284Y-76808623D01*
X173315000Y-76777349D01*
X173315000Y-81222651D01*
X173298284Y-81191377D01*
X173156449Y-81018551D01*
X172983623Y-80876716D01*
X172786447Y-80771324D01*
X172572499Y-80706423D01*
X172405752Y-80690000D01*
X171594248Y-80690000D01*
X171427501Y-80706423D01*
X171213553Y-80771324D01*
X171016377Y-80876716D01*
X170843551Y-81018551D01*
X170701716Y-81191377D01*
X170596324Y-81388553D01*
X170531423Y-81602501D01*
X170509509Y-81825000D01*
X170531423Y-82047499D01*
X170596324Y-82261447D01*
X170701716Y-82458623D01*
X170843551Y-82631449D01*
X171016377Y-82773284D01*
X171213553Y-82878676D01*
X171427501Y-82943577D01*
X171594248Y-82960000D01*
X172405752Y-82960000D01*
X172572499Y-82943577D01*
X172786447Y-82878676D01*
X172983623Y-82773284D01*
X173156449Y-82631449D01*
X173298284Y-82458623D01*
X173315000Y-82427349D01*
X173315001Y-106010201D01*
X173301898Y-106004774D01*
X173101939Y-105965000D01*
X172898061Y-105965000D01*
X172698102Y-106004774D01*
X172509744Y-106082795D01*
X172340226Y-106196063D01*
X172196063Y-106340226D01*
X172082795Y-106509744D01*
X172004774Y-106698102D01*
X171965000Y-106898061D01*
X171965000Y-107101939D01*
X172004774Y-107301898D01*
X172082795Y-107490256D01*
X172196063Y-107659774D01*
X172340226Y-107803937D01*
X172509744Y-107917205D01*
X172698102Y-107995226D01*
X172898061Y-108035000D01*
X173101939Y-108035000D01*
X173301898Y-107995226D01*
X173315001Y-107989799D01*
X173315001Y-112966486D01*
X173248644Y-113643248D01*
X173061833Y-114261996D01*
X172758398Y-114832675D01*
X172349896Y-115333548D01*
X171973277Y-115645114D01*
X171917205Y-115509744D01*
X171803937Y-115340226D01*
X171659774Y-115196063D01*
X171490256Y-115082795D01*
X171301898Y-115004774D01*
X171101939Y-114965000D01*
X170898061Y-114965000D01*
X170698102Y-115004774D01*
X170509744Y-115082795D01*
X170340226Y-115196063D01*
X170196063Y-115340226D01*
X170082795Y-115509744D01*
X170004774Y-115698102D01*
X169965000Y-115898061D01*
X169965000Y-116101939D01*
X170004774Y-116301898D01*
X170009404Y-116313077D01*
X169991107Y-116315000D01*
X166989799Y-116315000D01*
X166995226Y-116301898D01*
X167035000Y-116101939D01*
X167035000Y-115898061D01*
X166995226Y-115698102D01*
X166917205Y-115509744D01*
X166803937Y-115340226D01*
X166659774Y-115196063D01*
X166490256Y-115082795D01*
X166301898Y-115004774D01*
X166101939Y-114965000D01*
X165898061Y-114965000D01*
X165698102Y-115004774D01*
X165509744Y-115082795D01*
X165340226Y-115196063D01*
X165196063Y-115340226D01*
X165082795Y-115509744D01*
X165004774Y-115698102D01*
X164965000Y-115898061D01*
X164965000Y-116101939D01*
X165004774Y-116301898D01*
X165010201Y-116315000D01*
X161989799Y-116315000D01*
X161995226Y-116301898D01*
X162035000Y-116101939D01*
X162035000Y-115898061D01*
X161995226Y-115698102D01*
X161917205Y-115509744D01*
X161803937Y-115340226D01*
X161659774Y-115196063D01*
X161490256Y-115082795D01*
X161301898Y-115004774D01*
X161101939Y-114965000D01*
X160898061Y-114965000D01*
X160698102Y-115004774D01*
X160509744Y-115082795D01*
X160340226Y-115196063D01*
X160196063Y-115340226D01*
X160082795Y-115509744D01*
X160004774Y-115698102D01*
X159965000Y-115898061D01*
X159965000Y-116101939D01*
X160004774Y-116301898D01*
X160010201Y-116315000D01*
X156989799Y-116315000D01*
X156995226Y-116301898D01*
X157035000Y-116101939D01*
X157035000Y-115898061D01*
X156995226Y-115698102D01*
X156917205Y-115509744D01*
X156803937Y-115340226D01*
X156659774Y-115196063D01*
X156490256Y-115082795D01*
X156301898Y-115004774D01*
X156101939Y-114965000D01*
X155898061Y-114965000D01*
X155698102Y-115004774D01*
X155509744Y-115082795D01*
X155340226Y-115196063D01*
X155196063Y-115340226D01*
X155082795Y-115509744D01*
X155004774Y-115698102D01*
X154965000Y-115898061D01*
X154965000Y-116101939D01*
X155004774Y-116301898D01*
X155010201Y-116315000D01*
X151989799Y-116315000D01*
X151995226Y-116301898D01*
X152035000Y-116101939D01*
X152035000Y-115898061D01*
X151995226Y-115698102D01*
X151917205Y-115509744D01*
X151803937Y-115340226D01*
X151659774Y-115196063D01*
X151490256Y-115082795D01*
X151301898Y-115004774D01*
X151101939Y-114965000D01*
X150898061Y-114965000D01*
X150698102Y-115004774D01*
X150509744Y-115082795D01*
X150340226Y-115196063D01*
X150196063Y-115340226D01*
X150082795Y-115509744D01*
X150004774Y-115698102D01*
X149965000Y-115898061D01*
X149965000Y-116101939D01*
X150004774Y-116301898D01*
X150010201Y-116315000D01*
X146989799Y-116315000D01*
X146995226Y-116301898D01*
X147035000Y-116101939D01*
X147035000Y-115898061D01*
X146995226Y-115698102D01*
X146917205Y-115509744D01*
X146803937Y-115340226D01*
X146659774Y-115196063D01*
X146490256Y-115082795D01*
X146301898Y-115004774D01*
X146101939Y-114965000D01*
X145898061Y-114965000D01*
X145698102Y-115004774D01*
X145509744Y-115082795D01*
X145340226Y-115196063D01*
X145196063Y-115340226D01*
X145082795Y-115509744D01*
X145004774Y-115698102D01*
X144965000Y-115898061D01*
X144965000Y-116101939D01*
X145004774Y-116301898D01*
X145010201Y-116315000D01*
X141989799Y-116315000D01*
X141995226Y-116301898D01*
X142035000Y-116101939D01*
X142035000Y-115898061D01*
X141995226Y-115698102D01*
X141917205Y-115509744D01*
X141803937Y-115340226D01*
X141659774Y-115196063D01*
X141490256Y-115082795D01*
X141301898Y-115004774D01*
X141101939Y-114965000D01*
X140898061Y-114965000D01*
X140698102Y-115004774D01*
X140509744Y-115082795D01*
X140340226Y-115196063D01*
X140196063Y-115340226D01*
X140082795Y-115509744D01*
X140004774Y-115698102D01*
X139965000Y-115898061D01*
X139965000Y-116101939D01*
X140004774Y-116301898D01*
X140010201Y-116315000D01*
X139533504Y-116315000D01*
X138856752Y-116248644D01*
X138238004Y-116061833D01*
X137667325Y-115758398D01*
X137166452Y-115349896D01*
X136754464Y-114851888D01*
X136447052Y-114283342D01*
X136255925Y-113665909D01*
X136185000Y-112991107D01*
X136185000Y-112304495D01*
X136515000Y-112304495D01*
X136515000Y-112695505D01*
X136591282Y-113079003D01*
X136740915Y-113440250D01*
X136958149Y-113765364D01*
X137234636Y-114041851D01*
X137559750Y-114259085D01*
X137920997Y-114408718D01*
X138304495Y-114485000D01*
X138695505Y-114485000D01*
X139079003Y-114408718D01*
X139440250Y-114259085D01*
X139765364Y-114041851D01*
X140041851Y-113765364D01*
X140259085Y-113440250D01*
X140322776Y-113286487D01*
X140340226Y-113303937D01*
X140509744Y-113417205D01*
X140698102Y-113495226D01*
X140898061Y-113535000D01*
X141101939Y-113535000D01*
X141301898Y-113495226D01*
X141490256Y-113417205D01*
X141659774Y-113303937D01*
X141803937Y-113159774D01*
X141917205Y-112990256D01*
X141957435Y-112893133D01*
X142011401Y-113071034D01*
X142149294Y-113329014D01*
X142334866Y-113555134D01*
X142560986Y-113740706D01*
X142818966Y-113878599D01*
X143098889Y-113963513D01*
X143317050Y-113985000D01*
X143462950Y-113985000D01*
X143681111Y-113963513D01*
X143961034Y-113878599D01*
X144219014Y-113740706D01*
X144445134Y-113555134D01*
X144630706Y-113329014D01*
X144660000Y-113274209D01*
X144689294Y-113329014D01*
X144874866Y-113555134D01*
X145100986Y-113740706D01*
X145358966Y-113878599D01*
X145638889Y-113963513D01*
X145857050Y-113985000D01*
X146002950Y-113985000D01*
X146221111Y-113963513D01*
X146501034Y-113878599D01*
X146759014Y-113740706D01*
X146985134Y-113555134D01*
X147170706Y-113329014D01*
X147200000Y-113274209D01*
X147229294Y-113329014D01*
X147414866Y-113555134D01*
X147640986Y-113740706D01*
X147898966Y-113878599D01*
X148178889Y-113963513D01*
X148397050Y-113985000D01*
X148542950Y-113985000D01*
X148761111Y-113963513D01*
X149041034Y-113878599D01*
X149299014Y-113740706D01*
X149525134Y-113555134D01*
X149710706Y-113329014D01*
X149740000Y-113274209D01*
X149769294Y-113329014D01*
X149954866Y-113555134D01*
X150180986Y-113740706D01*
X150438966Y-113878599D01*
X150718889Y-113963513D01*
X150937050Y-113985000D01*
X151082950Y-113985000D01*
X151301111Y-113963513D01*
X151581034Y-113878599D01*
X151839014Y-113740706D01*
X152065134Y-113555134D01*
X152250706Y-113329014D01*
X152280000Y-113274209D01*
X152309294Y-113329014D01*
X152494866Y-113555134D01*
X152720986Y-113740706D01*
X152978966Y-113878599D01*
X153258889Y-113963513D01*
X153477050Y-113985000D01*
X153622950Y-113985000D01*
X153841111Y-113963513D01*
X154121034Y-113878599D01*
X154379014Y-113740706D01*
X154605134Y-113555134D01*
X154790706Y-113329014D01*
X154820000Y-113274209D01*
X154849294Y-113329014D01*
X155034866Y-113555134D01*
X155260986Y-113740706D01*
X155518966Y-113878599D01*
X155798889Y-113963513D01*
X156017050Y-113985000D01*
X156162950Y-113985000D01*
X156381111Y-113963513D01*
X156661034Y-113878599D01*
X156919014Y-113740706D01*
X157145134Y-113555134D01*
X157330706Y-113329014D01*
X157360000Y-113274209D01*
X157389294Y-113329014D01*
X157574866Y-113555134D01*
X157800986Y-113740706D01*
X158058966Y-113878599D01*
X158338889Y-113963513D01*
X158557050Y-113985000D01*
X158702950Y-113985000D01*
X158921111Y-113963513D01*
X159201034Y-113878599D01*
X159459014Y-113740706D01*
X159685134Y-113555134D01*
X159870706Y-113329014D01*
X159900000Y-113274209D01*
X159929294Y-113329014D01*
X160114866Y-113555134D01*
X160340986Y-113740706D01*
X160598966Y-113878599D01*
X160878889Y-113963513D01*
X161097050Y-113985000D01*
X161242950Y-113985000D01*
X161461111Y-113963513D01*
X161741034Y-113878599D01*
X161999014Y-113740706D01*
X162225134Y-113555134D01*
X162410706Y-113329014D01*
X162440000Y-113274209D01*
X162469294Y-113329014D01*
X162654866Y-113555134D01*
X162880986Y-113740706D01*
X163138966Y-113878599D01*
X163418889Y-113963513D01*
X163637050Y-113985000D01*
X163782950Y-113985000D01*
X164001111Y-113963513D01*
X164281034Y-113878599D01*
X164539014Y-113740706D01*
X164765134Y-113555134D01*
X164789607Y-113525313D01*
X164810498Y-113594180D01*
X164869463Y-113704494D01*
X164948815Y-113801185D01*
X165045506Y-113880537D01*
X165155820Y-113939502D01*
X165275518Y-113975812D01*
X165400000Y-113988072D01*
X165964250Y-113985000D01*
X166123000Y-113826250D01*
X166123000Y-112627000D01*
X166103000Y-112627000D01*
X166103000Y-112373000D01*
X166123000Y-112373000D01*
X166123000Y-111173750D01*
X166377000Y-111173750D01*
X166377000Y-112373000D01*
X166397000Y-112373000D01*
X166397000Y-112627000D01*
X166377000Y-112627000D01*
X166377000Y-113826250D01*
X166535750Y-113985000D01*
X167100000Y-113988072D01*
X167224482Y-113975812D01*
X167344180Y-113939502D01*
X167454494Y-113880537D01*
X167551185Y-113801185D01*
X167630537Y-113704494D01*
X167689502Y-113594180D01*
X167725812Y-113474482D01*
X167738072Y-113350000D01*
X167737261Y-113200972D01*
X167840226Y-113303937D01*
X168009744Y-113417205D01*
X168198102Y-113495226D01*
X168398061Y-113535000D01*
X168601939Y-113535000D01*
X168801898Y-113495226D01*
X168990256Y-113417205D01*
X169159774Y-113303937D01*
X169177224Y-113286487D01*
X169240915Y-113440250D01*
X169458149Y-113765364D01*
X169734636Y-114041851D01*
X170059750Y-114259085D01*
X170420997Y-114408718D01*
X170804495Y-114485000D01*
X171195505Y-114485000D01*
X171579003Y-114408718D01*
X171940250Y-114259085D01*
X172265364Y-114041851D01*
X172541851Y-113765364D01*
X172759085Y-113440250D01*
X172908718Y-113079003D01*
X172985000Y-112695505D01*
X172985000Y-112304495D01*
X172908718Y-111920997D01*
X172759085Y-111559750D01*
X172541851Y-111234636D01*
X172265364Y-110958149D01*
X171940250Y-110740915D01*
X171579003Y-110591282D01*
X171195505Y-110515000D01*
X170804495Y-110515000D01*
X170420997Y-110591282D01*
X170059750Y-110740915D01*
X169734636Y-110958149D01*
X169458149Y-111234636D01*
X169240915Y-111559750D01*
X169177224Y-111713513D01*
X169159774Y-111696063D01*
X168990256Y-111582795D01*
X168801898Y-111504774D01*
X168601939Y-111465000D01*
X168398061Y-111465000D01*
X168198102Y-111504774D01*
X168009744Y-111582795D01*
X167840226Y-111696063D01*
X167737261Y-111799028D01*
X167738072Y-111650000D01*
X167725812Y-111525518D01*
X167689502Y-111405820D01*
X167630537Y-111295506D01*
X167551185Y-111198815D01*
X167454494Y-111119463D01*
X167344180Y-111060498D01*
X167224482Y-111024188D01*
X167100000Y-111011928D01*
X166535750Y-111015000D01*
X166377000Y-111173750D01*
X166123000Y-111173750D01*
X165964250Y-111015000D01*
X165400000Y-111011928D01*
X165275518Y-111024188D01*
X165155820Y-111060498D01*
X165045506Y-111119463D01*
X164948815Y-111198815D01*
X164869463Y-111295506D01*
X164810498Y-111405820D01*
X164789607Y-111474687D01*
X164765134Y-111444866D01*
X164539014Y-111259294D01*
X164281034Y-111121401D01*
X164001111Y-111036487D01*
X163782950Y-111015000D01*
X163637050Y-111015000D01*
X163418889Y-111036487D01*
X163138966Y-111121401D01*
X162880986Y-111259294D01*
X162654866Y-111444866D01*
X162469294Y-111670986D01*
X162440000Y-111725791D01*
X162410706Y-111670986D01*
X162225134Y-111444866D01*
X161999014Y-111259294D01*
X161741034Y-111121401D01*
X161461111Y-111036487D01*
X161242950Y-111015000D01*
X161097050Y-111015000D01*
X160878889Y-111036487D01*
X160598966Y-111121401D01*
X160340986Y-111259294D01*
X160114866Y-111444866D01*
X159929294Y-111670986D01*
X159900000Y-111725791D01*
X159870706Y-111670986D01*
X159685134Y-111444866D01*
X159459014Y-111259294D01*
X159201034Y-111121401D01*
X158921111Y-111036487D01*
X158702950Y-111015000D01*
X158557050Y-111015000D01*
X158338889Y-111036487D01*
X158058966Y-111121401D01*
X157800986Y-111259294D01*
X157574866Y-111444866D01*
X157389294Y-111670986D01*
X157360000Y-111725791D01*
X157330706Y-111670986D01*
X157145134Y-111444866D01*
X156919014Y-111259294D01*
X156661034Y-111121401D01*
X156381111Y-111036487D01*
X156162950Y-111015000D01*
X156017050Y-111015000D01*
X155798889Y-111036487D01*
X155518966Y-111121401D01*
X155260986Y-111259294D01*
X155034866Y-111444866D01*
X154849294Y-111670986D01*
X154820000Y-111725791D01*
X154790706Y-111670986D01*
X154605134Y-111444866D01*
X154379014Y-111259294D01*
X154121034Y-111121401D01*
X153841111Y-111036487D01*
X153622950Y-111015000D01*
X153477050Y-111015000D01*
X153258889Y-111036487D01*
X152978966Y-111121401D01*
X152720986Y-111259294D01*
X152494866Y-111444866D01*
X152309294Y-111670986D01*
X152280000Y-111725791D01*
X152250706Y-111670986D01*
X152065134Y-111444866D01*
X151839014Y-111259294D01*
X151581034Y-111121401D01*
X151301111Y-111036487D01*
X151082950Y-111015000D01*
X150937050Y-111015000D01*
X150718889Y-111036487D01*
X150438966Y-111121401D01*
X150180986Y-111259294D01*
X149954866Y-111444866D01*
X149769294Y-111670986D01*
X149740000Y-111725791D01*
X149710706Y-111670986D01*
X149525134Y-111444866D01*
X149299014Y-111259294D01*
X149041034Y-111121401D01*
X148982384Y-111103610D01*
X149045226Y-110951898D01*
X149085000Y-110751939D01*
X149085000Y-110548061D01*
X149045226Y-110348102D01*
X148974920Y-110178370D01*
X149067205Y-110040256D01*
X149145226Y-109851898D01*
X149185000Y-109651939D01*
X149185000Y-109448061D01*
X149145226Y-109248102D01*
X149067205Y-109059744D01*
X148953937Y-108890226D01*
X148809774Y-108746063D01*
X148640256Y-108632795D01*
X148451898Y-108554774D01*
X148355307Y-108535561D01*
X157302500Y-108535561D01*
X157302500Y-108739439D01*
X157342274Y-108939398D01*
X157420295Y-109127756D01*
X157533563Y-109297274D01*
X157677726Y-109441437D01*
X157847244Y-109554705D01*
X158035602Y-109632726D01*
X158235561Y-109672500D01*
X158439439Y-109672500D01*
X158639398Y-109632726D01*
X158827756Y-109554705D01*
X158997274Y-109441437D01*
X159141437Y-109297274D01*
X159254705Y-109127756D01*
X159332726Y-108939398D01*
X159340948Y-108898061D01*
X167465000Y-108898061D01*
X167465000Y-109101939D01*
X167504774Y-109301898D01*
X167582795Y-109490256D01*
X167696063Y-109659774D01*
X167840226Y-109803937D01*
X168009744Y-109917205D01*
X168198102Y-109995226D01*
X168398061Y-110035000D01*
X168601939Y-110035000D01*
X168801898Y-109995226D01*
X168990256Y-109917205D01*
X169159774Y-109803937D01*
X169303937Y-109659774D01*
X169417205Y-109490256D01*
X169495226Y-109301898D01*
X169535000Y-109101939D01*
X169535000Y-108898061D01*
X169965000Y-108898061D01*
X169965000Y-109101939D01*
X170004774Y-109301898D01*
X170082795Y-109490256D01*
X170196063Y-109659774D01*
X170340226Y-109803937D01*
X170509744Y-109917205D01*
X170698102Y-109995226D01*
X170898061Y-110035000D01*
X171101939Y-110035000D01*
X171301898Y-109995226D01*
X171490256Y-109917205D01*
X171659774Y-109803937D01*
X171803937Y-109659774D01*
X171917205Y-109490256D01*
X171995226Y-109301898D01*
X172035000Y-109101939D01*
X172035000Y-108898061D01*
X171995226Y-108698102D01*
X171917205Y-108509744D01*
X171803937Y-108340226D01*
X171659774Y-108196063D01*
X171490256Y-108082795D01*
X171301898Y-108004774D01*
X171101939Y-107965000D01*
X170898061Y-107965000D01*
X170698102Y-108004774D01*
X170509744Y-108082795D01*
X170340226Y-108196063D01*
X170196063Y-108340226D01*
X170082795Y-108509744D01*
X170004774Y-108698102D01*
X169965000Y-108898061D01*
X169535000Y-108898061D01*
X169495226Y-108698102D01*
X169417205Y-108509744D01*
X169303937Y-108340226D01*
X169159774Y-108196063D01*
X168990256Y-108082795D01*
X168801898Y-108004774D01*
X168601939Y-107965000D01*
X168398061Y-107965000D01*
X168198102Y-108004774D01*
X168009744Y-108082795D01*
X167840226Y-108196063D01*
X167696063Y-108340226D01*
X167582795Y-108509744D01*
X167504774Y-108698102D01*
X167465000Y-108898061D01*
X159340948Y-108898061D01*
X159372500Y-108739439D01*
X159372500Y-108535561D01*
X159332726Y-108335602D01*
X159254705Y-108147244D01*
X159141437Y-107977726D01*
X158997274Y-107833563D01*
X158827756Y-107720295D01*
X158639398Y-107642274D01*
X158439439Y-107602500D01*
X158235561Y-107602500D01*
X158035602Y-107642274D01*
X157847244Y-107720295D01*
X157677726Y-107833563D01*
X157533563Y-107977726D01*
X157420295Y-108147244D01*
X157342274Y-108335602D01*
X157302500Y-108535561D01*
X148355307Y-108535561D01*
X148251939Y-108515000D01*
X148048061Y-108515000D01*
X147848102Y-108554774D01*
X147659744Y-108632795D01*
X147490226Y-108746063D01*
X147346063Y-108890226D01*
X147232795Y-109059744D01*
X147154774Y-109248102D01*
X147115000Y-109448061D01*
X147115000Y-109651939D01*
X147154774Y-109851898D01*
X147225080Y-110021630D01*
X147132795Y-110159744D01*
X147054774Y-110348102D01*
X147015000Y-110548061D01*
X147015000Y-110751939D01*
X147054774Y-110951898D01*
X147132795Y-111140256D01*
X147246063Y-111309774D01*
X147390226Y-111453937D01*
X147401332Y-111461358D01*
X147229294Y-111670986D01*
X147200000Y-111725791D01*
X147170706Y-111670986D01*
X146985134Y-111444866D01*
X146759014Y-111259294D01*
X146501034Y-111121401D01*
X146221111Y-111036487D01*
X146002950Y-111015000D01*
X145857050Y-111015000D01*
X145638889Y-111036487D01*
X145358966Y-111121401D01*
X145100986Y-111259294D01*
X144874866Y-111444866D01*
X144689294Y-111670986D01*
X144660000Y-111725791D01*
X144630706Y-111670986D01*
X144445134Y-111444866D01*
X144219014Y-111259294D01*
X143961034Y-111121401D01*
X143681111Y-111036487D01*
X143462950Y-111015000D01*
X143317050Y-111015000D01*
X143098889Y-111036487D01*
X142818966Y-111121401D01*
X142560986Y-111259294D01*
X142334866Y-111444866D01*
X142149294Y-111670986D01*
X142011401Y-111928966D01*
X141957435Y-112106867D01*
X141917205Y-112009744D01*
X141803937Y-111840226D01*
X141659774Y-111696063D01*
X141490256Y-111582795D01*
X141301898Y-111504774D01*
X141101939Y-111465000D01*
X140898061Y-111465000D01*
X140698102Y-111504774D01*
X140509744Y-111582795D01*
X140340226Y-111696063D01*
X140322776Y-111713513D01*
X140259085Y-111559750D01*
X140041851Y-111234636D01*
X139765364Y-110958149D01*
X139440250Y-110740915D01*
X139079003Y-110591282D01*
X138695505Y-110515000D01*
X138304495Y-110515000D01*
X137920997Y-110591282D01*
X137559750Y-110740915D01*
X137234636Y-110958149D01*
X136958149Y-111234636D01*
X136740915Y-111559750D01*
X136591282Y-111920997D01*
X136515000Y-112304495D01*
X136185000Y-112304495D01*
X136185000Y-108698061D01*
X143065000Y-108698061D01*
X143065000Y-108901939D01*
X143104774Y-109101898D01*
X143182795Y-109290256D01*
X143296063Y-109459774D01*
X143440226Y-109603937D01*
X143609744Y-109717205D01*
X143798102Y-109795226D01*
X143998061Y-109835000D01*
X144201939Y-109835000D01*
X144401898Y-109795226D01*
X144590256Y-109717205D01*
X144759774Y-109603937D01*
X144903937Y-109459774D01*
X145017205Y-109290256D01*
X145095226Y-109101898D01*
X145135000Y-108901939D01*
X145135000Y-108698061D01*
X145095226Y-108498102D01*
X145017205Y-108309744D01*
X144903937Y-108140226D01*
X144759774Y-107996063D01*
X144590256Y-107882795D01*
X144401898Y-107804774D01*
X144201939Y-107765000D01*
X143998061Y-107765000D01*
X143798102Y-107804774D01*
X143609744Y-107882795D01*
X143440226Y-107996063D01*
X143296063Y-108140226D01*
X143182795Y-108309744D01*
X143104774Y-108498102D01*
X143065000Y-108698061D01*
X136185000Y-108698061D01*
X136185000Y-107098061D01*
X137265000Y-107098061D01*
X137265000Y-107301939D01*
X137304774Y-107501898D01*
X137382795Y-107690256D01*
X137496063Y-107859774D01*
X137640226Y-108003937D01*
X137809744Y-108117205D01*
X137998102Y-108195226D01*
X138198061Y-108235000D01*
X138401939Y-108235000D01*
X138601898Y-108195226D01*
X138790256Y-108117205D01*
X138959774Y-108003937D01*
X139103937Y-107859774D01*
X139217205Y-107690256D01*
X139295226Y-107501898D01*
X139335000Y-107301939D01*
X139335000Y-107098061D01*
X139295226Y-106898102D01*
X139217205Y-106709744D01*
X139103937Y-106540226D01*
X138959774Y-106396063D01*
X138790256Y-106282795D01*
X138601898Y-106204774D01*
X138401939Y-106165000D01*
X138198061Y-106165000D01*
X137998102Y-106204774D01*
X137809744Y-106282795D01*
X137640226Y-106396063D01*
X137496063Y-106540226D01*
X137382795Y-106709744D01*
X137304774Y-106898102D01*
X137265000Y-107098061D01*
X136185000Y-107098061D01*
X136185000Y-105798061D01*
X146365000Y-105798061D01*
X146365000Y-106001939D01*
X146404774Y-106201898D01*
X146482795Y-106390256D01*
X146596063Y-106559774D01*
X146740226Y-106703937D01*
X146909744Y-106817205D01*
X147098102Y-106895226D01*
X147298061Y-106935000D01*
X147501939Y-106935000D01*
X147687645Y-106898061D01*
X152965000Y-106898061D01*
X152965000Y-107101939D01*
X153004774Y-107301898D01*
X153082795Y-107490256D01*
X153196063Y-107659774D01*
X153340226Y-107803937D01*
X153509744Y-107917205D01*
X153698102Y-107995226D01*
X153898061Y-108035000D01*
X154101939Y-108035000D01*
X154301898Y-107995226D01*
X154490256Y-107917205D01*
X154659774Y-107803937D01*
X154803937Y-107659774D01*
X154917205Y-107490256D01*
X154995226Y-107301898D01*
X155035000Y-107101939D01*
X155035000Y-106898061D01*
X154995226Y-106698102D01*
X154917205Y-106509744D01*
X154803937Y-106340226D01*
X154659774Y-106196063D01*
X154490256Y-106082795D01*
X154301898Y-106004774D01*
X154101939Y-105965000D01*
X153898061Y-105965000D01*
X153698102Y-106004774D01*
X153509744Y-106082795D01*
X153340226Y-106196063D01*
X153196063Y-106340226D01*
X153082795Y-106509744D01*
X153004774Y-106698102D01*
X152965000Y-106898061D01*
X147687645Y-106898061D01*
X147701898Y-106895226D01*
X147890256Y-106817205D01*
X148059774Y-106703937D01*
X148203937Y-106559774D01*
X148317205Y-106390256D01*
X148395226Y-106201898D01*
X148435000Y-106001939D01*
X148435000Y-105798061D01*
X148395226Y-105598102D01*
X148317205Y-105409744D01*
X148203937Y-105240226D01*
X148059774Y-105096063D01*
X147890256Y-104982795D01*
X147701898Y-104904774D01*
X147501939Y-104865000D01*
X147298061Y-104865000D01*
X147098102Y-104904774D01*
X146909744Y-104982795D01*
X146740226Y-105096063D01*
X146596063Y-105240226D01*
X146482795Y-105409744D01*
X146404774Y-105598102D01*
X146365000Y-105798061D01*
X136185000Y-105798061D01*
X136185000Y-104398061D01*
X139465000Y-104398061D01*
X139465000Y-104601939D01*
X139504774Y-104801898D01*
X139582795Y-104990256D01*
X139696063Y-105159774D01*
X139840226Y-105303937D01*
X140009744Y-105417205D01*
X140198102Y-105495226D01*
X140398061Y-105535000D01*
X140601939Y-105535000D01*
X140801898Y-105495226D01*
X140990256Y-105417205D01*
X141159774Y-105303937D01*
X141303937Y-105159774D01*
X141417205Y-104990256D01*
X141495226Y-104801898D01*
X141535000Y-104601939D01*
X141535000Y-104398061D01*
X141505164Y-104248061D01*
X150465000Y-104248061D01*
X150465000Y-104451939D01*
X150504774Y-104651898D01*
X150582795Y-104840256D01*
X150696063Y-105009774D01*
X150840226Y-105153937D01*
X151009744Y-105267205D01*
X151198102Y-105345226D01*
X151398061Y-105385000D01*
X151601939Y-105385000D01*
X151801898Y-105345226D01*
X151990256Y-105267205D01*
X152159774Y-105153937D01*
X152303937Y-105009774D01*
X152417205Y-104840256D01*
X152433879Y-104800000D01*
X165784025Y-104800000D01*
X165807870Y-105042102D01*
X165878489Y-105274901D01*
X165993167Y-105489449D01*
X166147498Y-105677502D01*
X166186111Y-105709191D01*
X166181613Y-105711595D01*
X166047038Y-105822038D01*
X165936595Y-105956613D01*
X165854528Y-106110149D01*
X165803992Y-106276745D01*
X165786928Y-106449999D01*
X165786928Y-107150001D01*
X165803992Y-107323255D01*
X165854528Y-107489851D01*
X165936595Y-107643387D01*
X166047038Y-107777962D01*
X166181613Y-107888405D01*
X166335149Y-107970472D01*
X166501745Y-108021008D01*
X166674999Y-108038072D01*
X167925001Y-108038072D01*
X168098255Y-108021008D01*
X168264851Y-107970472D01*
X168418387Y-107888405D01*
X168552962Y-107777962D01*
X168663405Y-107643387D01*
X168745472Y-107489851D01*
X168796008Y-107323255D01*
X168813072Y-107150001D01*
X168813072Y-106449999D01*
X168796008Y-106276745D01*
X168745472Y-106110149D01*
X168663405Y-105956613D01*
X168552962Y-105822038D01*
X168418387Y-105711595D01*
X168413889Y-105709191D01*
X168452502Y-105677502D01*
X168606833Y-105489449D01*
X168721511Y-105274901D01*
X168792130Y-105042102D01*
X168815975Y-104800000D01*
X168792130Y-104557898D01*
X168721511Y-104325099D01*
X168606833Y-104110551D01*
X168452502Y-103922498D01*
X168264449Y-103768167D01*
X168049901Y-103653489D01*
X167817102Y-103582870D01*
X167635665Y-103565000D01*
X166964335Y-103565000D01*
X166782898Y-103582870D01*
X166550099Y-103653489D01*
X166335551Y-103768167D01*
X166147498Y-103922498D01*
X165993167Y-104110551D01*
X165878489Y-104325099D01*
X165807870Y-104557898D01*
X165784025Y-104800000D01*
X152433879Y-104800000D01*
X152495226Y-104651898D01*
X152535000Y-104451939D01*
X152535000Y-104248061D01*
X152495226Y-104048102D01*
X152417205Y-103859744D01*
X152303937Y-103690226D01*
X152159774Y-103546063D01*
X151990256Y-103432795D01*
X151906402Y-103398061D01*
X168965000Y-103398061D01*
X168965000Y-103601939D01*
X169004774Y-103801898D01*
X169082795Y-103990256D01*
X169196063Y-104159774D01*
X169340226Y-104303937D01*
X169509744Y-104417205D01*
X169698102Y-104495226D01*
X169898061Y-104535000D01*
X170101939Y-104535000D01*
X170301898Y-104495226D01*
X170490256Y-104417205D01*
X170659774Y-104303937D01*
X170803937Y-104159774D01*
X170917205Y-103990256D01*
X170995226Y-103801898D01*
X171035000Y-103601939D01*
X171035000Y-103398061D01*
X170995226Y-103198102D01*
X170917205Y-103009744D01*
X170803937Y-102840226D01*
X170659774Y-102696063D01*
X170490256Y-102582795D01*
X170301898Y-102504774D01*
X170101939Y-102465000D01*
X169898061Y-102465000D01*
X169698102Y-102504774D01*
X169509744Y-102582795D01*
X169340226Y-102696063D01*
X169196063Y-102840226D01*
X169082795Y-103009744D01*
X169004774Y-103198102D01*
X168965000Y-103398061D01*
X151906402Y-103398061D01*
X151801898Y-103354774D01*
X151601939Y-103315000D01*
X151398061Y-103315000D01*
X151198102Y-103354774D01*
X151009744Y-103432795D01*
X150840226Y-103546063D01*
X150696063Y-103690226D01*
X150582795Y-103859744D01*
X150504774Y-104048102D01*
X150465000Y-104248061D01*
X141505164Y-104248061D01*
X141495226Y-104198102D01*
X141417205Y-104009744D01*
X141303937Y-103840226D01*
X141159774Y-103696063D01*
X140990256Y-103582795D01*
X140801898Y-103504774D01*
X140601939Y-103465000D01*
X140398061Y-103465000D01*
X140198102Y-103504774D01*
X140009744Y-103582795D01*
X139840226Y-103696063D01*
X139696063Y-103840226D01*
X139582795Y-104009744D01*
X139504774Y-104198102D01*
X139465000Y-104398061D01*
X136185000Y-104398061D01*
X136185000Y-96848061D01*
X138715000Y-96848061D01*
X138715000Y-97051939D01*
X138754774Y-97251898D01*
X138832795Y-97440256D01*
X138946063Y-97609774D01*
X139090226Y-97753937D01*
X139259744Y-97867205D01*
X139448102Y-97945226D01*
X139648061Y-97985000D01*
X139851939Y-97985000D01*
X140051898Y-97945226D01*
X140240256Y-97867205D01*
X140388161Y-97768378D01*
X140404774Y-97851898D01*
X140482795Y-98040256D01*
X140596063Y-98209774D01*
X140740226Y-98353937D01*
X140846580Y-98425000D01*
X140740226Y-98496063D01*
X140596063Y-98640226D01*
X140482795Y-98809744D01*
X140404774Y-98998102D01*
X140394027Y-99052132D01*
X140290256Y-98982795D01*
X140101898Y-98904774D01*
X139901939Y-98865000D01*
X139698061Y-98865000D01*
X139498102Y-98904774D01*
X139309744Y-98982795D01*
X139140226Y-99096063D01*
X138996063Y-99240226D01*
X138882795Y-99409744D01*
X138804774Y-99598102D01*
X138765000Y-99798061D01*
X138765000Y-100001939D01*
X138804774Y-100201898D01*
X138882795Y-100390256D01*
X138996063Y-100559774D01*
X139140226Y-100703937D01*
X139309744Y-100817205D01*
X139498102Y-100895226D01*
X139698061Y-100935000D01*
X139901939Y-100935000D01*
X140101898Y-100895226D01*
X140290256Y-100817205D01*
X140459774Y-100703937D01*
X140603937Y-100559774D01*
X140717205Y-100390256D01*
X140795226Y-100201898D01*
X140805973Y-100147868D01*
X140909744Y-100217205D01*
X141098102Y-100295226D01*
X141298061Y-100335000D01*
X141501939Y-100335000D01*
X141701898Y-100295226D01*
X141890256Y-100217205D01*
X142059774Y-100103937D01*
X142203937Y-99959774D01*
X142317205Y-99790256D01*
X142395226Y-99601898D01*
X142435000Y-99401939D01*
X142435000Y-99198061D01*
X142395226Y-98998102D01*
X142317205Y-98809744D01*
X142203937Y-98640226D01*
X142059774Y-98496063D01*
X141953420Y-98425000D01*
X142059774Y-98353937D01*
X142203937Y-98209774D01*
X142317205Y-98040256D01*
X142395226Y-97851898D01*
X142435000Y-97651939D01*
X142435000Y-97448061D01*
X142395226Y-97248102D01*
X142333077Y-97098061D01*
X142415000Y-97098061D01*
X142415000Y-97301939D01*
X142454774Y-97501898D01*
X142532795Y-97690256D01*
X142646063Y-97859774D01*
X142790226Y-98003937D01*
X142959744Y-98117205D01*
X143148102Y-98195226D01*
X143348061Y-98235000D01*
X143551939Y-98235000D01*
X143751898Y-98195226D01*
X143940256Y-98117205D01*
X144109774Y-98003937D01*
X144253937Y-97859774D01*
X144367205Y-97690256D01*
X144445226Y-97501898D01*
X144485000Y-97301939D01*
X144485000Y-97098061D01*
X144515000Y-97098061D01*
X144515000Y-97301939D01*
X144554774Y-97501898D01*
X144632795Y-97690256D01*
X144746063Y-97859774D01*
X144890226Y-98003937D01*
X145059744Y-98117205D01*
X145248102Y-98195226D01*
X145448061Y-98235000D01*
X145651939Y-98235000D01*
X145823323Y-98200910D01*
X145896063Y-98309774D01*
X145986289Y-98400000D01*
X145896063Y-98490226D01*
X145823323Y-98599090D01*
X145651939Y-98565000D01*
X145448061Y-98565000D01*
X145248102Y-98604774D01*
X145059744Y-98682795D01*
X144890226Y-98796063D01*
X144746063Y-98940226D01*
X144632795Y-99109744D01*
X144554774Y-99298102D01*
X144515000Y-99498061D01*
X144515000Y-99701939D01*
X144554774Y-99901898D01*
X144632795Y-100090256D01*
X144746063Y-100259774D01*
X144890226Y-100403937D01*
X145059744Y-100517205D01*
X145135879Y-100548741D01*
X144990226Y-100646063D01*
X144846063Y-100790226D01*
X144732795Y-100959744D01*
X144654774Y-101148102D01*
X144615000Y-101348061D01*
X144615000Y-101551939D01*
X144654774Y-101751898D01*
X144732795Y-101940256D01*
X144846063Y-102109774D01*
X144990226Y-102253937D01*
X145159744Y-102367205D01*
X145348102Y-102445226D01*
X145548061Y-102485000D01*
X145751939Y-102485000D01*
X145951898Y-102445226D01*
X146140256Y-102367205D01*
X146309774Y-102253937D01*
X146453937Y-102109774D01*
X146516704Y-102015836D01*
X146546063Y-102059774D01*
X146690226Y-102203937D01*
X146859744Y-102317205D01*
X147048102Y-102395226D01*
X147248061Y-102435000D01*
X147451939Y-102435000D01*
X147651898Y-102395226D01*
X147840256Y-102317205D01*
X148009774Y-102203937D01*
X148153937Y-102059774D01*
X148208296Y-101978420D01*
X148296063Y-102109774D01*
X148440226Y-102253937D01*
X148609744Y-102367205D01*
X148798102Y-102445226D01*
X148998061Y-102485000D01*
X149201939Y-102485000D01*
X149401898Y-102445226D01*
X149590256Y-102367205D01*
X149759774Y-102253937D01*
X149903937Y-102109774D01*
X150017205Y-101940256D01*
X150095226Y-101751898D01*
X150135000Y-101551939D01*
X150135000Y-101348061D01*
X150095226Y-101148102D01*
X150017205Y-100959744D01*
X149903937Y-100790226D01*
X149759774Y-100646063D01*
X149613104Y-100548061D01*
X157315000Y-100548061D01*
X157315000Y-100751939D01*
X157354774Y-100951898D01*
X157432795Y-101140256D01*
X157546063Y-101309774D01*
X157690226Y-101453937D01*
X157859744Y-101567205D01*
X158048102Y-101645226D01*
X158248061Y-101685000D01*
X158451939Y-101685000D01*
X158651898Y-101645226D01*
X158840256Y-101567205D01*
X159009774Y-101453937D01*
X159153937Y-101309774D01*
X159267205Y-101140256D01*
X159345226Y-100951898D01*
X159385000Y-100751939D01*
X159385000Y-100548061D01*
X159345226Y-100348102D01*
X159267205Y-100159744D01*
X159153937Y-99990226D01*
X159009774Y-99846063D01*
X158840256Y-99732795D01*
X158651898Y-99654774D01*
X158451939Y-99615000D01*
X158248061Y-99615000D01*
X158048102Y-99654774D01*
X157859744Y-99732795D01*
X157690226Y-99846063D01*
X157546063Y-99990226D01*
X157432795Y-100159744D01*
X157354774Y-100348102D01*
X157315000Y-100548061D01*
X149613104Y-100548061D01*
X149590256Y-100532795D01*
X149401898Y-100454774D01*
X149201939Y-100415000D01*
X148998061Y-100415000D01*
X148798102Y-100454774D01*
X148609744Y-100532795D01*
X148440226Y-100646063D01*
X148296063Y-100790226D01*
X148241704Y-100871580D01*
X148153937Y-100740226D01*
X148009774Y-100596063D01*
X147840256Y-100482795D01*
X147651898Y-100404774D01*
X147451939Y-100365000D01*
X147248061Y-100365000D01*
X147048102Y-100404774D01*
X146859744Y-100482795D01*
X146690226Y-100596063D01*
X146546063Y-100740226D01*
X146483296Y-100834164D01*
X146453937Y-100790226D01*
X146309774Y-100646063D01*
X146140256Y-100532795D01*
X146064121Y-100501259D01*
X146209774Y-100403937D01*
X146353937Y-100259774D01*
X146426677Y-100150910D01*
X146598061Y-100185000D01*
X146801939Y-100185000D01*
X147001898Y-100145226D01*
X147190256Y-100067205D01*
X147359774Y-99953937D01*
X147503937Y-99809774D01*
X147527474Y-99774549D01*
X147698102Y-99845226D01*
X147898061Y-99885000D01*
X148101939Y-99885000D01*
X148301898Y-99845226D01*
X148490256Y-99767205D01*
X148659774Y-99653937D01*
X148803937Y-99509774D01*
X148917205Y-99340256D01*
X148955393Y-99248061D01*
X149215000Y-99248061D01*
X149215000Y-99451939D01*
X149254774Y-99651898D01*
X149332795Y-99840256D01*
X149446063Y-100009774D01*
X149590226Y-100153937D01*
X149759744Y-100267205D01*
X149948102Y-100345226D01*
X150148061Y-100385000D01*
X150351939Y-100385000D01*
X150551898Y-100345226D01*
X150740256Y-100267205D01*
X150909774Y-100153937D01*
X151053937Y-100009774D01*
X151167205Y-99840256D01*
X151245226Y-99651898D01*
X151285000Y-99451939D01*
X151285000Y-99248061D01*
X151245226Y-99048102D01*
X151167205Y-98859744D01*
X151053937Y-98690226D01*
X150909774Y-98546063D01*
X150740256Y-98432795D01*
X150551898Y-98354774D01*
X150351939Y-98315000D01*
X150148061Y-98315000D01*
X149948102Y-98354774D01*
X149759744Y-98432795D01*
X149590226Y-98546063D01*
X149446063Y-98690226D01*
X149332795Y-98859744D01*
X149254774Y-99048102D01*
X149215000Y-99248061D01*
X148955393Y-99248061D01*
X148995226Y-99151898D01*
X149035000Y-98951939D01*
X149035000Y-98748061D01*
X148995226Y-98548102D01*
X148917205Y-98359744D01*
X148803937Y-98190226D01*
X148659774Y-98046063D01*
X148490256Y-97932795D01*
X148301898Y-97854774D01*
X148101939Y-97815000D01*
X147898061Y-97815000D01*
X147715222Y-97851369D01*
X147735000Y-97751939D01*
X147735000Y-97548061D01*
X147695226Y-97348102D01*
X147617205Y-97159744D01*
X147503937Y-96990226D01*
X147359774Y-96846063D01*
X147190256Y-96732795D01*
X147001898Y-96654774D01*
X146801939Y-96615000D01*
X146598061Y-96615000D01*
X146426677Y-96649090D01*
X146353937Y-96540226D01*
X146209774Y-96396063D01*
X146040256Y-96282795D01*
X145851898Y-96204774D01*
X145651939Y-96165000D01*
X145448061Y-96165000D01*
X145248102Y-96204774D01*
X145059744Y-96282795D01*
X144890226Y-96396063D01*
X144746063Y-96540226D01*
X144632795Y-96709744D01*
X144554774Y-96898102D01*
X144515000Y-97098061D01*
X144485000Y-97098061D01*
X144445226Y-96898102D01*
X144367205Y-96709744D01*
X144253937Y-96540226D01*
X144109774Y-96396063D01*
X143940256Y-96282795D01*
X143751898Y-96204774D01*
X143551939Y-96165000D01*
X143348061Y-96165000D01*
X143148102Y-96204774D01*
X142959744Y-96282795D01*
X142790226Y-96396063D01*
X142646063Y-96540226D01*
X142532795Y-96709744D01*
X142454774Y-96898102D01*
X142415000Y-97098061D01*
X142333077Y-97098061D01*
X142317205Y-97059744D01*
X142203937Y-96890226D01*
X142059774Y-96746063D01*
X141890256Y-96632795D01*
X141701898Y-96554774D01*
X141501939Y-96515000D01*
X141417263Y-96515000D01*
X141467205Y-96440256D01*
X141545226Y-96251898D01*
X141585000Y-96051939D01*
X141585000Y-95848061D01*
X141545226Y-95648102D01*
X141467205Y-95459744D01*
X141353937Y-95290226D01*
X141209774Y-95146063D01*
X141040256Y-95032795D01*
X140851898Y-94954774D01*
X140651939Y-94915000D01*
X140448061Y-94915000D01*
X140248102Y-94954774D01*
X140059744Y-95032795D01*
X139890226Y-95146063D01*
X139746063Y-95290226D01*
X139632795Y-95459744D01*
X139554774Y-95648102D01*
X139515000Y-95848061D01*
X139515000Y-95941467D01*
X139448102Y-95954774D01*
X139259744Y-96032795D01*
X139090226Y-96146063D01*
X138946063Y-96290226D01*
X138832795Y-96459744D01*
X138754774Y-96648102D01*
X138715000Y-96848061D01*
X136185000Y-96848061D01*
X136185000Y-94748061D01*
X143765000Y-94748061D01*
X143765000Y-94951939D01*
X143804774Y-95151898D01*
X143882795Y-95340256D01*
X143996063Y-95509774D01*
X144140226Y-95653937D01*
X144309744Y-95767205D01*
X144498102Y-95845226D01*
X144698061Y-95885000D01*
X144901939Y-95885000D01*
X145101898Y-95845226D01*
X145290256Y-95767205D01*
X145459774Y-95653937D01*
X145603937Y-95509774D01*
X145711989Y-95348061D01*
X147765000Y-95348061D01*
X147765000Y-95551939D01*
X147804774Y-95751898D01*
X147882795Y-95940256D01*
X147996063Y-96109774D01*
X148140226Y-96253937D01*
X148309744Y-96367205D01*
X148498102Y-96445226D01*
X148698061Y-96485000D01*
X148901939Y-96485000D01*
X148910943Y-96483209D01*
X148904774Y-96498102D01*
X148865000Y-96698061D01*
X148865000Y-96901939D01*
X148904774Y-97101898D01*
X148982795Y-97290256D01*
X149096063Y-97459774D01*
X149240226Y-97603937D01*
X149409744Y-97717205D01*
X149598102Y-97795226D01*
X149798061Y-97835000D01*
X150001939Y-97835000D01*
X150201898Y-97795226D01*
X150390256Y-97717205D01*
X150559774Y-97603937D01*
X150703937Y-97459774D01*
X150817205Y-97290256D01*
X150895226Y-97101898D01*
X150935000Y-96901939D01*
X150935000Y-96898061D01*
X164965000Y-96898061D01*
X164965000Y-97101939D01*
X165004774Y-97301898D01*
X165082795Y-97490256D01*
X165196063Y-97659774D01*
X165340226Y-97803937D01*
X165509744Y-97917205D01*
X165698102Y-97995226D01*
X165898061Y-98035000D01*
X166101939Y-98035000D01*
X166301898Y-97995226D01*
X166490256Y-97917205D01*
X166659774Y-97803937D01*
X166803937Y-97659774D01*
X166917205Y-97490256D01*
X166995226Y-97301898D01*
X167035000Y-97101939D01*
X167035000Y-96898061D01*
X166995226Y-96698102D01*
X166917205Y-96509744D01*
X166803937Y-96340226D01*
X166659774Y-96196063D01*
X166490256Y-96082795D01*
X166301898Y-96004774D01*
X166101939Y-95965000D01*
X165898061Y-95965000D01*
X165698102Y-96004774D01*
X165509744Y-96082795D01*
X165340226Y-96196063D01*
X165196063Y-96340226D01*
X165082795Y-96509744D01*
X165004774Y-96698102D01*
X164965000Y-96898061D01*
X150935000Y-96898061D01*
X150935000Y-96698061D01*
X150895226Y-96498102D01*
X150817205Y-96309744D01*
X150703937Y-96140226D01*
X150559774Y-95996063D01*
X150390256Y-95882795D01*
X150201898Y-95804774D01*
X150001939Y-95765000D01*
X149798061Y-95765000D01*
X149789057Y-95766791D01*
X149795226Y-95751898D01*
X149835000Y-95551939D01*
X149835000Y-95348061D01*
X149795226Y-95148102D01*
X149717205Y-94959744D01*
X149603937Y-94790226D01*
X149459774Y-94646063D01*
X149290256Y-94532795D01*
X149101898Y-94454774D01*
X148901939Y-94415000D01*
X148698061Y-94415000D01*
X148498102Y-94454774D01*
X148309744Y-94532795D01*
X148140226Y-94646063D01*
X147996063Y-94790226D01*
X147882795Y-94959744D01*
X147804774Y-95148102D01*
X147765000Y-95348061D01*
X145711989Y-95348061D01*
X145717205Y-95340256D01*
X145795226Y-95151898D01*
X145835000Y-94951939D01*
X145835000Y-94748061D01*
X145795226Y-94548102D01*
X145717205Y-94359744D01*
X145603937Y-94190226D01*
X145459774Y-94046063D01*
X145290256Y-93932795D01*
X145101898Y-93854774D01*
X144901939Y-93815000D01*
X144698061Y-93815000D01*
X144498102Y-93854774D01*
X144309744Y-93932795D01*
X144140226Y-94046063D01*
X143996063Y-94190226D01*
X143882795Y-94359744D01*
X143804774Y-94548102D01*
X143765000Y-94748061D01*
X136185000Y-94748061D01*
X136185000Y-92098061D01*
X139465000Y-92098061D01*
X139465000Y-92301939D01*
X139504774Y-92501898D01*
X139582795Y-92690256D01*
X139696063Y-92859774D01*
X139840226Y-93003937D01*
X140009744Y-93117205D01*
X140198102Y-93195226D01*
X140398061Y-93235000D01*
X140601939Y-93235000D01*
X140801898Y-93195226D01*
X140990256Y-93117205D01*
X141159774Y-93003937D01*
X141303937Y-92859774D01*
X141417205Y-92690256D01*
X141495226Y-92501898D01*
X141535000Y-92301939D01*
X141535000Y-92098061D01*
X141495226Y-91898102D01*
X141495210Y-91898061D01*
X145315000Y-91898061D01*
X145315000Y-92101939D01*
X145354774Y-92301898D01*
X145432795Y-92490256D01*
X145546063Y-92659774D01*
X145690226Y-92803937D01*
X145859744Y-92917205D01*
X146048102Y-92995226D01*
X146248061Y-93035000D01*
X146451939Y-93035000D01*
X146651898Y-92995226D01*
X146840256Y-92917205D01*
X147009774Y-92803937D01*
X147115650Y-92698061D01*
X152465000Y-92698061D01*
X152465000Y-92901939D01*
X152504774Y-93101898D01*
X152582795Y-93290256D01*
X152696063Y-93459774D01*
X152840226Y-93603937D01*
X153009744Y-93717205D01*
X153198102Y-93795226D01*
X153398061Y-93835000D01*
X153601939Y-93835000D01*
X153801898Y-93795226D01*
X153990256Y-93717205D01*
X154159774Y-93603937D01*
X154303937Y-93459774D01*
X154417205Y-93290256D01*
X154495226Y-93101898D01*
X154535000Y-92901939D01*
X154535000Y-92698061D01*
X154665000Y-92698061D01*
X154665000Y-92901939D01*
X154704774Y-93101898D01*
X154782795Y-93290256D01*
X154896063Y-93459774D01*
X155040226Y-93603937D01*
X155209744Y-93717205D01*
X155398102Y-93795226D01*
X155598061Y-93835000D01*
X155801939Y-93835000D01*
X156001898Y-93795226D01*
X156190256Y-93717205D01*
X156359774Y-93603937D01*
X156503937Y-93459774D01*
X156617205Y-93290256D01*
X156695226Y-93101898D01*
X156735000Y-92901939D01*
X156735000Y-92698061D01*
X156695226Y-92498102D01*
X156617205Y-92309744D01*
X156503937Y-92140226D01*
X156359774Y-91996063D01*
X156190256Y-91882795D01*
X156001898Y-91804774D01*
X155801939Y-91765000D01*
X155598061Y-91765000D01*
X155398102Y-91804774D01*
X155209744Y-91882795D01*
X155040226Y-91996063D01*
X154896063Y-92140226D01*
X154782795Y-92309744D01*
X154704774Y-92498102D01*
X154665000Y-92698061D01*
X154535000Y-92698061D01*
X154495226Y-92498102D01*
X154417205Y-92309744D01*
X154303937Y-92140226D01*
X154159774Y-91996063D01*
X153990256Y-91882795D01*
X153801898Y-91804774D01*
X153601939Y-91765000D01*
X153398061Y-91765000D01*
X153198102Y-91804774D01*
X153009744Y-91882795D01*
X152840226Y-91996063D01*
X152696063Y-92140226D01*
X152582795Y-92309744D01*
X152504774Y-92498102D01*
X152465000Y-92698061D01*
X147115650Y-92698061D01*
X147153937Y-92659774D01*
X147267205Y-92490256D01*
X147345226Y-92301898D01*
X147385000Y-92101939D01*
X147385000Y-91898061D01*
X147345226Y-91698102D01*
X147267205Y-91509744D01*
X147153937Y-91340226D01*
X147009774Y-91196063D01*
X146840256Y-91082795D01*
X146651898Y-91004774D01*
X146451939Y-90965000D01*
X146248061Y-90965000D01*
X146048102Y-91004774D01*
X145859744Y-91082795D01*
X145690226Y-91196063D01*
X145546063Y-91340226D01*
X145432795Y-91509744D01*
X145354774Y-91698102D01*
X145315000Y-91898061D01*
X141495210Y-91898061D01*
X141417205Y-91709744D01*
X141303937Y-91540226D01*
X141159774Y-91396063D01*
X140990256Y-91282795D01*
X140801898Y-91204774D01*
X140601939Y-91165000D01*
X140398061Y-91165000D01*
X140198102Y-91204774D01*
X140009744Y-91282795D01*
X139840226Y-91396063D01*
X139696063Y-91540226D01*
X139582795Y-91709744D01*
X139504774Y-91898102D01*
X139465000Y-92098061D01*
X136185000Y-92098061D01*
X136185000Y-88398061D01*
X142965000Y-88398061D01*
X142965000Y-88601939D01*
X143004774Y-88801898D01*
X143082795Y-88990256D01*
X143196063Y-89159774D01*
X143340226Y-89303937D01*
X143509744Y-89417205D01*
X143698102Y-89495226D01*
X143898061Y-89535000D01*
X144101939Y-89535000D01*
X144301898Y-89495226D01*
X144490256Y-89417205D01*
X144659774Y-89303937D01*
X144803937Y-89159774D01*
X144811763Y-89148061D01*
X145115000Y-89148061D01*
X145115000Y-89351939D01*
X145154774Y-89551898D01*
X145232795Y-89740256D01*
X145346063Y-89909774D01*
X145490226Y-90053937D01*
X145659744Y-90167205D01*
X145848102Y-90245226D01*
X146048061Y-90285000D01*
X146251939Y-90285000D01*
X146451898Y-90245226D01*
X146640256Y-90167205D01*
X146809774Y-90053937D01*
X146953937Y-89909774D01*
X147028581Y-89798061D01*
X152815000Y-89798061D01*
X152815000Y-90001939D01*
X152854774Y-90201898D01*
X152932795Y-90390256D01*
X153046063Y-90559774D01*
X153190226Y-90703937D01*
X153359744Y-90817205D01*
X153548102Y-90895226D01*
X153748061Y-90935000D01*
X153951939Y-90935000D01*
X154151898Y-90895226D01*
X154340256Y-90817205D01*
X154509774Y-90703937D01*
X154653937Y-90559774D01*
X154767205Y-90390256D01*
X154845226Y-90201898D01*
X154885000Y-90001939D01*
X154885000Y-89798061D01*
X163565000Y-89798061D01*
X163565000Y-90001939D01*
X163604774Y-90201898D01*
X163682795Y-90390256D01*
X163747715Y-90487415D01*
X163732795Y-90509744D01*
X163654774Y-90698102D01*
X163615000Y-90898061D01*
X163615000Y-91101939D01*
X163654774Y-91301898D01*
X163732795Y-91490256D01*
X163764419Y-91537585D01*
X163682795Y-91659744D01*
X163604774Y-91848102D01*
X163565000Y-92048061D01*
X163565000Y-92251939D01*
X163604774Y-92451898D01*
X163682795Y-92640256D01*
X163796063Y-92809774D01*
X163940226Y-92953937D01*
X164109744Y-93067205D01*
X164298102Y-93145226D01*
X164498061Y-93185000D01*
X164701939Y-93185000D01*
X164901898Y-93145226D01*
X165090256Y-93067205D01*
X165259774Y-92953937D01*
X165403937Y-92809774D01*
X165517205Y-92640256D01*
X165595226Y-92451898D01*
X165635000Y-92251939D01*
X165635000Y-92048061D01*
X165595226Y-91848102D01*
X165517205Y-91659744D01*
X165485581Y-91612415D01*
X165567205Y-91490256D01*
X165645226Y-91301898D01*
X165685000Y-91101939D01*
X165685000Y-90898061D01*
X165645226Y-90698102D01*
X165567205Y-90509744D01*
X165502285Y-90412585D01*
X165517205Y-90390256D01*
X165595226Y-90201898D01*
X165635000Y-90001939D01*
X165635000Y-89898061D01*
X170665000Y-89898061D01*
X170665000Y-90101939D01*
X170704774Y-90301898D01*
X170782795Y-90490256D01*
X170896063Y-90659774D01*
X171040226Y-90803937D01*
X171209744Y-90917205D01*
X171398102Y-90995226D01*
X171598061Y-91035000D01*
X171801939Y-91035000D01*
X172001898Y-90995226D01*
X172190256Y-90917205D01*
X172359774Y-90803937D01*
X172503937Y-90659774D01*
X172617205Y-90490256D01*
X172695226Y-90301898D01*
X172735000Y-90101939D01*
X172735000Y-89898061D01*
X172695226Y-89698102D01*
X172617205Y-89509744D01*
X172503937Y-89340226D01*
X172359774Y-89196063D01*
X172190256Y-89082795D01*
X172001898Y-89004774D01*
X171801939Y-88965000D01*
X171598061Y-88965000D01*
X171398102Y-89004774D01*
X171209744Y-89082795D01*
X171040226Y-89196063D01*
X170896063Y-89340226D01*
X170782795Y-89509744D01*
X170704774Y-89698102D01*
X170665000Y-89898061D01*
X165635000Y-89898061D01*
X165635000Y-89798061D01*
X165595226Y-89598102D01*
X165517205Y-89409744D01*
X165485581Y-89362415D01*
X165567205Y-89240256D01*
X165645226Y-89051898D01*
X165685000Y-88851939D01*
X165685000Y-88648061D01*
X165645226Y-88448102D01*
X165624499Y-88398061D01*
X167115000Y-88398061D01*
X167115000Y-88601939D01*
X167154774Y-88801898D01*
X167232795Y-88990256D01*
X167346063Y-89159774D01*
X167490226Y-89303937D01*
X167659744Y-89417205D01*
X167848102Y-89495226D01*
X168048061Y-89535000D01*
X168251939Y-89535000D01*
X168451898Y-89495226D01*
X168640256Y-89417205D01*
X168809774Y-89303937D01*
X168953937Y-89159774D01*
X169067205Y-88990256D01*
X169145226Y-88801898D01*
X169185000Y-88601939D01*
X169185000Y-88398061D01*
X169145226Y-88198102D01*
X169067205Y-88009744D01*
X168953937Y-87840226D01*
X168809774Y-87696063D01*
X168640256Y-87582795D01*
X168451898Y-87504774D01*
X168251939Y-87465000D01*
X168048061Y-87465000D01*
X167848102Y-87504774D01*
X167659744Y-87582795D01*
X167490226Y-87696063D01*
X167346063Y-87840226D01*
X167232795Y-88009744D01*
X167154774Y-88198102D01*
X167115000Y-88398061D01*
X165624499Y-88398061D01*
X165567205Y-88259744D01*
X165453937Y-88090226D01*
X165309774Y-87946063D01*
X165140256Y-87832795D01*
X164951898Y-87754774D01*
X164751939Y-87715000D01*
X164548061Y-87715000D01*
X164348102Y-87754774D01*
X164159744Y-87832795D01*
X163990226Y-87946063D01*
X163846063Y-88090226D01*
X163732795Y-88259744D01*
X163654774Y-88448102D01*
X163615000Y-88648061D01*
X163615000Y-88851939D01*
X163654774Y-89051898D01*
X163732795Y-89240256D01*
X163764419Y-89287585D01*
X163682795Y-89409744D01*
X163604774Y-89598102D01*
X163565000Y-89798061D01*
X154885000Y-89798061D01*
X154845226Y-89598102D01*
X154767205Y-89409744D01*
X154653937Y-89240226D01*
X154509774Y-89096063D01*
X154340256Y-88982795D01*
X154151898Y-88904774D01*
X153951939Y-88865000D01*
X153748061Y-88865000D01*
X153548102Y-88904774D01*
X153359744Y-88982795D01*
X153190226Y-89096063D01*
X153046063Y-89240226D01*
X152932795Y-89409744D01*
X152854774Y-89598102D01*
X152815000Y-89798061D01*
X147028581Y-89798061D01*
X147067205Y-89740256D01*
X147145226Y-89551898D01*
X147185000Y-89351939D01*
X147185000Y-89148061D01*
X147145226Y-88948102D01*
X147067205Y-88759744D01*
X146953937Y-88590226D01*
X146809774Y-88446063D01*
X146640256Y-88332795D01*
X146451898Y-88254774D01*
X146251939Y-88215000D01*
X146048061Y-88215000D01*
X145848102Y-88254774D01*
X145659744Y-88332795D01*
X145490226Y-88446063D01*
X145346063Y-88590226D01*
X145232795Y-88759744D01*
X145154774Y-88948102D01*
X145115000Y-89148061D01*
X144811763Y-89148061D01*
X144917205Y-88990256D01*
X144995226Y-88801898D01*
X145035000Y-88601939D01*
X145035000Y-88398061D01*
X144995226Y-88198102D01*
X144917205Y-88009744D01*
X144803937Y-87840226D01*
X144659774Y-87696063D01*
X144490256Y-87582795D01*
X144301898Y-87504774D01*
X144101939Y-87465000D01*
X143898061Y-87465000D01*
X143698102Y-87504774D01*
X143509744Y-87582795D01*
X143340226Y-87696063D01*
X143196063Y-87840226D01*
X143082795Y-88009744D01*
X143004774Y-88198102D01*
X142965000Y-88398061D01*
X136185000Y-88398061D01*
X136185000Y-86898061D01*
X152465000Y-86898061D01*
X152465000Y-87101939D01*
X152504774Y-87301898D01*
X152582795Y-87490256D01*
X152696063Y-87659774D01*
X152840226Y-87803937D01*
X153009744Y-87917205D01*
X153198102Y-87995226D01*
X153398061Y-88035000D01*
X153601939Y-88035000D01*
X153801898Y-87995226D01*
X153990256Y-87917205D01*
X154159774Y-87803937D01*
X154303937Y-87659774D01*
X154417205Y-87490256D01*
X154495226Y-87301898D01*
X154535000Y-87101939D01*
X154535000Y-86998061D01*
X155915000Y-86998061D01*
X155915000Y-87201939D01*
X155954774Y-87401898D01*
X156032795Y-87590256D01*
X156146063Y-87759774D01*
X156290226Y-87903937D01*
X156459744Y-88017205D01*
X156648102Y-88095226D01*
X156848061Y-88135000D01*
X157051939Y-88135000D01*
X157251898Y-88095226D01*
X157440256Y-88017205D01*
X157609774Y-87903937D01*
X157753937Y-87759774D01*
X157867205Y-87590256D01*
X157945226Y-87401898D01*
X157985000Y-87201939D01*
X157985000Y-86998061D01*
X157975055Y-86948061D01*
X159165000Y-86948061D01*
X159165000Y-87151939D01*
X159204774Y-87351898D01*
X159282795Y-87540256D01*
X159396063Y-87709774D01*
X159540226Y-87853937D01*
X159709744Y-87967205D01*
X159898102Y-88045226D01*
X160098061Y-88085000D01*
X160301939Y-88085000D01*
X160501898Y-88045226D01*
X160690256Y-87967205D01*
X160859774Y-87853937D01*
X161003937Y-87709774D01*
X161117205Y-87540256D01*
X161195226Y-87351898D01*
X161235000Y-87151939D01*
X161235000Y-86948061D01*
X161195226Y-86748102D01*
X161117205Y-86559744D01*
X161042582Y-86448061D01*
X163465000Y-86448061D01*
X163465000Y-86651939D01*
X163504774Y-86851898D01*
X163582795Y-87040256D01*
X163696063Y-87209774D01*
X163840226Y-87353937D01*
X164009744Y-87467205D01*
X164198102Y-87545226D01*
X164398061Y-87585000D01*
X164601939Y-87585000D01*
X164801898Y-87545226D01*
X164990256Y-87467205D01*
X165159774Y-87353937D01*
X165303937Y-87209774D01*
X165417205Y-87040256D01*
X165495226Y-86851898D01*
X165535000Y-86651939D01*
X165535000Y-86448061D01*
X165495226Y-86248102D01*
X165417205Y-86059744D01*
X165303937Y-85890226D01*
X165159774Y-85746063D01*
X164990256Y-85632795D01*
X164801898Y-85554774D01*
X164601939Y-85515000D01*
X164398061Y-85515000D01*
X164198102Y-85554774D01*
X164009744Y-85632795D01*
X163840226Y-85746063D01*
X163696063Y-85890226D01*
X163582795Y-86059744D01*
X163504774Y-86248102D01*
X163465000Y-86448061D01*
X161042582Y-86448061D01*
X161003937Y-86390226D01*
X160859774Y-86246063D01*
X160690256Y-86132795D01*
X160501898Y-86054774D01*
X160301939Y-86015000D01*
X160098061Y-86015000D01*
X159898102Y-86054774D01*
X159709744Y-86132795D01*
X159540226Y-86246063D01*
X159396063Y-86390226D01*
X159282795Y-86559744D01*
X159204774Y-86748102D01*
X159165000Y-86948061D01*
X157975055Y-86948061D01*
X157945226Y-86798102D01*
X157867205Y-86609744D01*
X157753937Y-86440226D01*
X157609774Y-86296063D01*
X157440256Y-86182795D01*
X157251898Y-86104774D01*
X157051939Y-86065000D01*
X156848061Y-86065000D01*
X156648102Y-86104774D01*
X156459744Y-86182795D01*
X156290226Y-86296063D01*
X156146063Y-86440226D01*
X156032795Y-86609744D01*
X155954774Y-86798102D01*
X155915000Y-86998061D01*
X154535000Y-86998061D01*
X154535000Y-86898061D01*
X154495226Y-86698102D01*
X154417205Y-86509744D01*
X154303937Y-86340226D01*
X154159774Y-86196063D01*
X153990256Y-86082795D01*
X153801898Y-86004774D01*
X153601939Y-85965000D01*
X153398061Y-85965000D01*
X153198102Y-86004774D01*
X153009744Y-86082795D01*
X152840226Y-86196063D01*
X152696063Y-86340226D01*
X152582795Y-86509744D01*
X152504774Y-86698102D01*
X152465000Y-86898061D01*
X136185000Y-86898061D01*
X136185000Y-83398061D01*
X146965000Y-83398061D01*
X146965000Y-83601939D01*
X147004774Y-83801898D01*
X147082795Y-83990256D01*
X147196063Y-84159774D01*
X147340226Y-84303937D01*
X147509744Y-84417205D01*
X147698102Y-84495226D01*
X147898061Y-84535000D01*
X148101939Y-84535000D01*
X148301898Y-84495226D01*
X148490256Y-84417205D01*
X148518907Y-84398061D01*
X166365000Y-84398061D01*
X166365000Y-84601939D01*
X166404774Y-84801898D01*
X166482795Y-84990256D01*
X166596063Y-85159774D01*
X166740226Y-85303937D01*
X166909744Y-85417205D01*
X167098102Y-85495226D01*
X167298061Y-85535000D01*
X167501939Y-85535000D01*
X167701898Y-85495226D01*
X167890256Y-85417205D01*
X168059774Y-85303937D01*
X168203937Y-85159774D01*
X168317205Y-84990256D01*
X168395226Y-84801898D01*
X168435000Y-84601939D01*
X168435000Y-84398061D01*
X168395226Y-84198102D01*
X168395210Y-84198061D01*
X168665000Y-84198061D01*
X168665000Y-84401939D01*
X168704774Y-84601898D01*
X168782795Y-84790256D01*
X168896063Y-84959774D01*
X169040226Y-85103937D01*
X169209744Y-85217205D01*
X169398102Y-85295226D01*
X169598061Y-85335000D01*
X169801939Y-85335000D01*
X170001898Y-85295226D01*
X170190256Y-85217205D01*
X170359774Y-85103937D01*
X170503937Y-84959774D01*
X170617205Y-84790256D01*
X170695226Y-84601898D01*
X170735000Y-84401939D01*
X170735000Y-84198061D01*
X170695226Y-83998102D01*
X170617205Y-83809744D01*
X170503937Y-83640226D01*
X170359774Y-83496063D01*
X170190256Y-83382795D01*
X170001898Y-83304774D01*
X169801939Y-83265000D01*
X169598061Y-83265000D01*
X169398102Y-83304774D01*
X169209744Y-83382795D01*
X169040226Y-83496063D01*
X168896063Y-83640226D01*
X168782795Y-83809744D01*
X168704774Y-83998102D01*
X168665000Y-84198061D01*
X168395210Y-84198061D01*
X168317205Y-84009744D01*
X168203937Y-83840226D01*
X168059774Y-83696063D01*
X167890256Y-83582795D01*
X167701898Y-83504774D01*
X167501939Y-83465000D01*
X167298061Y-83465000D01*
X167098102Y-83504774D01*
X166909744Y-83582795D01*
X166740226Y-83696063D01*
X166596063Y-83840226D01*
X166482795Y-84009744D01*
X166404774Y-84198102D01*
X166365000Y-84398061D01*
X148518907Y-84398061D01*
X148659774Y-84303937D01*
X148803937Y-84159774D01*
X148917205Y-83990256D01*
X148995226Y-83801898D01*
X149035000Y-83601939D01*
X149035000Y-83398061D01*
X148995226Y-83198102D01*
X148917205Y-83009744D01*
X148803937Y-82840226D01*
X148659774Y-82696063D01*
X148490256Y-82582795D01*
X148301898Y-82504774D01*
X148101939Y-82465000D01*
X147898061Y-82465000D01*
X147698102Y-82504774D01*
X147509744Y-82582795D01*
X147340226Y-82696063D01*
X147196063Y-82840226D01*
X147082795Y-83009744D01*
X147004774Y-83198102D01*
X146965000Y-83398061D01*
X136185000Y-83398061D01*
X136185000Y-81898061D01*
X139965000Y-81898061D01*
X139965000Y-82101939D01*
X140004774Y-82301898D01*
X140082795Y-82490256D01*
X140196063Y-82659774D01*
X140340226Y-82803937D01*
X140509744Y-82917205D01*
X140698102Y-82995226D01*
X140898061Y-83035000D01*
X141101939Y-83035000D01*
X141301898Y-82995226D01*
X141490256Y-82917205D01*
X141659774Y-82803937D01*
X141803937Y-82659774D01*
X141917205Y-82490256D01*
X141995226Y-82301898D01*
X142035000Y-82101939D01*
X142035000Y-81898061D01*
X141995226Y-81698102D01*
X141995210Y-81698061D01*
X145165000Y-81698061D01*
X145165000Y-81901939D01*
X145204774Y-82101898D01*
X145282795Y-82290256D01*
X145396063Y-82459774D01*
X145540226Y-82603937D01*
X145709744Y-82717205D01*
X145898102Y-82795226D01*
X146098061Y-82835000D01*
X146301939Y-82835000D01*
X146501898Y-82795226D01*
X146690256Y-82717205D01*
X146859774Y-82603937D01*
X147003937Y-82459774D01*
X147117205Y-82290256D01*
X147195226Y-82101898D01*
X147235000Y-81901939D01*
X147235000Y-81698061D01*
X147195226Y-81498102D01*
X147195210Y-81498061D01*
X165115000Y-81498061D01*
X165115000Y-81701939D01*
X165154774Y-81901898D01*
X165232795Y-82090256D01*
X165346063Y-82259774D01*
X165490226Y-82403937D01*
X165659744Y-82517205D01*
X165848102Y-82595226D01*
X166048061Y-82635000D01*
X166251939Y-82635000D01*
X166451898Y-82595226D01*
X166640256Y-82517205D01*
X166809774Y-82403937D01*
X166953937Y-82259774D01*
X167067205Y-82090256D01*
X167145226Y-81901898D01*
X167185000Y-81701939D01*
X167185000Y-81498061D01*
X167145226Y-81298102D01*
X167067205Y-81109744D01*
X166953937Y-80940226D01*
X166931471Y-80917760D01*
X168815000Y-80917760D01*
X168815000Y-81082240D01*
X168847089Y-81243560D01*
X168910033Y-81395521D01*
X169001413Y-81532281D01*
X169117719Y-81648587D01*
X169254479Y-81739967D01*
X169406440Y-81802911D01*
X169567760Y-81835000D01*
X169732240Y-81835000D01*
X169893560Y-81802911D01*
X170045521Y-81739967D01*
X170182281Y-81648587D01*
X170298587Y-81532281D01*
X170389967Y-81395521D01*
X170452911Y-81243560D01*
X170485000Y-81082240D01*
X170485000Y-80917760D01*
X170452911Y-80756440D01*
X170389967Y-80604479D01*
X170298587Y-80467719D01*
X170182281Y-80351413D01*
X170045521Y-80260033D01*
X169893560Y-80197089D01*
X169732240Y-80165000D01*
X169567760Y-80165000D01*
X169406440Y-80197089D01*
X169254479Y-80260033D01*
X169117719Y-80351413D01*
X169001413Y-80467719D01*
X168910033Y-80604479D01*
X168847089Y-80756440D01*
X168815000Y-80917760D01*
X166931471Y-80917760D01*
X166809774Y-80796063D01*
X166640256Y-80682795D01*
X166451898Y-80604774D01*
X166251939Y-80565000D01*
X166048061Y-80565000D01*
X165848102Y-80604774D01*
X165659744Y-80682795D01*
X165490226Y-80796063D01*
X165346063Y-80940226D01*
X165232795Y-81109744D01*
X165154774Y-81298102D01*
X165115000Y-81498061D01*
X147195210Y-81498061D01*
X147117205Y-81309744D01*
X147003937Y-81140226D01*
X146859774Y-80996063D01*
X146690256Y-80882795D01*
X146501898Y-80804774D01*
X146301939Y-80765000D01*
X146098061Y-80765000D01*
X145898102Y-80804774D01*
X145709744Y-80882795D01*
X145540226Y-80996063D01*
X145396063Y-81140226D01*
X145282795Y-81309744D01*
X145204774Y-81498102D01*
X145165000Y-81698061D01*
X141995210Y-81698061D01*
X141917205Y-81509744D01*
X141803937Y-81340226D01*
X141659774Y-81196063D01*
X141490256Y-81082795D01*
X141301898Y-81004774D01*
X141101939Y-80965000D01*
X140898061Y-80965000D01*
X140698102Y-81004774D01*
X140509744Y-81082795D01*
X140340226Y-81196063D01*
X140196063Y-81340226D01*
X140082795Y-81509744D01*
X140004774Y-81698102D01*
X139965000Y-81898061D01*
X136185000Y-81898061D01*
X136185000Y-79643217D01*
X136196063Y-79659774D01*
X136340226Y-79803937D01*
X136509744Y-79917205D01*
X136698102Y-79995226D01*
X136898061Y-80035000D01*
X137101939Y-80035000D01*
X137301898Y-79995226D01*
X137490256Y-79917205D01*
X137659774Y-79803937D01*
X137803937Y-79659774D01*
X137917205Y-79490256D01*
X137995226Y-79301898D01*
X138000000Y-79277897D01*
X138004774Y-79301898D01*
X138082795Y-79490256D01*
X138196063Y-79659774D01*
X138340226Y-79803937D01*
X138509744Y-79917205D01*
X138698102Y-79995226D01*
X138898061Y-80035000D01*
X139101939Y-80035000D01*
X139301898Y-79995226D01*
X139490256Y-79917205D01*
X139659774Y-79803937D01*
X139803937Y-79659774D01*
X139917205Y-79490256D01*
X139995226Y-79301898D01*
X140035000Y-79101939D01*
X140035000Y-78898061D01*
X141965000Y-78898061D01*
X141965000Y-79101939D01*
X142004774Y-79301898D01*
X142082795Y-79490256D01*
X142196063Y-79659774D01*
X142340226Y-79803937D01*
X142509744Y-79917205D01*
X142698102Y-79995226D01*
X142898061Y-80035000D01*
X143101939Y-80035000D01*
X143301898Y-79995226D01*
X143490256Y-79917205D01*
X143659774Y-79803937D01*
X143803937Y-79659774D01*
X143917205Y-79490256D01*
X143995226Y-79301898D01*
X144035000Y-79101939D01*
X144035000Y-78898061D01*
X146965000Y-78898061D01*
X146965000Y-79101939D01*
X147004774Y-79301898D01*
X147082795Y-79490256D01*
X147196063Y-79659774D01*
X147340226Y-79803937D01*
X147509744Y-79917205D01*
X147698102Y-79995226D01*
X147898061Y-80035000D01*
X148101939Y-80035000D01*
X148301898Y-79995226D01*
X148490256Y-79917205D01*
X148659774Y-79803937D01*
X148803937Y-79659774D01*
X148917205Y-79490256D01*
X148995226Y-79301898D01*
X149035000Y-79101939D01*
X149035000Y-78898061D01*
X148995226Y-78698102D01*
X148917205Y-78509744D01*
X148803937Y-78340226D01*
X148659774Y-78196063D01*
X148490256Y-78082795D01*
X148301898Y-78004774D01*
X148101939Y-77965000D01*
X147898061Y-77965000D01*
X147698102Y-78004774D01*
X147509744Y-78082795D01*
X147340226Y-78196063D01*
X147196063Y-78340226D01*
X147082795Y-78509744D01*
X147004774Y-78698102D01*
X146965000Y-78898061D01*
X144035000Y-78898061D01*
X143995226Y-78698102D01*
X143917205Y-78509744D01*
X143803937Y-78340226D01*
X143659774Y-78196063D01*
X143490256Y-78082795D01*
X143301898Y-78004774D01*
X143101939Y-77965000D01*
X142898061Y-77965000D01*
X142698102Y-78004774D01*
X142509744Y-78082795D01*
X142340226Y-78196063D01*
X142196063Y-78340226D01*
X142082795Y-78509744D01*
X142004774Y-78698102D01*
X141965000Y-78898061D01*
X140035000Y-78898061D01*
X139995226Y-78698102D01*
X139917205Y-78509744D01*
X139803937Y-78340226D01*
X139659774Y-78196063D01*
X139490256Y-78082795D01*
X139301898Y-78004774D01*
X139101939Y-77965000D01*
X138898061Y-77965000D01*
X138698102Y-78004774D01*
X138509744Y-78082795D01*
X138340226Y-78196063D01*
X138196063Y-78340226D01*
X138082795Y-78509744D01*
X138004774Y-78698102D01*
X138000000Y-78722103D01*
X137995226Y-78698102D01*
X137917205Y-78509744D01*
X137803937Y-78340226D01*
X137659774Y-78196063D01*
X137490256Y-78082795D01*
X137301898Y-78004774D01*
X137101939Y-77965000D01*
X136898061Y-77965000D01*
X136698102Y-78004774D01*
X136509744Y-78082795D01*
X136340226Y-78196063D01*
X136196063Y-78340226D01*
X136185000Y-78356783D01*
X136185000Y-77398061D01*
X139965000Y-77398061D01*
X139965000Y-77601939D01*
X140004774Y-77801898D01*
X140082795Y-77990256D01*
X140196063Y-78159774D01*
X140340226Y-78303937D01*
X140509744Y-78417205D01*
X140698102Y-78495226D01*
X140898061Y-78535000D01*
X141101939Y-78535000D01*
X141301898Y-78495226D01*
X141490256Y-78417205D01*
X141659774Y-78303937D01*
X141803937Y-78159774D01*
X141917205Y-77990256D01*
X141995226Y-77801898D01*
X142035000Y-77601939D01*
X142035000Y-77398061D01*
X144465000Y-77398061D01*
X144465000Y-77601939D01*
X144504774Y-77801898D01*
X144582795Y-77990256D01*
X144696063Y-78159774D01*
X144840226Y-78303937D01*
X145009744Y-78417205D01*
X145198102Y-78495226D01*
X145398061Y-78535000D01*
X145601939Y-78535000D01*
X145801898Y-78495226D01*
X145990256Y-78417205D01*
X146159774Y-78303937D01*
X146303937Y-78159774D01*
X146417205Y-77990256D01*
X146495226Y-77801898D01*
X146535000Y-77601939D01*
X146535000Y-77398061D01*
X146495226Y-77198102D01*
X146417205Y-77009744D01*
X146303937Y-76840226D01*
X146159774Y-76696063D01*
X145990256Y-76582795D01*
X145801898Y-76504774D01*
X145601939Y-76465000D01*
X145398061Y-76465000D01*
X145198102Y-76504774D01*
X145009744Y-76582795D01*
X144840226Y-76696063D01*
X144696063Y-76840226D01*
X144582795Y-77009744D01*
X144504774Y-77198102D01*
X144465000Y-77398061D01*
X142035000Y-77398061D01*
X141995226Y-77198102D01*
X141917205Y-77009744D01*
X141803937Y-76840226D01*
X141659774Y-76696063D01*
X141490256Y-76582795D01*
X141301898Y-76504774D01*
X141101939Y-76465000D01*
X140898061Y-76465000D01*
X140698102Y-76504774D01*
X140509744Y-76582795D01*
X140340226Y-76696063D01*
X140196063Y-76840226D01*
X140082795Y-77009744D01*
X140004774Y-77198102D01*
X139965000Y-77398061D01*
X136185000Y-77398061D01*
X136185000Y-74033504D01*
X136197649Y-73904495D01*
X136515000Y-73904495D01*
X136515000Y-74295505D01*
X136591282Y-74679003D01*
X136740915Y-75040250D01*
X136958149Y-75365364D01*
X137234636Y-75641851D01*
X137559750Y-75859085D01*
X137920997Y-76008718D01*
X138304495Y-76085000D01*
X138695505Y-76085000D01*
X139079003Y-76008718D01*
X139346153Y-75898061D01*
X141965000Y-75898061D01*
X141965000Y-76101939D01*
X142004774Y-76301898D01*
X142082795Y-76490256D01*
X142196063Y-76659774D01*
X142340226Y-76803937D01*
X142509744Y-76917205D01*
X142698102Y-76995226D01*
X142898061Y-77035000D01*
X143101939Y-77035000D01*
X143301898Y-76995226D01*
X143490256Y-76917205D01*
X143659774Y-76803937D01*
X143803937Y-76659774D01*
X143917205Y-76490256D01*
X143995226Y-76301898D01*
X144035000Y-76101939D01*
X144035000Y-75898061D01*
X146965000Y-75898061D01*
X146965000Y-76101939D01*
X147004774Y-76301898D01*
X147082795Y-76490256D01*
X147196063Y-76659774D01*
X147340226Y-76803937D01*
X147509744Y-76917205D01*
X147698102Y-76995226D01*
X147898061Y-77035000D01*
X148101939Y-77035000D01*
X148301898Y-76995226D01*
X148490256Y-76917205D01*
X148659774Y-76803937D01*
X148803937Y-76659774D01*
X148917205Y-76490256D01*
X148995226Y-76301898D01*
X149035000Y-76101939D01*
X149035000Y-75898061D01*
X148995226Y-75698102D01*
X148917205Y-75509744D01*
X148803937Y-75340226D01*
X148659774Y-75196063D01*
X148490256Y-75082795D01*
X148301898Y-75004774D01*
X148101939Y-74965000D01*
X147898061Y-74965000D01*
X147698102Y-75004774D01*
X147509744Y-75082795D01*
X147340226Y-75196063D01*
X147196063Y-75340226D01*
X147082795Y-75509744D01*
X147004774Y-75698102D01*
X146965000Y-75898061D01*
X144035000Y-75898061D01*
X143995226Y-75698102D01*
X143917205Y-75509744D01*
X143803937Y-75340226D01*
X143659774Y-75196063D01*
X143490256Y-75082795D01*
X143301898Y-75004774D01*
X143101939Y-74965000D01*
X142898061Y-74965000D01*
X142698102Y-75004774D01*
X142509744Y-75082795D01*
X142340226Y-75196063D01*
X142196063Y-75340226D01*
X142082795Y-75509744D01*
X142004774Y-75698102D01*
X141965000Y-75898061D01*
X139346153Y-75898061D01*
X139440250Y-75859085D01*
X139765364Y-75641851D01*
X140041851Y-75365364D01*
X140259085Y-75040250D01*
X140408718Y-74679003D01*
X140485000Y-74295505D01*
X140485000Y-73904495D01*
X140408718Y-73520997D01*
X140357797Y-73398061D01*
X144465000Y-73398061D01*
X144465000Y-73601939D01*
X144504774Y-73801898D01*
X144582795Y-73990256D01*
X144696063Y-74159774D01*
X144840226Y-74303937D01*
X145009744Y-74417205D01*
X145198102Y-74495226D01*
X145398061Y-74535000D01*
X145601939Y-74535000D01*
X145801898Y-74495226D01*
X145990256Y-74417205D01*
X146159774Y-74303937D01*
X146303937Y-74159774D01*
X146417205Y-73990256D01*
X146495226Y-73801898D01*
X146535000Y-73601939D01*
X146535000Y-73398061D01*
X146495226Y-73198102D01*
X146417205Y-73009744D01*
X146303937Y-72840226D01*
X146159774Y-72696063D01*
X145990256Y-72582795D01*
X145801898Y-72504774D01*
X145601939Y-72465000D01*
X145398061Y-72465000D01*
X145198102Y-72504774D01*
X145009744Y-72582795D01*
X144840226Y-72696063D01*
X144696063Y-72840226D01*
X144582795Y-73009744D01*
X144504774Y-73198102D01*
X144465000Y-73398061D01*
X140357797Y-73398061D01*
X140259085Y-73159750D01*
X140041851Y-72834636D01*
X139765364Y-72558149D01*
X139440250Y-72340915D01*
X139079003Y-72191282D01*
X138695505Y-72115000D01*
X138304495Y-72115000D01*
X137920997Y-72191282D01*
X137559750Y-72340915D01*
X137234636Y-72558149D01*
X136958149Y-72834636D01*
X136740915Y-73159750D01*
X136591282Y-73520997D01*
X136515000Y-73904495D01*
X136197649Y-73904495D01*
X136251356Y-73356752D01*
X136438168Y-72738002D01*
X136741602Y-72167325D01*
X137150104Y-71666452D01*
X137648112Y-71254464D01*
X137965000Y-71083123D01*
X137965000Y-71101939D01*
X138004774Y-71301898D01*
X138082795Y-71490256D01*
X138196063Y-71659774D01*
X138340226Y-71803937D01*
X138509744Y-71917205D01*
X138698102Y-71995226D01*
X138898061Y-72035000D01*
X139101939Y-72035000D01*
X139301898Y-71995226D01*
X139490256Y-71917205D01*
X139659774Y-71803937D01*
X139803937Y-71659774D01*
X139917205Y-71490256D01*
X139995226Y-71301898D01*
X140035000Y-71101939D01*
X140035000Y-70898061D01*
X139995226Y-70698102D01*
X139989799Y-70685000D01*
X142010201Y-70685000D01*
X142004774Y-70698102D01*
M02*
