G04 #@! TF.GenerationSoftware,KiCad,Pcbnew,(5.1.4-0)*
G04 #@! TF.CreationDate,2021-09-04T15:45:49+08:00*
G04 #@! TF.ProjectId,SIM7080,53494d37-3038-4302-9e6b-696361645f70,V1.2*
G04 #@! TF.SameCoordinates,Original*
G04 #@! TF.FileFunction,Soldermask,Top*
G04 #@! TF.FilePolarity,Negative*
%FSLAX46Y46*%
G04 Gerber Fmt 4.6, Leading zero omitted, Abs format (unit mm)*
G04 Created by KiCad (PCBNEW (5.1.4-0)) date 2021-09-04 15:45:49*
%MOMM*%
%LPD*%
G04 APERTURE LIST*
%ADD10C,0.010000*%
%ADD11R,0.800000X0.800000*%
%ADD12R,0.800000X0.500000*%
%ADD13R,1.200000X1.000000*%
%ADD14C,2.700000*%
%ADD15C,0.100000*%
%ADD16C,0.950000*%
%ADD17C,1.500000*%
%ADD18C,1.425000*%
%ADD19C,1.350000*%
%ADD20R,1.000000X1.000000*%
%ADD21R,1.500000X0.400000*%
%ADD22R,2.500000X1.800000*%
%ADD23R,1.050000X2.200000*%
%ADD24R,1.000000X1.050000*%
%ADD25R,2.200000X1.050000*%
%ADD26R,1.050000X1.000000*%
%ADD27O,1.700000X1.000000*%
%ADD28R,1.350000X0.400000*%
%ADD29R,1.600000X1.800000*%
%ADD30C,1.200000*%
%ADD31O,1.750000X1.200000*%
%ADD32R,1.700000X1.700000*%
%ADD33O,1.700000X1.700000*%
%ADD34R,1.900000X0.800000*%
%ADD35R,1.560000X0.650000*%
%ADD36R,0.600000X1.600000*%
%ADD37R,1.600000X0.600000*%
%ADD38R,0.900000X1.100000*%
%ADD39R,1.100000X0.900000*%
%ADD40R,3.100000X2.600000*%
%ADD41R,0.407200X0.909599*%
%ADD42R,4.292600X3.505200*%
%ADD43R,0.450000X1.450000*%
%ADD44R,0.900000X0.800000*%
%ADD45R,0.650000X1.560000*%
G04 APERTURE END LIST*
D10*
G36*
X155150000Y-91400000D02*
G01*
X155150000Y-94200000D01*
X152880000Y-94200000D01*
X151850000Y-93170000D01*
X151850000Y-91400000D01*
X155150000Y-91400000D01*
G37*
X155150000Y-91400000D02*
X155150000Y-94200000D01*
X152880000Y-94200000D01*
X151850000Y-93170000D01*
X151850000Y-91400000D01*
X155150000Y-91400000D01*
D11*
X141080000Y-93300000D03*
D12*
X142320000Y-92800000D03*
X142320000Y-93800000D03*
D11*
X141080000Y-91000000D03*
D12*
X142320000Y-90500000D03*
X142320000Y-91500000D03*
D11*
X137080000Y-108300000D03*
D12*
X138320000Y-107800000D03*
X138320000Y-108800000D03*
D13*
X144300000Y-80800000D03*
X136900000Y-80800000D03*
D14*
X138500000Y-74100000D03*
D15*
G36*
X143585779Y-97926144D02*
G01*
X143608834Y-97929563D01*
X143631443Y-97935227D01*
X143653387Y-97943079D01*
X143674457Y-97953044D01*
X143694448Y-97965026D01*
X143713168Y-97978910D01*
X143730438Y-97994562D01*
X143746090Y-98011832D01*
X143759974Y-98030552D01*
X143771956Y-98050543D01*
X143781921Y-98071613D01*
X143789773Y-98093557D01*
X143795437Y-98116166D01*
X143798856Y-98139221D01*
X143800000Y-98162500D01*
X143800000Y-98637500D01*
X143798856Y-98660779D01*
X143795437Y-98683834D01*
X143789773Y-98706443D01*
X143781921Y-98728387D01*
X143771956Y-98749457D01*
X143759974Y-98769448D01*
X143746090Y-98788168D01*
X143730438Y-98805438D01*
X143713168Y-98821090D01*
X143694448Y-98834974D01*
X143674457Y-98846956D01*
X143653387Y-98856921D01*
X143631443Y-98864773D01*
X143608834Y-98870437D01*
X143585779Y-98873856D01*
X143562500Y-98875000D01*
X142987500Y-98875000D01*
X142964221Y-98873856D01*
X142941166Y-98870437D01*
X142918557Y-98864773D01*
X142896613Y-98856921D01*
X142875543Y-98846956D01*
X142855552Y-98834974D01*
X142836832Y-98821090D01*
X142819562Y-98805438D01*
X142803910Y-98788168D01*
X142790026Y-98769448D01*
X142778044Y-98749457D01*
X142768079Y-98728387D01*
X142760227Y-98706443D01*
X142754563Y-98683834D01*
X142751144Y-98660779D01*
X142750000Y-98637500D01*
X142750000Y-98162500D01*
X142751144Y-98139221D01*
X142754563Y-98116166D01*
X142760227Y-98093557D01*
X142768079Y-98071613D01*
X142778044Y-98050543D01*
X142790026Y-98030552D01*
X142803910Y-98011832D01*
X142819562Y-97994562D01*
X142836832Y-97978910D01*
X142855552Y-97965026D01*
X142875543Y-97953044D01*
X142896613Y-97943079D01*
X142918557Y-97935227D01*
X142941166Y-97929563D01*
X142964221Y-97926144D01*
X142987500Y-97925000D01*
X143562500Y-97925000D01*
X143585779Y-97926144D01*
X143585779Y-97926144D01*
G37*
D16*
X143275000Y-98400000D03*
D15*
G36*
X145335779Y-97926144D02*
G01*
X145358834Y-97929563D01*
X145381443Y-97935227D01*
X145403387Y-97943079D01*
X145424457Y-97953044D01*
X145444448Y-97965026D01*
X145463168Y-97978910D01*
X145480438Y-97994562D01*
X145496090Y-98011832D01*
X145509974Y-98030552D01*
X145521956Y-98050543D01*
X145531921Y-98071613D01*
X145539773Y-98093557D01*
X145545437Y-98116166D01*
X145548856Y-98139221D01*
X145550000Y-98162500D01*
X145550000Y-98637500D01*
X145548856Y-98660779D01*
X145545437Y-98683834D01*
X145539773Y-98706443D01*
X145531921Y-98728387D01*
X145521956Y-98749457D01*
X145509974Y-98769448D01*
X145496090Y-98788168D01*
X145480438Y-98805438D01*
X145463168Y-98821090D01*
X145444448Y-98834974D01*
X145424457Y-98846956D01*
X145403387Y-98856921D01*
X145381443Y-98864773D01*
X145358834Y-98870437D01*
X145335779Y-98873856D01*
X145312500Y-98875000D01*
X144737500Y-98875000D01*
X144714221Y-98873856D01*
X144691166Y-98870437D01*
X144668557Y-98864773D01*
X144646613Y-98856921D01*
X144625543Y-98846956D01*
X144605552Y-98834974D01*
X144586832Y-98821090D01*
X144569562Y-98805438D01*
X144553910Y-98788168D01*
X144540026Y-98769448D01*
X144528044Y-98749457D01*
X144518079Y-98728387D01*
X144510227Y-98706443D01*
X144504563Y-98683834D01*
X144501144Y-98660779D01*
X144500000Y-98637500D01*
X144500000Y-98162500D01*
X144501144Y-98139221D01*
X144504563Y-98116166D01*
X144510227Y-98093557D01*
X144518079Y-98071613D01*
X144528044Y-98050543D01*
X144540026Y-98030552D01*
X144553910Y-98011832D01*
X144569562Y-97994562D01*
X144586832Y-97978910D01*
X144605552Y-97965026D01*
X144625543Y-97953044D01*
X144646613Y-97943079D01*
X144668557Y-97935227D01*
X144691166Y-97929563D01*
X144714221Y-97926144D01*
X144737500Y-97925000D01*
X145312500Y-97925000D01*
X145335779Y-97926144D01*
X145335779Y-97926144D01*
G37*
D16*
X145025000Y-98400000D03*
D15*
G36*
X154085779Y-74626144D02*
G01*
X154108834Y-74629563D01*
X154131443Y-74635227D01*
X154153387Y-74643079D01*
X154174457Y-74653044D01*
X154194448Y-74665026D01*
X154213168Y-74678910D01*
X154230438Y-74694562D01*
X154246090Y-74711832D01*
X154259974Y-74730552D01*
X154271956Y-74750543D01*
X154281921Y-74771613D01*
X154289773Y-74793557D01*
X154295437Y-74816166D01*
X154298856Y-74839221D01*
X154300000Y-74862500D01*
X154300000Y-75337500D01*
X154298856Y-75360779D01*
X154295437Y-75383834D01*
X154289773Y-75406443D01*
X154281921Y-75428387D01*
X154271956Y-75449457D01*
X154259974Y-75469448D01*
X154246090Y-75488168D01*
X154230438Y-75505438D01*
X154213168Y-75521090D01*
X154194448Y-75534974D01*
X154174457Y-75546956D01*
X154153387Y-75556921D01*
X154131443Y-75564773D01*
X154108834Y-75570437D01*
X154085779Y-75573856D01*
X154062500Y-75575000D01*
X153487500Y-75575000D01*
X153464221Y-75573856D01*
X153441166Y-75570437D01*
X153418557Y-75564773D01*
X153396613Y-75556921D01*
X153375543Y-75546956D01*
X153355552Y-75534974D01*
X153336832Y-75521090D01*
X153319562Y-75505438D01*
X153303910Y-75488168D01*
X153290026Y-75469448D01*
X153278044Y-75449457D01*
X153268079Y-75428387D01*
X153260227Y-75406443D01*
X153254563Y-75383834D01*
X153251144Y-75360779D01*
X153250000Y-75337500D01*
X153250000Y-74862500D01*
X153251144Y-74839221D01*
X153254563Y-74816166D01*
X153260227Y-74793557D01*
X153268079Y-74771613D01*
X153278044Y-74750543D01*
X153290026Y-74730552D01*
X153303910Y-74711832D01*
X153319562Y-74694562D01*
X153336832Y-74678910D01*
X153355552Y-74665026D01*
X153375543Y-74653044D01*
X153396613Y-74643079D01*
X153418557Y-74635227D01*
X153441166Y-74629563D01*
X153464221Y-74626144D01*
X153487500Y-74625000D01*
X154062500Y-74625000D01*
X154085779Y-74626144D01*
X154085779Y-74626144D01*
G37*
D16*
X153775000Y-75100000D03*
D15*
G36*
X152335779Y-74626144D02*
G01*
X152358834Y-74629563D01*
X152381443Y-74635227D01*
X152403387Y-74643079D01*
X152424457Y-74653044D01*
X152444448Y-74665026D01*
X152463168Y-74678910D01*
X152480438Y-74694562D01*
X152496090Y-74711832D01*
X152509974Y-74730552D01*
X152521956Y-74750543D01*
X152531921Y-74771613D01*
X152539773Y-74793557D01*
X152545437Y-74816166D01*
X152548856Y-74839221D01*
X152550000Y-74862500D01*
X152550000Y-75337500D01*
X152548856Y-75360779D01*
X152545437Y-75383834D01*
X152539773Y-75406443D01*
X152531921Y-75428387D01*
X152521956Y-75449457D01*
X152509974Y-75469448D01*
X152496090Y-75488168D01*
X152480438Y-75505438D01*
X152463168Y-75521090D01*
X152444448Y-75534974D01*
X152424457Y-75546956D01*
X152403387Y-75556921D01*
X152381443Y-75564773D01*
X152358834Y-75570437D01*
X152335779Y-75573856D01*
X152312500Y-75575000D01*
X151737500Y-75575000D01*
X151714221Y-75573856D01*
X151691166Y-75570437D01*
X151668557Y-75564773D01*
X151646613Y-75556921D01*
X151625543Y-75546956D01*
X151605552Y-75534974D01*
X151586832Y-75521090D01*
X151569562Y-75505438D01*
X151553910Y-75488168D01*
X151540026Y-75469448D01*
X151528044Y-75449457D01*
X151518079Y-75428387D01*
X151510227Y-75406443D01*
X151504563Y-75383834D01*
X151501144Y-75360779D01*
X151500000Y-75337500D01*
X151500000Y-74862500D01*
X151501144Y-74839221D01*
X151504563Y-74816166D01*
X151510227Y-74793557D01*
X151518079Y-74771613D01*
X151528044Y-74750543D01*
X151540026Y-74730552D01*
X151553910Y-74711832D01*
X151569562Y-74694562D01*
X151586832Y-74678910D01*
X151605552Y-74665026D01*
X151625543Y-74653044D01*
X151646613Y-74643079D01*
X151668557Y-74635227D01*
X151691166Y-74629563D01*
X151714221Y-74626144D01*
X151737500Y-74625000D01*
X152312500Y-74625000D01*
X152335779Y-74626144D01*
X152335779Y-74626144D01*
G37*
D16*
X152025000Y-75100000D03*
D15*
G36*
X152335779Y-79426144D02*
G01*
X152358834Y-79429563D01*
X152381443Y-79435227D01*
X152403387Y-79443079D01*
X152424457Y-79453044D01*
X152444448Y-79465026D01*
X152463168Y-79478910D01*
X152480438Y-79494562D01*
X152496090Y-79511832D01*
X152509974Y-79530552D01*
X152521956Y-79550543D01*
X152531921Y-79571613D01*
X152539773Y-79593557D01*
X152545437Y-79616166D01*
X152548856Y-79639221D01*
X152550000Y-79662500D01*
X152550000Y-80137500D01*
X152548856Y-80160779D01*
X152545437Y-80183834D01*
X152539773Y-80206443D01*
X152531921Y-80228387D01*
X152521956Y-80249457D01*
X152509974Y-80269448D01*
X152496090Y-80288168D01*
X152480438Y-80305438D01*
X152463168Y-80321090D01*
X152444448Y-80334974D01*
X152424457Y-80346956D01*
X152403387Y-80356921D01*
X152381443Y-80364773D01*
X152358834Y-80370437D01*
X152335779Y-80373856D01*
X152312500Y-80375000D01*
X151737500Y-80375000D01*
X151714221Y-80373856D01*
X151691166Y-80370437D01*
X151668557Y-80364773D01*
X151646613Y-80356921D01*
X151625543Y-80346956D01*
X151605552Y-80334974D01*
X151586832Y-80321090D01*
X151569562Y-80305438D01*
X151553910Y-80288168D01*
X151540026Y-80269448D01*
X151528044Y-80249457D01*
X151518079Y-80228387D01*
X151510227Y-80206443D01*
X151504563Y-80183834D01*
X151501144Y-80160779D01*
X151500000Y-80137500D01*
X151500000Y-79662500D01*
X151501144Y-79639221D01*
X151504563Y-79616166D01*
X151510227Y-79593557D01*
X151518079Y-79571613D01*
X151528044Y-79550543D01*
X151540026Y-79530552D01*
X151553910Y-79511832D01*
X151569562Y-79494562D01*
X151586832Y-79478910D01*
X151605552Y-79465026D01*
X151625543Y-79453044D01*
X151646613Y-79443079D01*
X151668557Y-79435227D01*
X151691166Y-79429563D01*
X151714221Y-79426144D01*
X151737500Y-79425000D01*
X152312500Y-79425000D01*
X152335779Y-79426144D01*
X152335779Y-79426144D01*
G37*
D16*
X152025000Y-79900000D03*
D15*
G36*
X154085779Y-79426144D02*
G01*
X154108834Y-79429563D01*
X154131443Y-79435227D01*
X154153387Y-79443079D01*
X154174457Y-79453044D01*
X154194448Y-79465026D01*
X154213168Y-79478910D01*
X154230438Y-79494562D01*
X154246090Y-79511832D01*
X154259974Y-79530552D01*
X154271956Y-79550543D01*
X154281921Y-79571613D01*
X154289773Y-79593557D01*
X154295437Y-79616166D01*
X154298856Y-79639221D01*
X154300000Y-79662500D01*
X154300000Y-80137500D01*
X154298856Y-80160779D01*
X154295437Y-80183834D01*
X154289773Y-80206443D01*
X154281921Y-80228387D01*
X154271956Y-80249457D01*
X154259974Y-80269448D01*
X154246090Y-80288168D01*
X154230438Y-80305438D01*
X154213168Y-80321090D01*
X154194448Y-80334974D01*
X154174457Y-80346956D01*
X154153387Y-80356921D01*
X154131443Y-80364773D01*
X154108834Y-80370437D01*
X154085779Y-80373856D01*
X154062500Y-80375000D01*
X153487500Y-80375000D01*
X153464221Y-80373856D01*
X153441166Y-80370437D01*
X153418557Y-80364773D01*
X153396613Y-80356921D01*
X153375543Y-80346956D01*
X153355552Y-80334974D01*
X153336832Y-80321090D01*
X153319562Y-80305438D01*
X153303910Y-80288168D01*
X153290026Y-80269448D01*
X153278044Y-80249457D01*
X153268079Y-80228387D01*
X153260227Y-80206443D01*
X153254563Y-80183834D01*
X153251144Y-80160779D01*
X153250000Y-80137500D01*
X153250000Y-79662500D01*
X153251144Y-79639221D01*
X153254563Y-79616166D01*
X153260227Y-79593557D01*
X153268079Y-79571613D01*
X153278044Y-79550543D01*
X153290026Y-79530552D01*
X153303910Y-79511832D01*
X153319562Y-79494562D01*
X153336832Y-79478910D01*
X153355552Y-79465026D01*
X153375543Y-79453044D01*
X153396613Y-79443079D01*
X153418557Y-79435227D01*
X153441166Y-79429563D01*
X153464221Y-79426144D01*
X153487500Y-79425000D01*
X154062500Y-79425000D01*
X154085779Y-79426144D01*
X154085779Y-79426144D01*
G37*
D16*
X153775000Y-79900000D03*
D15*
G36*
X138949504Y-83426204D02*
G01*
X138973773Y-83429804D01*
X138997571Y-83435765D01*
X139020671Y-83444030D01*
X139042849Y-83454520D01*
X139063893Y-83467133D01*
X139083598Y-83481747D01*
X139101777Y-83498223D01*
X139118253Y-83516402D01*
X139132867Y-83536107D01*
X139145480Y-83557151D01*
X139155970Y-83579329D01*
X139164235Y-83602429D01*
X139170196Y-83626227D01*
X139173796Y-83650496D01*
X139175000Y-83675000D01*
X139175000Y-84675000D01*
X139173796Y-84699504D01*
X139170196Y-84723773D01*
X139164235Y-84747571D01*
X139155970Y-84770671D01*
X139145480Y-84792849D01*
X139132867Y-84813893D01*
X139118253Y-84833598D01*
X139101777Y-84851777D01*
X139083598Y-84868253D01*
X139063893Y-84882867D01*
X139042849Y-84895480D01*
X139020671Y-84905970D01*
X138997571Y-84914235D01*
X138973773Y-84920196D01*
X138949504Y-84923796D01*
X138925000Y-84925000D01*
X137075000Y-84925000D01*
X137050496Y-84923796D01*
X137026227Y-84920196D01*
X137002429Y-84914235D01*
X136979329Y-84905970D01*
X136957151Y-84895480D01*
X136936107Y-84882867D01*
X136916402Y-84868253D01*
X136898223Y-84851777D01*
X136881747Y-84833598D01*
X136867133Y-84813893D01*
X136854520Y-84792849D01*
X136844030Y-84770671D01*
X136835765Y-84747571D01*
X136829804Y-84723773D01*
X136826204Y-84699504D01*
X136825000Y-84675000D01*
X136825000Y-83675000D01*
X136826204Y-83650496D01*
X136829804Y-83626227D01*
X136835765Y-83602429D01*
X136844030Y-83579329D01*
X136854520Y-83557151D01*
X136867133Y-83536107D01*
X136881747Y-83516402D01*
X136898223Y-83498223D01*
X136916402Y-83481747D01*
X136936107Y-83467133D01*
X136957151Y-83454520D01*
X136979329Y-83444030D01*
X137002429Y-83435765D01*
X137026227Y-83429804D01*
X137050496Y-83426204D01*
X137075000Y-83425000D01*
X138925000Y-83425000D01*
X138949504Y-83426204D01*
X138949504Y-83426204D01*
G37*
D17*
X138000000Y-84175000D03*
D15*
G36*
X138949504Y-86676204D02*
G01*
X138973773Y-86679804D01*
X138997571Y-86685765D01*
X139020671Y-86694030D01*
X139042849Y-86704520D01*
X139063893Y-86717133D01*
X139083598Y-86731747D01*
X139101777Y-86748223D01*
X139118253Y-86766402D01*
X139132867Y-86786107D01*
X139145480Y-86807151D01*
X139155970Y-86829329D01*
X139164235Y-86852429D01*
X139170196Y-86876227D01*
X139173796Y-86900496D01*
X139175000Y-86925000D01*
X139175000Y-87925000D01*
X139173796Y-87949504D01*
X139170196Y-87973773D01*
X139164235Y-87997571D01*
X139155970Y-88020671D01*
X139145480Y-88042849D01*
X139132867Y-88063893D01*
X139118253Y-88083598D01*
X139101777Y-88101777D01*
X139083598Y-88118253D01*
X139063893Y-88132867D01*
X139042849Y-88145480D01*
X139020671Y-88155970D01*
X138997571Y-88164235D01*
X138973773Y-88170196D01*
X138949504Y-88173796D01*
X138925000Y-88175000D01*
X137075000Y-88175000D01*
X137050496Y-88173796D01*
X137026227Y-88170196D01*
X137002429Y-88164235D01*
X136979329Y-88155970D01*
X136957151Y-88145480D01*
X136936107Y-88132867D01*
X136916402Y-88118253D01*
X136898223Y-88101777D01*
X136881747Y-88083598D01*
X136867133Y-88063893D01*
X136854520Y-88042849D01*
X136844030Y-88020671D01*
X136835765Y-87997571D01*
X136829804Y-87973773D01*
X136826204Y-87949504D01*
X136825000Y-87925000D01*
X136825000Y-86925000D01*
X136826204Y-86900496D01*
X136829804Y-86876227D01*
X136835765Y-86852429D01*
X136844030Y-86829329D01*
X136854520Y-86807151D01*
X136867133Y-86786107D01*
X136881747Y-86766402D01*
X136898223Y-86748223D01*
X136916402Y-86731747D01*
X136936107Y-86717133D01*
X136957151Y-86704520D01*
X136979329Y-86694030D01*
X137002429Y-86685765D01*
X137026227Y-86679804D01*
X137050496Y-86676204D01*
X137075000Y-86675000D01*
X138925000Y-86675000D01*
X138949504Y-86676204D01*
X138949504Y-86676204D01*
G37*
D17*
X138000000Y-87425000D03*
D15*
G36*
X141649504Y-83601204D02*
G01*
X141673773Y-83604804D01*
X141697571Y-83610765D01*
X141720671Y-83619030D01*
X141742849Y-83629520D01*
X141763893Y-83642133D01*
X141783598Y-83656747D01*
X141801777Y-83673223D01*
X141818253Y-83691402D01*
X141832867Y-83711107D01*
X141845480Y-83732151D01*
X141855970Y-83754329D01*
X141864235Y-83777429D01*
X141870196Y-83801227D01*
X141873796Y-83825496D01*
X141875000Y-83850000D01*
X141875000Y-84775000D01*
X141873796Y-84799504D01*
X141870196Y-84823773D01*
X141864235Y-84847571D01*
X141855970Y-84870671D01*
X141845480Y-84892849D01*
X141832867Y-84913893D01*
X141818253Y-84933598D01*
X141801777Y-84951777D01*
X141783598Y-84968253D01*
X141763893Y-84982867D01*
X141742849Y-84995480D01*
X141720671Y-85005970D01*
X141697571Y-85014235D01*
X141673773Y-85020196D01*
X141649504Y-85023796D01*
X141625000Y-85025000D01*
X140375000Y-85025000D01*
X140350496Y-85023796D01*
X140326227Y-85020196D01*
X140302429Y-85014235D01*
X140279329Y-85005970D01*
X140257151Y-84995480D01*
X140236107Y-84982867D01*
X140216402Y-84968253D01*
X140198223Y-84951777D01*
X140181747Y-84933598D01*
X140167133Y-84913893D01*
X140154520Y-84892849D01*
X140144030Y-84870671D01*
X140135765Y-84847571D01*
X140129804Y-84823773D01*
X140126204Y-84799504D01*
X140125000Y-84775000D01*
X140125000Y-83850000D01*
X140126204Y-83825496D01*
X140129804Y-83801227D01*
X140135765Y-83777429D01*
X140144030Y-83754329D01*
X140154520Y-83732151D01*
X140167133Y-83711107D01*
X140181747Y-83691402D01*
X140198223Y-83673223D01*
X140216402Y-83656747D01*
X140236107Y-83642133D01*
X140257151Y-83629520D01*
X140279329Y-83619030D01*
X140302429Y-83610765D01*
X140326227Y-83604804D01*
X140350496Y-83601204D01*
X140375000Y-83600000D01*
X141625000Y-83600000D01*
X141649504Y-83601204D01*
X141649504Y-83601204D01*
G37*
D18*
X141000000Y-84312500D03*
D15*
G36*
X141649504Y-86576204D02*
G01*
X141673773Y-86579804D01*
X141697571Y-86585765D01*
X141720671Y-86594030D01*
X141742849Y-86604520D01*
X141763893Y-86617133D01*
X141783598Y-86631747D01*
X141801777Y-86648223D01*
X141818253Y-86666402D01*
X141832867Y-86686107D01*
X141845480Y-86707151D01*
X141855970Y-86729329D01*
X141864235Y-86752429D01*
X141870196Y-86776227D01*
X141873796Y-86800496D01*
X141875000Y-86825000D01*
X141875000Y-87750000D01*
X141873796Y-87774504D01*
X141870196Y-87798773D01*
X141864235Y-87822571D01*
X141855970Y-87845671D01*
X141845480Y-87867849D01*
X141832867Y-87888893D01*
X141818253Y-87908598D01*
X141801777Y-87926777D01*
X141783598Y-87943253D01*
X141763893Y-87957867D01*
X141742849Y-87970480D01*
X141720671Y-87980970D01*
X141697571Y-87989235D01*
X141673773Y-87995196D01*
X141649504Y-87998796D01*
X141625000Y-88000000D01*
X140375000Y-88000000D01*
X140350496Y-87998796D01*
X140326227Y-87995196D01*
X140302429Y-87989235D01*
X140279329Y-87980970D01*
X140257151Y-87970480D01*
X140236107Y-87957867D01*
X140216402Y-87943253D01*
X140198223Y-87926777D01*
X140181747Y-87908598D01*
X140167133Y-87888893D01*
X140154520Y-87867849D01*
X140144030Y-87845671D01*
X140135765Y-87822571D01*
X140129804Y-87798773D01*
X140126204Y-87774504D01*
X140125000Y-87750000D01*
X140125000Y-86825000D01*
X140126204Y-86800496D01*
X140129804Y-86776227D01*
X140135765Y-86752429D01*
X140144030Y-86729329D01*
X140154520Y-86707151D01*
X140167133Y-86686107D01*
X140181747Y-86666402D01*
X140198223Y-86648223D01*
X140216402Y-86631747D01*
X140236107Y-86617133D01*
X140257151Y-86604520D01*
X140279329Y-86594030D01*
X140302429Y-86585765D01*
X140326227Y-86579804D01*
X140350496Y-86576204D01*
X140375000Y-86575000D01*
X141625000Y-86575000D01*
X141649504Y-86576204D01*
X141649504Y-86576204D01*
G37*
D18*
X141000000Y-87287500D03*
D15*
G36*
X145285779Y-83826144D02*
G01*
X145308834Y-83829563D01*
X145331443Y-83835227D01*
X145353387Y-83843079D01*
X145374457Y-83853044D01*
X145394448Y-83865026D01*
X145413168Y-83878910D01*
X145430438Y-83894562D01*
X145446090Y-83911832D01*
X145459974Y-83930552D01*
X145471956Y-83950543D01*
X145481921Y-83971613D01*
X145489773Y-83993557D01*
X145495437Y-84016166D01*
X145498856Y-84039221D01*
X145500000Y-84062500D01*
X145500000Y-84537500D01*
X145498856Y-84560779D01*
X145495437Y-84583834D01*
X145489773Y-84606443D01*
X145481921Y-84628387D01*
X145471956Y-84649457D01*
X145459974Y-84669448D01*
X145446090Y-84688168D01*
X145430438Y-84705438D01*
X145413168Y-84721090D01*
X145394448Y-84734974D01*
X145374457Y-84746956D01*
X145353387Y-84756921D01*
X145331443Y-84764773D01*
X145308834Y-84770437D01*
X145285779Y-84773856D01*
X145262500Y-84775000D01*
X144687500Y-84775000D01*
X144664221Y-84773856D01*
X144641166Y-84770437D01*
X144618557Y-84764773D01*
X144596613Y-84756921D01*
X144575543Y-84746956D01*
X144555552Y-84734974D01*
X144536832Y-84721090D01*
X144519562Y-84705438D01*
X144503910Y-84688168D01*
X144490026Y-84669448D01*
X144478044Y-84649457D01*
X144468079Y-84628387D01*
X144460227Y-84606443D01*
X144454563Y-84583834D01*
X144451144Y-84560779D01*
X144450000Y-84537500D01*
X144450000Y-84062500D01*
X144451144Y-84039221D01*
X144454563Y-84016166D01*
X144460227Y-83993557D01*
X144468079Y-83971613D01*
X144478044Y-83950543D01*
X144490026Y-83930552D01*
X144503910Y-83911832D01*
X144519562Y-83894562D01*
X144536832Y-83878910D01*
X144555552Y-83865026D01*
X144575543Y-83853044D01*
X144596613Y-83843079D01*
X144618557Y-83835227D01*
X144641166Y-83829563D01*
X144664221Y-83826144D01*
X144687500Y-83825000D01*
X145262500Y-83825000D01*
X145285779Y-83826144D01*
X145285779Y-83826144D01*
G37*
D16*
X144975000Y-84300000D03*
D15*
G36*
X143535779Y-83826144D02*
G01*
X143558834Y-83829563D01*
X143581443Y-83835227D01*
X143603387Y-83843079D01*
X143624457Y-83853044D01*
X143644448Y-83865026D01*
X143663168Y-83878910D01*
X143680438Y-83894562D01*
X143696090Y-83911832D01*
X143709974Y-83930552D01*
X143721956Y-83950543D01*
X143731921Y-83971613D01*
X143739773Y-83993557D01*
X143745437Y-84016166D01*
X143748856Y-84039221D01*
X143750000Y-84062500D01*
X143750000Y-84537500D01*
X143748856Y-84560779D01*
X143745437Y-84583834D01*
X143739773Y-84606443D01*
X143731921Y-84628387D01*
X143721956Y-84649457D01*
X143709974Y-84669448D01*
X143696090Y-84688168D01*
X143680438Y-84705438D01*
X143663168Y-84721090D01*
X143644448Y-84734974D01*
X143624457Y-84746956D01*
X143603387Y-84756921D01*
X143581443Y-84764773D01*
X143558834Y-84770437D01*
X143535779Y-84773856D01*
X143512500Y-84775000D01*
X142937500Y-84775000D01*
X142914221Y-84773856D01*
X142891166Y-84770437D01*
X142868557Y-84764773D01*
X142846613Y-84756921D01*
X142825543Y-84746956D01*
X142805552Y-84734974D01*
X142786832Y-84721090D01*
X142769562Y-84705438D01*
X142753910Y-84688168D01*
X142740026Y-84669448D01*
X142728044Y-84649457D01*
X142718079Y-84628387D01*
X142710227Y-84606443D01*
X142704563Y-84583834D01*
X142701144Y-84560779D01*
X142700000Y-84537500D01*
X142700000Y-84062500D01*
X142701144Y-84039221D01*
X142704563Y-84016166D01*
X142710227Y-83993557D01*
X142718079Y-83971613D01*
X142728044Y-83950543D01*
X142740026Y-83930552D01*
X142753910Y-83911832D01*
X142769562Y-83894562D01*
X142786832Y-83878910D01*
X142805552Y-83865026D01*
X142825543Y-83853044D01*
X142846613Y-83843079D01*
X142868557Y-83835227D01*
X142891166Y-83829563D01*
X142914221Y-83826144D01*
X142937500Y-83825000D01*
X143512500Y-83825000D01*
X143535779Y-83826144D01*
X143535779Y-83826144D01*
G37*
D16*
X143225000Y-84300000D03*
D15*
G36*
X145285779Y-85376144D02*
G01*
X145308834Y-85379563D01*
X145331443Y-85385227D01*
X145353387Y-85393079D01*
X145374457Y-85403044D01*
X145394448Y-85415026D01*
X145413168Y-85428910D01*
X145430438Y-85444562D01*
X145446090Y-85461832D01*
X145459974Y-85480552D01*
X145471956Y-85500543D01*
X145481921Y-85521613D01*
X145489773Y-85543557D01*
X145495437Y-85566166D01*
X145498856Y-85589221D01*
X145500000Y-85612500D01*
X145500000Y-86087500D01*
X145498856Y-86110779D01*
X145495437Y-86133834D01*
X145489773Y-86156443D01*
X145481921Y-86178387D01*
X145471956Y-86199457D01*
X145459974Y-86219448D01*
X145446090Y-86238168D01*
X145430438Y-86255438D01*
X145413168Y-86271090D01*
X145394448Y-86284974D01*
X145374457Y-86296956D01*
X145353387Y-86306921D01*
X145331443Y-86314773D01*
X145308834Y-86320437D01*
X145285779Y-86323856D01*
X145262500Y-86325000D01*
X144687500Y-86325000D01*
X144664221Y-86323856D01*
X144641166Y-86320437D01*
X144618557Y-86314773D01*
X144596613Y-86306921D01*
X144575543Y-86296956D01*
X144555552Y-86284974D01*
X144536832Y-86271090D01*
X144519562Y-86255438D01*
X144503910Y-86238168D01*
X144490026Y-86219448D01*
X144478044Y-86199457D01*
X144468079Y-86178387D01*
X144460227Y-86156443D01*
X144454563Y-86133834D01*
X144451144Y-86110779D01*
X144450000Y-86087500D01*
X144450000Y-85612500D01*
X144451144Y-85589221D01*
X144454563Y-85566166D01*
X144460227Y-85543557D01*
X144468079Y-85521613D01*
X144478044Y-85500543D01*
X144490026Y-85480552D01*
X144503910Y-85461832D01*
X144519562Y-85444562D01*
X144536832Y-85428910D01*
X144555552Y-85415026D01*
X144575543Y-85403044D01*
X144596613Y-85393079D01*
X144618557Y-85385227D01*
X144641166Y-85379563D01*
X144664221Y-85376144D01*
X144687500Y-85375000D01*
X145262500Y-85375000D01*
X145285779Y-85376144D01*
X145285779Y-85376144D01*
G37*
D16*
X144975000Y-85850000D03*
D15*
G36*
X143535779Y-85376144D02*
G01*
X143558834Y-85379563D01*
X143581443Y-85385227D01*
X143603387Y-85393079D01*
X143624457Y-85403044D01*
X143644448Y-85415026D01*
X143663168Y-85428910D01*
X143680438Y-85444562D01*
X143696090Y-85461832D01*
X143709974Y-85480552D01*
X143721956Y-85500543D01*
X143731921Y-85521613D01*
X143739773Y-85543557D01*
X143745437Y-85566166D01*
X143748856Y-85589221D01*
X143750000Y-85612500D01*
X143750000Y-86087500D01*
X143748856Y-86110779D01*
X143745437Y-86133834D01*
X143739773Y-86156443D01*
X143731921Y-86178387D01*
X143721956Y-86199457D01*
X143709974Y-86219448D01*
X143696090Y-86238168D01*
X143680438Y-86255438D01*
X143663168Y-86271090D01*
X143644448Y-86284974D01*
X143624457Y-86296956D01*
X143603387Y-86306921D01*
X143581443Y-86314773D01*
X143558834Y-86320437D01*
X143535779Y-86323856D01*
X143512500Y-86325000D01*
X142937500Y-86325000D01*
X142914221Y-86323856D01*
X142891166Y-86320437D01*
X142868557Y-86314773D01*
X142846613Y-86306921D01*
X142825543Y-86296956D01*
X142805552Y-86284974D01*
X142786832Y-86271090D01*
X142769562Y-86255438D01*
X142753910Y-86238168D01*
X142740026Y-86219448D01*
X142728044Y-86199457D01*
X142718079Y-86178387D01*
X142710227Y-86156443D01*
X142704563Y-86133834D01*
X142701144Y-86110779D01*
X142700000Y-86087500D01*
X142700000Y-85612500D01*
X142701144Y-85589221D01*
X142704563Y-85566166D01*
X142710227Y-85543557D01*
X142718079Y-85521613D01*
X142728044Y-85500543D01*
X142740026Y-85480552D01*
X142753910Y-85461832D01*
X142769562Y-85444562D01*
X142786832Y-85428910D01*
X142805552Y-85415026D01*
X142825543Y-85403044D01*
X142846613Y-85393079D01*
X142868557Y-85385227D01*
X142891166Y-85379563D01*
X142914221Y-85376144D01*
X142937500Y-85375000D01*
X143512500Y-85375000D01*
X143535779Y-85376144D01*
X143535779Y-85376144D01*
G37*
D16*
X143225000Y-85850000D03*
D15*
G36*
X165685779Y-75526144D02*
G01*
X165708834Y-75529563D01*
X165731443Y-75535227D01*
X165753387Y-75543079D01*
X165774457Y-75553044D01*
X165794448Y-75565026D01*
X165813168Y-75578910D01*
X165830438Y-75594562D01*
X165846090Y-75611832D01*
X165859974Y-75630552D01*
X165871956Y-75650543D01*
X165881921Y-75671613D01*
X165889773Y-75693557D01*
X165895437Y-75716166D01*
X165898856Y-75739221D01*
X165900000Y-75762500D01*
X165900000Y-76237500D01*
X165898856Y-76260779D01*
X165895437Y-76283834D01*
X165889773Y-76306443D01*
X165881921Y-76328387D01*
X165871956Y-76349457D01*
X165859974Y-76369448D01*
X165846090Y-76388168D01*
X165830438Y-76405438D01*
X165813168Y-76421090D01*
X165794448Y-76434974D01*
X165774457Y-76446956D01*
X165753387Y-76456921D01*
X165731443Y-76464773D01*
X165708834Y-76470437D01*
X165685779Y-76473856D01*
X165662500Y-76475000D01*
X165087500Y-76475000D01*
X165064221Y-76473856D01*
X165041166Y-76470437D01*
X165018557Y-76464773D01*
X164996613Y-76456921D01*
X164975543Y-76446956D01*
X164955552Y-76434974D01*
X164936832Y-76421090D01*
X164919562Y-76405438D01*
X164903910Y-76388168D01*
X164890026Y-76369448D01*
X164878044Y-76349457D01*
X164868079Y-76328387D01*
X164860227Y-76306443D01*
X164854563Y-76283834D01*
X164851144Y-76260779D01*
X164850000Y-76237500D01*
X164850000Y-75762500D01*
X164851144Y-75739221D01*
X164854563Y-75716166D01*
X164860227Y-75693557D01*
X164868079Y-75671613D01*
X164878044Y-75650543D01*
X164890026Y-75630552D01*
X164903910Y-75611832D01*
X164919562Y-75594562D01*
X164936832Y-75578910D01*
X164955552Y-75565026D01*
X164975543Y-75553044D01*
X164996613Y-75543079D01*
X165018557Y-75535227D01*
X165041166Y-75529563D01*
X165064221Y-75526144D01*
X165087500Y-75525000D01*
X165662500Y-75525000D01*
X165685779Y-75526144D01*
X165685779Y-75526144D01*
G37*
D16*
X165375000Y-76000000D03*
D15*
G36*
X163935779Y-75526144D02*
G01*
X163958834Y-75529563D01*
X163981443Y-75535227D01*
X164003387Y-75543079D01*
X164024457Y-75553044D01*
X164044448Y-75565026D01*
X164063168Y-75578910D01*
X164080438Y-75594562D01*
X164096090Y-75611832D01*
X164109974Y-75630552D01*
X164121956Y-75650543D01*
X164131921Y-75671613D01*
X164139773Y-75693557D01*
X164145437Y-75716166D01*
X164148856Y-75739221D01*
X164150000Y-75762500D01*
X164150000Y-76237500D01*
X164148856Y-76260779D01*
X164145437Y-76283834D01*
X164139773Y-76306443D01*
X164131921Y-76328387D01*
X164121956Y-76349457D01*
X164109974Y-76369448D01*
X164096090Y-76388168D01*
X164080438Y-76405438D01*
X164063168Y-76421090D01*
X164044448Y-76434974D01*
X164024457Y-76446956D01*
X164003387Y-76456921D01*
X163981443Y-76464773D01*
X163958834Y-76470437D01*
X163935779Y-76473856D01*
X163912500Y-76475000D01*
X163337500Y-76475000D01*
X163314221Y-76473856D01*
X163291166Y-76470437D01*
X163268557Y-76464773D01*
X163246613Y-76456921D01*
X163225543Y-76446956D01*
X163205552Y-76434974D01*
X163186832Y-76421090D01*
X163169562Y-76405438D01*
X163153910Y-76388168D01*
X163140026Y-76369448D01*
X163128044Y-76349457D01*
X163118079Y-76328387D01*
X163110227Y-76306443D01*
X163104563Y-76283834D01*
X163101144Y-76260779D01*
X163100000Y-76237500D01*
X163100000Y-75762500D01*
X163101144Y-75739221D01*
X163104563Y-75716166D01*
X163110227Y-75693557D01*
X163118079Y-75671613D01*
X163128044Y-75650543D01*
X163140026Y-75630552D01*
X163153910Y-75611832D01*
X163169562Y-75594562D01*
X163186832Y-75578910D01*
X163205552Y-75565026D01*
X163225543Y-75553044D01*
X163246613Y-75543079D01*
X163268557Y-75535227D01*
X163291166Y-75529563D01*
X163314221Y-75526144D01*
X163337500Y-75525000D01*
X163912500Y-75525000D01*
X163935779Y-75526144D01*
X163935779Y-75526144D01*
G37*
D16*
X163625000Y-76000000D03*
D15*
G36*
X141935779Y-108326144D02*
G01*
X141958834Y-108329563D01*
X141981443Y-108335227D01*
X142003387Y-108343079D01*
X142024457Y-108353044D01*
X142044448Y-108365026D01*
X142063168Y-108378910D01*
X142080438Y-108394562D01*
X142096090Y-108411832D01*
X142109974Y-108430552D01*
X142121956Y-108450543D01*
X142131921Y-108471613D01*
X142139773Y-108493557D01*
X142145437Y-108516166D01*
X142148856Y-108539221D01*
X142150000Y-108562500D01*
X142150000Y-109037500D01*
X142148856Y-109060779D01*
X142145437Y-109083834D01*
X142139773Y-109106443D01*
X142131921Y-109128387D01*
X142121956Y-109149457D01*
X142109974Y-109169448D01*
X142096090Y-109188168D01*
X142080438Y-109205438D01*
X142063168Y-109221090D01*
X142044448Y-109234974D01*
X142024457Y-109246956D01*
X142003387Y-109256921D01*
X141981443Y-109264773D01*
X141958834Y-109270437D01*
X141935779Y-109273856D01*
X141912500Y-109275000D01*
X141337500Y-109275000D01*
X141314221Y-109273856D01*
X141291166Y-109270437D01*
X141268557Y-109264773D01*
X141246613Y-109256921D01*
X141225543Y-109246956D01*
X141205552Y-109234974D01*
X141186832Y-109221090D01*
X141169562Y-109205438D01*
X141153910Y-109188168D01*
X141140026Y-109169448D01*
X141128044Y-109149457D01*
X141118079Y-109128387D01*
X141110227Y-109106443D01*
X141104563Y-109083834D01*
X141101144Y-109060779D01*
X141100000Y-109037500D01*
X141100000Y-108562500D01*
X141101144Y-108539221D01*
X141104563Y-108516166D01*
X141110227Y-108493557D01*
X141118079Y-108471613D01*
X141128044Y-108450543D01*
X141140026Y-108430552D01*
X141153910Y-108411832D01*
X141169562Y-108394562D01*
X141186832Y-108378910D01*
X141205552Y-108365026D01*
X141225543Y-108353044D01*
X141246613Y-108343079D01*
X141268557Y-108335227D01*
X141291166Y-108329563D01*
X141314221Y-108326144D01*
X141337500Y-108325000D01*
X141912500Y-108325000D01*
X141935779Y-108326144D01*
X141935779Y-108326144D01*
G37*
D16*
X141625000Y-108800000D03*
D15*
G36*
X143685779Y-108326144D02*
G01*
X143708834Y-108329563D01*
X143731443Y-108335227D01*
X143753387Y-108343079D01*
X143774457Y-108353044D01*
X143794448Y-108365026D01*
X143813168Y-108378910D01*
X143830438Y-108394562D01*
X143846090Y-108411832D01*
X143859974Y-108430552D01*
X143871956Y-108450543D01*
X143881921Y-108471613D01*
X143889773Y-108493557D01*
X143895437Y-108516166D01*
X143898856Y-108539221D01*
X143900000Y-108562500D01*
X143900000Y-109037500D01*
X143898856Y-109060779D01*
X143895437Y-109083834D01*
X143889773Y-109106443D01*
X143881921Y-109128387D01*
X143871956Y-109149457D01*
X143859974Y-109169448D01*
X143846090Y-109188168D01*
X143830438Y-109205438D01*
X143813168Y-109221090D01*
X143794448Y-109234974D01*
X143774457Y-109246956D01*
X143753387Y-109256921D01*
X143731443Y-109264773D01*
X143708834Y-109270437D01*
X143685779Y-109273856D01*
X143662500Y-109275000D01*
X143087500Y-109275000D01*
X143064221Y-109273856D01*
X143041166Y-109270437D01*
X143018557Y-109264773D01*
X142996613Y-109256921D01*
X142975543Y-109246956D01*
X142955552Y-109234974D01*
X142936832Y-109221090D01*
X142919562Y-109205438D01*
X142903910Y-109188168D01*
X142890026Y-109169448D01*
X142878044Y-109149457D01*
X142868079Y-109128387D01*
X142860227Y-109106443D01*
X142854563Y-109083834D01*
X142851144Y-109060779D01*
X142850000Y-109037500D01*
X142850000Y-108562500D01*
X142851144Y-108539221D01*
X142854563Y-108516166D01*
X142860227Y-108493557D01*
X142868079Y-108471613D01*
X142878044Y-108450543D01*
X142890026Y-108430552D01*
X142903910Y-108411832D01*
X142919562Y-108394562D01*
X142936832Y-108378910D01*
X142955552Y-108365026D01*
X142975543Y-108353044D01*
X142996613Y-108343079D01*
X143018557Y-108335227D01*
X143041166Y-108329563D01*
X143064221Y-108326144D01*
X143087500Y-108325000D01*
X143662500Y-108325000D01*
X143685779Y-108326144D01*
X143685779Y-108326144D01*
G37*
D16*
X143375000Y-108800000D03*
D15*
G36*
X157935779Y-103126144D02*
G01*
X157958834Y-103129563D01*
X157981443Y-103135227D01*
X158003387Y-103143079D01*
X158024457Y-103153044D01*
X158044448Y-103165026D01*
X158063168Y-103178910D01*
X158080438Y-103194562D01*
X158096090Y-103211832D01*
X158109974Y-103230552D01*
X158121956Y-103250543D01*
X158131921Y-103271613D01*
X158139773Y-103293557D01*
X158145437Y-103316166D01*
X158148856Y-103339221D01*
X158150000Y-103362500D01*
X158150000Y-103837500D01*
X158148856Y-103860779D01*
X158145437Y-103883834D01*
X158139773Y-103906443D01*
X158131921Y-103928387D01*
X158121956Y-103949457D01*
X158109974Y-103969448D01*
X158096090Y-103988168D01*
X158080438Y-104005438D01*
X158063168Y-104021090D01*
X158044448Y-104034974D01*
X158024457Y-104046956D01*
X158003387Y-104056921D01*
X157981443Y-104064773D01*
X157958834Y-104070437D01*
X157935779Y-104073856D01*
X157912500Y-104075000D01*
X157337500Y-104075000D01*
X157314221Y-104073856D01*
X157291166Y-104070437D01*
X157268557Y-104064773D01*
X157246613Y-104056921D01*
X157225543Y-104046956D01*
X157205552Y-104034974D01*
X157186832Y-104021090D01*
X157169562Y-104005438D01*
X157153910Y-103988168D01*
X157140026Y-103969448D01*
X157128044Y-103949457D01*
X157118079Y-103928387D01*
X157110227Y-103906443D01*
X157104563Y-103883834D01*
X157101144Y-103860779D01*
X157100000Y-103837500D01*
X157100000Y-103362500D01*
X157101144Y-103339221D01*
X157104563Y-103316166D01*
X157110227Y-103293557D01*
X157118079Y-103271613D01*
X157128044Y-103250543D01*
X157140026Y-103230552D01*
X157153910Y-103211832D01*
X157169562Y-103194562D01*
X157186832Y-103178910D01*
X157205552Y-103165026D01*
X157225543Y-103153044D01*
X157246613Y-103143079D01*
X157268557Y-103135227D01*
X157291166Y-103129563D01*
X157314221Y-103126144D01*
X157337500Y-103125000D01*
X157912500Y-103125000D01*
X157935779Y-103126144D01*
X157935779Y-103126144D01*
G37*
D16*
X157625000Y-103600000D03*
D15*
G36*
X159685779Y-103126144D02*
G01*
X159708834Y-103129563D01*
X159731443Y-103135227D01*
X159753387Y-103143079D01*
X159774457Y-103153044D01*
X159794448Y-103165026D01*
X159813168Y-103178910D01*
X159830438Y-103194562D01*
X159846090Y-103211832D01*
X159859974Y-103230552D01*
X159871956Y-103250543D01*
X159881921Y-103271613D01*
X159889773Y-103293557D01*
X159895437Y-103316166D01*
X159898856Y-103339221D01*
X159900000Y-103362500D01*
X159900000Y-103837500D01*
X159898856Y-103860779D01*
X159895437Y-103883834D01*
X159889773Y-103906443D01*
X159881921Y-103928387D01*
X159871956Y-103949457D01*
X159859974Y-103969448D01*
X159846090Y-103988168D01*
X159830438Y-104005438D01*
X159813168Y-104021090D01*
X159794448Y-104034974D01*
X159774457Y-104046956D01*
X159753387Y-104056921D01*
X159731443Y-104064773D01*
X159708834Y-104070437D01*
X159685779Y-104073856D01*
X159662500Y-104075000D01*
X159087500Y-104075000D01*
X159064221Y-104073856D01*
X159041166Y-104070437D01*
X159018557Y-104064773D01*
X158996613Y-104056921D01*
X158975543Y-104046956D01*
X158955552Y-104034974D01*
X158936832Y-104021090D01*
X158919562Y-104005438D01*
X158903910Y-103988168D01*
X158890026Y-103969448D01*
X158878044Y-103949457D01*
X158868079Y-103928387D01*
X158860227Y-103906443D01*
X158854563Y-103883834D01*
X158851144Y-103860779D01*
X158850000Y-103837500D01*
X158850000Y-103362500D01*
X158851144Y-103339221D01*
X158854563Y-103316166D01*
X158860227Y-103293557D01*
X158868079Y-103271613D01*
X158878044Y-103250543D01*
X158890026Y-103230552D01*
X158903910Y-103211832D01*
X158919562Y-103194562D01*
X158936832Y-103178910D01*
X158955552Y-103165026D01*
X158975543Y-103153044D01*
X158996613Y-103143079D01*
X159018557Y-103135227D01*
X159041166Y-103129563D01*
X159064221Y-103126144D01*
X159087500Y-103125000D01*
X159662500Y-103125000D01*
X159685779Y-103126144D01*
X159685779Y-103126144D01*
G37*
D16*
X159375000Y-103600000D03*
D15*
G36*
X157935779Y-101526144D02*
G01*
X157958834Y-101529563D01*
X157981443Y-101535227D01*
X158003387Y-101543079D01*
X158024457Y-101553044D01*
X158044448Y-101565026D01*
X158063168Y-101578910D01*
X158080438Y-101594562D01*
X158096090Y-101611832D01*
X158109974Y-101630552D01*
X158121956Y-101650543D01*
X158131921Y-101671613D01*
X158139773Y-101693557D01*
X158145437Y-101716166D01*
X158148856Y-101739221D01*
X158150000Y-101762500D01*
X158150000Y-102237500D01*
X158148856Y-102260779D01*
X158145437Y-102283834D01*
X158139773Y-102306443D01*
X158131921Y-102328387D01*
X158121956Y-102349457D01*
X158109974Y-102369448D01*
X158096090Y-102388168D01*
X158080438Y-102405438D01*
X158063168Y-102421090D01*
X158044448Y-102434974D01*
X158024457Y-102446956D01*
X158003387Y-102456921D01*
X157981443Y-102464773D01*
X157958834Y-102470437D01*
X157935779Y-102473856D01*
X157912500Y-102475000D01*
X157337500Y-102475000D01*
X157314221Y-102473856D01*
X157291166Y-102470437D01*
X157268557Y-102464773D01*
X157246613Y-102456921D01*
X157225543Y-102446956D01*
X157205552Y-102434974D01*
X157186832Y-102421090D01*
X157169562Y-102405438D01*
X157153910Y-102388168D01*
X157140026Y-102369448D01*
X157128044Y-102349457D01*
X157118079Y-102328387D01*
X157110227Y-102306443D01*
X157104563Y-102283834D01*
X157101144Y-102260779D01*
X157100000Y-102237500D01*
X157100000Y-101762500D01*
X157101144Y-101739221D01*
X157104563Y-101716166D01*
X157110227Y-101693557D01*
X157118079Y-101671613D01*
X157128044Y-101650543D01*
X157140026Y-101630552D01*
X157153910Y-101611832D01*
X157169562Y-101594562D01*
X157186832Y-101578910D01*
X157205552Y-101565026D01*
X157225543Y-101553044D01*
X157246613Y-101543079D01*
X157268557Y-101535227D01*
X157291166Y-101529563D01*
X157314221Y-101526144D01*
X157337500Y-101525000D01*
X157912500Y-101525000D01*
X157935779Y-101526144D01*
X157935779Y-101526144D01*
G37*
D16*
X157625000Y-102000000D03*
D15*
G36*
X159685779Y-101526144D02*
G01*
X159708834Y-101529563D01*
X159731443Y-101535227D01*
X159753387Y-101543079D01*
X159774457Y-101553044D01*
X159794448Y-101565026D01*
X159813168Y-101578910D01*
X159830438Y-101594562D01*
X159846090Y-101611832D01*
X159859974Y-101630552D01*
X159871956Y-101650543D01*
X159881921Y-101671613D01*
X159889773Y-101693557D01*
X159895437Y-101716166D01*
X159898856Y-101739221D01*
X159900000Y-101762500D01*
X159900000Y-102237500D01*
X159898856Y-102260779D01*
X159895437Y-102283834D01*
X159889773Y-102306443D01*
X159881921Y-102328387D01*
X159871956Y-102349457D01*
X159859974Y-102369448D01*
X159846090Y-102388168D01*
X159830438Y-102405438D01*
X159813168Y-102421090D01*
X159794448Y-102434974D01*
X159774457Y-102446956D01*
X159753387Y-102456921D01*
X159731443Y-102464773D01*
X159708834Y-102470437D01*
X159685779Y-102473856D01*
X159662500Y-102475000D01*
X159087500Y-102475000D01*
X159064221Y-102473856D01*
X159041166Y-102470437D01*
X159018557Y-102464773D01*
X158996613Y-102456921D01*
X158975543Y-102446956D01*
X158955552Y-102434974D01*
X158936832Y-102421090D01*
X158919562Y-102405438D01*
X158903910Y-102388168D01*
X158890026Y-102369448D01*
X158878044Y-102349457D01*
X158868079Y-102328387D01*
X158860227Y-102306443D01*
X158854563Y-102283834D01*
X158851144Y-102260779D01*
X158850000Y-102237500D01*
X158850000Y-101762500D01*
X158851144Y-101739221D01*
X158854563Y-101716166D01*
X158860227Y-101693557D01*
X158868079Y-101671613D01*
X158878044Y-101650543D01*
X158890026Y-101630552D01*
X158903910Y-101611832D01*
X158919562Y-101594562D01*
X158936832Y-101578910D01*
X158955552Y-101565026D01*
X158975543Y-101553044D01*
X158996613Y-101543079D01*
X159018557Y-101535227D01*
X159041166Y-101529563D01*
X159064221Y-101526144D01*
X159087500Y-101525000D01*
X159662500Y-101525000D01*
X159685779Y-101526144D01*
X159685779Y-101526144D01*
G37*
D16*
X159375000Y-102000000D03*
D15*
G36*
X164649504Y-102876204D02*
G01*
X164673773Y-102879804D01*
X164697571Y-102885765D01*
X164720671Y-102894030D01*
X164742849Y-102904520D01*
X164763893Y-102917133D01*
X164783598Y-102931747D01*
X164801777Y-102948223D01*
X164818253Y-102966402D01*
X164832867Y-102986107D01*
X164845480Y-103007151D01*
X164855970Y-103029329D01*
X164864235Y-103052429D01*
X164870196Y-103076227D01*
X164873796Y-103100496D01*
X164875000Y-103125000D01*
X164875000Y-104125000D01*
X164873796Y-104149504D01*
X164870196Y-104173773D01*
X164864235Y-104197571D01*
X164855970Y-104220671D01*
X164845480Y-104242849D01*
X164832867Y-104263893D01*
X164818253Y-104283598D01*
X164801777Y-104301777D01*
X164783598Y-104318253D01*
X164763893Y-104332867D01*
X164742849Y-104345480D01*
X164720671Y-104355970D01*
X164697571Y-104364235D01*
X164673773Y-104370196D01*
X164649504Y-104373796D01*
X164625000Y-104375000D01*
X162775000Y-104375000D01*
X162750496Y-104373796D01*
X162726227Y-104370196D01*
X162702429Y-104364235D01*
X162679329Y-104355970D01*
X162657151Y-104345480D01*
X162636107Y-104332867D01*
X162616402Y-104318253D01*
X162598223Y-104301777D01*
X162581747Y-104283598D01*
X162567133Y-104263893D01*
X162554520Y-104242849D01*
X162544030Y-104220671D01*
X162535765Y-104197571D01*
X162529804Y-104173773D01*
X162526204Y-104149504D01*
X162525000Y-104125000D01*
X162525000Y-103125000D01*
X162526204Y-103100496D01*
X162529804Y-103076227D01*
X162535765Y-103052429D01*
X162544030Y-103029329D01*
X162554520Y-103007151D01*
X162567133Y-102986107D01*
X162581747Y-102966402D01*
X162598223Y-102948223D01*
X162616402Y-102931747D01*
X162636107Y-102917133D01*
X162657151Y-102904520D01*
X162679329Y-102894030D01*
X162702429Y-102885765D01*
X162726227Y-102879804D01*
X162750496Y-102876204D01*
X162775000Y-102875000D01*
X164625000Y-102875000D01*
X164649504Y-102876204D01*
X164649504Y-102876204D01*
G37*
D17*
X163700000Y-103625000D03*
D15*
G36*
X164649504Y-99626204D02*
G01*
X164673773Y-99629804D01*
X164697571Y-99635765D01*
X164720671Y-99644030D01*
X164742849Y-99654520D01*
X164763893Y-99667133D01*
X164783598Y-99681747D01*
X164801777Y-99698223D01*
X164818253Y-99716402D01*
X164832867Y-99736107D01*
X164845480Y-99757151D01*
X164855970Y-99779329D01*
X164864235Y-99802429D01*
X164870196Y-99826227D01*
X164873796Y-99850496D01*
X164875000Y-99875000D01*
X164875000Y-100875000D01*
X164873796Y-100899504D01*
X164870196Y-100923773D01*
X164864235Y-100947571D01*
X164855970Y-100970671D01*
X164845480Y-100992849D01*
X164832867Y-101013893D01*
X164818253Y-101033598D01*
X164801777Y-101051777D01*
X164783598Y-101068253D01*
X164763893Y-101082867D01*
X164742849Y-101095480D01*
X164720671Y-101105970D01*
X164697571Y-101114235D01*
X164673773Y-101120196D01*
X164649504Y-101123796D01*
X164625000Y-101125000D01*
X162775000Y-101125000D01*
X162750496Y-101123796D01*
X162726227Y-101120196D01*
X162702429Y-101114235D01*
X162679329Y-101105970D01*
X162657151Y-101095480D01*
X162636107Y-101082867D01*
X162616402Y-101068253D01*
X162598223Y-101051777D01*
X162581747Y-101033598D01*
X162567133Y-101013893D01*
X162554520Y-100992849D01*
X162544030Y-100970671D01*
X162535765Y-100947571D01*
X162529804Y-100923773D01*
X162526204Y-100899504D01*
X162525000Y-100875000D01*
X162525000Y-99875000D01*
X162526204Y-99850496D01*
X162529804Y-99826227D01*
X162535765Y-99802429D01*
X162544030Y-99779329D01*
X162554520Y-99757151D01*
X162567133Y-99736107D01*
X162581747Y-99716402D01*
X162598223Y-99698223D01*
X162616402Y-99681747D01*
X162636107Y-99667133D01*
X162657151Y-99654520D01*
X162679329Y-99644030D01*
X162702429Y-99635765D01*
X162726227Y-99629804D01*
X162750496Y-99626204D01*
X162775000Y-99625000D01*
X164625000Y-99625000D01*
X164649504Y-99626204D01*
X164649504Y-99626204D01*
G37*
D17*
X163700000Y-100375000D03*
D15*
G36*
X161360779Y-99701144D02*
G01*
X161383834Y-99704563D01*
X161406443Y-99710227D01*
X161428387Y-99718079D01*
X161449457Y-99728044D01*
X161469448Y-99740026D01*
X161488168Y-99753910D01*
X161505438Y-99769562D01*
X161521090Y-99786832D01*
X161534974Y-99805552D01*
X161546956Y-99825543D01*
X161556921Y-99846613D01*
X161564773Y-99868557D01*
X161570437Y-99891166D01*
X161573856Y-99914221D01*
X161575000Y-99937500D01*
X161575000Y-100512500D01*
X161573856Y-100535779D01*
X161570437Y-100558834D01*
X161564773Y-100581443D01*
X161556921Y-100603387D01*
X161546956Y-100624457D01*
X161534974Y-100644448D01*
X161521090Y-100663168D01*
X161505438Y-100680438D01*
X161488168Y-100696090D01*
X161469448Y-100709974D01*
X161449457Y-100721956D01*
X161428387Y-100731921D01*
X161406443Y-100739773D01*
X161383834Y-100745437D01*
X161360779Y-100748856D01*
X161337500Y-100750000D01*
X160862500Y-100750000D01*
X160839221Y-100748856D01*
X160816166Y-100745437D01*
X160793557Y-100739773D01*
X160771613Y-100731921D01*
X160750543Y-100721956D01*
X160730552Y-100709974D01*
X160711832Y-100696090D01*
X160694562Y-100680438D01*
X160678910Y-100663168D01*
X160665026Y-100644448D01*
X160653044Y-100624457D01*
X160643079Y-100603387D01*
X160635227Y-100581443D01*
X160629563Y-100558834D01*
X160626144Y-100535779D01*
X160625000Y-100512500D01*
X160625000Y-99937500D01*
X160626144Y-99914221D01*
X160629563Y-99891166D01*
X160635227Y-99868557D01*
X160643079Y-99846613D01*
X160653044Y-99825543D01*
X160665026Y-99805552D01*
X160678910Y-99786832D01*
X160694562Y-99769562D01*
X160711832Y-99753910D01*
X160730552Y-99740026D01*
X160750543Y-99728044D01*
X160771613Y-99718079D01*
X160793557Y-99710227D01*
X160816166Y-99704563D01*
X160839221Y-99701144D01*
X160862500Y-99700000D01*
X161337500Y-99700000D01*
X161360779Y-99701144D01*
X161360779Y-99701144D01*
G37*
D16*
X161100000Y-100225000D03*
D15*
G36*
X161360779Y-101451144D02*
G01*
X161383834Y-101454563D01*
X161406443Y-101460227D01*
X161428387Y-101468079D01*
X161449457Y-101478044D01*
X161469448Y-101490026D01*
X161488168Y-101503910D01*
X161505438Y-101519562D01*
X161521090Y-101536832D01*
X161534974Y-101555552D01*
X161546956Y-101575543D01*
X161556921Y-101596613D01*
X161564773Y-101618557D01*
X161570437Y-101641166D01*
X161573856Y-101664221D01*
X161575000Y-101687500D01*
X161575000Y-102262500D01*
X161573856Y-102285779D01*
X161570437Y-102308834D01*
X161564773Y-102331443D01*
X161556921Y-102353387D01*
X161546956Y-102374457D01*
X161534974Y-102394448D01*
X161521090Y-102413168D01*
X161505438Y-102430438D01*
X161488168Y-102446090D01*
X161469448Y-102459974D01*
X161449457Y-102471956D01*
X161428387Y-102481921D01*
X161406443Y-102489773D01*
X161383834Y-102495437D01*
X161360779Y-102498856D01*
X161337500Y-102500000D01*
X160862500Y-102500000D01*
X160839221Y-102498856D01*
X160816166Y-102495437D01*
X160793557Y-102489773D01*
X160771613Y-102481921D01*
X160750543Y-102471956D01*
X160730552Y-102459974D01*
X160711832Y-102446090D01*
X160694562Y-102430438D01*
X160678910Y-102413168D01*
X160665026Y-102394448D01*
X160653044Y-102374457D01*
X160643079Y-102353387D01*
X160635227Y-102331443D01*
X160629563Y-102308834D01*
X160626144Y-102285779D01*
X160625000Y-102262500D01*
X160625000Y-101687500D01*
X160626144Y-101664221D01*
X160629563Y-101641166D01*
X160635227Y-101618557D01*
X160643079Y-101596613D01*
X160653044Y-101575543D01*
X160665026Y-101555552D01*
X160678910Y-101536832D01*
X160694562Y-101519562D01*
X160711832Y-101503910D01*
X160730552Y-101490026D01*
X160750543Y-101478044D01*
X160771613Y-101468079D01*
X160793557Y-101460227D01*
X160816166Y-101454563D01*
X160839221Y-101451144D01*
X160862500Y-101450000D01*
X161337500Y-101450000D01*
X161360779Y-101451144D01*
X161360779Y-101451144D01*
G37*
D16*
X161100000Y-101975000D03*
D15*
G36*
X160149505Y-107851204D02*
G01*
X160173773Y-107854804D01*
X160197572Y-107860765D01*
X160220671Y-107869030D01*
X160242850Y-107879520D01*
X160263893Y-107892132D01*
X160283599Y-107906747D01*
X160301777Y-107923223D01*
X160318253Y-107941401D01*
X160332868Y-107961107D01*
X160345480Y-107982150D01*
X160355970Y-108004329D01*
X160364235Y-108027428D01*
X160370196Y-108051227D01*
X160373796Y-108075495D01*
X160375000Y-108099999D01*
X160375000Y-109175001D01*
X160373796Y-109199505D01*
X160370196Y-109223773D01*
X160364235Y-109247572D01*
X160355970Y-109270671D01*
X160345480Y-109292850D01*
X160332868Y-109313893D01*
X160318253Y-109333599D01*
X160301777Y-109351777D01*
X160283599Y-109368253D01*
X160263893Y-109382868D01*
X160242850Y-109395480D01*
X160220671Y-109405970D01*
X160197572Y-109414235D01*
X160173773Y-109420196D01*
X160149505Y-109423796D01*
X160125001Y-109425000D01*
X159274999Y-109425000D01*
X159250495Y-109423796D01*
X159226227Y-109420196D01*
X159202428Y-109414235D01*
X159179329Y-109405970D01*
X159157150Y-109395480D01*
X159136107Y-109382868D01*
X159116401Y-109368253D01*
X159098223Y-109351777D01*
X159081747Y-109333599D01*
X159067132Y-109313893D01*
X159054520Y-109292850D01*
X159044030Y-109270671D01*
X159035765Y-109247572D01*
X159029804Y-109223773D01*
X159026204Y-109199505D01*
X159025000Y-109175001D01*
X159025000Y-108099999D01*
X159026204Y-108075495D01*
X159029804Y-108051227D01*
X159035765Y-108027428D01*
X159044030Y-108004329D01*
X159054520Y-107982150D01*
X159067132Y-107961107D01*
X159081747Y-107941401D01*
X159098223Y-107923223D01*
X159116401Y-107906747D01*
X159136107Y-107892132D01*
X159157150Y-107879520D01*
X159179329Y-107869030D01*
X159202428Y-107860765D01*
X159226227Y-107854804D01*
X159250495Y-107851204D01*
X159274999Y-107850000D01*
X160125001Y-107850000D01*
X160149505Y-107851204D01*
X160149505Y-107851204D01*
G37*
D19*
X159700000Y-108637500D03*
D15*
G36*
X160149505Y-104976204D02*
G01*
X160173773Y-104979804D01*
X160197572Y-104985765D01*
X160220671Y-104994030D01*
X160242850Y-105004520D01*
X160263893Y-105017132D01*
X160283599Y-105031747D01*
X160301777Y-105048223D01*
X160318253Y-105066401D01*
X160332868Y-105086107D01*
X160345480Y-105107150D01*
X160355970Y-105129329D01*
X160364235Y-105152428D01*
X160370196Y-105176227D01*
X160373796Y-105200495D01*
X160375000Y-105224999D01*
X160375000Y-106300001D01*
X160373796Y-106324505D01*
X160370196Y-106348773D01*
X160364235Y-106372572D01*
X160355970Y-106395671D01*
X160345480Y-106417850D01*
X160332868Y-106438893D01*
X160318253Y-106458599D01*
X160301777Y-106476777D01*
X160283599Y-106493253D01*
X160263893Y-106507868D01*
X160242850Y-106520480D01*
X160220671Y-106530970D01*
X160197572Y-106539235D01*
X160173773Y-106545196D01*
X160149505Y-106548796D01*
X160125001Y-106550000D01*
X159274999Y-106550000D01*
X159250495Y-106548796D01*
X159226227Y-106545196D01*
X159202428Y-106539235D01*
X159179329Y-106530970D01*
X159157150Y-106520480D01*
X159136107Y-106507868D01*
X159116401Y-106493253D01*
X159098223Y-106476777D01*
X159081747Y-106458599D01*
X159067132Y-106438893D01*
X159054520Y-106417850D01*
X159044030Y-106395671D01*
X159035765Y-106372572D01*
X159029804Y-106348773D01*
X159026204Y-106324505D01*
X159025000Y-106300001D01*
X159025000Y-105224999D01*
X159026204Y-105200495D01*
X159029804Y-105176227D01*
X159035765Y-105152428D01*
X159044030Y-105129329D01*
X159054520Y-105107150D01*
X159067132Y-105086107D01*
X159081747Y-105066401D01*
X159098223Y-105048223D01*
X159116401Y-105031747D01*
X159136107Y-105017132D01*
X159157150Y-105004520D01*
X159179329Y-104994030D01*
X159202428Y-104985765D01*
X159226227Y-104979804D01*
X159250495Y-104976204D01*
X159274999Y-104975000D01*
X160125001Y-104975000D01*
X160149505Y-104976204D01*
X160149505Y-104976204D01*
G37*
D19*
X159700000Y-105762500D03*
D15*
G36*
X157860779Y-106751144D02*
G01*
X157883834Y-106754563D01*
X157906443Y-106760227D01*
X157928387Y-106768079D01*
X157949457Y-106778044D01*
X157969448Y-106790026D01*
X157988168Y-106803910D01*
X158005438Y-106819562D01*
X158021090Y-106836832D01*
X158034974Y-106855552D01*
X158046956Y-106875543D01*
X158056921Y-106896613D01*
X158064773Y-106918557D01*
X158070437Y-106941166D01*
X158073856Y-106964221D01*
X158075000Y-106987500D01*
X158075000Y-107562500D01*
X158073856Y-107585779D01*
X158070437Y-107608834D01*
X158064773Y-107631443D01*
X158056921Y-107653387D01*
X158046956Y-107674457D01*
X158034974Y-107694448D01*
X158021090Y-107713168D01*
X158005438Y-107730438D01*
X157988168Y-107746090D01*
X157969448Y-107759974D01*
X157949457Y-107771956D01*
X157928387Y-107781921D01*
X157906443Y-107789773D01*
X157883834Y-107795437D01*
X157860779Y-107798856D01*
X157837500Y-107800000D01*
X157362500Y-107800000D01*
X157339221Y-107798856D01*
X157316166Y-107795437D01*
X157293557Y-107789773D01*
X157271613Y-107781921D01*
X157250543Y-107771956D01*
X157230552Y-107759974D01*
X157211832Y-107746090D01*
X157194562Y-107730438D01*
X157178910Y-107713168D01*
X157165026Y-107694448D01*
X157153044Y-107674457D01*
X157143079Y-107653387D01*
X157135227Y-107631443D01*
X157129563Y-107608834D01*
X157126144Y-107585779D01*
X157125000Y-107562500D01*
X157125000Y-106987500D01*
X157126144Y-106964221D01*
X157129563Y-106941166D01*
X157135227Y-106918557D01*
X157143079Y-106896613D01*
X157153044Y-106875543D01*
X157165026Y-106855552D01*
X157178910Y-106836832D01*
X157194562Y-106819562D01*
X157211832Y-106803910D01*
X157230552Y-106790026D01*
X157250543Y-106778044D01*
X157271613Y-106768079D01*
X157293557Y-106760227D01*
X157316166Y-106754563D01*
X157339221Y-106751144D01*
X157362500Y-106750000D01*
X157837500Y-106750000D01*
X157860779Y-106751144D01*
X157860779Y-106751144D01*
G37*
D16*
X157600000Y-107275000D03*
D15*
G36*
X157860779Y-105001144D02*
G01*
X157883834Y-105004563D01*
X157906443Y-105010227D01*
X157928387Y-105018079D01*
X157949457Y-105028044D01*
X157969448Y-105040026D01*
X157988168Y-105053910D01*
X158005438Y-105069562D01*
X158021090Y-105086832D01*
X158034974Y-105105552D01*
X158046956Y-105125543D01*
X158056921Y-105146613D01*
X158064773Y-105168557D01*
X158070437Y-105191166D01*
X158073856Y-105214221D01*
X158075000Y-105237500D01*
X158075000Y-105812500D01*
X158073856Y-105835779D01*
X158070437Y-105858834D01*
X158064773Y-105881443D01*
X158056921Y-105903387D01*
X158046956Y-105924457D01*
X158034974Y-105944448D01*
X158021090Y-105963168D01*
X158005438Y-105980438D01*
X157988168Y-105996090D01*
X157969448Y-106009974D01*
X157949457Y-106021956D01*
X157928387Y-106031921D01*
X157906443Y-106039773D01*
X157883834Y-106045437D01*
X157860779Y-106048856D01*
X157837500Y-106050000D01*
X157362500Y-106050000D01*
X157339221Y-106048856D01*
X157316166Y-106045437D01*
X157293557Y-106039773D01*
X157271613Y-106031921D01*
X157250543Y-106021956D01*
X157230552Y-106009974D01*
X157211832Y-105996090D01*
X157194562Y-105980438D01*
X157178910Y-105963168D01*
X157165026Y-105944448D01*
X157153044Y-105924457D01*
X157143079Y-105903387D01*
X157135227Y-105881443D01*
X157129563Y-105858834D01*
X157126144Y-105835779D01*
X157125000Y-105812500D01*
X157125000Y-105237500D01*
X157126144Y-105214221D01*
X157129563Y-105191166D01*
X157135227Y-105168557D01*
X157143079Y-105146613D01*
X157153044Y-105125543D01*
X157165026Y-105105552D01*
X157178910Y-105086832D01*
X157194562Y-105069562D01*
X157211832Y-105053910D01*
X157230552Y-105040026D01*
X157250543Y-105028044D01*
X157271613Y-105018079D01*
X157293557Y-105010227D01*
X157316166Y-105004563D01*
X157339221Y-105001144D01*
X157362500Y-105000000D01*
X157837500Y-105000000D01*
X157860779Y-105001144D01*
X157860779Y-105001144D01*
G37*
D16*
X157600000Y-105525000D03*
D15*
G36*
X172885779Y-83826144D02*
G01*
X172908834Y-83829563D01*
X172931443Y-83835227D01*
X172953387Y-83843079D01*
X172974457Y-83853044D01*
X172994448Y-83865026D01*
X173013168Y-83878910D01*
X173030438Y-83894562D01*
X173046090Y-83911832D01*
X173059974Y-83930552D01*
X173071956Y-83950543D01*
X173081921Y-83971613D01*
X173089773Y-83993557D01*
X173095437Y-84016166D01*
X173098856Y-84039221D01*
X173100000Y-84062500D01*
X173100000Y-84537500D01*
X173098856Y-84560779D01*
X173095437Y-84583834D01*
X173089773Y-84606443D01*
X173081921Y-84628387D01*
X173071956Y-84649457D01*
X173059974Y-84669448D01*
X173046090Y-84688168D01*
X173030438Y-84705438D01*
X173013168Y-84721090D01*
X172994448Y-84734974D01*
X172974457Y-84746956D01*
X172953387Y-84756921D01*
X172931443Y-84764773D01*
X172908834Y-84770437D01*
X172885779Y-84773856D01*
X172862500Y-84775000D01*
X172287500Y-84775000D01*
X172264221Y-84773856D01*
X172241166Y-84770437D01*
X172218557Y-84764773D01*
X172196613Y-84756921D01*
X172175543Y-84746956D01*
X172155552Y-84734974D01*
X172136832Y-84721090D01*
X172119562Y-84705438D01*
X172103910Y-84688168D01*
X172090026Y-84669448D01*
X172078044Y-84649457D01*
X172068079Y-84628387D01*
X172060227Y-84606443D01*
X172054563Y-84583834D01*
X172051144Y-84560779D01*
X172050000Y-84537500D01*
X172050000Y-84062500D01*
X172051144Y-84039221D01*
X172054563Y-84016166D01*
X172060227Y-83993557D01*
X172068079Y-83971613D01*
X172078044Y-83950543D01*
X172090026Y-83930552D01*
X172103910Y-83911832D01*
X172119562Y-83894562D01*
X172136832Y-83878910D01*
X172155552Y-83865026D01*
X172175543Y-83853044D01*
X172196613Y-83843079D01*
X172218557Y-83835227D01*
X172241166Y-83829563D01*
X172264221Y-83826144D01*
X172287500Y-83825000D01*
X172862500Y-83825000D01*
X172885779Y-83826144D01*
X172885779Y-83826144D01*
G37*
D16*
X172575000Y-84300000D03*
D15*
G36*
X171135779Y-83826144D02*
G01*
X171158834Y-83829563D01*
X171181443Y-83835227D01*
X171203387Y-83843079D01*
X171224457Y-83853044D01*
X171244448Y-83865026D01*
X171263168Y-83878910D01*
X171280438Y-83894562D01*
X171296090Y-83911832D01*
X171309974Y-83930552D01*
X171321956Y-83950543D01*
X171331921Y-83971613D01*
X171339773Y-83993557D01*
X171345437Y-84016166D01*
X171348856Y-84039221D01*
X171350000Y-84062500D01*
X171350000Y-84537500D01*
X171348856Y-84560779D01*
X171345437Y-84583834D01*
X171339773Y-84606443D01*
X171331921Y-84628387D01*
X171321956Y-84649457D01*
X171309974Y-84669448D01*
X171296090Y-84688168D01*
X171280438Y-84705438D01*
X171263168Y-84721090D01*
X171244448Y-84734974D01*
X171224457Y-84746956D01*
X171203387Y-84756921D01*
X171181443Y-84764773D01*
X171158834Y-84770437D01*
X171135779Y-84773856D01*
X171112500Y-84775000D01*
X170537500Y-84775000D01*
X170514221Y-84773856D01*
X170491166Y-84770437D01*
X170468557Y-84764773D01*
X170446613Y-84756921D01*
X170425543Y-84746956D01*
X170405552Y-84734974D01*
X170386832Y-84721090D01*
X170369562Y-84705438D01*
X170353910Y-84688168D01*
X170340026Y-84669448D01*
X170328044Y-84649457D01*
X170318079Y-84628387D01*
X170310227Y-84606443D01*
X170304563Y-84583834D01*
X170301144Y-84560779D01*
X170300000Y-84537500D01*
X170300000Y-84062500D01*
X170301144Y-84039221D01*
X170304563Y-84016166D01*
X170310227Y-83993557D01*
X170318079Y-83971613D01*
X170328044Y-83950543D01*
X170340026Y-83930552D01*
X170353910Y-83911832D01*
X170369562Y-83894562D01*
X170386832Y-83878910D01*
X170405552Y-83865026D01*
X170425543Y-83853044D01*
X170446613Y-83843079D01*
X170468557Y-83835227D01*
X170491166Y-83829563D01*
X170514221Y-83826144D01*
X170537500Y-83825000D01*
X171112500Y-83825000D01*
X171135779Y-83826144D01*
X171135779Y-83826144D01*
G37*
D16*
X170825000Y-84300000D03*
D15*
G36*
X162135779Y-108826144D02*
G01*
X162158834Y-108829563D01*
X162181443Y-108835227D01*
X162203387Y-108843079D01*
X162224457Y-108853044D01*
X162244448Y-108865026D01*
X162263168Y-108878910D01*
X162280438Y-108894562D01*
X162296090Y-108911832D01*
X162309974Y-108930552D01*
X162321956Y-108950543D01*
X162331921Y-108971613D01*
X162339773Y-108993557D01*
X162345437Y-109016166D01*
X162348856Y-109039221D01*
X162350000Y-109062500D01*
X162350000Y-109537500D01*
X162348856Y-109560779D01*
X162345437Y-109583834D01*
X162339773Y-109606443D01*
X162331921Y-109628387D01*
X162321956Y-109649457D01*
X162309974Y-109669448D01*
X162296090Y-109688168D01*
X162280438Y-109705438D01*
X162263168Y-109721090D01*
X162244448Y-109734974D01*
X162224457Y-109746956D01*
X162203387Y-109756921D01*
X162181443Y-109764773D01*
X162158834Y-109770437D01*
X162135779Y-109773856D01*
X162112500Y-109775000D01*
X161537500Y-109775000D01*
X161514221Y-109773856D01*
X161491166Y-109770437D01*
X161468557Y-109764773D01*
X161446613Y-109756921D01*
X161425543Y-109746956D01*
X161405552Y-109734974D01*
X161386832Y-109721090D01*
X161369562Y-109705438D01*
X161353910Y-109688168D01*
X161340026Y-109669448D01*
X161328044Y-109649457D01*
X161318079Y-109628387D01*
X161310227Y-109606443D01*
X161304563Y-109583834D01*
X161301144Y-109560779D01*
X161300000Y-109537500D01*
X161300000Y-109062500D01*
X161301144Y-109039221D01*
X161304563Y-109016166D01*
X161310227Y-108993557D01*
X161318079Y-108971613D01*
X161328044Y-108950543D01*
X161340026Y-108930552D01*
X161353910Y-108911832D01*
X161369562Y-108894562D01*
X161386832Y-108878910D01*
X161405552Y-108865026D01*
X161425543Y-108853044D01*
X161446613Y-108843079D01*
X161468557Y-108835227D01*
X161491166Y-108829563D01*
X161514221Y-108826144D01*
X161537500Y-108825000D01*
X162112500Y-108825000D01*
X162135779Y-108826144D01*
X162135779Y-108826144D01*
G37*
D16*
X161825000Y-109300000D03*
D15*
G36*
X163885779Y-108826144D02*
G01*
X163908834Y-108829563D01*
X163931443Y-108835227D01*
X163953387Y-108843079D01*
X163974457Y-108853044D01*
X163994448Y-108865026D01*
X164013168Y-108878910D01*
X164030438Y-108894562D01*
X164046090Y-108911832D01*
X164059974Y-108930552D01*
X164071956Y-108950543D01*
X164081921Y-108971613D01*
X164089773Y-108993557D01*
X164095437Y-109016166D01*
X164098856Y-109039221D01*
X164100000Y-109062500D01*
X164100000Y-109537500D01*
X164098856Y-109560779D01*
X164095437Y-109583834D01*
X164089773Y-109606443D01*
X164081921Y-109628387D01*
X164071956Y-109649457D01*
X164059974Y-109669448D01*
X164046090Y-109688168D01*
X164030438Y-109705438D01*
X164013168Y-109721090D01*
X163994448Y-109734974D01*
X163974457Y-109746956D01*
X163953387Y-109756921D01*
X163931443Y-109764773D01*
X163908834Y-109770437D01*
X163885779Y-109773856D01*
X163862500Y-109775000D01*
X163287500Y-109775000D01*
X163264221Y-109773856D01*
X163241166Y-109770437D01*
X163218557Y-109764773D01*
X163196613Y-109756921D01*
X163175543Y-109746956D01*
X163155552Y-109734974D01*
X163136832Y-109721090D01*
X163119562Y-109705438D01*
X163103910Y-109688168D01*
X163090026Y-109669448D01*
X163078044Y-109649457D01*
X163068079Y-109628387D01*
X163060227Y-109606443D01*
X163054563Y-109583834D01*
X163051144Y-109560779D01*
X163050000Y-109537500D01*
X163050000Y-109062500D01*
X163051144Y-109039221D01*
X163054563Y-109016166D01*
X163060227Y-108993557D01*
X163068079Y-108971613D01*
X163078044Y-108950543D01*
X163090026Y-108930552D01*
X163103910Y-108911832D01*
X163119562Y-108894562D01*
X163136832Y-108878910D01*
X163155552Y-108865026D01*
X163175543Y-108853044D01*
X163196613Y-108843079D01*
X163218557Y-108835227D01*
X163241166Y-108829563D01*
X163264221Y-108826144D01*
X163287500Y-108825000D01*
X163862500Y-108825000D01*
X163885779Y-108826144D01*
X163885779Y-108826144D01*
G37*
D16*
X163575000Y-109300000D03*
D20*
X144850000Y-93650000D03*
X144850000Y-91150000D03*
D21*
X143330000Y-107150000D03*
X143330000Y-106500000D03*
X143330000Y-105850000D03*
X140670000Y-105850000D03*
X140670000Y-107150000D03*
D15*
G36*
X137435779Y-90726144D02*
G01*
X137458834Y-90729563D01*
X137481443Y-90735227D01*
X137503387Y-90743079D01*
X137524457Y-90753044D01*
X137544448Y-90765026D01*
X137563168Y-90778910D01*
X137580438Y-90794562D01*
X137596090Y-90811832D01*
X137609974Y-90830552D01*
X137621956Y-90850543D01*
X137631921Y-90871613D01*
X137639773Y-90893557D01*
X137645437Y-90916166D01*
X137648856Y-90939221D01*
X137650000Y-90962500D01*
X137650000Y-91437500D01*
X137648856Y-91460779D01*
X137645437Y-91483834D01*
X137639773Y-91506443D01*
X137631921Y-91528387D01*
X137621956Y-91549457D01*
X137609974Y-91569448D01*
X137596090Y-91588168D01*
X137580438Y-91605438D01*
X137563168Y-91621090D01*
X137544448Y-91634974D01*
X137524457Y-91646956D01*
X137503387Y-91656921D01*
X137481443Y-91664773D01*
X137458834Y-91670437D01*
X137435779Y-91673856D01*
X137412500Y-91675000D01*
X136837500Y-91675000D01*
X136814221Y-91673856D01*
X136791166Y-91670437D01*
X136768557Y-91664773D01*
X136746613Y-91656921D01*
X136725543Y-91646956D01*
X136705552Y-91634974D01*
X136686832Y-91621090D01*
X136669562Y-91605438D01*
X136653910Y-91588168D01*
X136640026Y-91569448D01*
X136628044Y-91549457D01*
X136618079Y-91528387D01*
X136610227Y-91506443D01*
X136604563Y-91483834D01*
X136601144Y-91460779D01*
X136600000Y-91437500D01*
X136600000Y-90962500D01*
X136601144Y-90939221D01*
X136604563Y-90916166D01*
X136610227Y-90893557D01*
X136618079Y-90871613D01*
X136628044Y-90850543D01*
X136640026Y-90830552D01*
X136653910Y-90811832D01*
X136669562Y-90794562D01*
X136686832Y-90778910D01*
X136705552Y-90765026D01*
X136725543Y-90753044D01*
X136746613Y-90743079D01*
X136768557Y-90735227D01*
X136791166Y-90729563D01*
X136814221Y-90726144D01*
X136837500Y-90725000D01*
X137412500Y-90725000D01*
X137435779Y-90726144D01*
X137435779Y-90726144D01*
G37*
D16*
X137125000Y-91200000D03*
D15*
G36*
X139185779Y-90726144D02*
G01*
X139208834Y-90729563D01*
X139231443Y-90735227D01*
X139253387Y-90743079D01*
X139274457Y-90753044D01*
X139294448Y-90765026D01*
X139313168Y-90778910D01*
X139330438Y-90794562D01*
X139346090Y-90811832D01*
X139359974Y-90830552D01*
X139371956Y-90850543D01*
X139381921Y-90871613D01*
X139389773Y-90893557D01*
X139395437Y-90916166D01*
X139398856Y-90939221D01*
X139400000Y-90962500D01*
X139400000Y-91437500D01*
X139398856Y-91460779D01*
X139395437Y-91483834D01*
X139389773Y-91506443D01*
X139381921Y-91528387D01*
X139371956Y-91549457D01*
X139359974Y-91569448D01*
X139346090Y-91588168D01*
X139330438Y-91605438D01*
X139313168Y-91621090D01*
X139294448Y-91634974D01*
X139274457Y-91646956D01*
X139253387Y-91656921D01*
X139231443Y-91664773D01*
X139208834Y-91670437D01*
X139185779Y-91673856D01*
X139162500Y-91675000D01*
X138587500Y-91675000D01*
X138564221Y-91673856D01*
X138541166Y-91670437D01*
X138518557Y-91664773D01*
X138496613Y-91656921D01*
X138475543Y-91646956D01*
X138455552Y-91634974D01*
X138436832Y-91621090D01*
X138419562Y-91605438D01*
X138403910Y-91588168D01*
X138390026Y-91569448D01*
X138378044Y-91549457D01*
X138368079Y-91528387D01*
X138360227Y-91506443D01*
X138354563Y-91483834D01*
X138351144Y-91460779D01*
X138350000Y-91437500D01*
X138350000Y-90962500D01*
X138351144Y-90939221D01*
X138354563Y-90916166D01*
X138360227Y-90893557D01*
X138368079Y-90871613D01*
X138378044Y-90850543D01*
X138390026Y-90830552D01*
X138403910Y-90811832D01*
X138419562Y-90794562D01*
X138436832Y-90778910D01*
X138455552Y-90765026D01*
X138475543Y-90753044D01*
X138496613Y-90743079D01*
X138518557Y-90735227D01*
X138541166Y-90729563D01*
X138564221Y-90726144D01*
X138587500Y-90725000D01*
X139162500Y-90725000D01*
X139185779Y-90726144D01*
X139185779Y-90726144D01*
G37*
D16*
X138875000Y-91200000D03*
D15*
G36*
X139185779Y-94126144D02*
G01*
X139208834Y-94129563D01*
X139231443Y-94135227D01*
X139253387Y-94143079D01*
X139274457Y-94153044D01*
X139294448Y-94165026D01*
X139313168Y-94178910D01*
X139330438Y-94194562D01*
X139346090Y-94211832D01*
X139359974Y-94230552D01*
X139371956Y-94250543D01*
X139381921Y-94271613D01*
X139389773Y-94293557D01*
X139395437Y-94316166D01*
X139398856Y-94339221D01*
X139400000Y-94362500D01*
X139400000Y-94837500D01*
X139398856Y-94860779D01*
X139395437Y-94883834D01*
X139389773Y-94906443D01*
X139381921Y-94928387D01*
X139371956Y-94949457D01*
X139359974Y-94969448D01*
X139346090Y-94988168D01*
X139330438Y-95005438D01*
X139313168Y-95021090D01*
X139294448Y-95034974D01*
X139274457Y-95046956D01*
X139253387Y-95056921D01*
X139231443Y-95064773D01*
X139208834Y-95070437D01*
X139185779Y-95073856D01*
X139162500Y-95075000D01*
X138587500Y-95075000D01*
X138564221Y-95073856D01*
X138541166Y-95070437D01*
X138518557Y-95064773D01*
X138496613Y-95056921D01*
X138475543Y-95046956D01*
X138455552Y-95034974D01*
X138436832Y-95021090D01*
X138419562Y-95005438D01*
X138403910Y-94988168D01*
X138390026Y-94969448D01*
X138378044Y-94949457D01*
X138368079Y-94928387D01*
X138360227Y-94906443D01*
X138354563Y-94883834D01*
X138351144Y-94860779D01*
X138350000Y-94837500D01*
X138350000Y-94362500D01*
X138351144Y-94339221D01*
X138354563Y-94316166D01*
X138360227Y-94293557D01*
X138368079Y-94271613D01*
X138378044Y-94250543D01*
X138390026Y-94230552D01*
X138403910Y-94211832D01*
X138419562Y-94194562D01*
X138436832Y-94178910D01*
X138455552Y-94165026D01*
X138475543Y-94153044D01*
X138496613Y-94143079D01*
X138518557Y-94135227D01*
X138541166Y-94129563D01*
X138564221Y-94126144D01*
X138587500Y-94125000D01*
X139162500Y-94125000D01*
X139185779Y-94126144D01*
X139185779Y-94126144D01*
G37*
D16*
X138875000Y-94600000D03*
D15*
G36*
X137435779Y-94126144D02*
G01*
X137458834Y-94129563D01*
X137481443Y-94135227D01*
X137503387Y-94143079D01*
X137524457Y-94153044D01*
X137544448Y-94165026D01*
X137563168Y-94178910D01*
X137580438Y-94194562D01*
X137596090Y-94211832D01*
X137609974Y-94230552D01*
X137621956Y-94250543D01*
X137631921Y-94271613D01*
X137639773Y-94293557D01*
X137645437Y-94316166D01*
X137648856Y-94339221D01*
X137650000Y-94362500D01*
X137650000Y-94837500D01*
X137648856Y-94860779D01*
X137645437Y-94883834D01*
X137639773Y-94906443D01*
X137631921Y-94928387D01*
X137621956Y-94949457D01*
X137609974Y-94969448D01*
X137596090Y-94988168D01*
X137580438Y-95005438D01*
X137563168Y-95021090D01*
X137544448Y-95034974D01*
X137524457Y-95046956D01*
X137503387Y-95056921D01*
X137481443Y-95064773D01*
X137458834Y-95070437D01*
X137435779Y-95073856D01*
X137412500Y-95075000D01*
X136837500Y-95075000D01*
X136814221Y-95073856D01*
X136791166Y-95070437D01*
X136768557Y-95064773D01*
X136746613Y-95056921D01*
X136725543Y-95046956D01*
X136705552Y-95034974D01*
X136686832Y-95021090D01*
X136669562Y-95005438D01*
X136653910Y-94988168D01*
X136640026Y-94969448D01*
X136628044Y-94949457D01*
X136618079Y-94928387D01*
X136610227Y-94906443D01*
X136604563Y-94883834D01*
X136601144Y-94860779D01*
X136600000Y-94837500D01*
X136600000Y-94362500D01*
X136601144Y-94339221D01*
X136604563Y-94316166D01*
X136610227Y-94293557D01*
X136618079Y-94271613D01*
X136628044Y-94250543D01*
X136640026Y-94230552D01*
X136653910Y-94211832D01*
X136669562Y-94194562D01*
X136686832Y-94178910D01*
X136705552Y-94165026D01*
X136725543Y-94153044D01*
X136746613Y-94143079D01*
X136768557Y-94135227D01*
X136791166Y-94129563D01*
X136814221Y-94126144D01*
X136837500Y-94125000D01*
X137412500Y-94125000D01*
X137435779Y-94126144D01*
X137435779Y-94126144D01*
G37*
D16*
X137125000Y-94600000D03*
D22*
X164300000Y-72800000D03*
X168300000Y-72800000D03*
X167650000Y-100350000D03*
X171650000Y-100350000D03*
D15*
G36*
X171035779Y-93226144D02*
G01*
X171058834Y-93229563D01*
X171081443Y-93235227D01*
X171103387Y-93243079D01*
X171124457Y-93253044D01*
X171144448Y-93265026D01*
X171163168Y-93278910D01*
X171180438Y-93294562D01*
X171196090Y-93311832D01*
X171209974Y-93330552D01*
X171221956Y-93350543D01*
X171231921Y-93371613D01*
X171239773Y-93393557D01*
X171245437Y-93416166D01*
X171248856Y-93439221D01*
X171250000Y-93462500D01*
X171250000Y-93937500D01*
X171248856Y-93960779D01*
X171245437Y-93983834D01*
X171239773Y-94006443D01*
X171231921Y-94028387D01*
X171221956Y-94049457D01*
X171209974Y-94069448D01*
X171196090Y-94088168D01*
X171180438Y-94105438D01*
X171163168Y-94121090D01*
X171144448Y-94134974D01*
X171124457Y-94146956D01*
X171103387Y-94156921D01*
X171081443Y-94164773D01*
X171058834Y-94170437D01*
X171035779Y-94173856D01*
X171012500Y-94175000D01*
X170437500Y-94175000D01*
X170414221Y-94173856D01*
X170391166Y-94170437D01*
X170368557Y-94164773D01*
X170346613Y-94156921D01*
X170325543Y-94146956D01*
X170305552Y-94134974D01*
X170286832Y-94121090D01*
X170269562Y-94105438D01*
X170253910Y-94088168D01*
X170240026Y-94069448D01*
X170228044Y-94049457D01*
X170218079Y-94028387D01*
X170210227Y-94006443D01*
X170204563Y-93983834D01*
X170201144Y-93960779D01*
X170200000Y-93937500D01*
X170200000Y-93462500D01*
X170201144Y-93439221D01*
X170204563Y-93416166D01*
X170210227Y-93393557D01*
X170218079Y-93371613D01*
X170228044Y-93350543D01*
X170240026Y-93330552D01*
X170253910Y-93311832D01*
X170269562Y-93294562D01*
X170286832Y-93278910D01*
X170305552Y-93265026D01*
X170325543Y-93253044D01*
X170346613Y-93243079D01*
X170368557Y-93235227D01*
X170391166Y-93229563D01*
X170414221Y-93226144D01*
X170437500Y-93225000D01*
X171012500Y-93225000D01*
X171035779Y-93226144D01*
X171035779Y-93226144D01*
G37*
D16*
X170725000Y-93700000D03*
D15*
G36*
X172785779Y-93226144D02*
G01*
X172808834Y-93229563D01*
X172831443Y-93235227D01*
X172853387Y-93243079D01*
X172874457Y-93253044D01*
X172894448Y-93265026D01*
X172913168Y-93278910D01*
X172930438Y-93294562D01*
X172946090Y-93311832D01*
X172959974Y-93330552D01*
X172971956Y-93350543D01*
X172981921Y-93371613D01*
X172989773Y-93393557D01*
X172995437Y-93416166D01*
X172998856Y-93439221D01*
X173000000Y-93462500D01*
X173000000Y-93937500D01*
X172998856Y-93960779D01*
X172995437Y-93983834D01*
X172989773Y-94006443D01*
X172981921Y-94028387D01*
X172971956Y-94049457D01*
X172959974Y-94069448D01*
X172946090Y-94088168D01*
X172930438Y-94105438D01*
X172913168Y-94121090D01*
X172894448Y-94134974D01*
X172874457Y-94146956D01*
X172853387Y-94156921D01*
X172831443Y-94164773D01*
X172808834Y-94170437D01*
X172785779Y-94173856D01*
X172762500Y-94175000D01*
X172187500Y-94175000D01*
X172164221Y-94173856D01*
X172141166Y-94170437D01*
X172118557Y-94164773D01*
X172096613Y-94156921D01*
X172075543Y-94146956D01*
X172055552Y-94134974D01*
X172036832Y-94121090D01*
X172019562Y-94105438D01*
X172003910Y-94088168D01*
X171990026Y-94069448D01*
X171978044Y-94049457D01*
X171968079Y-94028387D01*
X171960227Y-94006443D01*
X171954563Y-93983834D01*
X171951144Y-93960779D01*
X171950000Y-93937500D01*
X171950000Y-93462500D01*
X171951144Y-93439221D01*
X171954563Y-93416166D01*
X171960227Y-93393557D01*
X171968079Y-93371613D01*
X171978044Y-93350543D01*
X171990026Y-93330552D01*
X172003910Y-93311832D01*
X172019562Y-93294562D01*
X172036832Y-93278910D01*
X172055552Y-93265026D01*
X172075543Y-93253044D01*
X172096613Y-93243079D01*
X172118557Y-93235227D01*
X172141166Y-93229563D01*
X172164221Y-93226144D01*
X172187500Y-93225000D01*
X172762500Y-93225000D01*
X172785779Y-93226144D01*
X172785779Y-93226144D01*
G37*
D16*
X172475000Y-93700000D03*
D14*
X171000000Y-112500000D03*
X138500000Y-112500000D03*
D23*
X150525000Y-71825000D03*
D24*
X152000000Y-73350000D03*
D23*
X153475000Y-71825000D03*
D25*
X137925000Y-96925000D03*
D26*
X139450000Y-98400000D03*
D25*
X137925000Y-99875000D03*
D27*
X172000000Y-76175000D03*
X172000000Y-81825000D03*
D28*
X169100000Y-80300000D03*
X169100000Y-77700000D03*
X169100000Y-79000000D03*
X169100000Y-79650000D03*
X169100000Y-78350000D03*
D29*
X169450000Y-82300000D03*
X169450000Y-75700000D03*
D15*
G36*
X167949505Y-106201204D02*
G01*
X167973773Y-106204804D01*
X167997572Y-106210765D01*
X168020671Y-106219030D01*
X168042850Y-106229520D01*
X168063893Y-106242132D01*
X168083599Y-106256747D01*
X168101777Y-106273223D01*
X168118253Y-106291401D01*
X168132868Y-106311107D01*
X168145480Y-106332150D01*
X168155970Y-106354329D01*
X168164235Y-106377428D01*
X168170196Y-106401227D01*
X168173796Y-106425495D01*
X168175000Y-106449999D01*
X168175000Y-107150001D01*
X168173796Y-107174505D01*
X168170196Y-107198773D01*
X168164235Y-107222572D01*
X168155970Y-107245671D01*
X168145480Y-107267850D01*
X168132868Y-107288893D01*
X168118253Y-107308599D01*
X168101777Y-107326777D01*
X168083599Y-107343253D01*
X168063893Y-107357868D01*
X168042850Y-107370480D01*
X168020671Y-107380970D01*
X167997572Y-107389235D01*
X167973773Y-107395196D01*
X167949505Y-107398796D01*
X167925001Y-107400000D01*
X166674999Y-107400000D01*
X166650495Y-107398796D01*
X166626227Y-107395196D01*
X166602428Y-107389235D01*
X166579329Y-107380970D01*
X166557150Y-107370480D01*
X166536107Y-107357868D01*
X166516401Y-107343253D01*
X166498223Y-107326777D01*
X166481747Y-107308599D01*
X166467132Y-107288893D01*
X166454520Y-107267850D01*
X166444030Y-107245671D01*
X166435765Y-107222572D01*
X166429804Y-107198773D01*
X166426204Y-107174505D01*
X166425000Y-107150001D01*
X166425000Y-106449999D01*
X166426204Y-106425495D01*
X166429804Y-106401227D01*
X166435765Y-106377428D01*
X166444030Y-106354329D01*
X166454520Y-106332150D01*
X166467132Y-106311107D01*
X166481747Y-106291401D01*
X166498223Y-106273223D01*
X166516401Y-106256747D01*
X166536107Y-106242132D01*
X166557150Y-106229520D01*
X166579329Y-106219030D01*
X166602428Y-106210765D01*
X166626227Y-106204804D01*
X166650495Y-106201204D01*
X166674999Y-106200000D01*
X167925001Y-106200000D01*
X167949505Y-106201204D01*
X167949505Y-106201204D01*
G37*
D30*
X167300000Y-106800000D03*
D31*
X167300000Y-104800000D03*
D32*
X166250000Y-112500000D03*
D33*
X163710000Y-112500000D03*
X161170000Y-112500000D03*
X158630000Y-112500000D03*
X156090000Y-112500000D03*
X153550000Y-112500000D03*
X151010000Y-112500000D03*
X148470000Y-112500000D03*
X145930000Y-112500000D03*
X143390000Y-112500000D03*
D15*
G36*
X143510779Y-99601144D02*
G01*
X143533834Y-99604563D01*
X143556443Y-99610227D01*
X143578387Y-99618079D01*
X143599457Y-99628044D01*
X143619448Y-99640026D01*
X143638168Y-99653910D01*
X143655438Y-99669562D01*
X143671090Y-99686832D01*
X143684974Y-99705552D01*
X143696956Y-99725543D01*
X143706921Y-99746613D01*
X143714773Y-99768557D01*
X143720437Y-99791166D01*
X143723856Y-99814221D01*
X143725000Y-99837500D01*
X143725000Y-100412500D01*
X143723856Y-100435779D01*
X143720437Y-100458834D01*
X143714773Y-100481443D01*
X143706921Y-100503387D01*
X143696956Y-100524457D01*
X143684974Y-100544448D01*
X143671090Y-100563168D01*
X143655438Y-100580438D01*
X143638168Y-100596090D01*
X143619448Y-100609974D01*
X143599457Y-100621956D01*
X143578387Y-100631921D01*
X143556443Y-100639773D01*
X143533834Y-100645437D01*
X143510779Y-100648856D01*
X143487500Y-100650000D01*
X143012500Y-100650000D01*
X142989221Y-100648856D01*
X142966166Y-100645437D01*
X142943557Y-100639773D01*
X142921613Y-100631921D01*
X142900543Y-100621956D01*
X142880552Y-100609974D01*
X142861832Y-100596090D01*
X142844562Y-100580438D01*
X142828910Y-100563168D01*
X142815026Y-100544448D01*
X142803044Y-100524457D01*
X142793079Y-100503387D01*
X142785227Y-100481443D01*
X142779563Y-100458834D01*
X142776144Y-100435779D01*
X142775000Y-100412500D01*
X142775000Y-99837500D01*
X142776144Y-99814221D01*
X142779563Y-99791166D01*
X142785227Y-99768557D01*
X142793079Y-99746613D01*
X142803044Y-99725543D01*
X142815026Y-99705552D01*
X142828910Y-99686832D01*
X142844562Y-99669562D01*
X142861832Y-99653910D01*
X142880552Y-99640026D01*
X142900543Y-99628044D01*
X142921613Y-99618079D01*
X142943557Y-99610227D01*
X142966166Y-99604563D01*
X142989221Y-99601144D01*
X143012500Y-99600000D01*
X143487500Y-99600000D01*
X143510779Y-99601144D01*
X143510779Y-99601144D01*
G37*
D16*
X143250000Y-100125000D03*
D15*
G36*
X143510779Y-101351144D02*
G01*
X143533834Y-101354563D01*
X143556443Y-101360227D01*
X143578387Y-101368079D01*
X143599457Y-101378044D01*
X143619448Y-101390026D01*
X143638168Y-101403910D01*
X143655438Y-101419562D01*
X143671090Y-101436832D01*
X143684974Y-101455552D01*
X143696956Y-101475543D01*
X143706921Y-101496613D01*
X143714773Y-101518557D01*
X143720437Y-101541166D01*
X143723856Y-101564221D01*
X143725000Y-101587500D01*
X143725000Y-102162500D01*
X143723856Y-102185779D01*
X143720437Y-102208834D01*
X143714773Y-102231443D01*
X143706921Y-102253387D01*
X143696956Y-102274457D01*
X143684974Y-102294448D01*
X143671090Y-102313168D01*
X143655438Y-102330438D01*
X143638168Y-102346090D01*
X143619448Y-102359974D01*
X143599457Y-102371956D01*
X143578387Y-102381921D01*
X143556443Y-102389773D01*
X143533834Y-102395437D01*
X143510779Y-102398856D01*
X143487500Y-102400000D01*
X143012500Y-102400000D01*
X142989221Y-102398856D01*
X142966166Y-102395437D01*
X142943557Y-102389773D01*
X142921613Y-102381921D01*
X142900543Y-102371956D01*
X142880552Y-102359974D01*
X142861832Y-102346090D01*
X142844562Y-102330438D01*
X142828910Y-102313168D01*
X142815026Y-102294448D01*
X142803044Y-102274457D01*
X142793079Y-102253387D01*
X142785227Y-102231443D01*
X142779563Y-102208834D01*
X142776144Y-102185779D01*
X142775000Y-102162500D01*
X142775000Y-101587500D01*
X142776144Y-101564221D01*
X142779563Y-101541166D01*
X142785227Y-101518557D01*
X142793079Y-101496613D01*
X142803044Y-101475543D01*
X142815026Y-101455552D01*
X142828910Y-101436832D01*
X142844562Y-101419562D01*
X142861832Y-101403910D01*
X142880552Y-101390026D01*
X142900543Y-101378044D01*
X142921613Y-101368079D01*
X142943557Y-101360227D01*
X142966166Y-101354563D01*
X142989221Y-101351144D01*
X143012500Y-101350000D01*
X143487500Y-101350000D01*
X143510779Y-101351144D01*
X143510779Y-101351144D01*
G37*
D16*
X143250000Y-101875000D03*
D34*
X137400000Y-102100000D03*
X137400000Y-104000000D03*
X140400000Y-103050000D03*
X172200000Y-96400000D03*
X169200000Y-97350000D03*
X169200000Y-95450000D03*
D15*
G36*
X152260779Y-77851144D02*
G01*
X152283834Y-77854563D01*
X152306443Y-77860227D01*
X152328387Y-77868079D01*
X152349457Y-77878044D01*
X152369448Y-77890026D01*
X152388168Y-77903910D01*
X152405438Y-77919562D01*
X152421090Y-77936832D01*
X152434974Y-77955552D01*
X152446956Y-77975543D01*
X152456921Y-77996613D01*
X152464773Y-78018557D01*
X152470437Y-78041166D01*
X152473856Y-78064221D01*
X152475000Y-78087500D01*
X152475000Y-78662500D01*
X152473856Y-78685779D01*
X152470437Y-78708834D01*
X152464773Y-78731443D01*
X152456921Y-78753387D01*
X152446956Y-78774457D01*
X152434974Y-78794448D01*
X152421090Y-78813168D01*
X152405438Y-78830438D01*
X152388168Y-78846090D01*
X152369448Y-78859974D01*
X152349457Y-78871956D01*
X152328387Y-78881921D01*
X152306443Y-78889773D01*
X152283834Y-78895437D01*
X152260779Y-78898856D01*
X152237500Y-78900000D01*
X151762500Y-78900000D01*
X151739221Y-78898856D01*
X151716166Y-78895437D01*
X151693557Y-78889773D01*
X151671613Y-78881921D01*
X151650543Y-78871956D01*
X151630552Y-78859974D01*
X151611832Y-78846090D01*
X151594562Y-78830438D01*
X151578910Y-78813168D01*
X151565026Y-78794448D01*
X151553044Y-78774457D01*
X151543079Y-78753387D01*
X151535227Y-78731443D01*
X151529563Y-78708834D01*
X151526144Y-78685779D01*
X151525000Y-78662500D01*
X151525000Y-78087500D01*
X151526144Y-78064221D01*
X151529563Y-78041166D01*
X151535227Y-78018557D01*
X151543079Y-77996613D01*
X151553044Y-77975543D01*
X151565026Y-77955552D01*
X151578910Y-77936832D01*
X151594562Y-77919562D01*
X151611832Y-77903910D01*
X151630552Y-77890026D01*
X151650543Y-77878044D01*
X151671613Y-77868079D01*
X151693557Y-77860227D01*
X151716166Y-77854563D01*
X151739221Y-77851144D01*
X151762500Y-77850000D01*
X152237500Y-77850000D01*
X152260779Y-77851144D01*
X152260779Y-77851144D01*
G37*
D16*
X152000000Y-78375000D03*
D15*
G36*
X152260779Y-76101144D02*
G01*
X152283834Y-76104563D01*
X152306443Y-76110227D01*
X152328387Y-76118079D01*
X152349457Y-76128044D01*
X152369448Y-76140026D01*
X152388168Y-76153910D01*
X152405438Y-76169562D01*
X152421090Y-76186832D01*
X152434974Y-76205552D01*
X152446956Y-76225543D01*
X152456921Y-76246613D01*
X152464773Y-76268557D01*
X152470437Y-76291166D01*
X152473856Y-76314221D01*
X152475000Y-76337500D01*
X152475000Y-76912500D01*
X152473856Y-76935779D01*
X152470437Y-76958834D01*
X152464773Y-76981443D01*
X152456921Y-77003387D01*
X152446956Y-77024457D01*
X152434974Y-77044448D01*
X152421090Y-77063168D01*
X152405438Y-77080438D01*
X152388168Y-77096090D01*
X152369448Y-77109974D01*
X152349457Y-77121956D01*
X152328387Y-77131921D01*
X152306443Y-77139773D01*
X152283834Y-77145437D01*
X152260779Y-77148856D01*
X152237500Y-77150000D01*
X151762500Y-77150000D01*
X151739221Y-77148856D01*
X151716166Y-77145437D01*
X151693557Y-77139773D01*
X151671613Y-77131921D01*
X151650543Y-77121956D01*
X151630552Y-77109974D01*
X151611832Y-77096090D01*
X151594562Y-77080438D01*
X151578910Y-77063168D01*
X151565026Y-77044448D01*
X151553044Y-77024457D01*
X151543079Y-77003387D01*
X151535227Y-76981443D01*
X151529563Y-76958834D01*
X151526144Y-76935779D01*
X151525000Y-76912500D01*
X151525000Y-76337500D01*
X151526144Y-76314221D01*
X151529563Y-76291166D01*
X151535227Y-76268557D01*
X151543079Y-76246613D01*
X151553044Y-76225543D01*
X151565026Y-76205552D01*
X151578910Y-76186832D01*
X151594562Y-76169562D01*
X151611832Y-76153910D01*
X151630552Y-76140026D01*
X151650543Y-76128044D01*
X151671613Y-76118079D01*
X151693557Y-76110227D01*
X151716166Y-76104563D01*
X151739221Y-76101144D01*
X151762500Y-76100000D01*
X152237500Y-76100000D01*
X152260779Y-76101144D01*
X152260779Y-76101144D01*
G37*
D16*
X152000000Y-76625000D03*
D15*
G36*
X167660779Y-82751144D02*
G01*
X167683834Y-82754563D01*
X167706443Y-82760227D01*
X167728387Y-82768079D01*
X167749457Y-82778044D01*
X167769448Y-82790026D01*
X167788168Y-82803910D01*
X167805438Y-82819562D01*
X167821090Y-82836832D01*
X167834974Y-82855552D01*
X167846956Y-82875543D01*
X167856921Y-82896613D01*
X167864773Y-82918557D01*
X167870437Y-82941166D01*
X167873856Y-82964221D01*
X167875000Y-82987500D01*
X167875000Y-83562500D01*
X167873856Y-83585779D01*
X167870437Y-83608834D01*
X167864773Y-83631443D01*
X167856921Y-83653387D01*
X167846956Y-83674457D01*
X167834974Y-83694448D01*
X167821090Y-83713168D01*
X167805438Y-83730438D01*
X167788168Y-83746090D01*
X167769448Y-83759974D01*
X167749457Y-83771956D01*
X167728387Y-83781921D01*
X167706443Y-83789773D01*
X167683834Y-83795437D01*
X167660779Y-83798856D01*
X167637500Y-83800000D01*
X167162500Y-83800000D01*
X167139221Y-83798856D01*
X167116166Y-83795437D01*
X167093557Y-83789773D01*
X167071613Y-83781921D01*
X167050543Y-83771956D01*
X167030552Y-83759974D01*
X167011832Y-83746090D01*
X166994562Y-83730438D01*
X166978910Y-83713168D01*
X166965026Y-83694448D01*
X166953044Y-83674457D01*
X166943079Y-83653387D01*
X166935227Y-83631443D01*
X166929563Y-83608834D01*
X166926144Y-83585779D01*
X166925000Y-83562500D01*
X166925000Y-82987500D01*
X166926144Y-82964221D01*
X166929563Y-82941166D01*
X166935227Y-82918557D01*
X166943079Y-82896613D01*
X166953044Y-82875543D01*
X166965026Y-82855552D01*
X166978910Y-82836832D01*
X166994562Y-82819562D01*
X167011832Y-82803910D01*
X167030552Y-82790026D01*
X167050543Y-82778044D01*
X167071613Y-82768079D01*
X167093557Y-82760227D01*
X167116166Y-82754563D01*
X167139221Y-82751144D01*
X167162500Y-82750000D01*
X167637500Y-82750000D01*
X167660779Y-82751144D01*
X167660779Y-82751144D01*
G37*
D16*
X167400000Y-83275000D03*
D15*
G36*
X167660779Y-81001144D02*
G01*
X167683834Y-81004563D01*
X167706443Y-81010227D01*
X167728387Y-81018079D01*
X167749457Y-81028044D01*
X167769448Y-81040026D01*
X167788168Y-81053910D01*
X167805438Y-81069562D01*
X167821090Y-81086832D01*
X167834974Y-81105552D01*
X167846956Y-81125543D01*
X167856921Y-81146613D01*
X167864773Y-81168557D01*
X167870437Y-81191166D01*
X167873856Y-81214221D01*
X167875000Y-81237500D01*
X167875000Y-81812500D01*
X167873856Y-81835779D01*
X167870437Y-81858834D01*
X167864773Y-81881443D01*
X167856921Y-81903387D01*
X167846956Y-81924457D01*
X167834974Y-81944448D01*
X167821090Y-81963168D01*
X167805438Y-81980438D01*
X167788168Y-81996090D01*
X167769448Y-82009974D01*
X167749457Y-82021956D01*
X167728387Y-82031921D01*
X167706443Y-82039773D01*
X167683834Y-82045437D01*
X167660779Y-82048856D01*
X167637500Y-82050000D01*
X167162500Y-82050000D01*
X167139221Y-82048856D01*
X167116166Y-82045437D01*
X167093557Y-82039773D01*
X167071613Y-82031921D01*
X167050543Y-82021956D01*
X167030552Y-82009974D01*
X167011832Y-81996090D01*
X166994562Y-81980438D01*
X166978910Y-81963168D01*
X166965026Y-81944448D01*
X166953044Y-81924457D01*
X166943079Y-81903387D01*
X166935227Y-81881443D01*
X166929563Y-81858834D01*
X166926144Y-81835779D01*
X166925000Y-81812500D01*
X166925000Y-81237500D01*
X166926144Y-81214221D01*
X166929563Y-81191166D01*
X166935227Y-81168557D01*
X166943079Y-81146613D01*
X166953044Y-81125543D01*
X166965026Y-81105552D01*
X166978910Y-81086832D01*
X166994562Y-81069562D01*
X167011832Y-81053910D01*
X167030552Y-81040026D01*
X167050543Y-81028044D01*
X167071613Y-81018079D01*
X167093557Y-81010227D01*
X167116166Y-81004563D01*
X167139221Y-81001144D01*
X167162500Y-81000000D01*
X167637500Y-81000000D01*
X167660779Y-81001144D01*
X167660779Y-81001144D01*
G37*
D16*
X167400000Y-81525000D03*
D15*
G36*
X137435779Y-89026144D02*
G01*
X137458834Y-89029563D01*
X137481443Y-89035227D01*
X137503387Y-89043079D01*
X137524457Y-89053044D01*
X137544448Y-89065026D01*
X137563168Y-89078910D01*
X137580438Y-89094562D01*
X137596090Y-89111832D01*
X137609974Y-89130552D01*
X137621956Y-89150543D01*
X137631921Y-89171613D01*
X137639773Y-89193557D01*
X137645437Y-89216166D01*
X137648856Y-89239221D01*
X137650000Y-89262500D01*
X137650000Y-89737500D01*
X137648856Y-89760779D01*
X137645437Y-89783834D01*
X137639773Y-89806443D01*
X137631921Y-89828387D01*
X137621956Y-89849457D01*
X137609974Y-89869448D01*
X137596090Y-89888168D01*
X137580438Y-89905438D01*
X137563168Y-89921090D01*
X137544448Y-89934974D01*
X137524457Y-89946956D01*
X137503387Y-89956921D01*
X137481443Y-89964773D01*
X137458834Y-89970437D01*
X137435779Y-89973856D01*
X137412500Y-89975000D01*
X136837500Y-89975000D01*
X136814221Y-89973856D01*
X136791166Y-89970437D01*
X136768557Y-89964773D01*
X136746613Y-89956921D01*
X136725543Y-89946956D01*
X136705552Y-89934974D01*
X136686832Y-89921090D01*
X136669562Y-89905438D01*
X136653910Y-89888168D01*
X136640026Y-89869448D01*
X136628044Y-89849457D01*
X136618079Y-89828387D01*
X136610227Y-89806443D01*
X136604563Y-89783834D01*
X136601144Y-89760779D01*
X136600000Y-89737500D01*
X136600000Y-89262500D01*
X136601144Y-89239221D01*
X136604563Y-89216166D01*
X136610227Y-89193557D01*
X136618079Y-89171613D01*
X136628044Y-89150543D01*
X136640026Y-89130552D01*
X136653910Y-89111832D01*
X136669562Y-89094562D01*
X136686832Y-89078910D01*
X136705552Y-89065026D01*
X136725543Y-89053044D01*
X136746613Y-89043079D01*
X136768557Y-89035227D01*
X136791166Y-89029563D01*
X136814221Y-89026144D01*
X136837500Y-89025000D01*
X137412500Y-89025000D01*
X137435779Y-89026144D01*
X137435779Y-89026144D01*
G37*
D16*
X137125000Y-89500000D03*
D15*
G36*
X139185779Y-89026144D02*
G01*
X139208834Y-89029563D01*
X139231443Y-89035227D01*
X139253387Y-89043079D01*
X139274457Y-89053044D01*
X139294448Y-89065026D01*
X139313168Y-89078910D01*
X139330438Y-89094562D01*
X139346090Y-89111832D01*
X139359974Y-89130552D01*
X139371956Y-89150543D01*
X139381921Y-89171613D01*
X139389773Y-89193557D01*
X139395437Y-89216166D01*
X139398856Y-89239221D01*
X139400000Y-89262500D01*
X139400000Y-89737500D01*
X139398856Y-89760779D01*
X139395437Y-89783834D01*
X139389773Y-89806443D01*
X139381921Y-89828387D01*
X139371956Y-89849457D01*
X139359974Y-89869448D01*
X139346090Y-89888168D01*
X139330438Y-89905438D01*
X139313168Y-89921090D01*
X139294448Y-89934974D01*
X139274457Y-89946956D01*
X139253387Y-89956921D01*
X139231443Y-89964773D01*
X139208834Y-89970437D01*
X139185779Y-89973856D01*
X139162500Y-89975000D01*
X138587500Y-89975000D01*
X138564221Y-89973856D01*
X138541166Y-89970437D01*
X138518557Y-89964773D01*
X138496613Y-89956921D01*
X138475543Y-89946956D01*
X138455552Y-89934974D01*
X138436832Y-89921090D01*
X138419562Y-89905438D01*
X138403910Y-89888168D01*
X138390026Y-89869448D01*
X138378044Y-89849457D01*
X138368079Y-89828387D01*
X138360227Y-89806443D01*
X138354563Y-89783834D01*
X138351144Y-89760779D01*
X138350000Y-89737500D01*
X138350000Y-89262500D01*
X138351144Y-89239221D01*
X138354563Y-89216166D01*
X138360227Y-89193557D01*
X138368079Y-89171613D01*
X138378044Y-89150543D01*
X138390026Y-89130552D01*
X138403910Y-89111832D01*
X138419562Y-89094562D01*
X138436832Y-89078910D01*
X138455552Y-89065026D01*
X138475543Y-89053044D01*
X138496613Y-89043079D01*
X138518557Y-89035227D01*
X138541166Y-89029563D01*
X138564221Y-89026144D01*
X138587500Y-89025000D01*
X139162500Y-89025000D01*
X139185779Y-89026144D01*
X139185779Y-89026144D01*
G37*
D16*
X138875000Y-89500000D03*
D15*
G36*
X139185779Y-92426144D02*
G01*
X139208834Y-92429563D01*
X139231443Y-92435227D01*
X139253387Y-92443079D01*
X139274457Y-92453044D01*
X139294448Y-92465026D01*
X139313168Y-92478910D01*
X139330438Y-92494562D01*
X139346090Y-92511832D01*
X139359974Y-92530552D01*
X139371956Y-92550543D01*
X139381921Y-92571613D01*
X139389773Y-92593557D01*
X139395437Y-92616166D01*
X139398856Y-92639221D01*
X139400000Y-92662500D01*
X139400000Y-93137500D01*
X139398856Y-93160779D01*
X139395437Y-93183834D01*
X139389773Y-93206443D01*
X139381921Y-93228387D01*
X139371956Y-93249457D01*
X139359974Y-93269448D01*
X139346090Y-93288168D01*
X139330438Y-93305438D01*
X139313168Y-93321090D01*
X139294448Y-93334974D01*
X139274457Y-93346956D01*
X139253387Y-93356921D01*
X139231443Y-93364773D01*
X139208834Y-93370437D01*
X139185779Y-93373856D01*
X139162500Y-93375000D01*
X138587500Y-93375000D01*
X138564221Y-93373856D01*
X138541166Y-93370437D01*
X138518557Y-93364773D01*
X138496613Y-93356921D01*
X138475543Y-93346956D01*
X138455552Y-93334974D01*
X138436832Y-93321090D01*
X138419562Y-93305438D01*
X138403910Y-93288168D01*
X138390026Y-93269448D01*
X138378044Y-93249457D01*
X138368079Y-93228387D01*
X138360227Y-93206443D01*
X138354563Y-93183834D01*
X138351144Y-93160779D01*
X138350000Y-93137500D01*
X138350000Y-92662500D01*
X138351144Y-92639221D01*
X138354563Y-92616166D01*
X138360227Y-92593557D01*
X138368079Y-92571613D01*
X138378044Y-92550543D01*
X138390026Y-92530552D01*
X138403910Y-92511832D01*
X138419562Y-92494562D01*
X138436832Y-92478910D01*
X138455552Y-92465026D01*
X138475543Y-92453044D01*
X138496613Y-92443079D01*
X138518557Y-92435227D01*
X138541166Y-92429563D01*
X138564221Y-92426144D01*
X138587500Y-92425000D01*
X139162500Y-92425000D01*
X139185779Y-92426144D01*
X139185779Y-92426144D01*
G37*
D16*
X138875000Y-92900000D03*
D15*
G36*
X137435779Y-92426144D02*
G01*
X137458834Y-92429563D01*
X137481443Y-92435227D01*
X137503387Y-92443079D01*
X137524457Y-92453044D01*
X137544448Y-92465026D01*
X137563168Y-92478910D01*
X137580438Y-92494562D01*
X137596090Y-92511832D01*
X137609974Y-92530552D01*
X137621956Y-92550543D01*
X137631921Y-92571613D01*
X137639773Y-92593557D01*
X137645437Y-92616166D01*
X137648856Y-92639221D01*
X137650000Y-92662500D01*
X137650000Y-93137500D01*
X137648856Y-93160779D01*
X137645437Y-93183834D01*
X137639773Y-93206443D01*
X137631921Y-93228387D01*
X137621956Y-93249457D01*
X137609974Y-93269448D01*
X137596090Y-93288168D01*
X137580438Y-93305438D01*
X137563168Y-93321090D01*
X137544448Y-93334974D01*
X137524457Y-93346956D01*
X137503387Y-93356921D01*
X137481443Y-93364773D01*
X137458834Y-93370437D01*
X137435779Y-93373856D01*
X137412500Y-93375000D01*
X136837500Y-93375000D01*
X136814221Y-93373856D01*
X136791166Y-93370437D01*
X136768557Y-93364773D01*
X136746613Y-93356921D01*
X136725543Y-93346956D01*
X136705552Y-93334974D01*
X136686832Y-93321090D01*
X136669562Y-93305438D01*
X136653910Y-93288168D01*
X136640026Y-93269448D01*
X136628044Y-93249457D01*
X136618079Y-93228387D01*
X136610227Y-93206443D01*
X136604563Y-93183834D01*
X136601144Y-93160779D01*
X136600000Y-93137500D01*
X136600000Y-92662500D01*
X136601144Y-92639221D01*
X136604563Y-92616166D01*
X136610227Y-92593557D01*
X136618079Y-92571613D01*
X136628044Y-92550543D01*
X136640026Y-92530552D01*
X136653910Y-92511832D01*
X136669562Y-92494562D01*
X136686832Y-92478910D01*
X136705552Y-92465026D01*
X136725543Y-92453044D01*
X136746613Y-92443079D01*
X136768557Y-92435227D01*
X136791166Y-92429563D01*
X136814221Y-92426144D01*
X136837500Y-92425000D01*
X137412500Y-92425000D01*
X137435779Y-92426144D01*
X137435779Y-92426144D01*
G37*
D16*
X137125000Y-92900000D03*
D15*
G36*
X137285779Y-105426144D02*
G01*
X137308834Y-105429563D01*
X137331443Y-105435227D01*
X137353387Y-105443079D01*
X137374457Y-105453044D01*
X137394448Y-105465026D01*
X137413168Y-105478910D01*
X137430438Y-105494562D01*
X137446090Y-105511832D01*
X137459974Y-105530552D01*
X137471956Y-105550543D01*
X137481921Y-105571613D01*
X137489773Y-105593557D01*
X137495437Y-105616166D01*
X137498856Y-105639221D01*
X137500000Y-105662500D01*
X137500000Y-106137500D01*
X137498856Y-106160779D01*
X137495437Y-106183834D01*
X137489773Y-106206443D01*
X137481921Y-106228387D01*
X137471956Y-106249457D01*
X137459974Y-106269448D01*
X137446090Y-106288168D01*
X137430438Y-106305438D01*
X137413168Y-106321090D01*
X137394448Y-106334974D01*
X137374457Y-106346956D01*
X137353387Y-106356921D01*
X137331443Y-106364773D01*
X137308834Y-106370437D01*
X137285779Y-106373856D01*
X137262500Y-106375000D01*
X136687500Y-106375000D01*
X136664221Y-106373856D01*
X136641166Y-106370437D01*
X136618557Y-106364773D01*
X136596613Y-106356921D01*
X136575543Y-106346956D01*
X136555552Y-106334974D01*
X136536832Y-106321090D01*
X136519562Y-106305438D01*
X136503910Y-106288168D01*
X136490026Y-106269448D01*
X136478044Y-106249457D01*
X136468079Y-106228387D01*
X136460227Y-106206443D01*
X136454563Y-106183834D01*
X136451144Y-106160779D01*
X136450000Y-106137500D01*
X136450000Y-105662500D01*
X136451144Y-105639221D01*
X136454563Y-105616166D01*
X136460227Y-105593557D01*
X136468079Y-105571613D01*
X136478044Y-105550543D01*
X136490026Y-105530552D01*
X136503910Y-105511832D01*
X136519562Y-105494562D01*
X136536832Y-105478910D01*
X136555552Y-105465026D01*
X136575543Y-105453044D01*
X136596613Y-105443079D01*
X136618557Y-105435227D01*
X136641166Y-105429563D01*
X136664221Y-105426144D01*
X136687500Y-105425000D01*
X137262500Y-105425000D01*
X137285779Y-105426144D01*
X137285779Y-105426144D01*
G37*
D16*
X136975000Y-105900000D03*
D15*
G36*
X139035779Y-105426144D02*
G01*
X139058834Y-105429563D01*
X139081443Y-105435227D01*
X139103387Y-105443079D01*
X139124457Y-105453044D01*
X139144448Y-105465026D01*
X139163168Y-105478910D01*
X139180438Y-105494562D01*
X139196090Y-105511832D01*
X139209974Y-105530552D01*
X139221956Y-105550543D01*
X139231921Y-105571613D01*
X139239773Y-105593557D01*
X139245437Y-105616166D01*
X139248856Y-105639221D01*
X139250000Y-105662500D01*
X139250000Y-106137500D01*
X139248856Y-106160779D01*
X139245437Y-106183834D01*
X139239773Y-106206443D01*
X139231921Y-106228387D01*
X139221956Y-106249457D01*
X139209974Y-106269448D01*
X139196090Y-106288168D01*
X139180438Y-106305438D01*
X139163168Y-106321090D01*
X139144448Y-106334974D01*
X139124457Y-106346956D01*
X139103387Y-106356921D01*
X139081443Y-106364773D01*
X139058834Y-106370437D01*
X139035779Y-106373856D01*
X139012500Y-106375000D01*
X138437500Y-106375000D01*
X138414221Y-106373856D01*
X138391166Y-106370437D01*
X138368557Y-106364773D01*
X138346613Y-106356921D01*
X138325543Y-106346956D01*
X138305552Y-106334974D01*
X138286832Y-106321090D01*
X138269562Y-106305438D01*
X138253910Y-106288168D01*
X138240026Y-106269448D01*
X138228044Y-106249457D01*
X138218079Y-106228387D01*
X138210227Y-106206443D01*
X138204563Y-106183834D01*
X138201144Y-106160779D01*
X138200000Y-106137500D01*
X138200000Y-105662500D01*
X138201144Y-105639221D01*
X138204563Y-105616166D01*
X138210227Y-105593557D01*
X138218079Y-105571613D01*
X138228044Y-105550543D01*
X138240026Y-105530552D01*
X138253910Y-105511832D01*
X138269562Y-105494562D01*
X138286832Y-105478910D01*
X138305552Y-105465026D01*
X138325543Y-105453044D01*
X138346613Y-105443079D01*
X138368557Y-105435227D01*
X138391166Y-105429563D01*
X138414221Y-105426144D01*
X138437500Y-105425000D01*
X139012500Y-105425000D01*
X139035779Y-105426144D01*
X139035779Y-105426144D01*
G37*
D16*
X138725000Y-105900000D03*
D15*
G36*
X171035779Y-91426144D02*
G01*
X171058834Y-91429563D01*
X171081443Y-91435227D01*
X171103387Y-91443079D01*
X171124457Y-91453044D01*
X171144448Y-91465026D01*
X171163168Y-91478910D01*
X171180438Y-91494562D01*
X171196090Y-91511832D01*
X171209974Y-91530552D01*
X171221956Y-91550543D01*
X171231921Y-91571613D01*
X171239773Y-91593557D01*
X171245437Y-91616166D01*
X171248856Y-91639221D01*
X171250000Y-91662500D01*
X171250000Y-92137500D01*
X171248856Y-92160779D01*
X171245437Y-92183834D01*
X171239773Y-92206443D01*
X171231921Y-92228387D01*
X171221956Y-92249457D01*
X171209974Y-92269448D01*
X171196090Y-92288168D01*
X171180438Y-92305438D01*
X171163168Y-92321090D01*
X171144448Y-92334974D01*
X171124457Y-92346956D01*
X171103387Y-92356921D01*
X171081443Y-92364773D01*
X171058834Y-92370437D01*
X171035779Y-92373856D01*
X171012500Y-92375000D01*
X170437500Y-92375000D01*
X170414221Y-92373856D01*
X170391166Y-92370437D01*
X170368557Y-92364773D01*
X170346613Y-92356921D01*
X170325543Y-92346956D01*
X170305552Y-92334974D01*
X170286832Y-92321090D01*
X170269562Y-92305438D01*
X170253910Y-92288168D01*
X170240026Y-92269448D01*
X170228044Y-92249457D01*
X170218079Y-92228387D01*
X170210227Y-92206443D01*
X170204563Y-92183834D01*
X170201144Y-92160779D01*
X170200000Y-92137500D01*
X170200000Y-91662500D01*
X170201144Y-91639221D01*
X170204563Y-91616166D01*
X170210227Y-91593557D01*
X170218079Y-91571613D01*
X170228044Y-91550543D01*
X170240026Y-91530552D01*
X170253910Y-91511832D01*
X170269562Y-91494562D01*
X170286832Y-91478910D01*
X170305552Y-91465026D01*
X170325543Y-91453044D01*
X170346613Y-91443079D01*
X170368557Y-91435227D01*
X170391166Y-91429563D01*
X170414221Y-91426144D01*
X170437500Y-91425000D01*
X171012500Y-91425000D01*
X171035779Y-91426144D01*
X171035779Y-91426144D01*
G37*
D16*
X170725000Y-91900000D03*
D15*
G36*
X172785779Y-91426144D02*
G01*
X172808834Y-91429563D01*
X172831443Y-91435227D01*
X172853387Y-91443079D01*
X172874457Y-91453044D01*
X172894448Y-91465026D01*
X172913168Y-91478910D01*
X172930438Y-91494562D01*
X172946090Y-91511832D01*
X172959974Y-91530552D01*
X172971956Y-91550543D01*
X172981921Y-91571613D01*
X172989773Y-91593557D01*
X172995437Y-91616166D01*
X172998856Y-91639221D01*
X173000000Y-91662500D01*
X173000000Y-92137500D01*
X172998856Y-92160779D01*
X172995437Y-92183834D01*
X172989773Y-92206443D01*
X172981921Y-92228387D01*
X172971956Y-92249457D01*
X172959974Y-92269448D01*
X172946090Y-92288168D01*
X172930438Y-92305438D01*
X172913168Y-92321090D01*
X172894448Y-92334974D01*
X172874457Y-92346956D01*
X172853387Y-92356921D01*
X172831443Y-92364773D01*
X172808834Y-92370437D01*
X172785779Y-92373856D01*
X172762500Y-92375000D01*
X172187500Y-92375000D01*
X172164221Y-92373856D01*
X172141166Y-92370437D01*
X172118557Y-92364773D01*
X172096613Y-92356921D01*
X172075543Y-92346956D01*
X172055552Y-92334974D01*
X172036832Y-92321090D01*
X172019562Y-92305438D01*
X172003910Y-92288168D01*
X171990026Y-92269448D01*
X171978044Y-92249457D01*
X171968079Y-92228387D01*
X171960227Y-92206443D01*
X171954563Y-92183834D01*
X171951144Y-92160779D01*
X171950000Y-92137500D01*
X171950000Y-91662500D01*
X171951144Y-91639221D01*
X171954563Y-91616166D01*
X171960227Y-91593557D01*
X171968079Y-91571613D01*
X171978044Y-91550543D01*
X171990026Y-91530552D01*
X172003910Y-91511832D01*
X172019562Y-91494562D01*
X172036832Y-91478910D01*
X172055552Y-91465026D01*
X172075543Y-91453044D01*
X172096613Y-91443079D01*
X172118557Y-91435227D01*
X172141166Y-91429563D01*
X172164221Y-91426144D01*
X172187500Y-91425000D01*
X172762500Y-91425000D01*
X172785779Y-91426144D01*
X172785779Y-91426144D01*
G37*
D16*
X172475000Y-91900000D03*
D15*
G36*
X169010779Y-87951144D02*
G01*
X169033834Y-87954563D01*
X169056443Y-87960227D01*
X169078387Y-87968079D01*
X169099457Y-87978044D01*
X169119448Y-87990026D01*
X169138168Y-88003910D01*
X169155438Y-88019562D01*
X169171090Y-88036832D01*
X169184974Y-88055552D01*
X169196956Y-88075543D01*
X169206921Y-88096613D01*
X169214773Y-88118557D01*
X169220437Y-88141166D01*
X169223856Y-88164221D01*
X169225000Y-88187500D01*
X169225000Y-88762500D01*
X169223856Y-88785779D01*
X169220437Y-88808834D01*
X169214773Y-88831443D01*
X169206921Y-88853387D01*
X169196956Y-88874457D01*
X169184974Y-88894448D01*
X169171090Y-88913168D01*
X169155438Y-88930438D01*
X169138168Y-88946090D01*
X169119448Y-88959974D01*
X169099457Y-88971956D01*
X169078387Y-88981921D01*
X169056443Y-88989773D01*
X169033834Y-88995437D01*
X169010779Y-88998856D01*
X168987500Y-89000000D01*
X168512500Y-89000000D01*
X168489221Y-88998856D01*
X168466166Y-88995437D01*
X168443557Y-88989773D01*
X168421613Y-88981921D01*
X168400543Y-88971956D01*
X168380552Y-88959974D01*
X168361832Y-88946090D01*
X168344562Y-88930438D01*
X168328910Y-88913168D01*
X168315026Y-88894448D01*
X168303044Y-88874457D01*
X168293079Y-88853387D01*
X168285227Y-88831443D01*
X168279563Y-88808834D01*
X168276144Y-88785779D01*
X168275000Y-88762500D01*
X168275000Y-88187500D01*
X168276144Y-88164221D01*
X168279563Y-88141166D01*
X168285227Y-88118557D01*
X168293079Y-88096613D01*
X168303044Y-88075543D01*
X168315026Y-88055552D01*
X168328910Y-88036832D01*
X168344562Y-88019562D01*
X168361832Y-88003910D01*
X168380552Y-87990026D01*
X168400543Y-87978044D01*
X168421613Y-87968079D01*
X168443557Y-87960227D01*
X168466166Y-87954563D01*
X168489221Y-87951144D01*
X168512500Y-87950000D01*
X168987500Y-87950000D01*
X169010779Y-87951144D01*
X169010779Y-87951144D01*
G37*
D16*
X168750000Y-88475000D03*
D15*
G36*
X169010779Y-89701144D02*
G01*
X169033834Y-89704563D01*
X169056443Y-89710227D01*
X169078387Y-89718079D01*
X169099457Y-89728044D01*
X169119448Y-89740026D01*
X169138168Y-89753910D01*
X169155438Y-89769562D01*
X169171090Y-89786832D01*
X169184974Y-89805552D01*
X169196956Y-89825543D01*
X169206921Y-89846613D01*
X169214773Y-89868557D01*
X169220437Y-89891166D01*
X169223856Y-89914221D01*
X169225000Y-89937500D01*
X169225000Y-90512500D01*
X169223856Y-90535779D01*
X169220437Y-90558834D01*
X169214773Y-90581443D01*
X169206921Y-90603387D01*
X169196956Y-90624457D01*
X169184974Y-90644448D01*
X169171090Y-90663168D01*
X169155438Y-90680438D01*
X169138168Y-90696090D01*
X169119448Y-90709974D01*
X169099457Y-90721956D01*
X169078387Y-90731921D01*
X169056443Y-90739773D01*
X169033834Y-90745437D01*
X169010779Y-90748856D01*
X168987500Y-90750000D01*
X168512500Y-90750000D01*
X168489221Y-90748856D01*
X168466166Y-90745437D01*
X168443557Y-90739773D01*
X168421613Y-90731921D01*
X168400543Y-90721956D01*
X168380552Y-90709974D01*
X168361832Y-90696090D01*
X168344562Y-90680438D01*
X168328910Y-90663168D01*
X168315026Y-90644448D01*
X168303044Y-90624457D01*
X168293079Y-90603387D01*
X168285227Y-90581443D01*
X168279563Y-90558834D01*
X168276144Y-90535779D01*
X168275000Y-90512500D01*
X168275000Y-89937500D01*
X168276144Y-89914221D01*
X168279563Y-89891166D01*
X168285227Y-89868557D01*
X168293079Y-89846613D01*
X168303044Y-89825543D01*
X168315026Y-89805552D01*
X168328910Y-89786832D01*
X168344562Y-89769562D01*
X168361832Y-89753910D01*
X168380552Y-89740026D01*
X168400543Y-89728044D01*
X168421613Y-89718079D01*
X168443557Y-89710227D01*
X168466166Y-89704563D01*
X168489221Y-89701144D01*
X168512500Y-89700000D01*
X168987500Y-89700000D01*
X169010779Y-89701144D01*
X169010779Y-89701144D01*
G37*
D16*
X168750000Y-90225000D03*
D15*
G36*
X169010779Y-86201144D02*
G01*
X169033834Y-86204563D01*
X169056443Y-86210227D01*
X169078387Y-86218079D01*
X169099457Y-86228044D01*
X169119448Y-86240026D01*
X169138168Y-86253910D01*
X169155438Y-86269562D01*
X169171090Y-86286832D01*
X169184974Y-86305552D01*
X169196956Y-86325543D01*
X169206921Y-86346613D01*
X169214773Y-86368557D01*
X169220437Y-86391166D01*
X169223856Y-86414221D01*
X169225000Y-86437500D01*
X169225000Y-87012500D01*
X169223856Y-87035779D01*
X169220437Y-87058834D01*
X169214773Y-87081443D01*
X169206921Y-87103387D01*
X169196956Y-87124457D01*
X169184974Y-87144448D01*
X169171090Y-87163168D01*
X169155438Y-87180438D01*
X169138168Y-87196090D01*
X169119448Y-87209974D01*
X169099457Y-87221956D01*
X169078387Y-87231921D01*
X169056443Y-87239773D01*
X169033834Y-87245437D01*
X169010779Y-87248856D01*
X168987500Y-87250000D01*
X168512500Y-87250000D01*
X168489221Y-87248856D01*
X168466166Y-87245437D01*
X168443557Y-87239773D01*
X168421613Y-87231921D01*
X168400543Y-87221956D01*
X168380552Y-87209974D01*
X168361832Y-87196090D01*
X168344562Y-87180438D01*
X168328910Y-87163168D01*
X168315026Y-87144448D01*
X168303044Y-87124457D01*
X168293079Y-87103387D01*
X168285227Y-87081443D01*
X168279563Y-87058834D01*
X168276144Y-87035779D01*
X168275000Y-87012500D01*
X168275000Y-86437500D01*
X168276144Y-86414221D01*
X168279563Y-86391166D01*
X168285227Y-86368557D01*
X168293079Y-86346613D01*
X168303044Y-86325543D01*
X168315026Y-86305552D01*
X168328910Y-86286832D01*
X168344562Y-86269562D01*
X168361832Y-86253910D01*
X168380552Y-86240026D01*
X168400543Y-86228044D01*
X168421613Y-86218079D01*
X168443557Y-86210227D01*
X168466166Y-86204563D01*
X168489221Y-86201144D01*
X168512500Y-86200000D01*
X168987500Y-86200000D01*
X169010779Y-86201144D01*
X169010779Y-86201144D01*
G37*
D16*
X168750000Y-86725000D03*
D15*
G36*
X169010779Y-84451144D02*
G01*
X169033834Y-84454563D01*
X169056443Y-84460227D01*
X169078387Y-84468079D01*
X169099457Y-84478044D01*
X169119448Y-84490026D01*
X169138168Y-84503910D01*
X169155438Y-84519562D01*
X169171090Y-84536832D01*
X169184974Y-84555552D01*
X169196956Y-84575543D01*
X169206921Y-84596613D01*
X169214773Y-84618557D01*
X169220437Y-84641166D01*
X169223856Y-84664221D01*
X169225000Y-84687500D01*
X169225000Y-85262500D01*
X169223856Y-85285779D01*
X169220437Y-85308834D01*
X169214773Y-85331443D01*
X169206921Y-85353387D01*
X169196956Y-85374457D01*
X169184974Y-85394448D01*
X169171090Y-85413168D01*
X169155438Y-85430438D01*
X169138168Y-85446090D01*
X169119448Y-85459974D01*
X169099457Y-85471956D01*
X169078387Y-85481921D01*
X169056443Y-85489773D01*
X169033834Y-85495437D01*
X169010779Y-85498856D01*
X168987500Y-85500000D01*
X168512500Y-85500000D01*
X168489221Y-85498856D01*
X168466166Y-85495437D01*
X168443557Y-85489773D01*
X168421613Y-85481921D01*
X168400543Y-85471956D01*
X168380552Y-85459974D01*
X168361832Y-85446090D01*
X168344562Y-85430438D01*
X168328910Y-85413168D01*
X168315026Y-85394448D01*
X168303044Y-85374457D01*
X168293079Y-85353387D01*
X168285227Y-85331443D01*
X168279563Y-85308834D01*
X168276144Y-85285779D01*
X168275000Y-85262500D01*
X168275000Y-84687500D01*
X168276144Y-84664221D01*
X168279563Y-84641166D01*
X168285227Y-84618557D01*
X168293079Y-84596613D01*
X168303044Y-84575543D01*
X168315026Y-84555552D01*
X168328910Y-84536832D01*
X168344562Y-84519562D01*
X168361832Y-84503910D01*
X168380552Y-84490026D01*
X168400543Y-84478044D01*
X168421613Y-84468079D01*
X168443557Y-84460227D01*
X168466166Y-84454563D01*
X168489221Y-84451144D01*
X168512500Y-84450000D01*
X168987500Y-84450000D01*
X169010779Y-84451144D01*
X169010779Y-84451144D01*
G37*
D16*
X168750000Y-84975000D03*
D35*
X163850000Y-77750000D03*
X163850000Y-78700000D03*
X163850000Y-79650000D03*
X166550000Y-79650000D03*
X166550000Y-77750000D03*
X166550000Y-78700000D03*
D36*
X150850000Y-97750000D03*
X151950000Y-97750000D03*
X153050000Y-97750000D03*
X154150000Y-97750000D03*
X155250000Y-97750000D03*
X156350000Y-97750000D03*
X157450000Y-97750000D03*
X158550000Y-97750000D03*
X159650000Y-97750000D03*
X160750000Y-97750000D03*
X161850000Y-97750000D03*
X162950000Y-97750000D03*
D37*
X165700000Y-94300000D03*
X165700000Y-93200000D03*
X165700000Y-92100000D03*
X165700000Y-91000000D03*
X165700000Y-89900000D03*
X165700000Y-88800000D03*
X165700000Y-87700000D03*
X165700000Y-86600000D03*
X165700000Y-85500000D03*
D36*
X162950000Y-82050000D03*
X161850000Y-82050000D03*
X160750000Y-82050000D03*
X159650000Y-82050000D03*
X158550000Y-82050000D03*
X157450000Y-82050000D03*
X156350000Y-82050000D03*
X155250000Y-82050000D03*
X154150000Y-82050000D03*
X153050000Y-82050000D03*
X151950000Y-82050000D03*
X150850000Y-82050000D03*
D37*
X148100000Y-85500000D03*
X148100000Y-86600000D03*
X148100000Y-87700000D03*
X148100000Y-88800000D03*
X148100000Y-89900000D03*
X148100000Y-91000000D03*
X148100000Y-92100000D03*
X148100000Y-93200000D03*
X148100000Y-94300000D03*
D38*
X152000000Y-95250000D03*
X153400000Y-95250000D03*
X154800000Y-95250000D03*
X156200000Y-95250000D03*
X157600000Y-95250000D03*
X159000000Y-95250000D03*
X160400000Y-95250000D03*
X161800000Y-95250000D03*
D39*
X163200000Y-94100000D03*
X163200000Y-92700000D03*
X163200000Y-91300000D03*
X163200000Y-89900000D03*
X163200000Y-88500000D03*
X163200000Y-87100000D03*
X163200000Y-85700000D03*
D38*
X161800000Y-84550000D03*
X160400000Y-84550000D03*
X159000000Y-84550000D03*
X157600000Y-84550000D03*
X156200000Y-84550000D03*
D39*
X150600000Y-87100000D03*
X150600000Y-88500000D03*
X150600000Y-89900000D03*
X150600000Y-91300000D03*
X150600000Y-92700000D03*
X150600000Y-94100000D03*
D40*
X160300000Y-87000000D03*
X160300000Y-89900000D03*
X160300000Y-92800000D03*
X156900000Y-87000000D03*
X156900000Y-89900000D03*
X156900000Y-92800000D03*
X153500000Y-87000000D03*
X153500000Y-89900000D03*
D41*
X145595000Y-108642400D03*
X146865000Y-108642400D03*
X148135000Y-108642400D03*
X149405000Y-108642400D03*
X149405000Y-102957600D03*
X148135000Y-102957600D03*
X146865000Y-102957600D03*
X145595000Y-102957600D03*
D42*
X147500000Y-105800000D03*
D43*
X155450000Y-102850000D03*
X154800000Y-102850000D03*
X154150000Y-102850000D03*
X153500000Y-102850000D03*
X152850000Y-102850000D03*
X152200000Y-102850000D03*
X151550000Y-102850000D03*
X151550000Y-108750000D03*
X152200000Y-108750000D03*
X152850000Y-108750000D03*
X153500000Y-108750000D03*
X154150000Y-108750000D03*
X154800000Y-108750000D03*
X155450000Y-108750000D03*
D44*
X161800000Y-105650000D03*
X161800000Y-107550000D03*
X163800000Y-106600000D03*
D45*
X170750000Y-88950000D03*
X171700000Y-88950000D03*
X172650000Y-88950000D03*
X172650000Y-86250000D03*
X170750000Y-86250000D03*
M02*
