M48
; DRILL file {KiCad (5.1.4-0)} date 2021 September 04, Saturday 15:45:03
; FORMAT={-:-/ absolute / metric / decimal}
; #@! TF.CreationDate,2021-09-04T15:45:03+08:00
; #@! TF.GenerationSoftware,Kicad,Pcbnew,(5.1.4-0)
FMAT,2
METRIC
T1C0.400
T2C0.750
T3C1.000
T4C2.700
%
G90
G05
T1
X136.5Y-89.4
X137.0Y-79.0
X137.2Y-83.0
X138.3Y-107.2
X138.7Y-83.0
X139.0Y-71.0
X139.0Y-79.0
X139.75Y-96.95
X139.8Y-99.9
X140.5Y-92.2
X140.5Y-104.5
X140.55Y-95.95
X141.0Y-77.5
X141.0Y-82.0
X141.0Y-112.5
X141.0Y-116.0
X141.4Y-97.55
X141.4Y-99.3
X143.0Y-71.0
X143.0Y-76.0
X143.0Y-79.0
X143.45Y-97.2
X144.0Y-88.5
X144.1Y-108.8
X144.8Y-94.85
X145.5Y-73.5
X145.5Y-77.5
X145.55Y-97.2
X145.55Y-99.6
X145.65Y-101.45
X146.0Y-116.0
X146.15Y-89.25
X146.2Y-81.8
X146.35Y-92.0
X146.7Y-97.65
X146.7Y-99.15
X147.35Y-101.4
X147.4Y-105.9
X148.0Y-71.0
X148.0Y-76.0
X148.0Y-79.0
X148.0Y-83.5
X148.0Y-98.85
X148.05Y-110.65
X148.15Y-109.55
X148.8Y-95.45
X149.1Y-71.95
X149.1Y-101.45
X149.7Y-73.85
X149.9Y-96.8
X150.25Y-99.35
X150.65Y-74.8
X150.7Y-76.55
X150.7Y-78.4
X150.7Y-80.3
X151.0Y-116.0
X151.5Y-104.35
X153.25Y-76.55
X153.25Y-78.3
X153.5Y-87.0
X153.5Y-92.8
X153.85Y-89.9
X154.0Y-107.0
X154.3Y-73.85
X154.85Y-71.85
X155.0Y-80.35
X155.7Y-92.8
X156.0Y-71.0
X156.0Y-76.0
X156.0Y-79.5
X156.0Y-116.0
X156.95Y-87.1
X158.338Y-108.637
X158.35Y-100.65
X158.5Y-73.5
X158.5Y-78.0
X159.5Y-79.75
X160.2Y-87.05
X161.0Y-71.0
X161.0Y-76.0
X161.0Y-116.0
X162.3Y-78.7
X162.3Y-79.75
X164.5Y-86.55
X164.6Y-89.9
X164.6Y-92.15
X164.65Y-88.75
X164.65Y-91.0
X164.9Y-106.6
X166.0Y-71.0
X166.0Y-97.0
X166.0Y-116.0
X166.15Y-81.6
X167.4Y-84.5
X167.65Y-99.15
X167.85Y-76.7
X168.15Y-88.5
X168.5Y-109.0
X168.5Y-112.5
X169.7Y-84.3
X170.0Y-103.5
X171.0Y-71.0
X171.0Y-78.9
X171.0Y-109.0
X171.0Y-116.0
X171.7Y-90.0
X173.0Y-73.0
X173.0Y-107.0
X169.65Y-77.0
X169.65Y-81.0
T2
X167.3Y-104.8
X167.3Y-106.8
T3
X143.39Y-112.5
X145.93Y-112.5
X148.47Y-112.5
X151.01Y-112.5
X153.55Y-112.5
X156.09Y-112.5
X158.63Y-112.5
X161.17Y-112.5
X163.71Y-112.5
X166.25Y-112.5
T4
X138.5Y-112.5
X138.5Y-74.1
X171.0Y-112.5
T1
G00X171.6Y-76.175
M15
G01X172.4Y-76.175
M16
G05
G00X171.6Y-81.825
M15
G01X172.4Y-81.825
M16
G05
T0
M30
